M48
; DRILL file KiCad 10.0.3 date 2026-07-15T16:14:27
; FORMAT={-:-/ absolute / metric / decimal}
; #@! TF.CreationDate,2026-07-15T16:14:27-04:00
; #@! TF.GenerationSoftware,Kicad,Pcbnew,10.0.3
; #@! TF.FileFunction,Plated,1,2,PTH
FMAT,2
METRIC
; #@! TA.AperFunction,Plated,PTH,ComponentDrill
T1C0.200
; #@! TA.AperFunction,Plated,PTH,ViaDrill
T2C0.300
; #@! TA.AperFunction,Plated,PTH,ComponentDrill
T3C0.600
; #@! TA.AperFunction,Plated,PTH,ComponentDrill
T4C0.650
; #@! TA.AperFunction,Plated,PTH,ComponentDrill
T5C0.700
; #@! TA.AperFunction,Plated,PTH,ComponentDrill
T6C0.800
; #@! TA.AperFunction,Plated,PTH,ComponentDrill
T7C1.000
%
G90
G05
T1
X131.3Y-84.65
X131.3Y-85.75
X131.85Y-84.1
X131.85Y-85.2
X131.85Y-86.3
X132.4Y-84.65
X132.4Y-85.75
X132.95Y-84.1
X132.95Y-85.2
X132.95Y-86.3
X133.5Y-84.65
X133.5Y-85.75
T2
X129.8Y-114.7
X138.2Y-93.2
X138.6Y-110.5
X138.7Y-101.9
X143.5Y-103.2
X147.1Y-107.3
X147.6Y-88.7
X151.011Y-102.4
X151.528Y-107.193
X151.6Y-119.0
X152.324Y-102.35
X153.0Y-111.4
X154.0Y-80.25
X154.4Y-118.9
X155.9Y-108.5
X157.1Y-113.9
X157.1Y-118.9
X157.6Y-86.9
X157.8Y-82.8
X157.8Y-99.1
X157.889Y-104.262
X158.55Y-82.05
X159.2Y-86.9
X159.2Y-110.1
X159.2Y-114.9
X159.25Y-117.65
X160.7Y-94.2
X160.7Y-95.3
X162.7Y-76.5
X163.0Y-80.25
X163.1Y-79.0
X164.3Y-90.0
X164.5Y-86.5
X166.2Y-105.3
X167.8Y-105.3
X167.8Y-114.2
X171.3Y-105.5
X171.5Y-93.7
X172.875Y-90.062
X173.5Y-103.1
X176.7Y-99.7
X176.7Y-106.2
X178.1Y-85.012
X179.4Y-85.862
X179.4Y-87.263
T4
X127.665Y-98.34
X128.935Y-98.34
X141.2Y-77.43
X141.2Y-78.7
X141.2Y-79.97
X141.2Y-81.24
X141.2Y-86.765
X141.2Y-88.035
T7
X128.2Y-118.4
X130.7Y-118.4
X138.175Y-119.3
X141.175Y-119.3
X144.175Y-119.3
T3
G00X170.36Y-77.3
M15
G01X170.36Y-76.7
M16
G05
G00X170.36Y-81.1
M15
G01X170.36Y-80.5
M16
G05
G00X179.0Y-77.3
M15
G01X179.0Y-76.7
M16
G05
G00X179.0Y-81.1
M15
G01X179.0Y-80.5
M16
G05
T5
G00X134.925Y-118.85
M15
G01X134.925Y-119.75
M16
G05
G00X147.425Y-118.85
M15
G01X147.425Y-119.75
M16
G05
T6
G00X171.929Y-116.35
M15
G01X171.929Y-117.05
M16
G05
G00X172.379Y-108.35
M15
G01X172.379Y-109.05
M16
G05
G00X174.879Y-107.9
M15
G01X175.579Y-107.9
M16
G05
G00X178.079Y-108.35
M15
G01X178.079Y-109.05
M16
G05
G00X178.529Y-116.35
M15
G01X178.529Y-117.05
M16
G05
M30
