%TF.GenerationSoftware,KiCad,Pcbnew,10.0.3*%
%TF.CreationDate,2026-06-15T02:42:56-04:00*%
%TF.ProjectId,Electrocardiograma,456c6563-7472-46f6-9361-7264696f6772,rev?*%
%TF.SameCoordinates,Original*%
%TF.FileFunction,Legend,Top*%
%TF.FilePolarity,Positive*%
%FSLAX46Y46*%
G04 Gerber Fmt 4.6, Leading zero omitted, Abs format (unit mm)*
G04 Created by KiCad (PCBNEW 10.0.3) date 2026-06-15 02:42:56*
%MOMM*%
%LPD*%
G01*
G04 APERTURE LIST*
%ADD10C,0.150000*%
%ADD11C,0.120000*%
G04 APERTURE END LIST*
D10*
X56391666Y-84879819D02*
X56391666Y-85594104D01*
X56391666Y-85594104D02*
X56344047Y-85736961D01*
X56344047Y-85736961D02*
X56248809Y-85832200D01*
X56248809Y-85832200D02*
X56105952Y-85879819D01*
X56105952Y-85879819D02*
X56010714Y-85879819D01*
X57344047Y-84879819D02*
X56867857Y-84879819D01*
X56867857Y-84879819D02*
X56820238Y-85356009D01*
X56820238Y-85356009D02*
X56867857Y-85308390D01*
X56867857Y-85308390D02*
X56963095Y-85260771D01*
X56963095Y-85260771D02*
X57201190Y-85260771D01*
X57201190Y-85260771D02*
X57296428Y-85308390D01*
X57296428Y-85308390D02*
X57344047Y-85356009D01*
X57344047Y-85356009D02*
X57391666Y-85451247D01*
X57391666Y-85451247D02*
X57391666Y-85689342D01*
X57391666Y-85689342D02*
X57344047Y-85784580D01*
X57344047Y-85784580D02*
X57296428Y-85832200D01*
X57296428Y-85832200D02*
X57201190Y-85879819D01*
X57201190Y-85879819D02*
X56963095Y-85879819D01*
X56963095Y-85879819D02*
X56867857Y-85832200D01*
X56867857Y-85832200D02*
X56820238Y-85784580D01*
X56391666Y-77079819D02*
X56391666Y-77794104D01*
X56391666Y-77794104D02*
X56344047Y-77936961D01*
X56344047Y-77936961D02*
X56248809Y-78032200D01*
X56248809Y-78032200D02*
X56105952Y-78079819D01*
X56105952Y-78079819D02*
X56010714Y-78079819D01*
X57296428Y-77413152D02*
X57296428Y-78079819D01*
X57058333Y-77032200D02*
X56820238Y-77746485D01*
X56820238Y-77746485D02*
X57439285Y-77746485D01*
X56391666Y-69279819D02*
X56391666Y-69994104D01*
X56391666Y-69994104D02*
X56344047Y-70136961D01*
X56344047Y-70136961D02*
X56248809Y-70232200D01*
X56248809Y-70232200D02*
X56105952Y-70279819D01*
X56105952Y-70279819D02*
X56010714Y-70279819D01*
X56820238Y-69375057D02*
X56867857Y-69327438D01*
X56867857Y-69327438D02*
X56963095Y-69279819D01*
X56963095Y-69279819D02*
X57201190Y-69279819D01*
X57201190Y-69279819D02*
X57296428Y-69327438D01*
X57296428Y-69327438D02*
X57344047Y-69375057D01*
X57344047Y-69375057D02*
X57391666Y-69470295D01*
X57391666Y-69470295D02*
X57391666Y-69565533D01*
X57391666Y-69565533D02*
X57344047Y-69708390D01*
X57344047Y-69708390D02*
X56772619Y-70279819D01*
X56772619Y-70279819D02*
X57391666Y-70279819D01*
X54821905Y-64709819D02*
X54821905Y-63709819D01*
X54821905Y-63709819D02*
X55060000Y-63709819D01*
X55060000Y-63709819D02*
X55202857Y-63757438D01*
X55202857Y-63757438D02*
X55298095Y-63852676D01*
X55298095Y-63852676D02*
X55345714Y-63947914D01*
X55345714Y-63947914D02*
X55393333Y-64138390D01*
X55393333Y-64138390D02*
X55393333Y-64281247D01*
X55393333Y-64281247D02*
X55345714Y-64471723D01*
X55345714Y-64471723D02*
X55298095Y-64566961D01*
X55298095Y-64566961D02*
X55202857Y-64662200D01*
X55202857Y-64662200D02*
X55060000Y-64709819D01*
X55060000Y-64709819D02*
X54821905Y-64709819D01*
X56345714Y-64709819D02*
X55774286Y-64709819D01*
X56060000Y-64709819D02*
X56060000Y-63709819D01*
X56060000Y-63709819D02*
X55964762Y-63852676D01*
X55964762Y-63852676D02*
X55869524Y-63947914D01*
X55869524Y-63947914D02*
X55774286Y-63995533D01*
X31472142Y-53729819D02*
X31138809Y-53253628D01*
X30900714Y-53729819D02*
X30900714Y-52729819D01*
X30900714Y-52729819D02*
X31281666Y-52729819D01*
X31281666Y-52729819D02*
X31376904Y-52777438D01*
X31376904Y-52777438D02*
X31424523Y-52825057D01*
X31424523Y-52825057D02*
X31472142Y-52920295D01*
X31472142Y-52920295D02*
X31472142Y-53063152D01*
X31472142Y-53063152D02*
X31424523Y-53158390D01*
X31424523Y-53158390D02*
X31376904Y-53206009D01*
X31376904Y-53206009D02*
X31281666Y-53253628D01*
X31281666Y-53253628D02*
X30900714Y-53253628D01*
X32424523Y-53729819D02*
X31853095Y-53729819D01*
X32138809Y-53729819D02*
X32138809Y-52729819D01*
X32138809Y-52729819D02*
X32043571Y-52872676D01*
X32043571Y-52872676D02*
X31948333Y-52967914D01*
X31948333Y-52967914D02*
X31853095Y-53015533D01*
X33043571Y-52729819D02*
X33138809Y-52729819D01*
X33138809Y-52729819D02*
X33234047Y-52777438D01*
X33234047Y-52777438D02*
X33281666Y-52825057D01*
X33281666Y-52825057D02*
X33329285Y-52920295D01*
X33329285Y-52920295D02*
X33376904Y-53110771D01*
X33376904Y-53110771D02*
X33376904Y-53348866D01*
X33376904Y-53348866D02*
X33329285Y-53539342D01*
X33329285Y-53539342D02*
X33281666Y-53634580D01*
X33281666Y-53634580D02*
X33234047Y-53682200D01*
X33234047Y-53682200D02*
X33138809Y-53729819D01*
X33138809Y-53729819D02*
X33043571Y-53729819D01*
X33043571Y-53729819D02*
X32948333Y-53682200D01*
X32948333Y-53682200D02*
X32900714Y-53634580D01*
X32900714Y-53634580D02*
X32853095Y-53539342D01*
X32853095Y-53539342D02*
X32805476Y-53348866D01*
X32805476Y-53348866D02*
X32805476Y-53110771D01*
X32805476Y-53110771D02*
X32853095Y-52920295D01*
X32853095Y-52920295D02*
X32900714Y-52825057D01*
X32900714Y-52825057D02*
X32948333Y-52777438D01*
X32948333Y-52777438D02*
X33043571Y-52729819D01*
X62062142Y-52229819D02*
X61728809Y-51753628D01*
X61490714Y-52229819D02*
X61490714Y-51229819D01*
X61490714Y-51229819D02*
X61871666Y-51229819D01*
X61871666Y-51229819D02*
X61966904Y-51277438D01*
X61966904Y-51277438D02*
X62014523Y-51325057D01*
X62014523Y-51325057D02*
X62062142Y-51420295D01*
X62062142Y-51420295D02*
X62062142Y-51563152D01*
X62062142Y-51563152D02*
X62014523Y-51658390D01*
X62014523Y-51658390D02*
X61966904Y-51706009D01*
X61966904Y-51706009D02*
X61871666Y-51753628D01*
X61871666Y-51753628D02*
X61490714Y-51753628D01*
X62443095Y-51325057D02*
X62490714Y-51277438D01*
X62490714Y-51277438D02*
X62585952Y-51229819D01*
X62585952Y-51229819D02*
X62824047Y-51229819D01*
X62824047Y-51229819D02*
X62919285Y-51277438D01*
X62919285Y-51277438D02*
X62966904Y-51325057D01*
X62966904Y-51325057D02*
X63014523Y-51420295D01*
X63014523Y-51420295D02*
X63014523Y-51515533D01*
X63014523Y-51515533D02*
X62966904Y-51658390D01*
X62966904Y-51658390D02*
X62395476Y-52229819D01*
X62395476Y-52229819D02*
X63014523Y-52229819D01*
X63490714Y-52229819D02*
X63681190Y-52229819D01*
X63681190Y-52229819D02*
X63776428Y-52182200D01*
X63776428Y-52182200D02*
X63824047Y-52134580D01*
X63824047Y-52134580D02*
X63919285Y-51991723D01*
X63919285Y-51991723D02*
X63966904Y-51801247D01*
X63966904Y-51801247D02*
X63966904Y-51420295D01*
X63966904Y-51420295D02*
X63919285Y-51325057D01*
X63919285Y-51325057D02*
X63871666Y-51277438D01*
X63871666Y-51277438D02*
X63776428Y-51229819D01*
X63776428Y-51229819D02*
X63585952Y-51229819D01*
X63585952Y-51229819D02*
X63490714Y-51277438D01*
X63490714Y-51277438D02*
X63443095Y-51325057D01*
X63443095Y-51325057D02*
X63395476Y-51420295D01*
X63395476Y-51420295D02*
X63395476Y-51658390D01*
X63395476Y-51658390D02*
X63443095Y-51753628D01*
X63443095Y-51753628D02*
X63490714Y-51801247D01*
X63490714Y-51801247D02*
X63585952Y-51848866D01*
X63585952Y-51848866D02*
X63776428Y-51848866D01*
X63776428Y-51848866D02*
X63871666Y-51801247D01*
X63871666Y-51801247D02*
X63919285Y-51753628D01*
X63919285Y-51753628D02*
X63966904Y-51658390D01*
X27538333Y-62579819D02*
X27205000Y-62103628D01*
X26966905Y-62579819D02*
X26966905Y-61579819D01*
X26966905Y-61579819D02*
X27347857Y-61579819D01*
X27347857Y-61579819D02*
X27443095Y-61627438D01*
X27443095Y-61627438D02*
X27490714Y-61675057D01*
X27490714Y-61675057D02*
X27538333Y-61770295D01*
X27538333Y-61770295D02*
X27538333Y-61913152D01*
X27538333Y-61913152D02*
X27490714Y-62008390D01*
X27490714Y-62008390D02*
X27443095Y-62056009D01*
X27443095Y-62056009D02*
X27347857Y-62103628D01*
X27347857Y-62103628D02*
X26966905Y-62103628D01*
X28395476Y-61579819D02*
X28205000Y-61579819D01*
X28205000Y-61579819D02*
X28109762Y-61627438D01*
X28109762Y-61627438D02*
X28062143Y-61675057D01*
X28062143Y-61675057D02*
X27966905Y-61817914D01*
X27966905Y-61817914D02*
X27919286Y-62008390D01*
X27919286Y-62008390D02*
X27919286Y-62389342D01*
X27919286Y-62389342D02*
X27966905Y-62484580D01*
X27966905Y-62484580D02*
X28014524Y-62532200D01*
X28014524Y-62532200D02*
X28109762Y-62579819D01*
X28109762Y-62579819D02*
X28300238Y-62579819D01*
X28300238Y-62579819D02*
X28395476Y-62532200D01*
X28395476Y-62532200D02*
X28443095Y-62484580D01*
X28443095Y-62484580D02*
X28490714Y-62389342D01*
X28490714Y-62389342D02*
X28490714Y-62151247D01*
X28490714Y-62151247D02*
X28443095Y-62056009D01*
X28443095Y-62056009D02*
X28395476Y-62008390D01*
X28395476Y-62008390D02*
X28300238Y-61960771D01*
X28300238Y-61960771D02*
X28109762Y-61960771D01*
X28109762Y-61960771D02*
X28014524Y-62008390D01*
X28014524Y-62008390D02*
X27966905Y-62056009D01*
X27966905Y-62056009D02*
X27919286Y-62151247D01*
X28238333Y-77704580D02*
X28190714Y-77752200D01*
X28190714Y-77752200D02*
X28047857Y-77799819D01*
X28047857Y-77799819D02*
X27952619Y-77799819D01*
X27952619Y-77799819D02*
X27809762Y-77752200D01*
X27809762Y-77752200D02*
X27714524Y-77656961D01*
X27714524Y-77656961D02*
X27666905Y-77561723D01*
X27666905Y-77561723D02*
X27619286Y-77371247D01*
X27619286Y-77371247D02*
X27619286Y-77228390D01*
X27619286Y-77228390D02*
X27666905Y-77037914D01*
X27666905Y-77037914D02*
X27714524Y-76942676D01*
X27714524Y-76942676D02*
X27809762Y-76847438D01*
X27809762Y-76847438D02*
X27952619Y-76799819D01*
X27952619Y-76799819D02*
X28047857Y-76799819D01*
X28047857Y-76799819D02*
X28190714Y-76847438D01*
X28190714Y-76847438D02*
X28238333Y-76895057D01*
X28571667Y-76799819D02*
X29238333Y-76799819D01*
X29238333Y-76799819D02*
X28809762Y-77799819D01*
X48232142Y-87169819D02*
X47898809Y-86693628D01*
X47660714Y-87169819D02*
X47660714Y-86169819D01*
X47660714Y-86169819D02*
X48041666Y-86169819D01*
X48041666Y-86169819D02*
X48136904Y-86217438D01*
X48136904Y-86217438D02*
X48184523Y-86265057D01*
X48184523Y-86265057D02*
X48232142Y-86360295D01*
X48232142Y-86360295D02*
X48232142Y-86503152D01*
X48232142Y-86503152D02*
X48184523Y-86598390D01*
X48184523Y-86598390D02*
X48136904Y-86646009D01*
X48136904Y-86646009D02*
X48041666Y-86693628D01*
X48041666Y-86693628D02*
X47660714Y-86693628D01*
X48565476Y-86169819D02*
X49184523Y-86169819D01*
X49184523Y-86169819D02*
X48851190Y-86550771D01*
X48851190Y-86550771D02*
X48994047Y-86550771D01*
X48994047Y-86550771D02*
X49089285Y-86598390D01*
X49089285Y-86598390D02*
X49136904Y-86646009D01*
X49136904Y-86646009D02*
X49184523Y-86741247D01*
X49184523Y-86741247D02*
X49184523Y-86979342D01*
X49184523Y-86979342D02*
X49136904Y-87074580D01*
X49136904Y-87074580D02*
X49089285Y-87122200D01*
X49089285Y-87122200D02*
X48994047Y-87169819D01*
X48994047Y-87169819D02*
X48708333Y-87169819D01*
X48708333Y-87169819D02*
X48613095Y-87122200D01*
X48613095Y-87122200D02*
X48565476Y-87074580D01*
X49565476Y-86265057D02*
X49613095Y-86217438D01*
X49613095Y-86217438D02*
X49708333Y-86169819D01*
X49708333Y-86169819D02*
X49946428Y-86169819D01*
X49946428Y-86169819D02*
X50041666Y-86217438D01*
X50041666Y-86217438D02*
X50089285Y-86265057D01*
X50089285Y-86265057D02*
X50136904Y-86360295D01*
X50136904Y-86360295D02*
X50136904Y-86455533D01*
X50136904Y-86455533D02*
X50089285Y-86598390D01*
X50089285Y-86598390D02*
X49517857Y-87169819D01*
X49517857Y-87169819D02*
X50136904Y-87169819D01*
X31948333Y-47829819D02*
X31615000Y-47353628D01*
X31376905Y-47829819D02*
X31376905Y-46829819D01*
X31376905Y-46829819D02*
X31757857Y-46829819D01*
X31757857Y-46829819D02*
X31853095Y-46877438D01*
X31853095Y-46877438D02*
X31900714Y-46925057D01*
X31900714Y-46925057D02*
X31948333Y-47020295D01*
X31948333Y-47020295D02*
X31948333Y-47163152D01*
X31948333Y-47163152D02*
X31900714Y-47258390D01*
X31900714Y-47258390D02*
X31853095Y-47306009D01*
X31853095Y-47306009D02*
X31757857Y-47353628D01*
X31757857Y-47353628D02*
X31376905Y-47353628D01*
X32519762Y-47258390D02*
X32424524Y-47210771D01*
X32424524Y-47210771D02*
X32376905Y-47163152D01*
X32376905Y-47163152D02*
X32329286Y-47067914D01*
X32329286Y-47067914D02*
X32329286Y-47020295D01*
X32329286Y-47020295D02*
X32376905Y-46925057D01*
X32376905Y-46925057D02*
X32424524Y-46877438D01*
X32424524Y-46877438D02*
X32519762Y-46829819D01*
X32519762Y-46829819D02*
X32710238Y-46829819D01*
X32710238Y-46829819D02*
X32805476Y-46877438D01*
X32805476Y-46877438D02*
X32853095Y-46925057D01*
X32853095Y-46925057D02*
X32900714Y-47020295D01*
X32900714Y-47020295D02*
X32900714Y-47067914D01*
X32900714Y-47067914D02*
X32853095Y-47163152D01*
X32853095Y-47163152D02*
X32805476Y-47210771D01*
X32805476Y-47210771D02*
X32710238Y-47258390D01*
X32710238Y-47258390D02*
X32519762Y-47258390D01*
X32519762Y-47258390D02*
X32424524Y-47306009D01*
X32424524Y-47306009D02*
X32376905Y-47353628D01*
X32376905Y-47353628D02*
X32329286Y-47448866D01*
X32329286Y-47448866D02*
X32329286Y-47639342D01*
X32329286Y-47639342D02*
X32376905Y-47734580D01*
X32376905Y-47734580D02*
X32424524Y-47782200D01*
X32424524Y-47782200D02*
X32519762Y-47829819D01*
X32519762Y-47829819D02*
X32710238Y-47829819D01*
X32710238Y-47829819D02*
X32805476Y-47782200D01*
X32805476Y-47782200D02*
X32853095Y-47734580D01*
X32853095Y-47734580D02*
X32900714Y-47639342D01*
X32900714Y-47639342D02*
X32900714Y-47448866D01*
X32900714Y-47448866D02*
X32853095Y-47353628D01*
X32853095Y-47353628D02*
X32805476Y-47306009D01*
X32805476Y-47306009D02*
X32710238Y-47258390D01*
X42973095Y-70624819D02*
X42973095Y-71434342D01*
X42973095Y-71434342D02*
X43020714Y-71529580D01*
X43020714Y-71529580D02*
X43068333Y-71577200D01*
X43068333Y-71577200D02*
X43163571Y-71624819D01*
X43163571Y-71624819D02*
X43354047Y-71624819D01*
X43354047Y-71624819D02*
X43449285Y-71577200D01*
X43449285Y-71577200D02*
X43496904Y-71529580D01*
X43496904Y-71529580D02*
X43544523Y-71434342D01*
X43544523Y-71434342D02*
X43544523Y-70624819D01*
X43925476Y-70624819D02*
X44544523Y-70624819D01*
X44544523Y-70624819D02*
X44211190Y-71005771D01*
X44211190Y-71005771D02*
X44354047Y-71005771D01*
X44354047Y-71005771D02*
X44449285Y-71053390D01*
X44449285Y-71053390D02*
X44496904Y-71101009D01*
X44496904Y-71101009D02*
X44544523Y-71196247D01*
X44544523Y-71196247D02*
X44544523Y-71434342D01*
X44544523Y-71434342D02*
X44496904Y-71529580D01*
X44496904Y-71529580D02*
X44449285Y-71577200D01*
X44449285Y-71577200D02*
X44354047Y-71624819D01*
X44354047Y-71624819D02*
X44068333Y-71624819D01*
X44068333Y-71624819D02*
X43973095Y-71577200D01*
X43973095Y-71577200D02*
X43925476Y-71529580D01*
X74263095Y-33364819D02*
X74263095Y-34174342D01*
X74263095Y-34174342D02*
X74310714Y-34269580D01*
X74310714Y-34269580D02*
X74358333Y-34317200D01*
X74358333Y-34317200D02*
X74453571Y-34364819D01*
X74453571Y-34364819D02*
X74644047Y-34364819D01*
X74644047Y-34364819D02*
X74739285Y-34317200D01*
X74739285Y-34317200D02*
X74786904Y-34269580D01*
X74786904Y-34269580D02*
X74834523Y-34174342D01*
X74834523Y-34174342D02*
X74834523Y-33364819D01*
X75739285Y-33698152D02*
X75739285Y-34364819D01*
X75501190Y-33317200D02*
X75263095Y-34031485D01*
X75263095Y-34031485D02*
X75882142Y-34031485D01*
X28238333Y-74694580D02*
X28190714Y-74742200D01*
X28190714Y-74742200D02*
X28047857Y-74789819D01*
X28047857Y-74789819D02*
X27952619Y-74789819D01*
X27952619Y-74789819D02*
X27809762Y-74742200D01*
X27809762Y-74742200D02*
X27714524Y-74646961D01*
X27714524Y-74646961D02*
X27666905Y-74551723D01*
X27666905Y-74551723D02*
X27619286Y-74361247D01*
X27619286Y-74361247D02*
X27619286Y-74218390D01*
X27619286Y-74218390D02*
X27666905Y-74027914D01*
X27666905Y-74027914D02*
X27714524Y-73932676D01*
X27714524Y-73932676D02*
X27809762Y-73837438D01*
X27809762Y-73837438D02*
X27952619Y-73789819D01*
X27952619Y-73789819D02*
X28047857Y-73789819D01*
X28047857Y-73789819D02*
X28190714Y-73837438D01*
X28190714Y-73837438D02*
X28238333Y-73885057D01*
X28619286Y-73885057D02*
X28666905Y-73837438D01*
X28666905Y-73837438D02*
X28762143Y-73789819D01*
X28762143Y-73789819D02*
X29000238Y-73789819D01*
X29000238Y-73789819D02*
X29095476Y-73837438D01*
X29095476Y-73837438D02*
X29143095Y-73885057D01*
X29143095Y-73885057D02*
X29190714Y-73980295D01*
X29190714Y-73980295D02*
X29190714Y-74075533D01*
X29190714Y-74075533D02*
X29143095Y-74218390D01*
X29143095Y-74218390D02*
X28571667Y-74789819D01*
X28571667Y-74789819D02*
X29190714Y-74789819D01*
X56453095Y-58014819D02*
X56453095Y-58824342D01*
X56453095Y-58824342D02*
X56500714Y-58919580D01*
X56500714Y-58919580D02*
X56548333Y-58967200D01*
X56548333Y-58967200D02*
X56643571Y-59014819D01*
X56643571Y-59014819D02*
X56834047Y-59014819D01*
X56834047Y-59014819D02*
X56929285Y-58967200D01*
X56929285Y-58967200D02*
X56976904Y-58919580D01*
X56976904Y-58919580D02*
X57024523Y-58824342D01*
X57024523Y-58824342D02*
X57024523Y-58014819D01*
X58024523Y-59014819D02*
X57453095Y-59014819D01*
X57738809Y-59014819D02*
X57738809Y-58014819D01*
X57738809Y-58014819D02*
X57643571Y-58157676D01*
X57643571Y-58157676D02*
X57548333Y-58252914D01*
X57548333Y-58252914D02*
X57453095Y-58300533D01*
X27538333Y-56679819D02*
X27205000Y-56203628D01*
X26966905Y-56679819D02*
X26966905Y-55679819D01*
X26966905Y-55679819D02*
X27347857Y-55679819D01*
X27347857Y-55679819D02*
X27443095Y-55727438D01*
X27443095Y-55727438D02*
X27490714Y-55775057D01*
X27490714Y-55775057D02*
X27538333Y-55870295D01*
X27538333Y-55870295D02*
X27538333Y-56013152D01*
X27538333Y-56013152D02*
X27490714Y-56108390D01*
X27490714Y-56108390D02*
X27443095Y-56156009D01*
X27443095Y-56156009D02*
X27347857Y-56203628D01*
X27347857Y-56203628D02*
X26966905Y-56203628D01*
X28395476Y-56013152D02*
X28395476Y-56679819D01*
X28157381Y-55632200D02*
X27919286Y-56346485D01*
X27919286Y-56346485D02*
X28538333Y-56346485D01*
X33172142Y-88434580D02*
X33124523Y-88482200D01*
X33124523Y-88482200D02*
X32981666Y-88529819D01*
X32981666Y-88529819D02*
X32886428Y-88529819D01*
X32886428Y-88529819D02*
X32743571Y-88482200D01*
X32743571Y-88482200D02*
X32648333Y-88386961D01*
X32648333Y-88386961D02*
X32600714Y-88291723D01*
X32600714Y-88291723D02*
X32553095Y-88101247D01*
X32553095Y-88101247D02*
X32553095Y-87958390D01*
X32553095Y-87958390D02*
X32600714Y-87767914D01*
X32600714Y-87767914D02*
X32648333Y-87672676D01*
X32648333Y-87672676D02*
X32743571Y-87577438D01*
X32743571Y-87577438D02*
X32886428Y-87529819D01*
X32886428Y-87529819D02*
X32981666Y-87529819D01*
X32981666Y-87529819D02*
X33124523Y-87577438D01*
X33124523Y-87577438D02*
X33172142Y-87625057D01*
X34124523Y-88529819D02*
X33553095Y-88529819D01*
X33838809Y-88529819D02*
X33838809Y-87529819D01*
X33838809Y-87529819D02*
X33743571Y-87672676D01*
X33743571Y-87672676D02*
X33648333Y-87767914D01*
X33648333Y-87767914D02*
X33553095Y-87815533D01*
X34457857Y-87529819D02*
X35076904Y-87529819D01*
X35076904Y-87529819D02*
X34743571Y-87910771D01*
X34743571Y-87910771D02*
X34886428Y-87910771D01*
X34886428Y-87910771D02*
X34981666Y-87958390D01*
X34981666Y-87958390D02*
X35029285Y-88006009D01*
X35029285Y-88006009D02*
X35076904Y-88101247D01*
X35076904Y-88101247D02*
X35076904Y-88339342D01*
X35076904Y-88339342D02*
X35029285Y-88434580D01*
X35029285Y-88434580D02*
X34981666Y-88482200D01*
X34981666Y-88482200D02*
X34886428Y-88529819D01*
X34886428Y-88529819D02*
X34600714Y-88529819D01*
X34600714Y-88529819D02*
X34505476Y-88482200D01*
X34505476Y-88482200D02*
X34457857Y-88434580D01*
X62062142Y-55179819D02*
X61728809Y-54703628D01*
X61490714Y-55179819D02*
X61490714Y-54179819D01*
X61490714Y-54179819D02*
X61871666Y-54179819D01*
X61871666Y-54179819D02*
X61966904Y-54227438D01*
X61966904Y-54227438D02*
X62014523Y-54275057D01*
X62014523Y-54275057D02*
X62062142Y-54370295D01*
X62062142Y-54370295D02*
X62062142Y-54513152D01*
X62062142Y-54513152D02*
X62014523Y-54608390D01*
X62014523Y-54608390D02*
X61966904Y-54656009D01*
X61966904Y-54656009D02*
X61871666Y-54703628D01*
X61871666Y-54703628D02*
X61490714Y-54703628D01*
X62395476Y-54179819D02*
X63014523Y-54179819D01*
X63014523Y-54179819D02*
X62681190Y-54560771D01*
X62681190Y-54560771D02*
X62824047Y-54560771D01*
X62824047Y-54560771D02*
X62919285Y-54608390D01*
X62919285Y-54608390D02*
X62966904Y-54656009D01*
X62966904Y-54656009D02*
X63014523Y-54751247D01*
X63014523Y-54751247D02*
X63014523Y-54989342D01*
X63014523Y-54989342D02*
X62966904Y-55084580D01*
X62966904Y-55084580D02*
X62919285Y-55132200D01*
X62919285Y-55132200D02*
X62824047Y-55179819D01*
X62824047Y-55179819D02*
X62538333Y-55179819D01*
X62538333Y-55179819D02*
X62443095Y-55132200D01*
X62443095Y-55132200D02*
X62395476Y-55084580D01*
X63633571Y-54179819D02*
X63728809Y-54179819D01*
X63728809Y-54179819D02*
X63824047Y-54227438D01*
X63824047Y-54227438D02*
X63871666Y-54275057D01*
X63871666Y-54275057D02*
X63919285Y-54370295D01*
X63919285Y-54370295D02*
X63966904Y-54560771D01*
X63966904Y-54560771D02*
X63966904Y-54798866D01*
X63966904Y-54798866D02*
X63919285Y-54989342D01*
X63919285Y-54989342D02*
X63871666Y-55084580D01*
X63871666Y-55084580D02*
X63824047Y-55132200D01*
X63824047Y-55132200D02*
X63728809Y-55179819D01*
X63728809Y-55179819D02*
X63633571Y-55179819D01*
X63633571Y-55179819D02*
X63538333Y-55132200D01*
X63538333Y-55132200D02*
X63490714Y-55084580D01*
X63490714Y-55084580D02*
X63443095Y-54989342D01*
X63443095Y-54989342D02*
X63395476Y-54798866D01*
X63395476Y-54798866D02*
X63395476Y-54560771D01*
X63395476Y-54560771D02*
X63443095Y-54370295D01*
X63443095Y-54370295D02*
X63490714Y-54275057D01*
X63490714Y-54275057D02*
X63538333Y-54227438D01*
X63538333Y-54227438D02*
X63633571Y-54179819D01*
X40292142Y-62579819D02*
X39958809Y-62103628D01*
X39720714Y-62579819D02*
X39720714Y-61579819D01*
X39720714Y-61579819D02*
X40101666Y-61579819D01*
X40101666Y-61579819D02*
X40196904Y-61627438D01*
X40196904Y-61627438D02*
X40244523Y-61675057D01*
X40244523Y-61675057D02*
X40292142Y-61770295D01*
X40292142Y-61770295D02*
X40292142Y-61913152D01*
X40292142Y-61913152D02*
X40244523Y-62008390D01*
X40244523Y-62008390D02*
X40196904Y-62056009D01*
X40196904Y-62056009D02*
X40101666Y-62103628D01*
X40101666Y-62103628D02*
X39720714Y-62103628D01*
X40673095Y-61675057D02*
X40720714Y-61627438D01*
X40720714Y-61627438D02*
X40815952Y-61579819D01*
X40815952Y-61579819D02*
X41054047Y-61579819D01*
X41054047Y-61579819D02*
X41149285Y-61627438D01*
X41149285Y-61627438D02*
X41196904Y-61675057D01*
X41196904Y-61675057D02*
X41244523Y-61770295D01*
X41244523Y-61770295D02*
X41244523Y-61865533D01*
X41244523Y-61865533D02*
X41196904Y-62008390D01*
X41196904Y-62008390D02*
X40625476Y-62579819D01*
X40625476Y-62579819D02*
X41244523Y-62579819D01*
X41577857Y-61579819D02*
X42244523Y-61579819D01*
X42244523Y-61579819D02*
X41815952Y-62579819D01*
X31472142Y-62579819D02*
X31138809Y-62103628D01*
X30900714Y-62579819D02*
X30900714Y-61579819D01*
X30900714Y-61579819D02*
X31281666Y-61579819D01*
X31281666Y-61579819D02*
X31376904Y-61627438D01*
X31376904Y-61627438D02*
X31424523Y-61675057D01*
X31424523Y-61675057D02*
X31472142Y-61770295D01*
X31472142Y-61770295D02*
X31472142Y-61913152D01*
X31472142Y-61913152D02*
X31424523Y-62008390D01*
X31424523Y-62008390D02*
X31376904Y-62056009D01*
X31376904Y-62056009D02*
X31281666Y-62103628D01*
X31281666Y-62103628D02*
X30900714Y-62103628D01*
X32424523Y-62579819D02*
X31853095Y-62579819D01*
X32138809Y-62579819D02*
X32138809Y-61579819D01*
X32138809Y-61579819D02*
X32043571Y-61722676D01*
X32043571Y-61722676D02*
X31948333Y-61817914D01*
X31948333Y-61817914D02*
X31853095Y-61865533D01*
X32757857Y-61579819D02*
X33376904Y-61579819D01*
X33376904Y-61579819D02*
X33043571Y-61960771D01*
X33043571Y-61960771D02*
X33186428Y-61960771D01*
X33186428Y-61960771D02*
X33281666Y-62008390D01*
X33281666Y-62008390D02*
X33329285Y-62056009D01*
X33329285Y-62056009D02*
X33376904Y-62151247D01*
X33376904Y-62151247D02*
X33376904Y-62389342D01*
X33376904Y-62389342D02*
X33329285Y-62484580D01*
X33329285Y-62484580D02*
X33281666Y-62532200D01*
X33281666Y-62532200D02*
X33186428Y-62579819D01*
X33186428Y-62579819D02*
X32900714Y-62579819D01*
X32900714Y-62579819D02*
X32805476Y-62532200D01*
X32805476Y-62532200D02*
X32757857Y-62484580D01*
X27538333Y-59629819D02*
X27205000Y-59153628D01*
X26966905Y-59629819D02*
X26966905Y-58629819D01*
X26966905Y-58629819D02*
X27347857Y-58629819D01*
X27347857Y-58629819D02*
X27443095Y-58677438D01*
X27443095Y-58677438D02*
X27490714Y-58725057D01*
X27490714Y-58725057D02*
X27538333Y-58820295D01*
X27538333Y-58820295D02*
X27538333Y-58963152D01*
X27538333Y-58963152D02*
X27490714Y-59058390D01*
X27490714Y-59058390D02*
X27443095Y-59106009D01*
X27443095Y-59106009D02*
X27347857Y-59153628D01*
X27347857Y-59153628D02*
X26966905Y-59153628D01*
X28443095Y-58629819D02*
X27966905Y-58629819D01*
X27966905Y-58629819D02*
X27919286Y-59106009D01*
X27919286Y-59106009D02*
X27966905Y-59058390D01*
X27966905Y-59058390D02*
X28062143Y-59010771D01*
X28062143Y-59010771D02*
X28300238Y-59010771D01*
X28300238Y-59010771D02*
X28395476Y-59058390D01*
X28395476Y-59058390D02*
X28443095Y-59106009D01*
X28443095Y-59106009D02*
X28490714Y-59201247D01*
X28490714Y-59201247D02*
X28490714Y-59439342D01*
X28490714Y-59439342D02*
X28443095Y-59534580D01*
X28443095Y-59534580D02*
X28395476Y-59582200D01*
X28395476Y-59582200D02*
X28300238Y-59629819D01*
X28300238Y-59629819D02*
X28062143Y-59629819D01*
X28062143Y-59629819D02*
X27966905Y-59582200D01*
X27966905Y-59582200D02*
X27919286Y-59534580D01*
X28238333Y-80714580D02*
X28190714Y-80762200D01*
X28190714Y-80762200D02*
X28047857Y-80809819D01*
X28047857Y-80809819D02*
X27952619Y-80809819D01*
X27952619Y-80809819D02*
X27809762Y-80762200D01*
X27809762Y-80762200D02*
X27714524Y-80666961D01*
X27714524Y-80666961D02*
X27666905Y-80571723D01*
X27666905Y-80571723D02*
X27619286Y-80381247D01*
X27619286Y-80381247D02*
X27619286Y-80238390D01*
X27619286Y-80238390D02*
X27666905Y-80047914D01*
X27666905Y-80047914D02*
X27714524Y-79952676D01*
X27714524Y-79952676D02*
X27809762Y-79857438D01*
X27809762Y-79857438D02*
X27952619Y-79809819D01*
X27952619Y-79809819D02*
X28047857Y-79809819D01*
X28047857Y-79809819D02*
X28190714Y-79857438D01*
X28190714Y-79857438D02*
X28238333Y-79905057D01*
X28714524Y-80809819D02*
X28905000Y-80809819D01*
X28905000Y-80809819D02*
X29000238Y-80762200D01*
X29000238Y-80762200D02*
X29047857Y-80714580D01*
X29047857Y-80714580D02*
X29143095Y-80571723D01*
X29143095Y-80571723D02*
X29190714Y-80381247D01*
X29190714Y-80381247D02*
X29190714Y-80000295D01*
X29190714Y-80000295D02*
X29143095Y-79905057D01*
X29143095Y-79905057D02*
X29095476Y-79857438D01*
X29095476Y-79857438D02*
X29000238Y-79809819D01*
X29000238Y-79809819D02*
X28809762Y-79809819D01*
X28809762Y-79809819D02*
X28714524Y-79857438D01*
X28714524Y-79857438D02*
X28666905Y-79905057D01*
X28666905Y-79905057D02*
X28619286Y-80000295D01*
X28619286Y-80000295D02*
X28619286Y-80238390D01*
X28619286Y-80238390D02*
X28666905Y-80333628D01*
X28666905Y-80333628D02*
X28714524Y-80381247D01*
X28714524Y-80381247D02*
X28809762Y-80428866D01*
X28809762Y-80428866D02*
X29000238Y-80428866D01*
X29000238Y-80428866D02*
X29095476Y-80381247D01*
X29095476Y-80381247D02*
X29143095Y-80333628D01*
X29143095Y-80333628D02*
X29190714Y-80238390D01*
X40983095Y-83094819D02*
X40983095Y-83904342D01*
X40983095Y-83904342D02*
X41030714Y-83999580D01*
X41030714Y-83999580D02*
X41078333Y-84047200D01*
X41078333Y-84047200D02*
X41173571Y-84094819D01*
X41173571Y-84094819D02*
X41364047Y-84094819D01*
X41364047Y-84094819D02*
X41459285Y-84047200D01*
X41459285Y-84047200D02*
X41506904Y-83999580D01*
X41506904Y-83999580D02*
X41554523Y-83904342D01*
X41554523Y-83904342D02*
X41554523Y-83094819D01*
X42459285Y-83094819D02*
X42268809Y-83094819D01*
X42268809Y-83094819D02*
X42173571Y-83142438D01*
X42173571Y-83142438D02*
X42125952Y-83190057D01*
X42125952Y-83190057D02*
X42030714Y-83332914D01*
X42030714Y-83332914D02*
X41983095Y-83523390D01*
X41983095Y-83523390D02*
X41983095Y-83904342D01*
X41983095Y-83904342D02*
X42030714Y-83999580D01*
X42030714Y-83999580D02*
X42078333Y-84047200D01*
X42078333Y-84047200D02*
X42173571Y-84094819D01*
X42173571Y-84094819D02*
X42364047Y-84094819D01*
X42364047Y-84094819D02*
X42459285Y-84047200D01*
X42459285Y-84047200D02*
X42506904Y-83999580D01*
X42506904Y-83999580D02*
X42554523Y-83904342D01*
X42554523Y-83904342D02*
X42554523Y-83666247D01*
X42554523Y-83666247D02*
X42506904Y-83571009D01*
X42506904Y-83571009D02*
X42459285Y-83523390D01*
X42459285Y-83523390D02*
X42364047Y-83475771D01*
X42364047Y-83475771D02*
X42173571Y-83475771D01*
X42173571Y-83475771D02*
X42078333Y-83523390D01*
X42078333Y-83523390D02*
X42030714Y-83571009D01*
X42030714Y-83571009D02*
X41983095Y-83666247D01*
X33648333Y-71684580D02*
X33600714Y-71732200D01*
X33600714Y-71732200D02*
X33457857Y-71779819D01*
X33457857Y-71779819D02*
X33362619Y-71779819D01*
X33362619Y-71779819D02*
X33219762Y-71732200D01*
X33219762Y-71732200D02*
X33124524Y-71636961D01*
X33124524Y-71636961D02*
X33076905Y-71541723D01*
X33076905Y-71541723D02*
X33029286Y-71351247D01*
X33029286Y-71351247D02*
X33029286Y-71208390D01*
X33029286Y-71208390D02*
X33076905Y-71017914D01*
X33076905Y-71017914D02*
X33124524Y-70922676D01*
X33124524Y-70922676D02*
X33219762Y-70827438D01*
X33219762Y-70827438D02*
X33362619Y-70779819D01*
X33362619Y-70779819D02*
X33457857Y-70779819D01*
X33457857Y-70779819D02*
X33600714Y-70827438D01*
X33600714Y-70827438D02*
X33648333Y-70875057D01*
X33981667Y-70779819D02*
X34600714Y-70779819D01*
X34600714Y-70779819D02*
X34267381Y-71160771D01*
X34267381Y-71160771D02*
X34410238Y-71160771D01*
X34410238Y-71160771D02*
X34505476Y-71208390D01*
X34505476Y-71208390D02*
X34553095Y-71256009D01*
X34553095Y-71256009D02*
X34600714Y-71351247D01*
X34600714Y-71351247D02*
X34600714Y-71589342D01*
X34600714Y-71589342D02*
X34553095Y-71684580D01*
X34553095Y-71684580D02*
X34505476Y-71732200D01*
X34505476Y-71732200D02*
X34410238Y-71779819D01*
X34410238Y-71779819D02*
X34124524Y-71779819D01*
X34124524Y-71779819D02*
X34029286Y-71732200D01*
X34029286Y-71732200D02*
X33981667Y-71684580D01*
X40292142Y-50779819D02*
X39958809Y-50303628D01*
X39720714Y-50779819D02*
X39720714Y-49779819D01*
X39720714Y-49779819D02*
X40101666Y-49779819D01*
X40101666Y-49779819D02*
X40196904Y-49827438D01*
X40196904Y-49827438D02*
X40244523Y-49875057D01*
X40244523Y-49875057D02*
X40292142Y-49970295D01*
X40292142Y-49970295D02*
X40292142Y-50113152D01*
X40292142Y-50113152D02*
X40244523Y-50208390D01*
X40244523Y-50208390D02*
X40196904Y-50256009D01*
X40196904Y-50256009D02*
X40101666Y-50303628D01*
X40101666Y-50303628D02*
X39720714Y-50303628D01*
X40673095Y-49875057D02*
X40720714Y-49827438D01*
X40720714Y-49827438D02*
X40815952Y-49779819D01*
X40815952Y-49779819D02*
X41054047Y-49779819D01*
X41054047Y-49779819D02*
X41149285Y-49827438D01*
X41149285Y-49827438D02*
X41196904Y-49875057D01*
X41196904Y-49875057D02*
X41244523Y-49970295D01*
X41244523Y-49970295D02*
X41244523Y-50065533D01*
X41244523Y-50065533D02*
X41196904Y-50208390D01*
X41196904Y-50208390D02*
X40625476Y-50779819D01*
X40625476Y-50779819D02*
X41244523Y-50779819D01*
X41577857Y-49779819D02*
X42196904Y-49779819D01*
X42196904Y-49779819D02*
X41863571Y-50160771D01*
X41863571Y-50160771D02*
X42006428Y-50160771D01*
X42006428Y-50160771D02*
X42101666Y-50208390D01*
X42101666Y-50208390D02*
X42149285Y-50256009D01*
X42149285Y-50256009D02*
X42196904Y-50351247D01*
X42196904Y-50351247D02*
X42196904Y-50589342D01*
X42196904Y-50589342D02*
X42149285Y-50684580D01*
X42149285Y-50684580D02*
X42101666Y-50732200D01*
X42101666Y-50732200D02*
X42006428Y-50779819D01*
X42006428Y-50779819D02*
X41720714Y-50779819D01*
X41720714Y-50779819D02*
X41625476Y-50732200D01*
X41625476Y-50732200D02*
X41577857Y-50684580D01*
X31472142Y-65529819D02*
X31138809Y-65053628D01*
X30900714Y-65529819D02*
X30900714Y-64529819D01*
X30900714Y-64529819D02*
X31281666Y-64529819D01*
X31281666Y-64529819D02*
X31376904Y-64577438D01*
X31376904Y-64577438D02*
X31424523Y-64625057D01*
X31424523Y-64625057D02*
X31472142Y-64720295D01*
X31472142Y-64720295D02*
X31472142Y-64863152D01*
X31472142Y-64863152D02*
X31424523Y-64958390D01*
X31424523Y-64958390D02*
X31376904Y-65006009D01*
X31376904Y-65006009D02*
X31281666Y-65053628D01*
X31281666Y-65053628D02*
X30900714Y-65053628D01*
X32424523Y-65529819D02*
X31853095Y-65529819D01*
X32138809Y-65529819D02*
X32138809Y-64529819D01*
X32138809Y-64529819D02*
X32043571Y-64672676D01*
X32043571Y-64672676D02*
X31948333Y-64767914D01*
X31948333Y-64767914D02*
X31853095Y-64815533D01*
X33281666Y-64863152D02*
X33281666Y-65529819D01*
X33043571Y-64482200D02*
X32805476Y-65196485D01*
X32805476Y-65196485D02*
X33424523Y-65196485D01*
X29229819Y-45766904D02*
X30039342Y-45766904D01*
X30039342Y-45766904D02*
X30134580Y-45719285D01*
X30134580Y-45719285D02*
X30182200Y-45671666D01*
X30182200Y-45671666D02*
X30229819Y-45576428D01*
X30229819Y-45576428D02*
X30229819Y-45385952D01*
X30229819Y-45385952D02*
X30182200Y-45290714D01*
X30182200Y-45290714D02*
X30134580Y-45243095D01*
X30134580Y-45243095D02*
X30039342Y-45195476D01*
X30039342Y-45195476D02*
X29229819Y-45195476D01*
X29325057Y-44766904D02*
X29277438Y-44719285D01*
X29277438Y-44719285D02*
X29229819Y-44624047D01*
X29229819Y-44624047D02*
X29229819Y-44385952D01*
X29229819Y-44385952D02*
X29277438Y-44290714D01*
X29277438Y-44290714D02*
X29325057Y-44243095D01*
X29325057Y-44243095D02*
X29420295Y-44195476D01*
X29420295Y-44195476D02*
X29515533Y-44195476D01*
X29515533Y-44195476D02*
X29658390Y-44243095D01*
X29658390Y-44243095D02*
X30229819Y-44814523D01*
X30229819Y-44814523D02*
X30229819Y-44195476D01*
X35882142Y-62579819D02*
X35548809Y-62103628D01*
X35310714Y-62579819D02*
X35310714Y-61579819D01*
X35310714Y-61579819D02*
X35691666Y-61579819D01*
X35691666Y-61579819D02*
X35786904Y-61627438D01*
X35786904Y-61627438D02*
X35834523Y-61675057D01*
X35834523Y-61675057D02*
X35882142Y-61770295D01*
X35882142Y-61770295D02*
X35882142Y-61913152D01*
X35882142Y-61913152D02*
X35834523Y-62008390D01*
X35834523Y-62008390D02*
X35786904Y-62056009D01*
X35786904Y-62056009D02*
X35691666Y-62103628D01*
X35691666Y-62103628D02*
X35310714Y-62103628D01*
X36263095Y-61675057D02*
X36310714Y-61627438D01*
X36310714Y-61627438D02*
X36405952Y-61579819D01*
X36405952Y-61579819D02*
X36644047Y-61579819D01*
X36644047Y-61579819D02*
X36739285Y-61627438D01*
X36739285Y-61627438D02*
X36786904Y-61675057D01*
X36786904Y-61675057D02*
X36834523Y-61770295D01*
X36834523Y-61770295D02*
X36834523Y-61865533D01*
X36834523Y-61865533D02*
X36786904Y-62008390D01*
X36786904Y-62008390D02*
X36215476Y-62579819D01*
X36215476Y-62579819D02*
X36834523Y-62579819D01*
X37453571Y-61579819D02*
X37548809Y-61579819D01*
X37548809Y-61579819D02*
X37644047Y-61627438D01*
X37644047Y-61627438D02*
X37691666Y-61675057D01*
X37691666Y-61675057D02*
X37739285Y-61770295D01*
X37739285Y-61770295D02*
X37786904Y-61960771D01*
X37786904Y-61960771D02*
X37786904Y-62198866D01*
X37786904Y-62198866D02*
X37739285Y-62389342D01*
X37739285Y-62389342D02*
X37691666Y-62484580D01*
X37691666Y-62484580D02*
X37644047Y-62532200D01*
X37644047Y-62532200D02*
X37548809Y-62579819D01*
X37548809Y-62579819D02*
X37453571Y-62579819D01*
X37453571Y-62579819D02*
X37358333Y-62532200D01*
X37358333Y-62532200D02*
X37310714Y-62484580D01*
X37310714Y-62484580D02*
X37263095Y-62389342D01*
X37263095Y-62389342D02*
X37215476Y-62198866D01*
X37215476Y-62198866D02*
X37215476Y-61960771D01*
X37215476Y-61960771D02*
X37263095Y-61770295D01*
X37263095Y-61770295D02*
X37310714Y-61675057D01*
X37310714Y-61675057D02*
X37358333Y-61627438D01*
X37358333Y-61627438D02*
X37453571Y-61579819D01*
X35882142Y-65529819D02*
X35548809Y-65053628D01*
X35310714Y-65529819D02*
X35310714Y-64529819D01*
X35310714Y-64529819D02*
X35691666Y-64529819D01*
X35691666Y-64529819D02*
X35786904Y-64577438D01*
X35786904Y-64577438D02*
X35834523Y-64625057D01*
X35834523Y-64625057D02*
X35882142Y-64720295D01*
X35882142Y-64720295D02*
X35882142Y-64863152D01*
X35882142Y-64863152D02*
X35834523Y-64958390D01*
X35834523Y-64958390D02*
X35786904Y-65006009D01*
X35786904Y-65006009D02*
X35691666Y-65053628D01*
X35691666Y-65053628D02*
X35310714Y-65053628D01*
X36263095Y-64625057D02*
X36310714Y-64577438D01*
X36310714Y-64577438D02*
X36405952Y-64529819D01*
X36405952Y-64529819D02*
X36644047Y-64529819D01*
X36644047Y-64529819D02*
X36739285Y-64577438D01*
X36739285Y-64577438D02*
X36786904Y-64625057D01*
X36786904Y-64625057D02*
X36834523Y-64720295D01*
X36834523Y-64720295D02*
X36834523Y-64815533D01*
X36834523Y-64815533D02*
X36786904Y-64958390D01*
X36786904Y-64958390D02*
X36215476Y-65529819D01*
X36215476Y-65529819D02*
X36834523Y-65529819D01*
X37786904Y-65529819D02*
X37215476Y-65529819D01*
X37501190Y-65529819D02*
X37501190Y-64529819D01*
X37501190Y-64529819D02*
X37405952Y-64672676D01*
X37405952Y-64672676D02*
X37310714Y-64767914D01*
X37310714Y-64767914D02*
X37215476Y-64815533D01*
X35882142Y-56679819D02*
X35548809Y-56203628D01*
X35310714Y-56679819D02*
X35310714Y-55679819D01*
X35310714Y-55679819D02*
X35691666Y-55679819D01*
X35691666Y-55679819D02*
X35786904Y-55727438D01*
X35786904Y-55727438D02*
X35834523Y-55775057D01*
X35834523Y-55775057D02*
X35882142Y-55870295D01*
X35882142Y-55870295D02*
X35882142Y-56013152D01*
X35882142Y-56013152D02*
X35834523Y-56108390D01*
X35834523Y-56108390D02*
X35786904Y-56156009D01*
X35786904Y-56156009D02*
X35691666Y-56203628D01*
X35691666Y-56203628D02*
X35310714Y-56203628D01*
X36834523Y-56679819D02*
X36263095Y-56679819D01*
X36548809Y-56679819D02*
X36548809Y-55679819D01*
X36548809Y-55679819D02*
X36453571Y-55822676D01*
X36453571Y-55822676D02*
X36358333Y-55917914D01*
X36358333Y-55917914D02*
X36263095Y-55965533D01*
X37405952Y-56108390D02*
X37310714Y-56060771D01*
X37310714Y-56060771D02*
X37263095Y-56013152D01*
X37263095Y-56013152D02*
X37215476Y-55917914D01*
X37215476Y-55917914D02*
X37215476Y-55870295D01*
X37215476Y-55870295D02*
X37263095Y-55775057D01*
X37263095Y-55775057D02*
X37310714Y-55727438D01*
X37310714Y-55727438D02*
X37405952Y-55679819D01*
X37405952Y-55679819D02*
X37596428Y-55679819D01*
X37596428Y-55679819D02*
X37691666Y-55727438D01*
X37691666Y-55727438D02*
X37739285Y-55775057D01*
X37739285Y-55775057D02*
X37786904Y-55870295D01*
X37786904Y-55870295D02*
X37786904Y-55917914D01*
X37786904Y-55917914D02*
X37739285Y-56013152D01*
X37739285Y-56013152D02*
X37691666Y-56060771D01*
X37691666Y-56060771D02*
X37596428Y-56108390D01*
X37596428Y-56108390D02*
X37405952Y-56108390D01*
X37405952Y-56108390D02*
X37310714Y-56156009D01*
X37310714Y-56156009D02*
X37263095Y-56203628D01*
X37263095Y-56203628D02*
X37215476Y-56298866D01*
X37215476Y-56298866D02*
X37215476Y-56489342D01*
X37215476Y-56489342D02*
X37263095Y-56584580D01*
X37263095Y-56584580D02*
X37310714Y-56632200D01*
X37310714Y-56632200D02*
X37405952Y-56679819D01*
X37405952Y-56679819D02*
X37596428Y-56679819D01*
X37596428Y-56679819D02*
X37691666Y-56632200D01*
X37691666Y-56632200D02*
X37739285Y-56584580D01*
X37739285Y-56584580D02*
X37786904Y-56489342D01*
X37786904Y-56489342D02*
X37786904Y-56298866D01*
X37786904Y-56298866D02*
X37739285Y-56203628D01*
X37739285Y-56203628D02*
X37691666Y-56156009D01*
X37691666Y-56156009D02*
X37596428Y-56108390D01*
X41261905Y-79454819D02*
X41261905Y-78454819D01*
X41261905Y-78454819D02*
X41500000Y-78454819D01*
X41500000Y-78454819D02*
X41642857Y-78502438D01*
X41642857Y-78502438D02*
X41738095Y-78597676D01*
X41738095Y-78597676D02*
X41785714Y-78692914D01*
X41785714Y-78692914D02*
X41833333Y-78883390D01*
X41833333Y-78883390D02*
X41833333Y-79026247D01*
X41833333Y-79026247D02*
X41785714Y-79216723D01*
X41785714Y-79216723D02*
X41738095Y-79311961D01*
X41738095Y-79311961D02*
X41642857Y-79407200D01*
X41642857Y-79407200D02*
X41500000Y-79454819D01*
X41500000Y-79454819D02*
X41261905Y-79454819D01*
X42214286Y-78550057D02*
X42261905Y-78502438D01*
X42261905Y-78502438D02*
X42357143Y-78454819D01*
X42357143Y-78454819D02*
X42595238Y-78454819D01*
X42595238Y-78454819D02*
X42690476Y-78502438D01*
X42690476Y-78502438D02*
X42738095Y-78550057D01*
X42738095Y-78550057D02*
X42785714Y-78645295D01*
X42785714Y-78645295D02*
X42785714Y-78740533D01*
X42785714Y-78740533D02*
X42738095Y-78883390D01*
X42738095Y-78883390D02*
X42166667Y-79454819D01*
X42166667Y-79454819D02*
X42785714Y-79454819D01*
X27762142Y-83724580D02*
X27714523Y-83772200D01*
X27714523Y-83772200D02*
X27571666Y-83819819D01*
X27571666Y-83819819D02*
X27476428Y-83819819D01*
X27476428Y-83819819D02*
X27333571Y-83772200D01*
X27333571Y-83772200D02*
X27238333Y-83676961D01*
X27238333Y-83676961D02*
X27190714Y-83581723D01*
X27190714Y-83581723D02*
X27143095Y-83391247D01*
X27143095Y-83391247D02*
X27143095Y-83248390D01*
X27143095Y-83248390D02*
X27190714Y-83057914D01*
X27190714Y-83057914D02*
X27238333Y-82962676D01*
X27238333Y-82962676D02*
X27333571Y-82867438D01*
X27333571Y-82867438D02*
X27476428Y-82819819D01*
X27476428Y-82819819D02*
X27571666Y-82819819D01*
X27571666Y-82819819D02*
X27714523Y-82867438D01*
X27714523Y-82867438D02*
X27762142Y-82915057D01*
X28714523Y-83819819D02*
X28143095Y-83819819D01*
X28428809Y-83819819D02*
X28428809Y-82819819D01*
X28428809Y-82819819D02*
X28333571Y-82962676D01*
X28333571Y-82962676D02*
X28238333Y-83057914D01*
X28238333Y-83057914D02*
X28143095Y-83105533D01*
X29333571Y-82819819D02*
X29428809Y-82819819D01*
X29428809Y-82819819D02*
X29524047Y-82867438D01*
X29524047Y-82867438D02*
X29571666Y-82915057D01*
X29571666Y-82915057D02*
X29619285Y-83010295D01*
X29619285Y-83010295D02*
X29666904Y-83200771D01*
X29666904Y-83200771D02*
X29666904Y-83438866D01*
X29666904Y-83438866D02*
X29619285Y-83629342D01*
X29619285Y-83629342D02*
X29571666Y-83724580D01*
X29571666Y-83724580D02*
X29524047Y-83772200D01*
X29524047Y-83772200D02*
X29428809Y-83819819D01*
X29428809Y-83819819D02*
X29333571Y-83819819D01*
X29333571Y-83819819D02*
X29238333Y-83772200D01*
X29238333Y-83772200D02*
X29190714Y-83724580D01*
X29190714Y-83724580D02*
X29143095Y-83629342D01*
X29143095Y-83629342D02*
X29095476Y-83438866D01*
X29095476Y-83438866D02*
X29095476Y-83200771D01*
X29095476Y-83200771D02*
X29143095Y-83010295D01*
X29143095Y-83010295D02*
X29190714Y-82915057D01*
X29190714Y-82915057D02*
X29238333Y-82867438D01*
X29238333Y-82867438D02*
X29333571Y-82819819D01*
X71666667Y-47157200D02*
X71809524Y-47204819D01*
X71809524Y-47204819D02*
X72047619Y-47204819D01*
X72047619Y-47204819D02*
X72142857Y-47157200D01*
X72142857Y-47157200D02*
X72190476Y-47109580D01*
X72190476Y-47109580D02*
X72238095Y-47014342D01*
X72238095Y-47014342D02*
X72238095Y-46919104D01*
X72238095Y-46919104D02*
X72190476Y-46823866D01*
X72190476Y-46823866D02*
X72142857Y-46776247D01*
X72142857Y-46776247D02*
X72047619Y-46728628D01*
X72047619Y-46728628D02*
X71857143Y-46681009D01*
X71857143Y-46681009D02*
X71761905Y-46633390D01*
X71761905Y-46633390D02*
X71714286Y-46585771D01*
X71714286Y-46585771D02*
X71666667Y-46490533D01*
X71666667Y-46490533D02*
X71666667Y-46395295D01*
X71666667Y-46395295D02*
X71714286Y-46300057D01*
X71714286Y-46300057D02*
X71761905Y-46252438D01*
X71761905Y-46252438D02*
X71857143Y-46204819D01*
X71857143Y-46204819D02*
X72095238Y-46204819D01*
X72095238Y-46204819D02*
X72238095Y-46252438D01*
X72571429Y-46204819D02*
X72809524Y-47204819D01*
X72809524Y-47204819D02*
X73000000Y-46490533D01*
X73000000Y-46490533D02*
X73190476Y-47204819D01*
X73190476Y-47204819D02*
X73428572Y-46204819D01*
X74333333Y-47204819D02*
X73761905Y-47204819D01*
X74047619Y-47204819D02*
X74047619Y-46204819D01*
X74047619Y-46204819D02*
X73952381Y-46347676D01*
X73952381Y-46347676D02*
X73857143Y-46442914D01*
X73857143Y-46442914D02*
X73761905Y-46490533D01*
X28238333Y-71684580D02*
X28190714Y-71732200D01*
X28190714Y-71732200D02*
X28047857Y-71779819D01*
X28047857Y-71779819D02*
X27952619Y-71779819D01*
X27952619Y-71779819D02*
X27809762Y-71732200D01*
X27809762Y-71732200D02*
X27714524Y-71636961D01*
X27714524Y-71636961D02*
X27666905Y-71541723D01*
X27666905Y-71541723D02*
X27619286Y-71351247D01*
X27619286Y-71351247D02*
X27619286Y-71208390D01*
X27619286Y-71208390D02*
X27666905Y-71017914D01*
X27666905Y-71017914D02*
X27714524Y-70922676D01*
X27714524Y-70922676D02*
X27809762Y-70827438D01*
X27809762Y-70827438D02*
X27952619Y-70779819D01*
X27952619Y-70779819D02*
X28047857Y-70779819D01*
X28047857Y-70779819D02*
X28190714Y-70827438D01*
X28190714Y-70827438D02*
X28238333Y-70875057D01*
X29190714Y-71779819D02*
X28619286Y-71779819D01*
X28905000Y-71779819D02*
X28905000Y-70779819D01*
X28905000Y-70779819D02*
X28809762Y-70922676D01*
X28809762Y-70922676D02*
X28714524Y-71017914D01*
X28714524Y-71017914D02*
X28619286Y-71065533D01*
X62062142Y-49279819D02*
X61728809Y-48803628D01*
X61490714Y-49279819D02*
X61490714Y-48279819D01*
X61490714Y-48279819D02*
X61871666Y-48279819D01*
X61871666Y-48279819D02*
X61966904Y-48327438D01*
X61966904Y-48327438D02*
X62014523Y-48375057D01*
X62014523Y-48375057D02*
X62062142Y-48470295D01*
X62062142Y-48470295D02*
X62062142Y-48613152D01*
X62062142Y-48613152D02*
X62014523Y-48708390D01*
X62014523Y-48708390D02*
X61966904Y-48756009D01*
X61966904Y-48756009D02*
X61871666Y-48803628D01*
X61871666Y-48803628D02*
X61490714Y-48803628D01*
X62443095Y-48375057D02*
X62490714Y-48327438D01*
X62490714Y-48327438D02*
X62585952Y-48279819D01*
X62585952Y-48279819D02*
X62824047Y-48279819D01*
X62824047Y-48279819D02*
X62919285Y-48327438D01*
X62919285Y-48327438D02*
X62966904Y-48375057D01*
X62966904Y-48375057D02*
X63014523Y-48470295D01*
X63014523Y-48470295D02*
X63014523Y-48565533D01*
X63014523Y-48565533D02*
X62966904Y-48708390D01*
X62966904Y-48708390D02*
X62395476Y-49279819D01*
X62395476Y-49279819D02*
X63014523Y-49279819D01*
X63585952Y-48708390D02*
X63490714Y-48660771D01*
X63490714Y-48660771D02*
X63443095Y-48613152D01*
X63443095Y-48613152D02*
X63395476Y-48517914D01*
X63395476Y-48517914D02*
X63395476Y-48470295D01*
X63395476Y-48470295D02*
X63443095Y-48375057D01*
X63443095Y-48375057D02*
X63490714Y-48327438D01*
X63490714Y-48327438D02*
X63585952Y-48279819D01*
X63585952Y-48279819D02*
X63776428Y-48279819D01*
X63776428Y-48279819D02*
X63871666Y-48327438D01*
X63871666Y-48327438D02*
X63919285Y-48375057D01*
X63919285Y-48375057D02*
X63966904Y-48470295D01*
X63966904Y-48470295D02*
X63966904Y-48517914D01*
X63966904Y-48517914D02*
X63919285Y-48613152D01*
X63919285Y-48613152D02*
X63871666Y-48660771D01*
X63871666Y-48660771D02*
X63776428Y-48708390D01*
X63776428Y-48708390D02*
X63585952Y-48708390D01*
X63585952Y-48708390D02*
X63490714Y-48756009D01*
X63490714Y-48756009D02*
X63443095Y-48803628D01*
X63443095Y-48803628D02*
X63395476Y-48898866D01*
X63395476Y-48898866D02*
X63395476Y-49089342D01*
X63395476Y-49089342D02*
X63443095Y-49184580D01*
X63443095Y-49184580D02*
X63490714Y-49232200D01*
X63490714Y-49232200D02*
X63585952Y-49279819D01*
X63585952Y-49279819D02*
X63776428Y-49279819D01*
X63776428Y-49279819D02*
X63871666Y-49232200D01*
X63871666Y-49232200D02*
X63919285Y-49184580D01*
X63919285Y-49184580D02*
X63966904Y-49089342D01*
X63966904Y-49089342D02*
X63966904Y-48898866D01*
X63966904Y-48898866D02*
X63919285Y-48803628D01*
X63919285Y-48803628D02*
X63871666Y-48756009D01*
X63871666Y-48756009D02*
X63776428Y-48708390D01*
X35882142Y-47829819D02*
X35548809Y-47353628D01*
X35310714Y-47829819D02*
X35310714Y-46829819D01*
X35310714Y-46829819D02*
X35691666Y-46829819D01*
X35691666Y-46829819D02*
X35786904Y-46877438D01*
X35786904Y-46877438D02*
X35834523Y-46925057D01*
X35834523Y-46925057D02*
X35882142Y-47020295D01*
X35882142Y-47020295D02*
X35882142Y-47163152D01*
X35882142Y-47163152D02*
X35834523Y-47258390D01*
X35834523Y-47258390D02*
X35786904Y-47306009D01*
X35786904Y-47306009D02*
X35691666Y-47353628D01*
X35691666Y-47353628D02*
X35310714Y-47353628D01*
X36834523Y-47829819D02*
X36263095Y-47829819D01*
X36548809Y-47829819D02*
X36548809Y-46829819D01*
X36548809Y-46829819D02*
X36453571Y-46972676D01*
X36453571Y-46972676D02*
X36358333Y-47067914D01*
X36358333Y-47067914D02*
X36263095Y-47115533D01*
X37739285Y-46829819D02*
X37263095Y-46829819D01*
X37263095Y-46829819D02*
X37215476Y-47306009D01*
X37215476Y-47306009D02*
X37263095Y-47258390D01*
X37263095Y-47258390D02*
X37358333Y-47210771D01*
X37358333Y-47210771D02*
X37596428Y-47210771D01*
X37596428Y-47210771D02*
X37691666Y-47258390D01*
X37691666Y-47258390D02*
X37739285Y-47306009D01*
X37739285Y-47306009D02*
X37786904Y-47401247D01*
X37786904Y-47401247D02*
X37786904Y-47639342D01*
X37786904Y-47639342D02*
X37739285Y-47734580D01*
X37739285Y-47734580D02*
X37691666Y-47782200D01*
X37691666Y-47782200D02*
X37596428Y-47829819D01*
X37596428Y-47829819D02*
X37358333Y-47829819D01*
X37358333Y-47829819D02*
X37263095Y-47782200D01*
X37263095Y-47782200D02*
X37215476Y-47734580D01*
X35882142Y-53729819D02*
X35548809Y-53253628D01*
X35310714Y-53729819D02*
X35310714Y-52729819D01*
X35310714Y-52729819D02*
X35691666Y-52729819D01*
X35691666Y-52729819D02*
X35786904Y-52777438D01*
X35786904Y-52777438D02*
X35834523Y-52825057D01*
X35834523Y-52825057D02*
X35882142Y-52920295D01*
X35882142Y-52920295D02*
X35882142Y-53063152D01*
X35882142Y-53063152D02*
X35834523Y-53158390D01*
X35834523Y-53158390D02*
X35786904Y-53206009D01*
X35786904Y-53206009D02*
X35691666Y-53253628D01*
X35691666Y-53253628D02*
X35310714Y-53253628D01*
X36834523Y-53729819D02*
X36263095Y-53729819D01*
X36548809Y-53729819D02*
X36548809Y-52729819D01*
X36548809Y-52729819D02*
X36453571Y-52872676D01*
X36453571Y-52872676D02*
X36358333Y-52967914D01*
X36358333Y-52967914D02*
X36263095Y-53015533D01*
X37167857Y-52729819D02*
X37834523Y-52729819D01*
X37834523Y-52729819D02*
X37405952Y-53729819D01*
X27538333Y-50779819D02*
X27205000Y-50303628D01*
X26966905Y-50779819D02*
X26966905Y-49779819D01*
X26966905Y-49779819D02*
X27347857Y-49779819D01*
X27347857Y-49779819D02*
X27443095Y-49827438D01*
X27443095Y-49827438D02*
X27490714Y-49875057D01*
X27490714Y-49875057D02*
X27538333Y-49970295D01*
X27538333Y-49970295D02*
X27538333Y-50113152D01*
X27538333Y-50113152D02*
X27490714Y-50208390D01*
X27490714Y-50208390D02*
X27443095Y-50256009D01*
X27443095Y-50256009D02*
X27347857Y-50303628D01*
X27347857Y-50303628D02*
X26966905Y-50303628D01*
X27919286Y-49875057D02*
X27966905Y-49827438D01*
X27966905Y-49827438D02*
X28062143Y-49779819D01*
X28062143Y-49779819D02*
X28300238Y-49779819D01*
X28300238Y-49779819D02*
X28395476Y-49827438D01*
X28395476Y-49827438D02*
X28443095Y-49875057D01*
X28443095Y-49875057D02*
X28490714Y-49970295D01*
X28490714Y-49970295D02*
X28490714Y-50065533D01*
X28490714Y-50065533D02*
X28443095Y-50208390D01*
X28443095Y-50208390D02*
X27871667Y-50779819D01*
X27871667Y-50779819D02*
X28490714Y-50779819D01*
X40292142Y-56679819D02*
X39958809Y-56203628D01*
X39720714Y-56679819D02*
X39720714Y-55679819D01*
X39720714Y-55679819D02*
X40101666Y-55679819D01*
X40101666Y-55679819D02*
X40196904Y-55727438D01*
X40196904Y-55727438D02*
X40244523Y-55775057D01*
X40244523Y-55775057D02*
X40292142Y-55870295D01*
X40292142Y-55870295D02*
X40292142Y-56013152D01*
X40292142Y-56013152D02*
X40244523Y-56108390D01*
X40244523Y-56108390D02*
X40196904Y-56156009D01*
X40196904Y-56156009D02*
X40101666Y-56203628D01*
X40101666Y-56203628D02*
X39720714Y-56203628D01*
X40673095Y-55775057D02*
X40720714Y-55727438D01*
X40720714Y-55727438D02*
X40815952Y-55679819D01*
X40815952Y-55679819D02*
X41054047Y-55679819D01*
X41054047Y-55679819D02*
X41149285Y-55727438D01*
X41149285Y-55727438D02*
X41196904Y-55775057D01*
X41196904Y-55775057D02*
X41244523Y-55870295D01*
X41244523Y-55870295D02*
X41244523Y-55965533D01*
X41244523Y-55965533D02*
X41196904Y-56108390D01*
X41196904Y-56108390D02*
X40625476Y-56679819D01*
X40625476Y-56679819D02*
X41244523Y-56679819D01*
X42149285Y-55679819D02*
X41673095Y-55679819D01*
X41673095Y-55679819D02*
X41625476Y-56156009D01*
X41625476Y-56156009D02*
X41673095Y-56108390D01*
X41673095Y-56108390D02*
X41768333Y-56060771D01*
X41768333Y-56060771D02*
X42006428Y-56060771D01*
X42006428Y-56060771D02*
X42101666Y-56108390D01*
X42101666Y-56108390D02*
X42149285Y-56156009D01*
X42149285Y-56156009D02*
X42196904Y-56251247D01*
X42196904Y-56251247D02*
X42196904Y-56489342D01*
X42196904Y-56489342D02*
X42149285Y-56584580D01*
X42149285Y-56584580D02*
X42101666Y-56632200D01*
X42101666Y-56632200D02*
X42006428Y-56679819D01*
X42006428Y-56679819D02*
X41768333Y-56679819D01*
X41768333Y-56679819D02*
X41673095Y-56632200D01*
X41673095Y-56632200D02*
X41625476Y-56584580D01*
X31472142Y-59629819D02*
X31138809Y-59153628D01*
X30900714Y-59629819D02*
X30900714Y-58629819D01*
X30900714Y-58629819D02*
X31281666Y-58629819D01*
X31281666Y-58629819D02*
X31376904Y-58677438D01*
X31376904Y-58677438D02*
X31424523Y-58725057D01*
X31424523Y-58725057D02*
X31472142Y-58820295D01*
X31472142Y-58820295D02*
X31472142Y-58963152D01*
X31472142Y-58963152D02*
X31424523Y-59058390D01*
X31424523Y-59058390D02*
X31376904Y-59106009D01*
X31376904Y-59106009D02*
X31281666Y-59153628D01*
X31281666Y-59153628D02*
X30900714Y-59153628D01*
X32424523Y-59629819D02*
X31853095Y-59629819D01*
X32138809Y-59629819D02*
X32138809Y-58629819D01*
X32138809Y-58629819D02*
X32043571Y-58772676D01*
X32043571Y-58772676D02*
X31948333Y-58867914D01*
X31948333Y-58867914D02*
X31853095Y-58915533D01*
X32805476Y-58725057D02*
X32853095Y-58677438D01*
X32853095Y-58677438D02*
X32948333Y-58629819D01*
X32948333Y-58629819D02*
X33186428Y-58629819D01*
X33186428Y-58629819D02*
X33281666Y-58677438D01*
X33281666Y-58677438D02*
X33329285Y-58725057D01*
X33329285Y-58725057D02*
X33376904Y-58820295D01*
X33376904Y-58820295D02*
X33376904Y-58915533D01*
X33376904Y-58915533D02*
X33329285Y-59058390D01*
X33329285Y-59058390D02*
X32757857Y-59629819D01*
X32757857Y-59629819D02*
X33376904Y-59629819D01*
X31472142Y-56679819D02*
X31138809Y-56203628D01*
X30900714Y-56679819D02*
X30900714Y-55679819D01*
X30900714Y-55679819D02*
X31281666Y-55679819D01*
X31281666Y-55679819D02*
X31376904Y-55727438D01*
X31376904Y-55727438D02*
X31424523Y-55775057D01*
X31424523Y-55775057D02*
X31472142Y-55870295D01*
X31472142Y-55870295D02*
X31472142Y-56013152D01*
X31472142Y-56013152D02*
X31424523Y-56108390D01*
X31424523Y-56108390D02*
X31376904Y-56156009D01*
X31376904Y-56156009D02*
X31281666Y-56203628D01*
X31281666Y-56203628D02*
X30900714Y-56203628D01*
X32424523Y-56679819D02*
X31853095Y-56679819D01*
X32138809Y-56679819D02*
X32138809Y-55679819D01*
X32138809Y-55679819D02*
X32043571Y-55822676D01*
X32043571Y-55822676D02*
X31948333Y-55917914D01*
X31948333Y-55917914D02*
X31853095Y-55965533D01*
X33376904Y-56679819D02*
X32805476Y-56679819D01*
X33091190Y-56679819D02*
X33091190Y-55679819D01*
X33091190Y-55679819D02*
X32995952Y-55822676D01*
X32995952Y-55822676D02*
X32900714Y-55917914D01*
X32900714Y-55917914D02*
X32805476Y-55965533D01*
X40292142Y-53729819D02*
X39958809Y-53253628D01*
X39720714Y-53729819D02*
X39720714Y-52729819D01*
X39720714Y-52729819D02*
X40101666Y-52729819D01*
X40101666Y-52729819D02*
X40196904Y-52777438D01*
X40196904Y-52777438D02*
X40244523Y-52825057D01*
X40244523Y-52825057D02*
X40292142Y-52920295D01*
X40292142Y-52920295D02*
X40292142Y-53063152D01*
X40292142Y-53063152D02*
X40244523Y-53158390D01*
X40244523Y-53158390D02*
X40196904Y-53206009D01*
X40196904Y-53206009D02*
X40101666Y-53253628D01*
X40101666Y-53253628D02*
X39720714Y-53253628D01*
X40673095Y-52825057D02*
X40720714Y-52777438D01*
X40720714Y-52777438D02*
X40815952Y-52729819D01*
X40815952Y-52729819D02*
X41054047Y-52729819D01*
X41054047Y-52729819D02*
X41149285Y-52777438D01*
X41149285Y-52777438D02*
X41196904Y-52825057D01*
X41196904Y-52825057D02*
X41244523Y-52920295D01*
X41244523Y-52920295D02*
X41244523Y-53015533D01*
X41244523Y-53015533D02*
X41196904Y-53158390D01*
X41196904Y-53158390D02*
X40625476Y-53729819D01*
X40625476Y-53729819D02*
X41244523Y-53729819D01*
X42101666Y-53063152D02*
X42101666Y-53729819D01*
X41863571Y-52682200D02*
X41625476Y-53396485D01*
X41625476Y-53396485D02*
X42244523Y-53396485D01*
X35882142Y-50779819D02*
X35548809Y-50303628D01*
X35310714Y-50779819D02*
X35310714Y-49779819D01*
X35310714Y-49779819D02*
X35691666Y-49779819D01*
X35691666Y-49779819D02*
X35786904Y-49827438D01*
X35786904Y-49827438D02*
X35834523Y-49875057D01*
X35834523Y-49875057D02*
X35882142Y-49970295D01*
X35882142Y-49970295D02*
X35882142Y-50113152D01*
X35882142Y-50113152D02*
X35834523Y-50208390D01*
X35834523Y-50208390D02*
X35786904Y-50256009D01*
X35786904Y-50256009D02*
X35691666Y-50303628D01*
X35691666Y-50303628D02*
X35310714Y-50303628D01*
X36834523Y-50779819D02*
X36263095Y-50779819D01*
X36548809Y-50779819D02*
X36548809Y-49779819D01*
X36548809Y-49779819D02*
X36453571Y-49922676D01*
X36453571Y-49922676D02*
X36358333Y-50017914D01*
X36358333Y-50017914D02*
X36263095Y-50065533D01*
X37691666Y-49779819D02*
X37501190Y-49779819D01*
X37501190Y-49779819D02*
X37405952Y-49827438D01*
X37405952Y-49827438D02*
X37358333Y-49875057D01*
X37358333Y-49875057D02*
X37263095Y-50017914D01*
X37263095Y-50017914D02*
X37215476Y-50208390D01*
X37215476Y-50208390D02*
X37215476Y-50589342D01*
X37215476Y-50589342D02*
X37263095Y-50684580D01*
X37263095Y-50684580D02*
X37310714Y-50732200D01*
X37310714Y-50732200D02*
X37405952Y-50779819D01*
X37405952Y-50779819D02*
X37596428Y-50779819D01*
X37596428Y-50779819D02*
X37691666Y-50732200D01*
X37691666Y-50732200D02*
X37739285Y-50684580D01*
X37739285Y-50684580D02*
X37786904Y-50589342D01*
X37786904Y-50589342D02*
X37786904Y-50351247D01*
X37786904Y-50351247D02*
X37739285Y-50256009D01*
X37739285Y-50256009D02*
X37691666Y-50208390D01*
X37691666Y-50208390D02*
X37596428Y-50160771D01*
X37596428Y-50160771D02*
X37405952Y-50160771D01*
X37405952Y-50160771D02*
X37310714Y-50208390D01*
X37310714Y-50208390D02*
X37263095Y-50256009D01*
X37263095Y-50256009D02*
X37215476Y-50351247D01*
X48232142Y-84219819D02*
X47898809Y-83743628D01*
X47660714Y-84219819D02*
X47660714Y-83219819D01*
X47660714Y-83219819D02*
X48041666Y-83219819D01*
X48041666Y-83219819D02*
X48136904Y-83267438D01*
X48136904Y-83267438D02*
X48184523Y-83315057D01*
X48184523Y-83315057D02*
X48232142Y-83410295D01*
X48232142Y-83410295D02*
X48232142Y-83553152D01*
X48232142Y-83553152D02*
X48184523Y-83648390D01*
X48184523Y-83648390D02*
X48136904Y-83696009D01*
X48136904Y-83696009D02*
X48041666Y-83743628D01*
X48041666Y-83743628D02*
X47660714Y-83743628D01*
X48565476Y-83219819D02*
X49184523Y-83219819D01*
X49184523Y-83219819D02*
X48851190Y-83600771D01*
X48851190Y-83600771D02*
X48994047Y-83600771D01*
X48994047Y-83600771D02*
X49089285Y-83648390D01*
X49089285Y-83648390D02*
X49136904Y-83696009D01*
X49136904Y-83696009D02*
X49184523Y-83791247D01*
X49184523Y-83791247D02*
X49184523Y-84029342D01*
X49184523Y-84029342D02*
X49136904Y-84124580D01*
X49136904Y-84124580D02*
X49089285Y-84172200D01*
X49089285Y-84172200D02*
X48994047Y-84219819D01*
X48994047Y-84219819D02*
X48708333Y-84219819D01*
X48708333Y-84219819D02*
X48613095Y-84172200D01*
X48613095Y-84172200D02*
X48565476Y-84124580D01*
X50136904Y-84219819D02*
X49565476Y-84219819D01*
X49851190Y-84219819D02*
X49851190Y-83219819D01*
X49851190Y-83219819D02*
X49755952Y-83362676D01*
X49755952Y-83362676D02*
X49660714Y-83457914D01*
X49660714Y-83457914D02*
X49565476Y-83505533D01*
X33648333Y-75034580D02*
X33600714Y-75082200D01*
X33600714Y-75082200D02*
X33457857Y-75129819D01*
X33457857Y-75129819D02*
X33362619Y-75129819D01*
X33362619Y-75129819D02*
X33219762Y-75082200D01*
X33219762Y-75082200D02*
X33124524Y-74986961D01*
X33124524Y-74986961D02*
X33076905Y-74891723D01*
X33076905Y-74891723D02*
X33029286Y-74701247D01*
X33029286Y-74701247D02*
X33029286Y-74558390D01*
X33029286Y-74558390D02*
X33076905Y-74367914D01*
X33076905Y-74367914D02*
X33124524Y-74272676D01*
X33124524Y-74272676D02*
X33219762Y-74177438D01*
X33219762Y-74177438D02*
X33362619Y-74129819D01*
X33362619Y-74129819D02*
X33457857Y-74129819D01*
X33457857Y-74129819D02*
X33600714Y-74177438D01*
X33600714Y-74177438D02*
X33648333Y-74225057D01*
X34505476Y-74463152D02*
X34505476Y-75129819D01*
X34267381Y-74082200D02*
X34029286Y-74796485D01*
X34029286Y-74796485D02*
X34648333Y-74796485D01*
X33648333Y-85084580D02*
X33600714Y-85132200D01*
X33600714Y-85132200D02*
X33457857Y-85179819D01*
X33457857Y-85179819D02*
X33362619Y-85179819D01*
X33362619Y-85179819D02*
X33219762Y-85132200D01*
X33219762Y-85132200D02*
X33124524Y-85036961D01*
X33124524Y-85036961D02*
X33076905Y-84941723D01*
X33076905Y-84941723D02*
X33029286Y-84751247D01*
X33029286Y-84751247D02*
X33029286Y-84608390D01*
X33029286Y-84608390D02*
X33076905Y-84417914D01*
X33076905Y-84417914D02*
X33124524Y-84322676D01*
X33124524Y-84322676D02*
X33219762Y-84227438D01*
X33219762Y-84227438D02*
X33362619Y-84179819D01*
X33362619Y-84179819D02*
X33457857Y-84179819D01*
X33457857Y-84179819D02*
X33600714Y-84227438D01*
X33600714Y-84227438D02*
X33648333Y-84275057D01*
X34219762Y-84608390D02*
X34124524Y-84560771D01*
X34124524Y-84560771D02*
X34076905Y-84513152D01*
X34076905Y-84513152D02*
X34029286Y-84417914D01*
X34029286Y-84417914D02*
X34029286Y-84370295D01*
X34029286Y-84370295D02*
X34076905Y-84275057D01*
X34076905Y-84275057D02*
X34124524Y-84227438D01*
X34124524Y-84227438D02*
X34219762Y-84179819D01*
X34219762Y-84179819D02*
X34410238Y-84179819D01*
X34410238Y-84179819D02*
X34505476Y-84227438D01*
X34505476Y-84227438D02*
X34553095Y-84275057D01*
X34553095Y-84275057D02*
X34600714Y-84370295D01*
X34600714Y-84370295D02*
X34600714Y-84417914D01*
X34600714Y-84417914D02*
X34553095Y-84513152D01*
X34553095Y-84513152D02*
X34505476Y-84560771D01*
X34505476Y-84560771D02*
X34410238Y-84608390D01*
X34410238Y-84608390D02*
X34219762Y-84608390D01*
X34219762Y-84608390D02*
X34124524Y-84656009D01*
X34124524Y-84656009D02*
X34076905Y-84703628D01*
X34076905Y-84703628D02*
X34029286Y-84798866D01*
X34029286Y-84798866D02*
X34029286Y-84989342D01*
X34029286Y-84989342D02*
X34076905Y-85084580D01*
X34076905Y-85084580D02*
X34124524Y-85132200D01*
X34124524Y-85132200D02*
X34219762Y-85179819D01*
X34219762Y-85179819D02*
X34410238Y-85179819D01*
X34410238Y-85179819D02*
X34505476Y-85132200D01*
X34505476Y-85132200D02*
X34553095Y-85084580D01*
X34553095Y-85084580D02*
X34600714Y-84989342D01*
X34600714Y-84989342D02*
X34600714Y-84798866D01*
X34600714Y-84798866D02*
X34553095Y-84703628D01*
X34553095Y-84703628D02*
X34505476Y-84656009D01*
X34505476Y-84656009D02*
X34410238Y-84608390D01*
X33648333Y-81734580D02*
X33600714Y-81782200D01*
X33600714Y-81782200D02*
X33457857Y-81829819D01*
X33457857Y-81829819D02*
X33362619Y-81829819D01*
X33362619Y-81829819D02*
X33219762Y-81782200D01*
X33219762Y-81782200D02*
X33124524Y-81686961D01*
X33124524Y-81686961D02*
X33076905Y-81591723D01*
X33076905Y-81591723D02*
X33029286Y-81401247D01*
X33029286Y-81401247D02*
X33029286Y-81258390D01*
X33029286Y-81258390D02*
X33076905Y-81067914D01*
X33076905Y-81067914D02*
X33124524Y-80972676D01*
X33124524Y-80972676D02*
X33219762Y-80877438D01*
X33219762Y-80877438D02*
X33362619Y-80829819D01*
X33362619Y-80829819D02*
X33457857Y-80829819D01*
X33457857Y-80829819D02*
X33600714Y-80877438D01*
X33600714Y-80877438D02*
X33648333Y-80925057D01*
X34505476Y-80829819D02*
X34315000Y-80829819D01*
X34315000Y-80829819D02*
X34219762Y-80877438D01*
X34219762Y-80877438D02*
X34172143Y-80925057D01*
X34172143Y-80925057D02*
X34076905Y-81067914D01*
X34076905Y-81067914D02*
X34029286Y-81258390D01*
X34029286Y-81258390D02*
X34029286Y-81639342D01*
X34029286Y-81639342D02*
X34076905Y-81734580D01*
X34076905Y-81734580D02*
X34124524Y-81782200D01*
X34124524Y-81782200D02*
X34219762Y-81829819D01*
X34219762Y-81829819D02*
X34410238Y-81829819D01*
X34410238Y-81829819D02*
X34505476Y-81782200D01*
X34505476Y-81782200D02*
X34553095Y-81734580D01*
X34553095Y-81734580D02*
X34600714Y-81639342D01*
X34600714Y-81639342D02*
X34600714Y-81401247D01*
X34600714Y-81401247D02*
X34553095Y-81306009D01*
X34553095Y-81306009D02*
X34505476Y-81258390D01*
X34505476Y-81258390D02*
X34410238Y-81210771D01*
X34410238Y-81210771D02*
X34219762Y-81210771D01*
X34219762Y-81210771D02*
X34124524Y-81258390D01*
X34124524Y-81258390D02*
X34076905Y-81306009D01*
X34076905Y-81306009D02*
X34029286Y-81401247D01*
X47303095Y-57754819D02*
X47303095Y-58564342D01*
X47303095Y-58564342D02*
X47350714Y-58659580D01*
X47350714Y-58659580D02*
X47398333Y-58707200D01*
X47398333Y-58707200D02*
X47493571Y-58754819D01*
X47493571Y-58754819D02*
X47684047Y-58754819D01*
X47684047Y-58754819D02*
X47779285Y-58707200D01*
X47779285Y-58707200D02*
X47826904Y-58659580D01*
X47826904Y-58659580D02*
X47874523Y-58564342D01*
X47874523Y-58564342D02*
X47874523Y-57754819D01*
X48255476Y-57754819D02*
X48874523Y-57754819D01*
X48874523Y-57754819D02*
X48541190Y-58135771D01*
X48541190Y-58135771D02*
X48684047Y-58135771D01*
X48684047Y-58135771D02*
X48779285Y-58183390D01*
X48779285Y-58183390D02*
X48826904Y-58231009D01*
X48826904Y-58231009D02*
X48874523Y-58326247D01*
X48874523Y-58326247D02*
X48874523Y-58564342D01*
X48874523Y-58564342D02*
X48826904Y-58659580D01*
X48826904Y-58659580D02*
X48779285Y-58707200D01*
X48779285Y-58707200D02*
X48684047Y-58754819D01*
X48684047Y-58754819D02*
X48398333Y-58754819D01*
X48398333Y-58754819D02*
X48303095Y-58707200D01*
X48303095Y-58707200D02*
X48255476Y-58659580D01*
X33648333Y-78384580D02*
X33600714Y-78432200D01*
X33600714Y-78432200D02*
X33457857Y-78479819D01*
X33457857Y-78479819D02*
X33362619Y-78479819D01*
X33362619Y-78479819D02*
X33219762Y-78432200D01*
X33219762Y-78432200D02*
X33124524Y-78336961D01*
X33124524Y-78336961D02*
X33076905Y-78241723D01*
X33076905Y-78241723D02*
X33029286Y-78051247D01*
X33029286Y-78051247D02*
X33029286Y-77908390D01*
X33029286Y-77908390D02*
X33076905Y-77717914D01*
X33076905Y-77717914D02*
X33124524Y-77622676D01*
X33124524Y-77622676D02*
X33219762Y-77527438D01*
X33219762Y-77527438D02*
X33362619Y-77479819D01*
X33362619Y-77479819D02*
X33457857Y-77479819D01*
X33457857Y-77479819D02*
X33600714Y-77527438D01*
X33600714Y-77527438D02*
X33648333Y-77575057D01*
X34553095Y-77479819D02*
X34076905Y-77479819D01*
X34076905Y-77479819D02*
X34029286Y-77956009D01*
X34029286Y-77956009D02*
X34076905Y-77908390D01*
X34076905Y-77908390D02*
X34172143Y-77860771D01*
X34172143Y-77860771D02*
X34410238Y-77860771D01*
X34410238Y-77860771D02*
X34505476Y-77908390D01*
X34505476Y-77908390D02*
X34553095Y-77956009D01*
X34553095Y-77956009D02*
X34600714Y-78051247D01*
X34600714Y-78051247D02*
X34600714Y-78289342D01*
X34600714Y-78289342D02*
X34553095Y-78384580D01*
X34553095Y-78384580D02*
X34505476Y-78432200D01*
X34505476Y-78432200D02*
X34410238Y-78479819D01*
X34410238Y-78479819D02*
X34172143Y-78479819D01*
X34172143Y-78479819D02*
X34076905Y-78432200D01*
X34076905Y-78432200D02*
X34029286Y-78384580D01*
X27762142Y-86734580D02*
X27714523Y-86782200D01*
X27714523Y-86782200D02*
X27571666Y-86829819D01*
X27571666Y-86829819D02*
X27476428Y-86829819D01*
X27476428Y-86829819D02*
X27333571Y-86782200D01*
X27333571Y-86782200D02*
X27238333Y-86686961D01*
X27238333Y-86686961D02*
X27190714Y-86591723D01*
X27190714Y-86591723D02*
X27143095Y-86401247D01*
X27143095Y-86401247D02*
X27143095Y-86258390D01*
X27143095Y-86258390D02*
X27190714Y-86067914D01*
X27190714Y-86067914D02*
X27238333Y-85972676D01*
X27238333Y-85972676D02*
X27333571Y-85877438D01*
X27333571Y-85877438D02*
X27476428Y-85829819D01*
X27476428Y-85829819D02*
X27571666Y-85829819D01*
X27571666Y-85829819D02*
X27714523Y-85877438D01*
X27714523Y-85877438D02*
X27762142Y-85925057D01*
X28714523Y-86829819D02*
X28143095Y-86829819D01*
X28428809Y-86829819D02*
X28428809Y-85829819D01*
X28428809Y-85829819D02*
X28333571Y-85972676D01*
X28333571Y-85972676D02*
X28238333Y-86067914D01*
X28238333Y-86067914D02*
X28143095Y-86115533D01*
X29666904Y-86829819D02*
X29095476Y-86829819D01*
X29381190Y-86829819D02*
X29381190Y-85829819D01*
X29381190Y-85829819D02*
X29285952Y-85972676D01*
X29285952Y-85972676D02*
X29190714Y-86067914D01*
X29190714Y-86067914D02*
X29095476Y-86115533D01*
X35882142Y-59629819D02*
X35548809Y-59153628D01*
X35310714Y-59629819D02*
X35310714Y-58629819D01*
X35310714Y-58629819D02*
X35691666Y-58629819D01*
X35691666Y-58629819D02*
X35786904Y-58677438D01*
X35786904Y-58677438D02*
X35834523Y-58725057D01*
X35834523Y-58725057D02*
X35882142Y-58820295D01*
X35882142Y-58820295D02*
X35882142Y-58963152D01*
X35882142Y-58963152D02*
X35834523Y-59058390D01*
X35834523Y-59058390D02*
X35786904Y-59106009D01*
X35786904Y-59106009D02*
X35691666Y-59153628D01*
X35691666Y-59153628D02*
X35310714Y-59153628D01*
X36834523Y-59629819D02*
X36263095Y-59629819D01*
X36548809Y-59629819D02*
X36548809Y-58629819D01*
X36548809Y-58629819D02*
X36453571Y-58772676D01*
X36453571Y-58772676D02*
X36358333Y-58867914D01*
X36358333Y-58867914D02*
X36263095Y-58915533D01*
X37310714Y-59629819D02*
X37501190Y-59629819D01*
X37501190Y-59629819D02*
X37596428Y-59582200D01*
X37596428Y-59582200D02*
X37644047Y-59534580D01*
X37644047Y-59534580D02*
X37739285Y-59391723D01*
X37739285Y-59391723D02*
X37786904Y-59201247D01*
X37786904Y-59201247D02*
X37786904Y-58820295D01*
X37786904Y-58820295D02*
X37739285Y-58725057D01*
X37739285Y-58725057D02*
X37691666Y-58677438D01*
X37691666Y-58677438D02*
X37596428Y-58629819D01*
X37596428Y-58629819D02*
X37405952Y-58629819D01*
X37405952Y-58629819D02*
X37310714Y-58677438D01*
X37310714Y-58677438D02*
X37263095Y-58725057D01*
X37263095Y-58725057D02*
X37215476Y-58820295D01*
X37215476Y-58820295D02*
X37215476Y-59058390D01*
X37215476Y-59058390D02*
X37263095Y-59153628D01*
X37263095Y-59153628D02*
X37310714Y-59201247D01*
X37310714Y-59201247D02*
X37405952Y-59248866D01*
X37405952Y-59248866D02*
X37596428Y-59248866D01*
X37596428Y-59248866D02*
X37691666Y-59201247D01*
X37691666Y-59201247D02*
X37739285Y-59153628D01*
X37739285Y-59153628D02*
X37786904Y-59058390D01*
X27762142Y-89744580D02*
X27714523Y-89792200D01*
X27714523Y-89792200D02*
X27571666Y-89839819D01*
X27571666Y-89839819D02*
X27476428Y-89839819D01*
X27476428Y-89839819D02*
X27333571Y-89792200D01*
X27333571Y-89792200D02*
X27238333Y-89696961D01*
X27238333Y-89696961D02*
X27190714Y-89601723D01*
X27190714Y-89601723D02*
X27143095Y-89411247D01*
X27143095Y-89411247D02*
X27143095Y-89268390D01*
X27143095Y-89268390D02*
X27190714Y-89077914D01*
X27190714Y-89077914D02*
X27238333Y-88982676D01*
X27238333Y-88982676D02*
X27333571Y-88887438D01*
X27333571Y-88887438D02*
X27476428Y-88839819D01*
X27476428Y-88839819D02*
X27571666Y-88839819D01*
X27571666Y-88839819D02*
X27714523Y-88887438D01*
X27714523Y-88887438D02*
X27762142Y-88935057D01*
X28714523Y-89839819D02*
X28143095Y-89839819D01*
X28428809Y-89839819D02*
X28428809Y-88839819D01*
X28428809Y-88839819D02*
X28333571Y-88982676D01*
X28333571Y-88982676D02*
X28238333Y-89077914D01*
X28238333Y-89077914D02*
X28143095Y-89125533D01*
X29095476Y-88935057D02*
X29143095Y-88887438D01*
X29143095Y-88887438D02*
X29238333Y-88839819D01*
X29238333Y-88839819D02*
X29476428Y-88839819D01*
X29476428Y-88839819D02*
X29571666Y-88887438D01*
X29571666Y-88887438D02*
X29619285Y-88935057D01*
X29619285Y-88935057D02*
X29666904Y-89030295D01*
X29666904Y-89030295D02*
X29666904Y-89125533D01*
X29666904Y-89125533D02*
X29619285Y-89268390D01*
X29619285Y-89268390D02*
X29047857Y-89839819D01*
X29047857Y-89839819D02*
X29666904Y-89839819D01*
X40292142Y-59629819D02*
X39958809Y-59153628D01*
X39720714Y-59629819D02*
X39720714Y-58629819D01*
X39720714Y-58629819D02*
X40101666Y-58629819D01*
X40101666Y-58629819D02*
X40196904Y-58677438D01*
X40196904Y-58677438D02*
X40244523Y-58725057D01*
X40244523Y-58725057D02*
X40292142Y-58820295D01*
X40292142Y-58820295D02*
X40292142Y-58963152D01*
X40292142Y-58963152D02*
X40244523Y-59058390D01*
X40244523Y-59058390D02*
X40196904Y-59106009D01*
X40196904Y-59106009D02*
X40101666Y-59153628D01*
X40101666Y-59153628D02*
X39720714Y-59153628D01*
X40673095Y-58725057D02*
X40720714Y-58677438D01*
X40720714Y-58677438D02*
X40815952Y-58629819D01*
X40815952Y-58629819D02*
X41054047Y-58629819D01*
X41054047Y-58629819D02*
X41149285Y-58677438D01*
X41149285Y-58677438D02*
X41196904Y-58725057D01*
X41196904Y-58725057D02*
X41244523Y-58820295D01*
X41244523Y-58820295D02*
X41244523Y-58915533D01*
X41244523Y-58915533D02*
X41196904Y-59058390D01*
X41196904Y-59058390D02*
X40625476Y-59629819D01*
X40625476Y-59629819D02*
X41244523Y-59629819D01*
X42101666Y-58629819D02*
X41911190Y-58629819D01*
X41911190Y-58629819D02*
X41815952Y-58677438D01*
X41815952Y-58677438D02*
X41768333Y-58725057D01*
X41768333Y-58725057D02*
X41673095Y-58867914D01*
X41673095Y-58867914D02*
X41625476Y-59058390D01*
X41625476Y-59058390D02*
X41625476Y-59439342D01*
X41625476Y-59439342D02*
X41673095Y-59534580D01*
X41673095Y-59534580D02*
X41720714Y-59582200D01*
X41720714Y-59582200D02*
X41815952Y-59629819D01*
X41815952Y-59629819D02*
X42006428Y-59629819D01*
X42006428Y-59629819D02*
X42101666Y-59582200D01*
X42101666Y-59582200D02*
X42149285Y-59534580D01*
X42149285Y-59534580D02*
X42196904Y-59439342D01*
X42196904Y-59439342D02*
X42196904Y-59201247D01*
X42196904Y-59201247D02*
X42149285Y-59106009D01*
X42149285Y-59106009D02*
X42101666Y-59058390D01*
X42101666Y-59058390D02*
X42006428Y-59010771D01*
X42006428Y-59010771D02*
X41815952Y-59010771D01*
X41815952Y-59010771D02*
X41720714Y-59058390D01*
X41720714Y-59058390D02*
X41673095Y-59106009D01*
X41673095Y-59106009D02*
X41625476Y-59201247D01*
X52181666Y-46529819D02*
X52181666Y-47244104D01*
X52181666Y-47244104D02*
X52134047Y-47386961D01*
X52134047Y-47386961D02*
X52038809Y-47482200D01*
X52038809Y-47482200D02*
X51895952Y-47529819D01*
X51895952Y-47529819D02*
X51800714Y-47529819D01*
X52562619Y-46529819D02*
X53181666Y-46529819D01*
X53181666Y-46529819D02*
X52848333Y-46910771D01*
X52848333Y-46910771D02*
X52991190Y-46910771D01*
X52991190Y-46910771D02*
X53086428Y-46958390D01*
X53086428Y-46958390D02*
X53134047Y-47006009D01*
X53134047Y-47006009D02*
X53181666Y-47101247D01*
X53181666Y-47101247D02*
X53181666Y-47339342D01*
X53181666Y-47339342D02*
X53134047Y-47434580D01*
X53134047Y-47434580D02*
X53086428Y-47482200D01*
X53086428Y-47482200D02*
X52991190Y-47529819D01*
X52991190Y-47529819D02*
X52705476Y-47529819D01*
X52705476Y-47529819D02*
X52610238Y-47482200D01*
X52610238Y-47482200D02*
X52562619Y-47434580D01*
X31948333Y-50779819D02*
X31615000Y-50303628D01*
X31376905Y-50779819D02*
X31376905Y-49779819D01*
X31376905Y-49779819D02*
X31757857Y-49779819D01*
X31757857Y-49779819D02*
X31853095Y-49827438D01*
X31853095Y-49827438D02*
X31900714Y-49875057D01*
X31900714Y-49875057D02*
X31948333Y-49970295D01*
X31948333Y-49970295D02*
X31948333Y-50113152D01*
X31948333Y-50113152D02*
X31900714Y-50208390D01*
X31900714Y-50208390D02*
X31853095Y-50256009D01*
X31853095Y-50256009D02*
X31757857Y-50303628D01*
X31757857Y-50303628D02*
X31376905Y-50303628D01*
X32424524Y-50779819D02*
X32615000Y-50779819D01*
X32615000Y-50779819D02*
X32710238Y-50732200D01*
X32710238Y-50732200D02*
X32757857Y-50684580D01*
X32757857Y-50684580D02*
X32853095Y-50541723D01*
X32853095Y-50541723D02*
X32900714Y-50351247D01*
X32900714Y-50351247D02*
X32900714Y-49970295D01*
X32900714Y-49970295D02*
X32853095Y-49875057D01*
X32853095Y-49875057D02*
X32805476Y-49827438D01*
X32805476Y-49827438D02*
X32710238Y-49779819D01*
X32710238Y-49779819D02*
X32519762Y-49779819D01*
X32519762Y-49779819D02*
X32424524Y-49827438D01*
X32424524Y-49827438D02*
X32376905Y-49875057D01*
X32376905Y-49875057D02*
X32329286Y-49970295D01*
X32329286Y-49970295D02*
X32329286Y-50208390D01*
X32329286Y-50208390D02*
X32376905Y-50303628D01*
X32376905Y-50303628D02*
X32424524Y-50351247D01*
X32424524Y-50351247D02*
X32519762Y-50398866D01*
X32519762Y-50398866D02*
X32710238Y-50398866D01*
X32710238Y-50398866D02*
X32805476Y-50351247D01*
X32805476Y-50351247D02*
X32853095Y-50303628D01*
X32853095Y-50303628D02*
X32900714Y-50208390D01*
X27538333Y-53729819D02*
X27205000Y-53253628D01*
X26966905Y-53729819D02*
X26966905Y-52729819D01*
X26966905Y-52729819D02*
X27347857Y-52729819D01*
X27347857Y-52729819D02*
X27443095Y-52777438D01*
X27443095Y-52777438D02*
X27490714Y-52825057D01*
X27490714Y-52825057D02*
X27538333Y-52920295D01*
X27538333Y-52920295D02*
X27538333Y-53063152D01*
X27538333Y-53063152D02*
X27490714Y-53158390D01*
X27490714Y-53158390D02*
X27443095Y-53206009D01*
X27443095Y-53206009D02*
X27347857Y-53253628D01*
X27347857Y-53253628D02*
X26966905Y-53253628D01*
X27871667Y-52729819D02*
X28490714Y-52729819D01*
X28490714Y-52729819D02*
X28157381Y-53110771D01*
X28157381Y-53110771D02*
X28300238Y-53110771D01*
X28300238Y-53110771D02*
X28395476Y-53158390D01*
X28395476Y-53158390D02*
X28443095Y-53206009D01*
X28443095Y-53206009D02*
X28490714Y-53301247D01*
X28490714Y-53301247D02*
X28490714Y-53539342D01*
X28490714Y-53539342D02*
X28443095Y-53634580D01*
X28443095Y-53634580D02*
X28395476Y-53682200D01*
X28395476Y-53682200D02*
X28300238Y-53729819D01*
X28300238Y-53729819D02*
X28014524Y-53729819D01*
X28014524Y-53729819D02*
X27919286Y-53682200D01*
X27919286Y-53682200D02*
X27871667Y-53634580D01*
X59763095Y-33864819D02*
X59763095Y-34674342D01*
X59763095Y-34674342D02*
X59810714Y-34769580D01*
X59810714Y-34769580D02*
X59858333Y-34817200D01*
X59858333Y-34817200D02*
X59953571Y-34864819D01*
X59953571Y-34864819D02*
X60144047Y-34864819D01*
X60144047Y-34864819D02*
X60239285Y-34817200D01*
X60239285Y-34817200D02*
X60286904Y-34769580D01*
X60286904Y-34769580D02*
X60334523Y-34674342D01*
X60334523Y-34674342D02*
X60334523Y-33864819D01*
X61286904Y-33864819D02*
X60810714Y-33864819D01*
X60810714Y-33864819D02*
X60763095Y-34341009D01*
X60763095Y-34341009D02*
X60810714Y-34293390D01*
X60810714Y-34293390D02*
X60905952Y-34245771D01*
X60905952Y-34245771D02*
X61144047Y-34245771D01*
X61144047Y-34245771D02*
X61239285Y-34293390D01*
X61239285Y-34293390D02*
X61286904Y-34341009D01*
X61286904Y-34341009D02*
X61334523Y-34436247D01*
X61334523Y-34436247D02*
X61334523Y-34674342D01*
X61334523Y-34674342D02*
X61286904Y-34769580D01*
X61286904Y-34769580D02*
X61239285Y-34817200D01*
X61239285Y-34817200D02*
X61144047Y-34864819D01*
X61144047Y-34864819D02*
X60905952Y-34864819D01*
X60905952Y-34864819D02*
X60810714Y-34817200D01*
X60810714Y-34817200D02*
X60763095Y-34769580D01*
X27538333Y-47829819D02*
X27205000Y-47353628D01*
X26966905Y-47829819D02*
X26966905Y-46829819D01*
X26966905Y-46829819D02*
X27347857Y-46829819D01*
X27347857Y-46829819D02*
X27443095Y-46877438D01*
X27443095Y-46877438D02*
X27490714Y-46925057D01*
X27490714Y-46925057D02*
X27538333Y-47020295D01*
X27538333Y-47020295D02*
X27538333Y-47163152D01*
X27538333Y-47163152D02*
X27490714Y-47258390D01*
X27490714Y-47258390D02*
X27443095Y-47306009D01*
X27443095Y-47306009D02*
X27347857Y-47353628D01*
X27347857Y-47353628D02*
X26966905Y-47353628D01*
X28490714Y-47829819D02*
X27919286Y-47829819D01*
X28205000Y-47829819D02*
X28205000Y-46829819D01*
X28205000Y-46829819D02*
X28109762Y-46972676D01*
X28109762Y-46972676D02*
X28014524Y-47067914D01*
X28014524Y-47067914D02*
X27919286Y-47115533D01*
X27538333Y-65529819D02*
X27205000Y-65053628D01*
X26966905Y-65529819D02*
X26966905Y-64529819D01*
X26966905Y-64529819D02*
X27347857Y-64529819D01*
X27347857Y-64529819D02*
X27443095Y-64577438D01*
X27443095Y-64577438D02*
X27490714Y-64625057D01*
X27490714Y-64625057D02*
X27538333Y-64720295D01*
X27538333Y-64720295D02*
X27538333Y-64863152D01*
X27538333Y-64863152D02*
X27490714Y-64958390D01*
X27490714Y-64958390D02*
X27443095Y-65006009D01*
X27443095Y-65006009D02*
X27347857Y-65053628D01*
X27347857Y-65053628D02*
X26966905Y-65053628D01*
X27871667Y-64529819D02*
X28538333Y-64529819D01*
X28538333Y-64529819D02*
X28109762Y-65529819D01*
X40292142Y-47829819D02*
X39958809Y-47353628D01*
X39720714Y-47829819D02*
X39720714Y-46829819D01*
X39720714Y-46829819D02*
X40101666Y-46829819D01*
X40101666Y-46829819D02*
X40196904Y-46877438D01*
X40196904Y-46877438D02*
X40244523Y-46925057D01*
X40244523Y-46925057D02*
X40292142Y-47020295D01*
X40292142Y-47020295D02*
X40292142Y-47163152D01*
X40292142Y-47163152D02*
X40244523Y-47258390D01*
X40244523Y-47258390D02*
X40196904Y-47306009D01*
X40196904Y-47306009D02*
X40101666Y-47353628D01*
X40101666Y-47353628D02*
X39720714Y-47353628D01*
X40673095Y-46925057D02*
X40720714Y-46877438D01*
X40720714Y-46877438D02*
X40815952Y-46829819D01*
X40815952Y-46829819D02*
X41054047Y-46829819D01*
X41054047Y-46829819D02*
X41149285Y-46877438D01*
X41149285Y-46877438D02*
X41196904Y-46925057D01*
X41196904Y-46925057D02*
X41244523Y-47020295D01*
X41244523Y-47020295D02*
X41244523Y-47115533D01*
X41244523Y-47115533D02*
X41196904Y-47258390D01*
X41196904Y-47258390D02*
X40625476Y-47829819D01*
X40625476Y-47829819D02*
X41244523Y-47829819D01*
X41625476Y-46925057D02*
X41673095Y-46877438D01*
X41673095Y-46877438D02*
X41768333Y-46829819D01*
X41768333Y-46829819D02*
X42006428Y-46829819D01*
X42006428Y-46829819D02*
X42101666Y-46877438D01*
X42101666Y-46877438D02*
X42149285Y-46925057D01*
X42149285Y-46925057D02*
X42196904Y-47020295D01*
X42196904Y-47020295D02*
X42196904Y-47115533D01*
X42196904Y-47115533D02*
X42149285Y-47258390D01*
X42149285Y-47258390D02*
X41577857Y-47829819D01*
X41577857Y-47829819D02*
X42196904Y-47829819D01*
%TO.C,J5*%
D11*
X52625000Y-86225000D02*
X52625000Y-87475000D01*
X52925000Y-88775000D02*
X53675000Y-88775000D01*
X53675000Y-88775000D02*
X53675000Y-90115000D01*
X53875000Y-86225000D02*
X52625000Y-86225000D01*
X56725000Y-91725000D02*
X54735000Y-91725000D01*
X59775000Y-88775000D02*
X59775000Y-91725000D01*
X59775000Y-91725000D02*
X56725000Y-91725000D01*
X60525000Y-88775000D02*
X59775000Y-88775000D01*
X52915000Y-86515000D02*
X60535000Y-86515000D01*
X60535000Y-92485000D01*
X52915000Y-92485000D01*
X52915000Y-86515000D01*
X52925000Y-86525000D02*
X54725000Y-86525000D01*
X54725000Y-87275000D01*
X52925000Y-87275000D01*
X52925000Y-86525000D01*
X56225000Y-86525000D02*
X57225000Y-86525000D01*
X57225000Y-87275000D01*
X56225000Y-87275000D01*
X56225000Y-86525000D01*
X58725000Y-86525000D02*
X60525000Y-86525000D01*
X60525000Y-87275000D01*
X58725000Y-87275000D01*
X58725000Y-86525000D01*
%TO.C,J4*%
X52625000Y-78425000D02*
X52625000Y-79675000D01*
X52925000Y-80975000D02*
X53675000Y-80975000D01*
X53675000Y-80975000D02*
X53675000Y-82315000D01*
X53875000Y-78425000D02*
X52625000Y-78425000D01*
X56725000Y-83925000D02*
X54735000Y-83925000D01*
X59775000Y-80975000D02*
X59775000Y-83925000D01*
X59775000Y-83925000D02*
X56725000Y-83925000D01*
X60525000Y-80975000D02*
X59775000Y-80975000D01*
X52915000Y-78715000D02*
X60535000Y-78715000D01*
X60535000Y-84685000D01*
X52915000Y-84685000D01*
X52915000Y-78715000D01*
X52925000Y-78725000D02*
X54725000Y-78725000D01*
X54725000Y-79475000D01*
X52925000Y-79475000D01*
X52925000Y-78725000D01*
X56225000Y-78725000D02*
X57225000Y-78725000D01*
X57225000Y-79475000D01*
X56225000Y-79475000D01*
X56225000Y-78725000D01*
X58725000Y-78725000D02*
X60525000Y-78725000D01*
X60525000Y-79475000D01*
X58725000Y-79475000D01*
X58725000Y-78725000D01*
%TO.C,J2*%
X52625000Y-70625000D02*
X52625000Y-71875000D01*
X52925000Y-73175000D02*
X53675000Y-73175000D01*
X53675000Y-73175000D02*
X53675000Y-74515000D01*
X53875000Y-70625000D02*
X52625000Y-70625000D01*
X56725000Y-76125000D02*
X54735000Y-76125000D01*
X59775000Y-73175000D02*
X59775000Y-76125000D01*
X59775000Y-76125000D02*
X56725000Y-76125000D01*
X60525000Y-73175000D02*
X59775000Y-73175000D01*
X52915000Y-70915000D02*
X60535000Y-70915000D01*
X60535000Y-76885000D01*
X52915000Y-76885000D01*
X52915000Y-70915000D01*
X52925000Y-70925000D02*
X54725000Y-70925000D01*
X54725000Y-71675000D01*
X52925000Y-71675000D01*
X52925000Y-70925000D01*
X56225000Y-70925000D02*
X57225000Y-70925000D01*
X57225000Y-71675000D01*
X56225000Y-71675000D01*
X56225000Y-70925000D01*
X58725000Y-70925000D02*
X60525000Y-70925000D01*
X60525000Y-71675000D01*
X58725000Y-71675000D01*
X58725000Y-70925000D01*
%TO.C,D1*%
X54800000Y-65095000D02*
X56320000Y-65095000D01*
X54800000Y-65145000D02*
X54800000Y-65095000D01*
X54800000Y-67045000D02*
X54800000Y-66265000D01*
X54800000Y-68215000D02*
X54800000Y-68165000D01*
X56320000Y-65095000D02*
X56320000Y-66095000D01*
X56320000Y-67215000D02*
X56320000Y-68215000D01*
X56320000Y-68215000D02*
X54800000Y-68215000D01*
X54260000Y-66275000D02*
X54500000Y-66605000D01*
X54020000Y-66605000D01*
X54260000Y-66275000D01*
G36*
X54500000Y-66605000D02*
G01*
X54020000Y-66605000D01*
X54260000Y-66275000D01*
X54500000Y-66605000D01*
G37*
%TO.C,R10*%
X31887936Y-54190000D02*
X32342064Y-54190000D01*
X31887936Y-55660000D02*
X32342064Y-55660000D01*
%TO.C,R29*%
X62477936Y-52690000D02*
X62932064Y-52690000D01*
X62477936Y-54160000D02*
X62932064Y-54160000D01*
%TO.C,R6*%
X27477936Y-63040000D02*
X27932064Y-63040000D01*
X27477936Y-64510000D02*
X27932064Y-64510000D01*
%TO.C,C7*%
X28143748Y-78290000D02*
X28666252Y-78290000D01*
X28143748Y-79760000D02*
X28666252Y-79760000D01*
%TO.C,R32*%
X48647936Y-87630000D02*
X49102064Y-87630000D01*
X48647936Y-89100000D02*
X49102064Y-89100000D01*
%TO.C,R8*%
X31887936Y-48290000D02*
X32342064Y-48290000D01*
X31887936Y-49760000D02*
X32342064Y-49760000D01*
%TO.C,U3*%
X40425000Y-72220000D02*
X40425000Y-72490000D01*
X40425000Y-79120000D02*
X40425000Y-78850000D01*
X46845000Y-72220000D02*
X40425000Y-72220000D01*
X46845000Y-79120000D02*
X40425000Y-79120000D01*
X38695000Y-72530000D02*
X38355000Y-72060000D01*
X39035000Y-72060000D01*
X38695000Y-72530000D01*
G36*
X38695000Y-72530000D02*
G01*
X38355000Y-72060000D01*
X39035000Y-72060000D01*
X38695000Y-72530000D01*
G37*
%TO.C,U4*%
X72965000Y-34755000D02*
X77085000Y-34755000D01*
X72965000Y-34820000D02*
X72965000Y-34755000D01*
X72965000Y-43625000D02*
X72965000Y-43560000D01*
X77085000Y-34755000D02*
X77085000Y-34820000D01*
X77085000Y-43560000D02*
X77085000Y-43625000D01*
X77085000Y-43625000D02*
X72965000Y-43625000D01*
X72425000Y-34820000D02*
X72185000Y-34490000D01*
X72665000Y-34490000D01*
X72425000Y-34820000D01*
G36*
X72425000Y-34820000D02*
G01*
X72185000Y-34490000D01*
X72665000Y-34490000D01*
X72425000Y-34820000D01*
G37*
%TO.C,C2*%
X28143748Y-75280000D02*
X28666252Y-75280000D01*
X28143748Y-76750000D02*
X28666252Y-76750000D01*
%TO.C,U1*%
X55155000Y-59400000D02*
X59275000Y-59400000D01*
X55155000Y-59495000D02*
X55155000Y-59400000D01*
X55155000Y-64520000D02*
X55155000Y-64425000D01*
X59275000Y-59400000D02*
X59275000Y-59495000D01*
X59275000Y-64425000D02*
X59275000Y-64520000D01*
X59275000Y-64520000D02*
X55155000Y-64520000D01*
X54615000Y-59490000D02*
X54375000Y-59160000D01*
X54855000Y-59160000D01*
X54615000Y-59490000D01*
G36*
X54615000Y-59490000D02*
G01*
X54375000Y-59160000D01*
X54855000Y-59160000D01*
X54615000Y-59490000D01*
G37*
%TO.C,R4*%
X27477936Y-57140000D02*
X27932064Y-57140000D01*
X27477936Y-58610000D02*
X27932064Y-58610000D01*
%TO.C,C13*%
X33103748Y-89015000D02*
X34526252Y-89015000D01*
X33103748Y-90835000D02*
X34526252Y-90835000D01*
%TO.C,R30*%
X62477936Y-55640000D02*
X62932064Y-55640000D01*
X62477936Y-57110000D02*
X62932064Y-57110000D01*
%TO.C,R27*%
X40707936Y-63040000D02*
X41162064Y-63040000D01*
X40707936Y-64510000D02*
X41162064Y-64510000D01*
%TO.C,R13*%
X31887936Y-63040000D02*
X32342064Y-63040000D01*
X31887936Y-64510000D02*
X32342064Y-64510000D01*
%TO.C,R5*%
X27477936Y-60090000D02*
X27932064Y-60090000D01*
X27477936Y-61560000D02*
X27932064Y-61560000D01*
%TO.C,C9*%
X28143748Y-81300000D02*
X28666252Y-81300000D01*
X28143748Y-82770000D02*
X28666252Y-82770000D01*
%TO.C,U6*%
X39895000Y-84730000D02*
X43655000Y-84730000D01*
X39895000Y-91550000D02*
X43655000Y-91550000D01*
X43655000Y-84730000D02*
X43655000Y-85990000D01*
X43655000Y-91550000D02*
X43655000Y-90290000D01*
X38615000Y-84830000D02*
X38375000Y-84500000D01*
X38855000Y-84500000D01*
X38615000Y-84830000D01*
G36*
X38615000Y-84830000D02*
G01*
X38375000Y-84500000D01*
X38855000Y-84500000D01*
X38615000Y-84830000D01*
G37*
%TO.C,C3*%
X33103748Y-72265000D02*
X34526252Y-72265000D01*
X33103748Y-74085000D02*
X34526252Y-74085000D01*
%TO.C,R23*%
X40707936Y-51240000D02*
X41162064Y-51240000D01*
X40707936Y-52710000D02*
X41162064Y-52710000D01*
%TO.C,R14*%
X31887936Y-65990000D02*
X32342064Y-65990000D01*
X31887936Y-67460000D02*
X32342064Y-67460000D01*
%TO.C,U2*%
X31165000Y-26665000D02*
X31165000Y-32475000D01*
X31165000Y-26665000D02*
X49385000Y-26665000D01*
X31165000Y-46585000D02*
X31165000Y-46885000D01*
X31165000Y-46885000D02*
X49385000Y-46885000D01*
X49385000Y-26665000D02*
X49385000Y-33165000D01*
X49385000Y-46585000D02*
X49385000Y-46885000D01*
X31175000Y-33175000D02*
X30675000Y-33175000D01*
X31175000Y-32675000D01*
X31175000Y-33175000D01*
G36*
X31175000Y-33175000D02*
G01*
X30675000Y-33175000D01*
X31175000Y-32675000D01*
X31175000Y-33175000D01*
G37*
%TO.C,R20*%
X36297936Y-63040000D02*
X36752064Y-63040000D01*
X36297936Y-64510000D02*
X36752064Y-64510000D01*
%TO.C,R21*%
X36297936Y-65990000D02*
X36752064Y-65990000D01*
X36297936Y-67460000D02*
X36752064Y-67460000D01*
%TO.C,R18*%
X36297936Y-57140000D02*
X36752064Y-57140000D01*
X36297936Y-58610000D02*
X36752064Y-58610000D01*
%TO.C,D2*%
X37490000Y-79850000D02*
X37490000Y-83150000D01*
X37490000Y-79850000D02*
X44500000Y-79850000D01*
X37490000Y-83150000D02*
X44500000Y-83150000D01*
%TO.C,C10*%
X28143748Y-84310000D02*
X28666252Y-84310000D01*
X28143748Y-85780000D02*
X28666252Y-85780000D01*
%TO.C,SW1*%
X67730000Y-48530000D02*
X67730000Y-47530000D01*
X67980000Y-57220000D02*
X67980000Y-47780000D01*
X68730000Y-47530000D02*
X67730000Y-47530000D01*
X71300000Y-50800000D02*
X71300000Y-54100000D01*
X74600000Y-50800000D02*
X71300000Y-50800000D01*
X74600000Y-50800000D02*
X74600000Y-54100000D01*
X74600000Y-54100000D02*
X71300000Y-54100000D01*
X78020000Y-47780000D02*
X67980000Y-47780000D01*
X78020000Y-57220000D02*
X67980000Y-57220000D01*
X78020000Y-57220000D02*
X78020000Y-47780000D01*
%TO.C,C1*%
X28143748Y-72270000D02*
X28666252Y-72270000D01*
X28143748Y-73740000D02*
X28666252Y-73740000D01*
%TO.C,R28*%
X62477936Y-49740000D02*
X62932064Y-49740000D01*
X62477936Y-51210000D02*
X62932064Y-51210000D01*
%TO.C,R15*%
X36297936Y-48290000D02*
X36752064Y-48290000D01*
X36297936Y-49760000D02*
X36752064Y-49760000D01*
%TO.C,R17*%
X36297936Y-54190000D02*
X36752064Y-54190000D01*
X36297936Y-55660000D02*
X36752064Y-55660000D01*
%TO.C,R2*%
X27477936Y-51240000D02*
X27932064Y-51240000D01*
X27477936Y-52710000D02*
X27932064Y-52710000D01*
%TO.C,R25*%
X40707936Y-57140000D02*
X41162064Y-57140000D01*
X40707936Y-58610000D02*
X41162064Y-58610000D01*
%TO.C,R12*%
X31887936Y-60090000D02*
X32342064Y-60090000D01*
X31887936Y-61560000D02*
X32342064Y-61560000D01*
%TO.C,R11*%
X31887936Y-57140000D02*
X32342064Y-57140000D01*
X31887936Y-58610000D02*
X32342064Y-58610000D01*
%TO.C,R24*%
X40707936Y-54190000D02*
X41162064Y-54190000D01*
X40707936Y-55660000D02*
X41162064Y-55660000D01*
%TO.C,R16*%
X36297936Y-51240000D02*
X36752064Y-51240000D01*
X36297936Y-52710000D02*
X36752064Y-52710000D01*
%TO.C,R31*%
X48647936Y-84680000D02*
X49102064Y-84680000D01*
X48647936Y-86150000D02*
X49102064Y-86150000D01*
%TO.C,C4*%
X33103748Y-75615000D02*
X34526252Y-75615000D01*
X33103748Y-77435000D02*
X34526252Y-77435000D01*
%TO.C,C8*%
X33103748Y-85665000D02*
X34526252Y-85665000D01*
X33103748Y-87485000D02*
X34526252Y-87485000D01*
%TO.C,C6*%
X33103748Y-82315000D02*
X34526252Y-82315000D01*
X33103748Y-84135000D02*
X34526252Y-84135000D01*
%TO.C,U3*%
X46215000Y-59390000D02*
X49975000Y-59390000D01*
X46215000Y-66210000D02*
X49975000Y-66210000D01*
X49975000Y-59390000D02*
X49975000Y-60650000D01*
X49975000Y-66210000D02*
X49975000Y-64950000D01*
X44935000Y-59490000D02*
X44695000Y-59160000D01*
X45175000Y-59160000D01*
X44935000Y-59490000D01*
G36*
X44935000Y-59490000D02*
G01*
X44695000Y-59160000D01*
X45175000Y-59160000D01*
X44935000Y-59490000D01*
G37*
%TO.C,C5*%
X33103748Y-78965000D02*
X34526252Y-78965000D01*
X33103748Y-80785000D02*
X34526252Y-80785000D01*
%TO.C,C11*%
X28143748Y-87320000D02*
X28666252Y-87320000D01*
X28143748Y-88790000D02*
X28666252Y-88790000D01*
%TO.C,R19*%
X36297936Y-60090000D02*
X36752064Y-60090000D01*
X36297936Y-61560000D02*
X36752064Y-61560000D01*
%TO.C,C12*%
X28143748Y-90330000D02*
X28666252Y-90330000D01*
X28143748Y-91800000D02*
X28666252Y-91800000D01*
%TO.C,R26*%
X40707936Y-60090000D02*
X41162064Y-60090000D01*
X40707936Y-61560000D02*
X41162064Y-61560000D01*
%TO.C,J3*%
X44045000Y-50455000D02*
X46045000Y-50455000D01*
X44045000Y-55695000D02*
X44045000Y-50455000D01*
X46045000Y-49905000D02*
X48565000Y-49905000D01*
X46045000Y-50455000D02*
X46045000Y-49905000D01*
X46045000Y-55695000D02*
X44045000Y-55695000D01*
X46045000Y-56245000D02*
X46045000Y-55695000D01*
X50165000Y-49905000D02*
X51565000Y-49905000D01*
X53165000Y-49905000D02*
X55565000Y-49905000D01*
X56665000Y-56245000D02*
X46045000Y-56245000D01*
X56665000Y-57575000D02*
X56665000Y-56245000D01*
X58385000Y-49905000D02*
X57165000Y-49905000D01*
X58385000Y-49905000D02*
X58385000Y-57575000D01*
%TO.C,R9*%
X31887936Y-51240000D02*
X32342064Y-51240000D01*
X31887936Y-52710000D02*
X32342064Y-52710000D01*
%TO.C,R3*%
X27477936Y-54190000D02*
X27932064Y-54190000D01*
X27477936Y-55660000D02*
X27932064Y-55660000D01*
%TO.C,U5*%
X58465000Y-35255000D02*
X62585000Y-35255000D01*
X58465000Y-35320000D02*
X58465000Y-35255000D01*
X58465000Y-44125000D02*
X58465000Y-44060000D01*
X62585000Y-35255000D02*
X62585000Y-35320000D01*
X62585000Y-44060000D02*
X62585000Y-44125000D01*
X62585000Y-44125000D02*
X58465000Y-44125000D01*
X57925000Y-35320000D02*
X57685000Y-34990000D01*
X58165000Y-34990000D01*
X57925000Y-35320000D01*
G36*
X57925000Y-35320000D02*
G01*
X57685000Y-34990000D01*
X58165000Y-34990000D01*
X57925000Y-35320000D01*
G37*
%TO.C,R1*%
X27477936Y-48290000D02*
X27932064Y-48290000D01*
X27477936Y-49760000D02*
X27932064Y-49760000D01*
%TO.C,R7*%
X27477936Y-65990000D02*
X27932064Y-65990000D01*
X27477936Y-67460000D02*
X27932064Y-67460000D01*
%TO.C,R22*%
X40707936Y-48290000D02*
X41162064Y-48290000D01*
X40707936Y-49760000D02*
X41162064Y-49760000D01*
%TD*%
M02*
