%TF.GenerationSoftware,KiCad,Pcbnew,10.0.3*%
%TF.CreationDate,2026-06-15T02:42:56-04:00*%
%TF.ProjectId,Electrocardiograma,456c6563-7472-46f6-9361-7264696f6772,rev?*%
%TF.SameCoordinates,Original*%
%TF.FileFunction,Soldermask,Top*%
%TF.FilePolarity,Negative*%
%FSLAX46Y46*%
G04 Gerber Fmt 4.6, Leading zero omitted, Abs format (unit mm)*
G04 Created by KiCad (PCBNEW 10.0.3) date 2026-06-15 02:42:56*
%MOMM*%
%LPD*%
G01*
G04 APERTURE LIST*
G04 Aperture macros list*
%AMRoundRect*
0 Rectangle with rounded corners*
0 $1 Rounding radius*
0 $2 $3 $4 $5 $6 $7 $8 $9 X,Y pos of 4 corners*
0 Add a 4 corners polygon primitive as box body*
4,1,4,$2,$3,$4,$5,$6,$7,$8,$9,$2,$3,0*
0 Add four circle primitives for the rounded corners*
1,1,$1+$1,$2,$3*
1,1,$1+$1,$4,$5*
1,1,$1+$1,$6,$7*
1,1,$1+$1,$8,$9*
0 Add four rect primitives between the rounded corners*
20,1,$1+$1,$2,$3,$4,$5,0*
20,1,$1+$1,$4,$5,$6,$7,0*
20,1,$1+$1,$6,$7,$8,$9,0*
20,1,$1+$1,$8,$9,$2,$3,0*%
G04 Aperture macros list end*
%ADD10C,1.200000*%
%ADD11RoundRect,0.250000X-0.600000X-0.750000X0.600000X-0.750000X0.600000X0.750000X-0.600000X0.750000X0*%
%ADD12O,1.700000X2.000000*%
%ADD13RoundRect,0.150000X-0.587500X-0.150000X0.587500X-0.150000X0.587500X0.150000X-0.587500X0.150000X0*%
%ADD14RoundRect,0.250000X-0.350000X-0.450000X0.350000X-0.450000X0.350000X0.450000X-0.350000X0.450000X0*%
%ADD15RoundRect,0.250000X-0.337500X-0.475000X0.337500X-0.475000X0.337500X0.475000X-0.337500X0.475000X0*%
%ADD16RoundRect,0.250000X-0.850000X-0.350000X0.850000X-0.350000X0.850000X0.350000X-0.850000X0.350000X0*%
%ADD17RoundRect,0.249997X-2.950003X-2.650003X2.950003X-2.650003X2.950003X2.650003X-2.950003X2.650003X0*%
%ADD18RoundRect,0.150000X-0.825000X-0.150000X0.825000X-0.150000X0.825000X0.150000X-0.825000X0.150000X0*%
%ADD19RoundRect,0.250000X-0.412500X-0.650000X0.412500X-0.650000X0.412500X0.650000X-0.412500X0.650000X0*%
%ADD20RoundRect,0.375000X-0.625000X-0.375000X0.625000X-0.375000X0.625000X0.375000X-0.625000X0.375000X0*%
%ADD21RoundRect,0.500000X-0.500000X-1.400000X0.500000X-1.400000X0.500000X1.400000X-0.500000X1.400000X0*%
%ADD22R,1.500000X0.900000*%
%ADD23C,0.600000*%
%ADD24R,2.900000X2.900000*%
%ADD25RoundRect,0.250000X-1.500000X-0.650000X1.500000X-0.650000X1.500000X0.650000X-1.500000X0.650000X0*%
%ADD26R,1.800000X1.800000*%
%ADD27C,1.800000*%
%ADD28C,1.600000*%
%ADD29R,1.200000X2.500000*%
G04 APERTURE END LIST*
D10*
%TO.C,J5*%
X53875000Y-90975000D03*
D11*
X55475000Y-88975000D03*
D12*
X57975000Y-88975000D03*
%TD*%
D10*
%TO.C,J4*%
X53875000Y-83175000D03*
D11*
X55475000Y-81175000D03*
D12*
X57975000Y-81175000D03*
%TD*%
D10*
%TO.C,J2*%
X53875000Y-75375000D03*
D11*
X55475000Y-73375000D03*
D12*
X57975000Y-73375000D03*
%TD*%
D13*
%TO.C,D1*%
X54622500Y-65705000D03*
X54622500Y-67605000D03*
X56497500Y-66655000D03*
%TD*%
D14*
%TO.C,R10*%
X31115000Y-54925000D03*
X33115000Y-54925000D03*
%TD*%
%TO.C,R29*%
X61705000Y-53425000D03*
X63705000Y-53425000D03*
%TD*%
%TO.C,R6*%
X26705000Y-63775000D03*
X28705000Y-63775000D03*
%TD*%
D15*
%TO.C,C7*%
X27367500Y-79025000D03*
X29442500Y-79025000D03*
%TD*%
D14*
%TO.C,R32*%
X47875000Y-88365000D03*
X49875000Y-88365000D03*
%TD*%
%TO.C,R8*%
X31115000Y-49025000D03*
X33115000Y-49025000D03*
%TD*%
D16*
%TO.C,U3*%
X38695000Y-73390000D03*
D17*
X44995000Y-75670000D03*
D16*
X38695000Y-77950000D03*
%TD*%
D18*
%TO.C,U4*%
X72550000Y-35380000D03*
X72550000Y-36650000D03*
X72550000Y-37920000D03*
X72550000Y-39190000D03*
X72550000Y-40460000D03*
X72550000Y-41730000D03*
X72550000Y-43000000D03*
X77500000Y-43000000D03*
X77500000Y-41730000D03*
X77500000Y-40460000D03*
X77500000Y-39190000D03*
X77500000Y-37920000D03*
X77500000Y-36650000D03*
X77500000Y-35380000D03*
%TD*%
D15*
%TO.C,C2*%
X27367500Y-76015000D03*
X29442500Y-76015000D03*
%TD*%
D18*
%TO.C,U1*%
X54740000Y-60055000D03*
X54740000Y-61325000D03*
X54740000Y-62595000D03*
X54740000Y-63865000D03*
X59690000Y-63865000D03*
X59690000Y-62595000D03*
X59690000Y-61325000D03*
X59690000Y-60055000D03*
%TD*%
D14*
%TO.C,R4*%
X26705000Y-57875000D03*
X28705000Y-57875000D03*
%TD*%
D19*
%TO.C,C13*%
X32252500Y-89925000D03*
X35377500Y-89925000D03*
%TD*%
D14*
%TO.C,R30*%
X61705000Y-56375000D03*
X63705000Y-56375000D03*
%TD*%
%TO.C,R27*%
X39935000Y-63775000D03*
X41935000Y-63775000D03*
%TD*%
%TO.C,R13*%
X31115000Y-63775000D03*
X33115000Y-63775000D03*
%TD*%
%TO.C,R5*%
X26705000Y-60825000D03*
X28705000Y-60825000D03*
%TD*%
D15*
%TO.C,C9*%
X27367500Y-82035000D03*
X29442500Y-82035000D03*
%TD*%
D20*
%TO.C,U6*%
X38595000Y-85840000D03*
X38595000Y-88140000D03*
D21*
X44895000Y-88140000D03*
D20*
X38595000Y-90440000D03*
%TD*%
D19*
%TO.C,C3*%
X32252500Y-73175000D03*
X35377500Y-73175000D03*
%TD*%
D14*
%TO.C,R23*%
X39935000Y-51975000D03*
X41935000Y-51975000D03*
%TD*%
%TO.C,R14*%
X31115000Y-66725000D03*
X33115000Y-66725000D03*
%TD*%
D22*
%TO.C,U2*%
X31525000Y-33875000D03*
X31525000Y-35375000D03*
X31525000Y-36875000D03*
X31525000Y-38375000D03*
X31525000Y-39875000D03*
X31525000Y-41375000D03*
X31525000Y-42875000D03*
X31525000Y-44375000D03*
X31525000Y-45875000D03*
X49025000Y-45875000D03*
X49025000Y-44375000D03*
X49025000Y-42875000D03*
X49025000Y-41375000D03*
X49025000Y-39875000D03*
X49025000Y-38375000D03*
X49025000Y-36875000D03*
X49025000Y-35375000D03*
X49025000Y-33875000D03*
D23*
X40135000Y-39525000D03*
X40135000Y-40625000D03*
X40685000Y-38975000D03*
X40685000Y-40075000D03*
X40685000Y-41175000D03*
X41235000Y-39525000D03*
D24*
X41235000Y-40075000D03*
D23*
X41235000Y-40625000D03*
X41785000Y-38975000D03*
X41785000Y-40075000D03*
X41785000Y-41175000D03*
X42335000Y-39525000D03*
X42335000Y-40625000D03*
%TD*%
D14*
%TO.C,R20*%
X35525000Y-63775000D03*
X37525000Y-63775000D03*
%TD*%
%TO.C,R21*%
X35525000Y-66725000D03*
X37525000Y-66725000D03*
%TD*%
%TO.C,R18*%
X35525000Y-57875000D03*
X37525000Y-57875000D03*
%TD*%
D25*
%TO.C,D2*%
X39500000Y-81500000D03*
X44500000Y-81500000D03*
%TD*%
D15*
%TO.C,C10*%
X27367500Y-85045000D03*
X29442500Y-85045000D03*
%TD*%
D26*
%TO.C,SW1*%
X70500000Y-49500000D03*
D27*
X75500000Y-49500000D03*
X70500000Y-55500000D03*
X75500000Y-55500000D03*
%TD*%
D15*
%TO.C,C1*%
X27367500Y-73005000D03*
X29442500Y-73005000D03*
%TD*%
D14*
%TO.C,R28*%
X61705000Y-50475000D03*
X63705000Y-50475000D03*
%TD*%
%TO.C,R15*%
X35525000Y-49025000D03*
X37525000Y-49025000D03*
%TD*%
%TO.C,R17*%
X35525000Y-54925000D03*
X37525000Y-54925000D03*
%TD*%
%TO.C,R2*%
X26705000Y-51975000D03*
X28705000Y-51975000D03*
%TD*%
%TO.C,R25*%
X39935000Y-57875000D03*
X41935000Y-57875000D03*
%TD*%
%TO.C,R12*%
X31115000Y-60825000D03*
X33115000Y-60825000D03*
%TD*%
%TO.C,R11*%
X31115000Y-57875000D03*
X33115000Y-57875000D03*
%TD*%
%TO.C,R24*%
X39935000Y-54925000D03*
X41935000Y-54925000D03*
%TD*%
%TO.C,R16*%
X35525000Y-51975000D03*
X37525000Y-51975000D03*
%TD*%
%TO.C,R31*%
X47875000Y-85415000D03*
X49875000Y-85415000D03*
%TD*%
D19*
%TO.C,C4*%
X32252500Y-76525000D03*
X35377500Y-76525000D03*
%TD*%
%TO.C,C8*%
X32252500Y-86575000D03*
X35377500Y-86575000D03*
%TD*%
%TO.C,C6*%
X32252500Y-83225000D03*
X35377500Y-83225000D03*
%TD*%
D20*
%TO.C,U3*%
X44915000Y-60500000D03*
X44915000Y-62800000D03*
D21*
X51215000Y-62800000D03*
D20*
X44915000Y-65100000D03*
%TD*%
D19*
%TO.C,C5*%
X32252500Y-79875000D03*
X35377500Y-79875000D03*
%TD*%
D15*
%TO.C,C11*%
X27367500Y-88055000D03*
X29442500Y-88055000D03*
%TD*%
D14*
%TO.C,R19*%
X35525000Y-60825000D03*
X37525000Y-60825000D03*
%TD*%
D15*
%TO.C,C12*%
X27367500Y-91065000D03*
X29442500Y-91065000D03*
%TD*%
D14*
%TO.C,R26*%
X39935000Y-60825000D03*
X41935000Y-60825000D03*
%TD*%
D28*
%TO.C,J3*%
X47765000Y-53075000D03*
X54765000Y-53075000D03*
D29*
X52365000Y-49825000D03*
X49365000Y-49825000D03*
X57465000Y-56325000D03*
X56365000Y-49825000D03*
%TD*%
D14*
%TO.C,R9*%
X31115000Y-51975000D03*
X33115000Y-51975000D03*
%TD*%
%TO.C,R3*%
X26705000Y-54925000D03*
X28705000Y-54925000D03*
%TD*%
D18*
%TO.C,U5*%
X58050000Y-35880000D03*
X58050000Y-37150000D03*
X58050000Y-38420000D03*
X58050000Y-39690000D03*
X58050000Y-40960000D03*
X58050000Y-42230000D03*
X58050000Y-43500000D03*
X63000000Y-43500000D03*
X63000000Y-42230000D03*
X63000000Y-40960000D03*
X63000000Y-39690000D03*
X63000000Y-38420000D03*
X63000000Y-37150000D03*
X63000000Y-35880000D03*
%TD*%
D14*
%TO.C,R1*%
X26705000Y-49025000D03*
X28705000Y-49025000D03*
%TD*%
%TO.C,R7*%
X26705000Y-66725000D03*
X28705000Y-66725000D03*
%TD*%
%TO.C,R22*%
X39935000Y-49025000D03*
X41935000Y-49025000D03*
%TD*%
M02*
