%TF.GenerationSoftware,KiCad,Pcbnew,10.0.3*%
%TF.CreationDate,2026-07-14T19:10:00-04:00*%
%TF.ProjectId,Electrocardiograma,456c6563-7472-46f6-9361-7264696f6772,009*%
%TF.SameCoordinates,Original*%
%TF.FileFunction,Other,User*%
%FSLAX46Y46*%
G04 Gerber Fmt 4.6, Leading zero omitted, Abs format (unit mm)*
G04 Created by KiCad (PCBNEW 10.0.3) date 2026-07-14 19:10:00*
%MOMM*%
%LPD*%
G01*
G04 APERTURE LIST*
%ADD10C,0.050000*%
G04 APERTURE END LIST*
%TO.C,R33*%
D10*
X144337500Y-79450000D02*
X148037500Y-79450000D01*
X148037500Y-81350000D01*
X144337500Y-81350000D01*
X144337500Y-79450000D01*
%TO.C,R23*%
X160449816Y-85516380D02*
X164149816Y-85516380D01*
X164149816Y-87416380D01*
X160449816Y-87416380D01*
X160449816Y-85516380D01*
%TO.C,R17*%
X160411092Y-87550000D02*
X164111092Y-87550000D01*
X164111092Y-89450000D01*
X160411092Y-89450000D01*
X160411092Y-87550000D01*
%TO.C,R10*%
X148911092Y-92300000D02*
X152611092Y-92300000D01*
X152611092Y-94200000D01*
X148911092Y-94200000D01*
X148911092Y-92300000D01*
%TO.C,R29*%
X135253790Y-96490000D02*
X137153790Y-96490000D01*
X137153790Y-100190000D01*
X135253790Y-100190000D01*
X135253790Y-96490000D01*
%TO.C,R6*%
X162911092Y-95250000D02*
X166611092Y-95250000D01*
X166611092Y-97150000D01*
X162911092Y-97150000D01*
X162911092Y-95250000D01*
%TO.C,D4*%
X143737500Y-76670000D02*
X148637500Y-76670000D01*
X148637500Y-78930000D01*
X143737500Y-78930000D01*
X143737500Y-76670000D01*
%TO.C,U8*%
X175800000Y-84300000D02*
X175950000Y-84300000D01*
X175800000Y-88700000D02*
X175800000Y-84300000D01*
X175950000Y-82770000D02*
X181050000Y-82770000D01*
X175950000Y-84300000D02*
X175950000Y-82770000D01*
X175950000Y-88700000D02*
X175800000Y-88700000D01*
X175950000Y-90230000D02*
X175950000Y-88700000D01*
X181050000Y-82770000D02*
X181050000Y-84300000D01*
X181050000Y-84300000D02*
X181200000Y-84300000D01*
X181050000Y-88700000D02*
X181050000Y-90230000D01*
X181050000Y-90230000D02*
X175950000Y-90230000D01*
X181200000Y-84300000D02*
X181200000Y-88700000D01*
X181200000Y-88700000D02*
X181050000Y-88700000D01*
%TO.C,C15*%
X151620000Y-82770000D02*
X155380000Y-82770000D01*
X155380000Y-84730000D01*
X151620000Y-84730000D01*
X151620000Y-82770000D01*
%TO.C,C7*%
X161627500Y-118950000D02*
X165387500Y-118950000D01*
X165387500Y-120910000D01*
X161627500Y-120910000D01*
X161627500Y-118950000D01*
%TO.C,R32*%
X139150000Y-102250000D02*
X142850000Y-102250000D01*
X142850000Y-104150000D01*
X139150000Y-104150000D01*
X139150000Y-102250000D01*
%TO.C,R8*%
X151611092Y-87650000D02*
X155311092Y-87650000D01*
X155311092Y-89550000D01*
X151611092Y-89550000D01*
X151611092Y-87650000D01*
%TO.C,U3*%
X126200000Y-105150000D02*
X126200000Y-113950000D01*
X126200000Y-113950000D02*
X133400000Y-113950000D01*
X133400000Y-105150000D02*
X126200000Y-105150000D01*
X133400000Y-113950000D02*
X133400000Y-105150000D01*
%TO.C,U4*%
X159895000Y-109710000D02*
X161395000Y-109710000D01*
X159895000Y-118430000D02*
X159895000Y-109710000D01*
X161395000Y-109490000D02*
X165795000Y-109490000D01*
X161395000Y-109710000D02*
X161395000Y-109490000D01*
X161395000Y-118430000D02*
X159895000Y-118430000D01*
X161395000Y-118650000D02*
X161395000Y-118430000D01*
X165795000Y-109490000D02*
X165795000Y-109710000D01*
X165795000Y-109710000D02*
X167295000Y-109710000D01*
X165795000Y-118430000D02*
X165795000Y-118650000D01*
X165795000Y-118650000D02*
X161395000Y-118650000D01*
X167295000Y-109710000D02*
X167295000Y-118430000D01*
X167295000Y-118430000D02*
X165795000Y-118430000D01*
%TO.C,R41*%
X150450000Y-77900000D02*
X152350000Y-77900000D01*
X152350000Y-81600000D01*
X150450000Y-81600000D01*
X150450000Y-77900000D01*
%TO.C,C2*%
X170320000Y-101192597D02*
X172280000Y-101192597D01*
X172280000Y-104952597D01*
X170320000Y-104952597D01*
X170320000Y-101192597D01*
%TO.C,U1*%
X172717500Y-101262500D02*
X172987500Y-101262500D01*
X172717500Y-104762500D02*
X172717500Y-101262500D01*
X172987500Y-99832500D02*
X175947500Y-99832500D01*
X172987500Y-101262500D02*
X172987500Y-99832500D01*
X172987500Y-104762500D02*
X172717500Y-104762500D01*
X172987500Y-106192500D02*
X172987500Y-104762500D01*
X175947500Y-99832500D02*
X175947500Y-101262500D01*
X175947500Y-101262500D02*
X176217500Y-101262500D01*
X175947500Y-104762500D02*
X175947500Y-106192500D01*
X175947500Y-106192500D02*
X172987500Y-106192500D01*
X176217500Y-101262500D02*
X176217500Y-104762500D01*
X176217500Y-104762500D02*
X175947500Y-104762500D01*
%TO.C,R4*%
X168150000Y-109680000D02*
X170050000Y-109680000D01*
X170050000Y-113380000D01*
X168150000Y-113380000D01*
X168150000Y-109680000D01*
%TO.C,C13*%
X164911092Y-84957500D02*
X167211092Y-84957500D01*
X167211092Y-89917500D01*
X164911092Y-89917500D01*
X164911092Y-84957500D01*
%TO.C,J1*%
X171025000Y-106996000D02*
X171025000Y-122950000D01*
X171025000Y-122950000D02*
X179433000Y-122950000D01*
X179433000Y-106996000D02*
X171025000Y-106996000D01*
X179433000Y-122950000D02*
X179433000Y-106996000D01*
%TO.C,R40*%
X169050000Y-83150000D02*
X170950000Y-83150000D01*
X170950000Y-86850000D01*
X169050000Y-86850000D01*
X169050000Y-83150000D01*
%TO.C,R30*%
X137753790Y-96490000D02*
X139653790Y-96490000D01*
X139653790Y-100190000D01*
X137753790Y-100190000D01*
X137753790Y-96490000D01*
%TO.C,R5*%
X166350000Y-107350000D02*
X170050000Y-107350000D01*
X170050000Y-109250000D01*
X166350000Y-109250000D01*
X166350000Y-107350000D01*
%TO.C,C9*%
X172657500Y-97520000D02*
X176417500Y-97520000D01*
X176417500Y-99480000D01*
X172657500Y-99480000D01*
X172657500Y-97520000D01*
%TO.C,R38*%
X156170000Y-114680000D02*
X158070000Y-114680000D01*
X158070000Y-118380000D01*
X156170000Y-118380000D01*
X156170000Y-114680000D01*
%TO.C,U6*%
X135000000Y-104950000D02*
X135000000Y-113750000D01*
X135000000Y-113750000D02*
X142200000Y-113750000D01*
X142200000Y-104950000D02*
X135000000Y-104950000D01*
X142200000Y-113750000D02*
X142200000Y-104950000D01*
%TO.C,C3*%
X177350000Y-100460000D02*
X179650000Y-100460000D01*
X179650000Y-105420000D01*
X177350000Y-105420000D01*
X177350000Y-100460000D01*
%TO.C,R14*%
X172712500Y-95110000D02*
X176412500Y-95110000D01*
X176412500Y-97010000D01*
X172712500Y-97010000D01*
X172712500Y-95110000D01*
%TO.C,U2*%
X113850000Y-71910000D02*
X125350000Y-71910000D01*
X113850000Y-100410000D02*
X113850000Y-71910000D01*
X113850000Y-100410000D02*
X125350000Y-100410000D01*
X125350000Y-76410000D02*
X125350000Y-71910000D01*
X125350000Y-76410000D02*
X139350000Y-76410000D01*
X125350000Y-100410000D02*
X125350000Y-95910000D01*
X139350000Y-95910000D02*
X125350000Y-95910000D01*
X139350000Y-95910000D02*
X139350000Y-76410000D01*
%TO.C,R20*%
X151473592Y-103250000D02*
X155173592Y-103250000D01*
X155173592Y-105150000D01*
X151473592Y-105150000D01*
X151473592Y-103250000D01*
%TO.C,D3*%
X143400000Y-85650000D02*
X148800000Y-85650000D01*
X143400000Y-89150000D02*
X143400000Y-85650000D01*
X148800000Y-85650000D02*
X148800000Y-89150000D01*
X148800000Y-89150000D02*
X143400000Y-89150000D01*
%TO.C,R21*%
X151473592Y-99750000D02*
X155173592Y-99750000D01*
X155173592Y-101650000D01*
X151473592Y-101650000D01*
X151473592Y-99750000D01*
%TO.C,R18*%
X153420000Y-109730000D02*
X155320000Y-109730000D01*
X155320000Y-113430000D01*
X153420000Y-113430000D01*
X153420000Y-109730000D01*
%TO.C,D2*%
X143750000Y-104900000D02*
X147250000Y-104900000D01*
X143750000Y-113900000D02*
X143750000Y-104900000D01*
X147250000Y-104900000D02*
X147250000Y-113900000D01*
X147250000Y-113900000D02*
X143750000Y-113900000D01*
%TO.C,C10*%
X172682500Y-92720000D02*
X176442500Y-92720000D01*
X176442500Y-94680000D01*
X172682500Y-94680000D01*
X172682500Y-92720000D01*
%TO.C,R42*%
X171300000Y-83150000D02*
X173200000Y-83150000D01*
X173200000Y-86850000D01*
X171300000Y-86850000D01*
X171300000Y-83150000D01*
%TO.C,C1*%
X155981092Y-87620000D02*
X159741092Y-87620000D01*
X159741092Y-89580000D01*
X155981092Y-89580000D01*
X155981092Y-87620000D01*
%TO.C,R28*%
X132753790Y-96490000D02*
X134653790Y-96490000D01*
X134653790Y-100190000D01*
X132753790Y-100190000D01*
X132753790Y-96490000D01*
%TO.C,R15*%
X160441623Y-83398088D02*
X164141623Y-83398088D01*
X164141623Y-85298088D01*
X160441623Y-85298088D01*
X160441623Y-83398088D01*
%TO.C,J4*%
X139650000Y-85625000D02*
X142750000Y-85625000D01*
X142750000Y-89175000D01*
X139650000Y-89175000D01*
X139650000Y-85625000D01*
%TO.C,R2*%
X168150000Y-99127500D02*
X170050000Y-99127500D01*
X170050000Y-102827500D01*
X168150000Y-102827500D01*
X168150000Y-99127500D01*
%TO.C,R25*%
X160411092Y-99750000D02*
X164111092Y-99750000D01*
X164111092Y-101650000D01*
X160411092Y-101650000D01*
X160411092Y-99750000D01*
%TO.C,R12*%
X160411092Y-103250000D02*
X164111092Y-103250000D01*
X164111092Y-105150000D01*
X160411092Y-105150000D01*
X160411092Y-103250000D01*
%TO.C,J6*%
X139650000Y-76290000D02*
X142750000Y-76290000D01*
X142750000Y-82380000D01*
X139650000Y-82380000D01*
X139650000Y-76290000D01*
%TO.C,C17*%
X173520000Y-87120000D02*
X175480000Y-87120000D01*
X175480000Y-90880000D01*
X173520000Y-90880000D01*
X173520000Y-87120000D01*
%TO.C,R36*%
X150650000Y-109730000D02*
X152550000Y-109730000D01*
X152550000Y-113430000D01*
X150650000Y-113430000D01*
X150650000Y-109730000D01*
%TO.C,J2*%
X125250000Y-115550000D02*
X133650000Y-115550000D01*
X133650000Y-122300000D01*
X125250000Y-122300000D01*
X125250000Y-115550000D01*
%TO.C,J3*%
X169310000Y-73900000D02*
X180050000Y-73900000D01*
X180050000Y-82150000D01*
X169310000Y-82150000D01*
X169310000Y-73900000D01*
%TO.C,C14*%
X165281092Y-100782500D02*
X167241092Y-100782500D01*
X167241092Y-104542500D01*
X165281092Y-104542500D01*
X165281092Y-100782500D01*
%TO.C,R11*%
X148911092Y-95250000D02*
X152611092Y-95250000D01*
X152611092Y-97150000D01*
X148911092Y-97150000D01*
X148911092Y-95250000D01*
%TO.C,R24*%
X168150000Y-114680000D02*
X170050000Y-114680000D01*
X170050000Y-118380000D01*
X168150000Y-118380000D01*
X168150000Y-114680000D01*
%TO.C,R16*%
X156170000Y-109730000D02*
X158070000Y-109730000D01*
X158070000Y-113430000D01*
X156170000Y-113430000D01*
X156170000Y-109730000D01*
%TO.C,R31*%
X134350000Y-102250000D02*
X138050000Y-102250000D01*
X138050000Y-104150000D01*
X134350000Y-104150000D01*
X134350000Y-102250000D01*
%TO.C,D5*%
X154250000Y-75500000D02*
X157750000Y-75500000D01*
X154250000Y-82500000D02*
X154250000Y-75500000D01*
X157750000Y-75500000D02*
X157750000Y-82500000D01*
X157750000Y-82500000D02*
X154250000Y-82500000D01*
%TO.C,R43*%
X173550000Y-83150000D02*
X175450000Y-83150000D01*
X175450000Y-86850000D01*
X173550000Y-86850000D01*
X173550000Y-83150000D01*
%TO.C,C4*%
X177350000Y-94420000D02*
X179650000Y-94420000D01*
X179650000Y-99380000D01*
X177350000Y-99380000D01*
X177350000Y-94420000D01*
%TO.C,R39*%
X166050000Y-79650000D02*
X167950000Y-79650000D01*
X167950000Y-83350000D01*
X166050000Y-83350000D01*
X166050000Y-79650000D01*
%TO.C,R37*%
X153420000Y-114680000D02*
X155320000Y-114680000D01*
X155320000Y-118380000D01*
X153420000Y-118380000D01*
X153420000Y-114680000D01*
%TO.C,C16*%
X166020000Y-75620000D02*
X167980000Y-75620000D01*
X167980000Y-79380000D01*
X166020000Y-79380000D01*
X166020000Y-75620000D01*
%TO.C,C8*%
X142843592Y-91850000D02*
X147803592Y-91850000D01*
X147803592Y-94150000D01*
X142843592Y-94150000D01*
X142843592Y-91850000D01*
%TO.C,C6*%
X167361092Y-92220000D02*
X169661092Y-92220000D01*
X169661092Y-97180000D01*
X167361092Y-97180000D01*
X167361092Y-92220000D01*
%TO.C,C5*%
X142843592Y-95050000D02*
X147803592Y-95050000D01*
X147803592Y-97350000D01*
X142843592Y-97350000D01*
X142843592Y-95050000D01*
%TO.C,C11*%
X155958592Y-103220000D02*
X159718592Y-103220000D01*
X159718592Y-105180000D01*
X155958592Y-105180000D01*
X155958592Y-103220000D01*
%TO.C,R35*%
X144315000Y-81850000D02*
X148015000Y-81850000D01*
X148015000Y-83750000D01*
X144315000Y-83750000D01*
X144315000Y-81850000D01*
%TO.C,R19*%
X155988592Y-99750000D02*
X159688592Y-99750000D01*
X159688592Y-101650000D01*
X155988592Y-101650000D01*
X155988592Y-99750000D01*
%TO.C,R34*%
X150650000Y-114770000D02*
X152550000Y-114770000D01*
X152550000Y-118470000D01*
X150650000Y-118470000D01*
X150650000Y-114770000D01*
%TO.C,C12*%
X148138592Y-99540000D02*
X150098592Y-99540000D01*
X150098592Y-103300000D01*
X148138592Y-103300000D01*
X148138592Y-99540000D01*
%TO.C,R9*%
X162911092Y-92250000D02*
X166611092Y-92250000D01*
X166611092Y-94150000D01*
X162911092Y-94150000D01*
X162911092Y-92250000D01*
%TO.C,D1*%
X147600000Y-107362500D02*
X147800000Y-107362500D01*
X147600000Y-109162500D02*
X147600000Y-107362500D01*
X147800000Y-106332500D02*
X148910000Y-106332500D01*
X147800000Y-107362500D02*
X147800000Y-106332500D01*
X148750000Y-109162500D02*
X147600000Y-109162500D01*
X148750000Y-110192500D02*
X148750000Y-109162500D01*
X148910000Y-106332500D02*
X148910000Y-107362500D01*
X148910000Y-107362500D02*
X149690000Y-107362500D01*
X149690000Y-106332500D02*
X150800000Y-106332500D01*
X149690000Y-107362500D02*
X149690000Y-106332500D01*
X149850000Y-109162500D02*
X149850000Y-110192500D01*
X149850000Y-110192500D02*
X148750000Y-110192500D01*
X150800000Y-106332500D02*
X150800000Y-107362500D01*
X150800000Y-107362500D02*
X151000000Y-107362500D01*
X151000000Y-107362500D02*
X151000000Y-109162500D01*
X151000000Y-109162500D02*
X149850000Y-109162500D01*
%TO.C,U5*%
X153181092Y-92500000D02*
X153401092Y-92500000D01*
X153181092Y-96900000D02*
X153181092Y-92500000D01*
X153401092Y-91000000D02*
X162121092Y-91000000D01*
X153401092Y-92500000D02*
X153401092Y-91000000D01*
X153401092Y-96900000D02*
X153181092Y-96900000D01*
X153401092Y-98400000D02*
X153401092Y-96900000D01*
X162121092Y-91000000D02*
X162121092Y-92500000D01*
X162121092Y-92500000D02*
X162341092Y-92500000D01*
X162121092Y-96900000D02*
X162121092Y-98400000D01*
X162121092Y-98400000D02*
X153401092Y-98400000D01*
X162341092Y-92500000D02*
X162341092Y-96900000D01*
X162341092Y-96900000D02*
X162121092Y-96900000D01*
%TO.C,R1*%
X168150000Y-103327500D02*
X170050000Y-103327500D01*
X170050000Y-107027500D01*
X168150000Y-107027500D01*
X168150000Y-103327500D01*
%TO.C,J5*%
X126525000Y-96790000D02*
X130075000Y-96790000D01*
X130075000Y-99890000D01*
X126525000Y-99890000D01*
X126525000Y-96790000D01*
%TO.C,R7*%
X151611092Y-85050000D02*
X155311092Y-85050000D01*
X155311092Y-86950000D01*
X151611092Y-86950000D01*
X151611092Y-85050000D01*
%TO.C,U7*%
X158220000Y-75885000D02*
X159870000Y-75885000D01*
X158220000Y-80845000D02*
X158220000Y-75885000D01*
X159870000Y-75635000D02*
X164130000Y-75635000D01*
X159870000Y-75885000D02*
X159870000Y-75635000D01*
X159870000Y-80845000D02*
X158220000Y-80845000D01*
X159870000Y-81095000D02*
X159870000Y-80845000D01*
X164130000Y-75635000D02*
X164130000Y-75885000D01*
X164130000Y-75885000D02*
X165780000Y-75885000D01*
X164130000Y-80845000D02*
X164130000Y-81095000D01*
X164130000Y-81095000D02*
X159870000Y-81095000D01*
X165780000Y-75885000D02*
X165780000Y-80845000D01*
X165780000Y-80845000D02*
X164130000Y-80845000D01*
%TO.C,S1*%
X134025000Y-116250000D02*
X134025000Y-126350000D01*
X134025000Y-126350000D02*
X148325000Y-126350000D01*
X148325000Y-116250000D02*
X134025000Y-116250000D01*
X148325000Y-126350000D02*
X148325000Y-116250000D01*
%TO.C,R22*%
X145711092Y-99550000D02*
X147611092Y-99550000D01*
X147611092Y-103250000D01*
X145711092Y-103250000D01*
X145711092Y-99550000D01*
%TD*%
M02*
