%TF.GenerationSoftware,KiCad,Pcbnew,10.0.3*%
%TF.CreationDate,2026-07-01T02:31:45-04:00*%
%TF.ProjectId,Electrocardiograma,456c6563-7472-46f6-9361-7264696f6772,009*%
%TF.SameCoordinates,Original*%
%TF.FileFunction,Copper,L1,Top*%
%TF.FilePolarity,Positive*%
%FSLAX46Y46*%
G04 Gerber Fmt 4.6, Leading zero omitted, Abs format (unit mm)*
G04 Created by KiCad (PCBNEW 10.0.3) date 2026-07-01 02:31:45*
%MOMM*%
%LPD*%
G01*
G04 APERTURE LIST*
G04 Aperture macros list*
%AMRoundRect*
0 Rectangle with rounded corners*
0 $1 Rounding radius*
0 $2 $3 $4 $5 $6 $7 $8 $9 X,Y pos of 4 corners*
0 Add a 4 corners polygon primitive as box body*
4,1,4,$2,$3,$4,$5,$6,$7,$8,$9,$2,$3,0*
0 Add four circle primitives for the rounded corners*
1,1,$1+$1,$2,$3*
1,1,$1+$1,$4,$5*
1,1,$1+$1,$6,$7*
1,1,$1+$1,$8,$9*
0 Add four rect primitives between the rounded corners*
20,1,$1+$1,$2,$3,$4,$5,0*
20,1,$1+$1,$4,$5,$6,$7,0*
20,1,$1+$1,$6,$7,$8,$9,0*
20,1,$1+$1,$8,$9,$2,$3,0*%
G04 Aperture macros list end*
%TA.AperFunction,SMDPad,CuDef*%
%ADD10RoundRect,0.125000X0.125000X-0.687500X0.125000X0.687500X-0.125000X0.687500X-0.125000X-0.687500X0*%
%TD*%
%TA.AperFunction,ComponentPad*%
%ADD11R,1.700000X1.700000*%
%TD*%
%TA.AperFunction,ComponentPad*%
%ADD12C,1.700000*%
%TD*%
%TA.AperFunction,SMDPad,CuDef*%
%ADD13RoundRect,0.250000X-0.350000X-0.450000X0.350000X-0.450000X0.350000X0.450000X-0.350000X0.450000X0*%
%TD*%
%TA.AperFunction,SMDPad,CuDef*%
%ADD14RoundRect,0.250000X-0.450000X0.350000X-0.450000X-0.350000X0.450000X-0.350000X0.450000X0.350000X0*%
%TD*%
%TA.AperFunction,SMDPad,CuDef*%
%ADD15RoundRect,0.250000X0.350000X0.450000X-0.350000X0.450000X-0.350000X-0.450000X0.350000X-0.450000X0*%
%TD*%
%TA.AperFunction,SMDPad,CuDef*%
%ADD16RoundRect,0.250000X0.337500X0.475000X-0.337500X0.475000X-0.337500X-0.475000X0.337500X-0.475000X0*%
%TD*%
%TA.AperFunction,SMDPad,CuDef*%
%ADD17RoundRect,0.375000X-0.375000X0.625000X-0.375000X-0.625000X0.375000X-0.625000X0.375000X0.625000X0*%
%TD*%
%TA.AperFunction,SMDPad,CuDef*%
%ADD18RoundRect,0.500000X-1.400000X0.500000X-1.400000X-0.500000X1.400000X-0.500000X1.400000X0.500000X0*%
%TD*%
%TA.AperFunction,SMDPad,CuDef*%
%ADD19RoundRect,0.150000X0.825000X0.150000X-0.825000X0.150000X-0.825000X-0.150000X0.825000X-0.150000X0*%
%TD*%
%TA.AperFunction,SMDPad,CuDef*%
%ADD20RoundRect,0.250000X-0.475000X0.337500X-0.475000X-0.337500X0.475000X-0.337500X0.475000X0.337500X0*%
%TD*%
%TA.AperFunction,SMDPad,CuDef*%
%ADD21RoundRect,0.250000X0.650000X-0.412500X0.650000X0.412500X-0.650000X0.412500X-0.650000X-0.412500X0*%
%TD*%
%TA.AperFunction,ComponentPad*%
%ADD22O,2.616000X1.308000*%
%TD*%
%TA.AperFunction,ComponentPad*%
%ADD23O,1.308000X2.616000*%
%TD*%
%TA.AperFunction,SMDPad,CuDef*%
%ADD24RoundRect,0.250000X-0.337500X-0.475000X0.337500X-0.475000X0.337500X0.475000X-0.337500X0.475000X0*%
%TD*%
%TA.AperFunction,SMDPad,CuDef*%
%ADD25RoundRect,0.250000X0.450000X-0.350000X0.450000X0.350000X-0.450000X0.350000X-0.450000X-0.350000X0*%
%TD*%
%TA.AperFunction,SMDPad,CuDef*%
%ADD26RoundRect,0.250000X-0.650000X0.412500X-0.650000X-0.412500X0.650000X-0.412500X0.650000X0.412500X0*%
%TD*%
%TA.AperFunction,SMDPad,CuDef*%
%ADD27R,0.900000X1.500000*%
%TD*%
%TA.AperFunction,HeatsinkPad*%
%ADD28C,0.600000*%
%TD*%
%TA.AperFunction,HeatsinkPad*%
%ADD29R,2.900000X2.900000*%
%TD*%
%TA.AperFunction,SMDPad,CuDef*%
%ADD30RoundRect,0.200000X-0.750000X-0.200000X0.750000X-0.200000X0.750000X0.200000X-0.750000X0.200000X0*%
%TD*%
%TA.AperFunction,SMDPad,CuDef*%
%ADD31RoundRect,0.250000X-0.650000X1.500000X-0.650000X-1.500000X0.650000X-1.500000X0.650000X1.500000X0*%
%TD*%
%TA.AperFunction,ComponentPad*%
%ADD32RoundRect,0.250000X-0.600000X-0.750000X0.600000X-0.750000X0.600000X0.750000X-0.600000X0.750000X0*%
%TD*%
%TA.AperFunction,ComponentPad*%
%ADD33O,1.700000X2.000000*%
%TD*%
%TA.AperFunction,SMDPad,CuDef*%
%ADD34RoundRect,0.250000X0.412500X0.650000X-0.412500X0.650000X-0.412500X-0.650000X0.412500X-0.650000X0*%
%TD*%
%TA.AperFunction,SMDPad,CuDef*%
%ADD35RoundRect,0.150000X-0.150000X0.587500X-0.150000X-0.587500X0.150000X-0.587500X0.150000X0.587500X0*%
%TD*%
%TA.AperFunction,SMDPad,CuDef*%
%ADD36RoundRect,0.150000X-0.150000X0.825000X-0.150000X-0.825000X0.150000X-0.825000X0.150000X0.825000X0*%
%TD*%
%TA.AperFunction,ComponentPad*%
%ADD37R,1.508000X1.508000*%
%TD*%
%TA.AperFunction,ComponentPad*%
%ADD38C,1.508000*%
%TD*%
%TA.AperFunction,ComponentPad*%
%ADD39O,1.208000X2.416000*%
%TD*%
%TA.AperFunction,ViaPad*%
%ADD40C,0.600000*%
%TD*%
%TA.AperFunction,Conductor*%
%ADD41C,0.200000*%
%TD*%
%TA.AperFunction,Conductor*%
%ADD42C,0.250000*%
%TD*%
%TA.AperFunction,Conductor*%
%ADD43C,0.400000*%
%TD*%
G04 APERTURE END LIST*
D10*
%TO.P,U1,8,Rg_8*%
%TO.N,Net-(R2-Pad2)*%
X173492500Y-100900000D03*
%TO.P,U1,7,V+_7*%
%TO.N,+6.1V*%
X174142500Y-100900000D03*
%TO.P,U1,6*%
%TO.N,/<NO NET>*%
X174792500Y-100900000D03*
%TO.P,U1,5,Ref_5*%
%TO.N,GND*%
X175442500Y-100900000D03*
%TO.P,U1,4,V-_4*%
%TO.N,-BATT_REG*%
X175442500Y-105125000D03*
%TO.P,U1,3,+_3*%
%TO.N,Net-(U1-+)*%
X174792500Y-105125000D03*
%TO.P,U1,2,-_2*%
%TO.N,Net-(U1--)*%
X174142500Y-105125000D03*
%TO.P,U1,1,Rg_1*%
%TO.N,Net-(R1-Pad1)*%
X173492500Y-105125000D03*
%TD*%
D11*
%TO.P,J6,1,Pin_1_1*%
%TO.N,-BATT_REG*%
X135710000Y-73700000D03*
D12*
%TO.P,J6,2,Pin_2_2*%
%TO.N,/USB_D-*%
X133170000Y-73700000D03*
%TO.P,J6,3,Pin_3_3*%
%TO.N,/USB_D+*%
X130630000Y-73700000D03*
%TO.P,J6,4,Pin_4_4*%
%TO.N,unconnected-(J6-Pin_4-Pad4)*%
X128090000Y-73700000D03*
%TD*%
%TO.P,J4,2,Pin_2_2*%
%TO.N,-BATT_REG*%
X141000000Y-86960000D03*
D11*
%TO.P,J4,1,Pin_1_1*%
%TO.N,/Boot2*%
X141000000Y-89500000D03*
%TD*%
D13*
%TO.P,R10,2*%
%TO.N,/N50Hz_out*%
X151761092Y-93250000D03*
%TO.P,R10,1*%
%TO.N,Net-(U5B--)*%
X149761092Y-93250000D03*
%TD*%
D14*
%TO.P,R29,1*%
%TO.N,/Boot1*%
X136203790Y-97340000D03*
%TO.P,R29,2*%
%TO.N,+3.3V*%
X136203790Y-99340000D03*
%TD*%
D15*
%TO.P,R6,2*%
%TO.N,GND*%
X163761092Y-96200000D03*
%TO.P,R6,1*%
%TO.N,Net-(C13-Pad1)*%
X165761092Y-96200000D03*
%TD*%
D16*
%TO.P,C7,1*%
%TO.N,+6.1V*%
X164545000Y-119930000D03*
%TO.P,C7,2*%
%TO.N,-BATT_REG*%
X162470000Y-119930000D03*
%TD*%
D13*
%TO.P,R32,1*%
%TO.N,Net-(U6-ADJ)*%
X140000000Y-103200000D03*
%TO.P,R32,2*%
%TO.N,-BATT_REG*%
X142000000Y-103200000D03*
%TD*%
%TO.P,R8,2*%
%TO.N,Net-(U5B-+)*%
X154461092Y-88600000D03*
%TO.P,R8,1*%
%TO.N,Net-(C5-Pad2)*%
X152461092Y-88600000D03*
%TD*%
D17*
%TO.P,U3,1,GND_1*%
%TO.N,-BATT_REG*%
X132100000Y-106400000D03*
%TO.P,U3,2,VO_2*%
%TO.N,+3.3V*%
X129800000Y-106400000D03*
D18*
X129800000Y-112700000D03*
D17*
%TO.P,U3,3,VI_3*%
%TO.N,Net-(D2-K)*%
X127500000Y-106400000D03*
%TD*%
D19*
%TO.P,U4,1*%
%TO.N,Net-(U4A--)*%
X166070000Y-117880000D03*
%TO.P,U4,2,-_2*%
X166070000Y-116610000D03*
%TO.P,U4,3,+_3*%
%TO.N,Net-(U4A-+)*%
X166070000Y-115340000D03*
%TO.P,U4,4,V+_4*%
%TO.N,+6.1V*%
X166070000Y-114070000D03*
%TO.P,U4,5,+_5*%
%TO.N,GND*%
X166070000Y-112800000D03*
%TO.P,U4,6,-_6*%
%TO.N,Net-(U4B--)*%
X166070000Y-111530000D03*
%TO.P,U4,7*%
%TO.N,Net-(R4-Pad1)*%
X166070000Y-110260000D03*
%TO.P,U4,8*%
%TO.N,GND*%
X161120000Y-110260000D03*
%TO.P,U4,9,-_9*%
X161120000Y-111530000D03*
%TO.P,U4,10,+_10*%
%TO.N,Net-(U4C-+)*%
X161120000Y-112800000D03*
%TO.P,U4,11,V-_11*%
%TO.N,-BATT_REG*%
X161120000Y-114070000D03*
%TO.P,U4,12,+_12*%
%TO.N,Net-(U4D-+)*%
X161120000Y-115340000D03*
%TO.P,U4,13,-_13*%
%TO.N,Net-(U4D--)*%
X161120000Y-116610000D03*
%TO.P,U4,14*%
%TO.N,/Leveled_Signal*%
X161120000Y-117880000D03*
%TD*%
D20*
%TO.P,C2,1*%
%TO.N,+6.1V*%
X171300000Y-102035097D03*
%TO.P,C2,2*%
%TO.N,-BATT_REG*%
X171300000Y-104110097D03*
%TD*%
D14*
%TO.P,R4,1*%
%TO.N,Net-(R4-Pad1)*%
X169270000Y-110530000D03*
%TO.P,R4,2*%
%TO.N,Net-(U4B--)*%
X169270000Y-112530000D03*
%TD*%
D21*
%TO.P,C13,2*%
%TO.N,Net-(U5B-+)*%
X166061092Y-85875000D03*
%TO.P,C13,1*%
%TO.N,Net-(C13-Pad1)*%
X166061092Y-89000000D03*
%TD*%
D22*
%TO.P,J1,1*%
%TO.N,Net-(U1-+)*%
X175229000Y-107900000D03*
D23*
%TO.P,J1,2*%
%TO.N,Net-(J1-Pad2)*%
X172379000Y-108700000D03*
%TO.P,J1,3*%
%TO.N,Net-(U1--)*%
X178079000Y-108700000D03*
%TO.P,J1,4_1*%
%TO.N,Net-(U4A--)*%
X171929000Y-116700000D03*
%TO.P,J1,4_2*%
%TO.N,unconnected-(J1-Pad4_2)*%
X178529000Y-116700000D03*
%TD*%
D14*
%TO.P,R30,1*%
%TO.N,/Boot2*%
X138703790Y-97340000D03*
%TO.P,R30,2*%
%TO.N,+3.3V*%
X138703790Y-99340000D03*
%TD*%
D13*
%TO.P,R5,1*%
%TO.N,Net-(R4-Pad1)*%
X167200000Y-108300000D03*
%TO.P,R5,2*%
%TO.N,Net-(J1-Pad2)*%
X169200000Y-108300000D03*
%TD*%
D24*
%TO.P,C9,1*%
%TO.N,/<NO NET>*%
X173500000Y-98500000D03*
%TO.P,C9,2*%
%TO.N,Net-(C10-Pad1)*%
X175575000Y-98500000D03*
%TD*%
D25*
%TO.P,R38,1*%
%TO.N,-BATT_REG*%
X157120000Y-117530000D03*
%TO.P,R38,2*%
%TO.N,Net-(U4D-+)*%
X157120000Y-115530000D03*
%TD*%
D17*
%TO.P,U6,1,ADJ_1*%
%TO.N,Net-(U6-ADJ)*%
X140900000Y-106200000D03*
%TO.P,U6,2,VO_2*%
%TO.N,+6.1V*%
X138600000Y-106200000D03*
D18*
X138600000Y-112500000D03*
D17*
%TO.P,U6,3,VI_3*%
%TO.N,Net-(D2-K)*%
X136300000Y-106200000D03*
%TD*%
D26*
%TO.P,C3,1*%
%TO.N,GND*%
X178552500Y-101377500D03*
%TO.P,C3,2*%
%TO.N,-BATT_REG*%
X178552500Y-104502500D03*
%TD*%
D15*
%TO.P,R23,2*%
%TO.N,Net-(U5A--)*%
X161299816Y-86466380D03*
%TO.P,R23,1*%
%TO.N,GND*%
X163299816Y-86466380D03*
%TD*%
%TO.P,R14,1*%
%TO.N,Net-(C10-Pad1)*%
X175562500Y-96060000D03*
%TO.P,R14,2*%
%TO.N,/HPF_out*%
X173562500Y-96060000D03*
%TD*%
D27*
%TO.P,U2,1,3V3_1*%
%TO.N,+3.3V*%
X125786770Y-94819440D03*
%TO.P,U2,2,EN_2*%
%TO.N,/Reset*%
X127286770Y-94819440D03*
%TO.P,U2,3,IO4_3*%
%TO.N,unconnected-(U2-IO4-Pad3)*%
X128786770Y-94819440D03*
%TO.P,U2,4,IO5_4*%
%TO.N,unconnected-(U2-IO5-Pad4)*%
X130286770Y-94819440D03*
%TO.P,U2,5,IO6_5*%
%TO.N,unconnected-(U2-IO6-Pad5)*%
X131786770Y-94819440D03*
%TO.P,U2,6,IO7_6*%
%TO.N,unconnected-(U2-IO7-Pad6)*%
X133286770Y-94819440D03*
%TO.P,U2,7,IO8_7*%
%TO.N,/Boot1*%
X134786770Y-94819440D03*
%TO.P,U2,8,IO9_8*%
%TO.N,/Boot2*%
X136286770Y-94819440D03*
%TO.P,U2,9,GND_9*%
%TO.N,-BATT_REG*%
X137786770Y-94819440D03*
%TO.P,U2,10,IO10_10*%
%TO.N,unconnected-(U2-IO10-Pad10)*%
X137786770Y-77319440D03*
%TO.P,U2,11,IO20/RXD_11*%
%TO.N,unconnected-(U2-IO20{slash}RXD-Pad11)*%
X136286770Y-77319440D03*
%TO.P,U2,12,IO21/TXD_12*%
%TO.N,unconnected-(U2-IO21{slash}TXD-Pad12)*%
X134786770Y-77319440D03*
%TO.P,U2,13,IO18_13*%
%TO.N,/USB_D-*%
X133286770Y-77319440D03*
%TO.P,U2,14,IO19_14*%
%TO.N,/USB_D+*%
X131786770Y-77319440D03*
%TO.P,U2,15,IO3_15*%
%TO.N,/ADC_3*%
X130286770Y-77319440D03*
%TO.P,U2,16,IO2_16*%
%TO.N,unconnected-(U2-IO2-Pad16)*%
X128786770Y-77319440D03*
%TO.P,U2,17,IO1_17*%
%TO.N,/To_ESP32*%
X127286770Y-77319440D03*
%TO.P,U2,18,IO0_18*%
%TO.N,/ADC_0*%
X125786770Y-77319440D03*
D28*
%TO.P,U2,19,GND_19*%
%TO.N,-BATT_REG*%
X131436770Y-86209440D03*
X132536770Y-86209440D03*
X130886770Y-85659440D03*
X131986770Y-85659440D03*
X133086770Y-85659440D03*
X131436770Y-85109440D03*
D29*
X131986770Y-85109440D03*
D28*
X132536770Y-85109440D03*
X130886770Y-84559440D03*
X131986770Y-84559440D03*
X133086770Y-84559440D03*
X131436770Y-84009440D03*
X132536770Y-84009440D03*
%TD*%
D13*
%TO.P,R20,2*%
%TO.N,Net-(U5C--)*%
X154323592Y-104200000D03*
%TO.P,R20,1*%
%TO.N,GND*%
X152323592Y-104200000D03*
%TD*%
D30*
%TO.P,D3,1,A_1*%
%TO.N,-BATT_REG*%
X144600000Y-86450000D03*
%TO.P,D3,2,K_2*%
%TO.N,+3.3V*%
X144600000Y-88350000D03*
%TO.P,D3,3,COM_3*%
%TO.N,/Leveled_Signal*%
X147600000Y-87400000D03*
%TD*%
D15*
%TO.P,R21,2*%
%TO.N,/LPF_out*%
X152323592Y-100700000D03*
%TO.P,R21,1*%
%TO.N,Net-(U5C--)*%
X154323592Y-100700000D03*
%TD*%
D25*
%TO.P,R18,1*%
%TO.N,Net-(U4C-+)*%
X154370000Y-112580000D03*
%TO.P,R18,2*%
%TO.N,+6.1V*%
X154370000Y-110580000D03*
%TD*%
D31*
%TO.P,D2,1,K_1*%
%TO.N,Net-(D2-K)*%
X145500000Y-106900000D03*
%TO.P,D2,2,A_2*%
%TO.N,+BATT*%
X145500000Y-111900000D03*
%TD*%
D16*
%TO.P,C10,1*%
%TO.N,Net-(C10-Pad1)*%
X175600000Y-93700000D03*
%TO.P,C10,2*%
%TO.N,Net-(U5A-+)*%
X173525000Y-93700000D03*
%TD*%
D24*
%TO.P,C1,2*%
%TO.N,-BATT_REG*%
X158898592Y-88600000D03*
%TO.P,C1,1*%
%TO.N,+6.1V*%
X156823592Y-88600000D03*
%TD*%
D14*
%TO.P,R28,1*%
%TO.N,/Reset*%
X133703790Y-97340000D03*
%TO.P,R28,2*%
%TO.N,+3.3V*%
X133703790Y-99340000D03*
%TD*%
D15*
%TO.P,R15,2*%
%TO.N,Net-(U5A-+)*%
X161291623Y-84348088D03*
%TO.P,R15,1*%
%TO.N,GND*%
X163291623Y-84348088D03*
%TD*%
D13*
%TO.P,R17,2*%
%TO.N,/HPF_out*%
X163261092Y-88500000D03*
%TO.P,R17,1*%
%TO.N,Net-(U5A--)*%
X161261092Y-88500000D03*
%TD*%
D25*
%TO.P,R2,1*%
%TO.N,Net-(U4A-+)*%
X169100000Y-101977500D03*
%TO.P,R2,2*%
%TO.N,Net-(R2-Pad2)*%
X169100000Y-99977500D03*
%TD*%
D13*
%TO.P,R25,2*%
%TO.N,/Sensing_Out*%
X163261092Y-100700000D03*
%TO.P,R25,1*%
%TO.N,Net-(U5D-+)*%
X161261092Y-100700000D03*
%TD*%
%TO.P,R12,2*%
%TO.N,Net-(U5D-+)*%
X163261092Y-104200000D03*
%TO.P,R12,1*%
%TO.N,/LPF_out*%
X161261092Y-104200000D03*
%TD*%
D25*
%TO.P,R36,1*%
%TO.N,Net-(U4D--)*%
X151600000Y-112580000D03*
%TO.P,R36,2*%
%TO.N,/Leveled_Signal*%
X151600000Y-110580000D03*
%TD*%
D32*
%TO.P,J2,1,Pin_1_1*%
%TO.N,Net-(J2-Pin_1)*%
X128000000Y-118800000D03*
D33*
%TO.P,J2,2,Pin_2_2*%
%TO.N,-BATT_REG*%
X130500000Y-118800000D03*
%TD*%
D20*
%TO.P,C14,2*%
%TO.N,Net-(U4D-+)*%
X166261092Y-103700000D03*
%TO.P,C14,1*%
%TO.N,/Sensing_Out*%
X166261092Y-101625000D03*
%TD*%
D13*
%TO.P,R11,2*%
%TO.N,GND*%
X151761092Y-96200000D03*
%TO.P,R11,1*%
%TO.N,Net-(U5B--)*%
X149761092Y-96200000D03*
%TD*%
D25*
%TO.P,R24,1*%
%TO.N,Net-(U4A--)*%
X169270000Y-117530000D03*
%TO.P,R24,2*%
%TO.N,Net-(U4B--)*%
X169270000Y-115530000D03*
%TD*%
%TO.P,R16,1*%
%TO.N,-BATT_REG*%
X157120000Y-112580000D03*
%TO.P,R16,2*%
%TO.N,Net-(U4C-+)*%
X157120000Y-110580000D03*
%TD*%
D13*
%TO.P,R31,1*%
%TO.N,+6.1V*%
X135200000Y-103200000D03*
%TO.P,R31,2*%
%TO.N,Net-(U6-ADJ)*%
X137200000Y-103200000D03*
%TD*%
D25*
%TO.P,R37,1*%
%TO.N,+3.3V*%
X154370000Y-117530000D03*
%TO.P,R37,2*%
%TO.N,Net-(U4D-+)*%
X154370000Y-115530000D03*
%TD*%
D34*
%TO.P,C8,2*%
%TO.N,Net-(C5-Pad2)*%
X143761092Y-93000000D03*
%TO.P,C8,1*%
%TO.N,/N50Hz_out*%
X146886092Y-93000000D03*
%TD*%
D26*
%TO.P,C6,2*%
%TO.N,Net-(C13-Pad1)*%
X168511092Y-96262500D03*
%TO.P,C6,1*%
%TO.N,/HPF_out*%
X168511092Y-93137500D03*
%TD*%
D34*
%TO.P,C5,2*%
%TO.N,Net-(C5-Pad2)*%
X143761092Y-96200000D03*
%TO.P,C5,1*%
%TO.N,/N50Hz_out*%
X146886092Y-96200000D03*
%TD*%
D24*
%TO.P,C11,2*%
%TO.N,/LPF_out*%
X158876092Y-104200000D03*
%TO.P,C11,1*%
%TO.N,Net-(C11-Pad1)*%
X156801092Y-104200000D03*
%TD*%
D15*
%TO.P,R35,1*%
%TO.N,/Leveled_Signal*%
X142200000Y-83200000D03*
%TO.P,R35,2*%
%TO.N,/To_ESP32*%
X140200000Y-83200000D03*
%TD*%
%TO.P,R19,2*%
%TO.N,Net-(U5C-+)*%
X156838592Y-100700000D03*
%TO.P,R19,1*%
%TO.N,Net-(C11-Pad1)*%
X158838592Y-100700000D03*
%TD*%
D14*
%TO.P,R34,1*%
%TO.N,Net-(U4D--)*%
X151600000Y-115620000D03*
%TO.P,R34,2*%
%TO.N,-BATT_REG*%
X151600000Y-117620000D03*
%TD*%
D20*
%TO.P,C12,2*%
%TO.N,Net-(U5C-+)*%
X149118592Y-102457500D03*
%TO.P,C12,1*%
%TO.N,GND*%
X149118592Y-100382500D03*
%TD*%
D15*
%TO.P,R9,2*%
%TO.N,GND*%
X163761092Y-93200000D03*
%TO.P,R9,1*%
%TO.N,Net-(C13-Pad1)*%
X165761092Y-93200000D03*
%TD*%
D35*
%TO.P,D1,1,A1_1*%
%TO.N,unconnected-(D1-A1-Pad1)*%
X150250000Y-107325000D03*
%TO.P,D1,2,A2_2*%
%TO.N,-BATT_REG*%
X148350000Y-107325000D03*
%TO.P,D1,3,common_3*%
%TO.N,+BATT*%
X149300000Y-109200000D03*
%TD*%
D36*
%TO.P,U5,14*%
%TO.N,/Sensing_Out*%
X161571092Y-97175000D03*
%TO.P,U5,13,-_13*%
%TO.N,GND*%
X160301092Y-97175000D03*
%TO.P,U5,12,+_12*%
%TO.N,Net-(U5D-+)*%
X159031092Y-97175000D03*
%TO.P,U5,11,V-_11*%
%TO.N,-BATT_REG*%
X157761092Y-97175000D03*
%TO.P,U5,10,+_10*%
%TO.N,Net-(U5C-+)*%
X156491092Y-97175000D03*
%TO.P,U5,9,-_9*%
%TO.N,Net-(U5C--)*%
X155221092Y-97175000D03*
%TO.P,U5,8*%
%TO.N,/LPF_out*%
X153951092Y-97175000D03*
%TO.P,U5,7*%
%TO.N,/N50Hz_out*%
X153951092Y-92225000D03*
%TO.P,U5,6,-_6*%
%TO.N,Net-(U5B--)*%
X155221092Y-92225000D03*
%TO.P,U5,5,+_5*%
%TO.N,Net-(U5B-+)*%
X156491092Y-92225000D03*
%TO.P,U5,4,V+_4*%
%TO.N,+6.1V*%
X157761092Y-92225000D03*
%TO.P,U5,3,+_3*%
%TO.N,Net-(U5A-+)*%
X159031092Y-92225000D03*
%TO.P,U5,2,-_2*%
%TO.N,Net-(U5A--)*%
X160301092Y-92225000D03*
%TO.P,U5,1*%
%TO.N,/HPF_out*%
X161571092Y-92225000D03*
%TD*%
D25*
%TO.P,R1,1*%
%TO.N,Net-(R1-Pad1)*%
X169100000Y-106177500D03*
%TO.P,R1,2*%
%TO.N,Net-(U4A-+)*%
X169100000Y-104177500D03*
%TD*%
D11*
%TO.P,J5,1,Pin_1_1*%
%TO.N,/Reset*%
X127453790Y-98340000D03*
D12*
%TO.P,J5,2,Pin_2_2*%
%TO.N,-BATT_REG*%
X129993790Y-98340000D03*
%TD*%
D15*
%TO.P,R7,2*%
%TO.N,Net-(C5-Pad2)*%
X152461092Y-86000000D03*
%TO.P,R7,1*%
%TO.N,/HPF_out*%
X154461092Y-86000000D03*
%TD*%
D37*
%TO.P,S1,1*%
%TO.N,unconnected-(S1-Pad1)*%
X138175000Y-119300000D03*
D38*
%TO.P,S1,2*%
%TO.N,Net-(J2-Pin_1)*%
X141175000Y-119300000D03*
%TO.P,S1,3*%
%TO.N,+BATT*%
X144175000Y-119300000D03*
D39*
%TO.P,S1,SH1*%
%TO.N,N/C*%
X134925000Y-119300000D03*
%TO.P,S1,SH2*%
X147425000Y-119300000D03*
%TD*%
D14*
%TO.P,R22,2*%
%TO.N,Net-(C11-Pad1)*%
X146661092Y-102400000D03*
%TO.P,R22,1*%
%TO.N,/N50Hz_out*%
X146661092Y-100400000D03*
%TD*%
D26*
%TO.P,C4,1*%
%TO.N,+6.1V*%
X178500000Y-95337500D03*
%TO.P,C4,2*%
%TO.N,GND*%
X178500000Y-98462500D03*
%TD*%
D40*
%TO.N,GND*%
X159200000Y-110100000D03*
%TO.N,-BATT_REG*%
X170100000Y-103100000D03*
X158800000Y-86100000D03*
%TO.N,GND*%
X176700000Y-99700000D03*
X160700000Y-95300000D03*
%TO.N,+6.1V*%
X138700000Y-101900000D03*
X157600000Y-86900000D03*
%TO.N,-BATT_REG*%
X134900000Y-116000000D03*
X149500000Y-116000000D03*
X157761092Y-95400000D03*
X158400000Y-90200000D03*
%TO.N,Net-(U5A-+)*%
X160700000Y-94200000D03*
X171500000Y-93700000D03*
%TO.N,GND*%
X155900000Y-108500000D03*
X151000000Y-102900000D03*
X164300000Y-90000000D03*
X164500000Y-86500000D03*
%TO.N,Net-(U4D-+)*%
X166200000Y-105300000D03*
X159100000Y-114900000D03*
%TO.N,Net-(U4A-+)*%
X167800000Y-114200000D03*
X167800000Y-104700000D03*
%TO.N,/Leveled_Signal*%
X151528344Y-107192913D03*
X147600000Y-88700000D03*
X147600000Y-88700000D03*
%TO.N,+3.3V*%
X154400000Y-118900000D03*
%TO.N,/Leveled_Signal*%
X158900000Y-117300000D03*
X153000000Y-111400000D03*
%TO.N,+3.3V*%
X129800000Y-114900000D03*
%TO.N,/LPF_out*%
X152323592Y-102350000D03*
X157888592Y-104262500D03*
%TD*%
%TO.N,/LPF_out*%
D41*
X158813592Y-104262500D02*
X158876092Y-104200000D01*
X157888592Y-104262500D02*
X158813592Y-104262500D01*
%TO.N,GND*%
X159300000Y-110100000D02*
X159200000Y-110100000D01*
X159460000Y-110260000D02*
X159300000Y-110100000D01*
X161120000Y-110260000D02*
X159460000Y-110260000D01*
%TO.N,+6.1V*%
D42*
X162800000Y-109200000D02*
X155700000Y-109200000D01*
X163870000Y-110270000D02*
X162800000Y-109200000D01*
X155700000Y-109200000D02*
X154370000Y-110530000D01*
X163870000Y-113895000D02*
X163870000Y-110270000D01*
X164545000Y-114570000D02*
X163870000Y-113895000D01*
%TO.N,GND*%
D41*
X163000000Y-108500000D02*
X155900000Y-108500000D01*
X164295000Y-111999999D02*
X164295000Y-109795000D01*
X165095001Y-112800000D02*
X164295000Y-111999999D01*
X166070000Y-112800000D02*
X165095001Y-112800000D01*
X164295000Y-109795000D02*
X163000000Y-108500000D01*
X161120000Y-111530000D02*
X161120000Y-110260000D01*
%TO.N,+3.3V*%
X127093790Y-99700000D02*
X125786770Y-101007020D01*
X133343790Y-99700000D02*
X127093790Y-99700000D01*
X133703790Y-99340000D02*
X133343790Y-99700000D01*
%TO.N,-BATT_REG*%
X170410097Y-104110097D02*
X171300000Y-104110097D01*
X170100000Y-103800000D02*
X170410097Y-104110097D01*
X170100000Y-103100000D02*
X170100000Y-103800000D01*
X158800000Y-88501408D02*
X158800000Y-86100000D01*
X158898592Y-88600000D02*
X158800000Y-88501408D01*
%TO.N,GND*%
X176700000Y-100600000D02*
X176400000Y-100900000D01*
X176700000Y-99700000D02*
X176700000Y-100600000D01*
X176400000Y-100900000D02*
X175800000Y-100900000D01*
X160301092Y-95698908D02*
X160700000Y-95300000D01*
X160301092Y-97175000D02*
X160301092Y-95698908D01*
%TO.N,+6.1V*%
D42*
X135200000Y-102200000D02*
X135200000Y-103200000D01*
X135500000Y-101900000D02*
X135200000Y-102200000D01*
X138700000Y-101900000D02*
X135500000Y-101900000D01*
X156823592Y-87676408D02*
X157600000Y-86900000D01*
X156823592Y-88600000D02*
X156823592Y-87676408D01*
X171407403Y-102142500D02*
X171300000Y-102035097D01*
X174142500Y-102142500D02*
X171407403Y-102142500D01*
X175000000Y-103000000D02*
X174142500Y-102142500D01*
X180000000Y-103000000D02*
X175000000Y-103000000D01*
X174142500Y-102142500D02*
X174142500Y-101712499D01*
X174142500Y-101712499D02*
X174142500Y-100900000D01*
X180000000Y-103000000D02*
X180000000Y-95700000D01*
X180000000Y-95700000D02*
X179637500Y-95337500D01*
X180000000Y-110667515D02*
X180000000Y-103000000D01*
X168792515Y-121875000D02*
X180000000Y-110667515D01*
X179637500Y-95337500D02*
X178500000Y-95337500D01*
X163825000Y-121875000D02*
X168792515Y-121875000D01*
%TO.N,-BATT_REG*%
X151120000Y-117620000D02*
X151600000Y-117620000D01*
X149500000Y-116000000D02*
X151120000Y-117620000D01*
D41*
X158400000Y-89400000D02*
X158898592Y-88901408D01*
X158898592Y-88901408D02*
X158898592Y-88600000D01*
X158400000Y-90200000D02*
X158400000Y-89400000D01*
X157761092Y-95400000D02*
X157761092Y-97175000D01*
%TO.N,GND*%
X159300000Y-94600000D02*
X160301092Y-95601092D01*
X160301092Y-95601092D02*
X160301092Y-97175000D01*
X155700000Y-94600000D02*
X159300000Y-94600000D01*
X154569454Y-95730546D02*
X155700000Y-94600000D01*
X153230546Y-95730546D02*
X154569454Y-95730546D01*
X152761092Y-96200000D02*
X153230546Y-95730546D01*
X151761092Y-96200000D02*
X152761092Y-96200000D01*
%TO.N,/To_ESP32*%
X137900000Y-83200000D02*
X140200000Y-83200000D01*
X136100000Y-81400000D02*
X137900000Y-83200000D01*
X129000000Y-81400000D02*
X136100000Y-81400000D01*
X127286770Y-77319440D02*
X127286770Y-79686770D01*
X127286770Y-79686770D02*
X129000000Y-81400000D01*
%TO.N,Net-(U5A-+)*%
X159031092Y-93199999D02*
X159031092Y-92225000D01*
X160700000Y-94200000D02*
X160031093Y-94200000D01*
X160031093Y-94200000D02*
X159031092Y-93199999D01*
X173525000Y-93700000D02*
X171500000Y-93700000D01*
%TO.N,Net-(U5C-+)*%
D42*
X156838592Y-101022500D02*
X156838592Y-100700000D01*
X154801536Y-105625000D02*
X155561092Y-104865444D01*
X155561092Y-104865444D02*
X155561092Y-102300000D01*
X151698592Y-105625000D02*
X154801536Y-105625000D01*
X155561092Y-102300000D02*
X156838592Y-101022500D01*
X149118592Y-102457500D02*
X149118592Y-103045000D01*
X149118592Y-103045000D02*
X151698592Y-105625000D01*
%TO.N,GND*%
D41*
X163761092Y-90538908D02*
X163761092Y-93200000D01*
X164300000Y-90000000D02*
X163761092Y-90538908D01*
%TO.N,Net-(U5A--)*%
D42*
X160301092Y-90760000D02*
X160301092Y-92225000D01*
%TO.N,GND*%
D41*
X164366380Y-86466380D02*
X164400000Y-86500000D01*
X163299816Y-86466380D02*
X164366380Y-86466380D01*
%TO.N,Net-(U4D-+)*%
D42*
X166200000Y-103761092D02*
X166261092Y-103700000D01*
X166200000Y-105300000D02*
X166200000Y-103761092D01*
X159370000Y-115170000D02*
X159100000Y-114900000D01*
X159370000Y-115340000D02*
X159370000Y-115170000D01*
%TO.N,Net-(U4A-+)*%
D41*
X167800000Y-115000000D02*
X167800000Y-114200000D01*
X167460000Y-115340000D02*
X167800000Y-115000000D01*
X166070000Y-115340000D02*
X167460000Y-115340000D01*
X168322500Y-104177500D02*
X167800000Y-104700000D01*
X169100000Y-104177500D02*
X168322500Y-104177500D01*
%TO.N,-BATT_REG*%
X138819440Y-94819440D02*
X142000000Y-98000000D01*
X142000000Y-98000000D02*
X142000000Y-100636210D01*
X137786770Y-94819440D02*
X138819440Y-94819440D01*
%TO.N,+3.3V*%
X130350000Y-88350000D02*
X125786770Y-92913230D01*
X144600000Y-88350000D02*
X130350000Y-88350000D01*
X125786770Y-92913230D02*
X125786770Y-94819440D01*
%TO.N,/Leveled_Signal*%
X151600000Y-107264569D02*
X151600000Y-110580000D01*
X151528344Y-107192913D02*
X151600000Y-107264569D01*
X147600000Y-87400000D02*
X147600000Y-88700000D01*
%TO.N,Net-(R4-Pad1)*%
X166070000Y-108730000D02*
X166070000Y-110260000D01*
X166500000Y-108300000D02*
X166070000Y-108730000D01*
X167200000Y-108300000D02*
X166500000Y-108300000D01*
%TO.N,Net-(J1-Pad2)*%
X169200000Y-108300000D02*
X171979000Y-108300000D01*
X171979000Y-108300000D02*
X172379000Y-108700000D01*
%TO.N,/Boot2*%
D42*
X138743790Y-89500000D02*
X141000000Y-89500000D01*
X136286770Y-91957020D02*
X138743790Y-89500000D01*
%TO.N,/USB_D+*%
D41*
X131786770Y-76586770D02*
X131786770Y-77319440D01*
X130630000Y-75430000D02*
X131786770Y-76586770D01*
X130630000Y-73700000D02*
X130630000Y-75430000D01*
%TO.N,/USB_D-*%
X133170000Y-77202670D02*
X133286770Y-77319440D01*
X133170000Y-73700000D02*
X133170000Y-77202670D01*
%TO.N,/Leveled_Signal*%
X145300000Y-83200000D02*
X142200000Y-83200000D01*
X147600000Y-85500000D02*
X145300000Y-83200000D01*
X147600000Y-87400000D02*
X147600000Y-85500000D01*
%TO.N,-BATT_REG*%
X141544830Y-86450000D02*
X141379830Y-86615000D01*
X144600000Y-86450000D02*
X141544830Y-86450000D01*
%TO.N,+3.3V*%
D42*
X125786770Y-101007020D02*
X125786770Y-94819440D01*
X125786770Y-106959562D02*
X125786770Y-101007020D01*
X126752208Y-107925000D02*
X125786770Y-106959562D01*
X128275000Y-107925000D02*
X126752208Y-107925000D01*
X129800000Y-106400000D02*
X128275000Y-107925000D01*
%TO.N,-BATT_REG*%
D41*
X142000000Y-100636210D02*
X139703790Y-98340000D01*
X142000000Y-103200000D02*
X142000000Y-100636210D01*
%TO.N,+BATT*%
X147800000Y-111900000D02*
X145500000Y-111900000D01*
X149300000Y-110400000D02*
X147800000Y-111900000D01*
X149300000Y-109200000D02*
X149300000Y-110400000D01*
%TO.N,/HPF_out*%
X169737500Y-93137500D02*
X168511092Y-93137500D01*
X172660000Y-96060000D02*
X169737500Y-93137500D01*
X173562500Y-96060000D02*
X172660000Y-96060000D01*
%TO.N,Net-(C10-Pad1)*%
X175600000Y-96022500D02*
X175562500Y-96060000D01*
X175600000Y-93700000D02*
X175600000Y-96022500D01*
%TO.N,/<NO NET>*%
X173500000Y-99300000D02*
X173500000Y-98500000D01*
X173800000Y-99600000D02*
X173500000Y-99300000D01*
X174500000Y-99600000D02*
X173800000Y-99600000D01*
X174792500Y-99892500D02*
X174500000Y-99600000D01*
X174792500Y-100900000D02*
X174792500Y-99892500D01*
%TO.N,Net-(C10-Pad1)*%
X175575000Y-98500000D02*
X175575000Y-96072500D01*
X175575000Y-96072500D02*
X175562500Y-96060000D01*
%TO.N,GND*%
X178100000Y-100000000D02*
X178500000Y-99600000D01*
X177300000Y-100000000D02*
X178100000Y-100000000D01*
X178500000Y-99600000D02*
X178500000Y-98462500D01*
X176400000Y-100900000D02*
X177300000Y-100000000D01*
%TO.N,/HPF_out*%
D42*
X168511092Y-91362500D02*
X168511092Y-93137500D01*
X167661092Y-90512500D02*
X168511092Y-91362500D01*
X167661092Y-86462500D02*
X167661092Y-90512500D01*
X167661092Y-86462500D02*
X167661092Y-86600000D01*
%TO.N,Net-(U1--)*%
D41*
X174400000Y-109500000D02*
X176600000Y-109500000D01*
X173500000Y-108600000D02*
X174400000Y-109500000D01*
X173500000Y-107200000D02*
X173500000Y-108600000D01*
X177400000Y-108700000D02*
X178079000Y-108700000D01*
X174142500Y-105125000D02*
X174142500Y-106557500D01*
X174142500Y-106557500D02*
X173500000Y-107200000D01*
X176600000Y-109500000D02*
X177400000Y-108700000D01*
%TO.N,Net-(U1-+)*%
X174800000Y-106600000D02*
X174800000Y-105132500D01*
X174800000Y-105132500D02*
X174792500Y-105125000D01*
X175229000Y-107029000D02*
X174800000Y-106600000D01*
X175229000Y-107900000D02*
X175229000Y-107029000D01*
%TO.N,Net-(R1-Pad1)*%
X173030000Y-105125000D02*
X173492500Y-105125000D01*
X171977500Y-106177500D02*
X173030000Y-105125000D01*
X169875000Y-106177500D02*
X171977500Y-106177500D01*
%TO.N,-BATT_REG*%
X172444903Y-104110097D02*
X172777500Y-103777500D01*
X171024334Y-104110097D02*
X172444903Y-104110097D01*
%TO.N,Net-(R2-Pad2)*%
X172900000Y-100900000D02*
X173492500Y-100900000D01*
X171977500Y-99977500D02*
X172900000Y-100900000D01*
X169875000Y-99977500D02*
X171977500Y-99977500D01*
%TO.N,/Leveled_Signal*%
X159480000Y-117880000D02*
X161120000Y-117880000D01*
%TO.N,+3.3V*%
X154370000Y-118870000D02*
X154400000Y-118900000D01*
X154370000Y-117530000D02*
X154370000Y-118870000D01*
%TO.N,Net-(U4D-+)*%
D42*
X159370000Y-115340000D02*
X159180000Y-115530000D01*
X159180000Y-115530000D02*
X157120000Y-115530000D01*
X161120000Y-115340000D02*
X159370000Y-115340000D01*
%TO.N,Net-(U4D--)*%
D41*
X159210000Y-116610000D02*
X161120000Y-116610000D01*
X159100000Y-116500000D02*
X159210000Y-116610000D01*
X151600000Y-115620000D02*
X152480000Y-116500000D01*
X152480000Y-116500000D02*
X159100000Y-116500000D01*
%TO.N,/Leveled_Signal*%
X152270000Y-110670000D02*
X151600000Y-110670000D01*
X153000000Y-111400000D02*
X152270000Y-110670000D01*
X159480000Y-117880000D02*
X158900000Y-117300000D01*
%TO.N,-BATT_REG*%
D42*
X157120000Y-118620000D02*
X157120000Y-117530000D01*
X158430000Y-119930000D02*
X157120000Y-118620000D01*
X158800000Y-119930000D02*
X158430000Y-119930000D01*
X151600000Y-118500000D02*
X151600000Y-117620000D01*
X153030000Y-119930000D02*
X151600000Y-118500000D01*
X158800000Y-119930000D02*
X153030000Y-119930000D01*
X162470000Y-118730000D02*
X162470000Y-119930000D01*
X162900000Y-118300000D02*
X162470000Y-118730000D01*
X162900000Y-114800000D02*
X162900000Y-118300000D01*
X161120000Y-114070000D02*
X162170000Y-114070000D01*
X162170000Y-114070000D02*
X162900000Y-114800000D01*
X158800000Y-119930000D02*
X162470000Y-119930000D01*
%TO.N,Net-(U4D-+)*%
X157120000Y-115530000D02*
X154370000Y-115530000D01*
%TO.N,Net-(U4D--)*%
D41*
X151600000Y-112670000D02*
X151600000Y-115620000D01*
%TO.N,Net-(U5B--)*%
X154171091Y-94250000D02*
X150761092Y-94250000D01*
X155221092Y-92225000D02*
X155221092Y-93199999D01*
X150761092Y-94250000D02*
X149761092Y-93250000D01*
X155221092Y-93199999D02*
X154171091Y-94250000D01*
X149761092Y-96200000D02*
X149761092Y-93250000D01*
D42*
X149761092Y-96200000D02*
X149761092Y-96100000D01*
%TO.N,/N50Hz_out*%
D41*
X151761092Y-93250000D02*
X151769079Y-93250000D01*
D42*
X146886092Y-98275000D02*
X146886092Y-96200000D01*
D41*
X151769079Y-93250000D02*
X152794079Y-92225000D01*
X146886092Y-96200000D02*
X146886092Y-93000000D01*
X151261092Y-91700000D02*
X151761092Y-92200000D01*
X152794079Y-92225000D02*
X153951092Y-92225000D01*
X146886092Y-93000000D02*
X148186092Y-91700000D01*
D42*
X146661092Y-100400000D02*
X146661092Y-98500000D01*
D41*
X148186092Y-91700000D02*
X151261092Y-91700000D01*
D42*
X146661092Y-98500000D02*
X146886092Y-98275000D01*
D41*
X151761092Y-92200000D02*
X151761092Y-93250000D01*
%TO.N,/Boot1*%
X136203790Y-97340000D02*
X134786770Y-95922980D01*
X134786770Y-95922980D02*
X134786770Y-94819440D01*
%TO.N,+3.3V*%
X129800000Y-112700000D02*
X129800000Y-114900000D01*
X138703790Y-99340000D02*
X133703790Y-99340000D01*
%TO.N,Net-(C13-Pad1)*%
D42*
X166061092Y-91000000D02*
X166061092Y-89000000D01*
X165761092Y-91300000D02*
X166061092Y-91000000D01*
X165761092Y-93200000D02*
X165761092Y-91300000D01*
D41*
X165761092Y-96200000D02*
X168448592Y-96200000D01*
X168448592Y-96200000D02*
X168511092Y-96262500D01*
X165761092Y-93200000D02*
X165761092Y-92450000D01*
X165761092Y-93200000D02*
X165761092Y-96200000D01*
%TO.N,GND*%
X175800000Y-100900000D02*
X175442500Y-100900000D01*
X163761092Y-93200000D02*
X163761092Y-96200000D01*
D42*
X151011092Y-101000000D02*
X151011092Y-98350000D01*
D41*
X160301092Y-96660000D02*
X160301092Y-97175000D01*
X161061092Y-95900000D02*
X160301092Y-96660000D01*
X163461092Y-95900000D02*
X161061092Y-95900000D01*
D42*
X152323592Y-104152394D02*
X151011092Y-102839894D01*
X151011092Y-98350000D02*
X151761092Y-97600000D01*
X149118592Y-100382500D02*
X150393592Y-100382500D01*
X151761092Y-97600000D02*
X151761092Y-96200000D01*
D41*
X163761092Y-96200000D02*
X163461092Y-95900000D01*
D42*
X150393592Y-100382500D02*
X151011092Y-101000000D01*
D41*
X176877500Y-101377500D02*
X176400000Y-100900000D01*
X178552500Y-101377500D02*
X176877500Y-101377500D01*
X163291623Y-84348088D02*
X163291623Y-86458187D01*
D42*
X152323592Y-104200000D02*
X152323592Y-104152394D01*
X151011092Y-102839894D02*
X151011092Y-101000000D01*
D41*
X163291623Y-86458187D02*
X163299816Y-86466380D01*
%TO.N,+6.1V*%
D42*
X157761092Y-90900000D02*
X157761092Y-92225000D01*
X142600000Y-119800000D02*
X144675000Y-121875000D01*
X138600000Y-105200000D02*
X138600000Y-106200000D01*
X156823592Y-89962500D02*
X157761092Y-90900000D01*
X138600000Y-112500000D02*
X142600000Y-116500000D01*
X163825000Y-121875000D02*
X164545000Y-121155000D01*
X164545000Y-114395000D02*
X164870000Y-114070000D01*
X135200000Y-103200000D02*
X135200000Y-103600000D01*
X138000000Y-104600000D02*
X138600000Y-105200000D01*
X136200000Y-104600000D02*
X138000000Y-104600000D01*
X142600000Y-116500000D02*
X142600000Y-119800000D01*
D41*
X135200000Y-103550000D02*
X135200000Y-103200000D01*
D42*
X164545000Y-119930000D02*
X164545000Y-114570000D01*
X156823592Y-88600000D02*
X156823592Y-89962500D01*
X144675000Y-121875000D02*
X163825000Y-121875000D01*
X135200000Y-103600000D02*
X136200000Y-104600000D01*
X164870000Y-114070000D02*
X166070000Y-114070000D01*
X164545000Y-121155000D02*
X164545000Y-119930000D01*
X164545000Y-114570000D02*
X164545000Y-114395000D01*
X135200000Y-103650000D02*
X135200000Y-103200000D01*
%TO.N,-BATT_REG*%
X157120000Y-112580000D02*
X158610000Y-114070000D01*
X176530000Y-105125000D02*
X177152500Y-104502500D01*
X132225000Y-106525000D02*
X132100000Y-106400000D01*
D41*
X172777500Y-103777500D02*
X174907499Y-103777500D01*
X175442500Y-104312501D02*
X175442500Y-105125000D01*
D42*
X162470000Y-119930000D02*
X162620000Y-119780000D01*
X158610000Y-114070000D02*
X161120000Y-114070000D01*
X139703790Y-98340000D02*
X129993790Y-98340000D01*
X177152500Y-104502500D02*
X178552500Y-104502500D01*
D41*
X174907499Y-103777500D02*
X175442500Y-104312501D01*
D42*
X175442500Y-105125000D02*
X176530000Y-105125000D01*
D43*
X130500000Y-118800000D02*
X130500000Y-118000000D01*
%TO.N,Net-(U6-ADJ)*%
D42*
X140200000Y-104600000D02*
X140000000Y-104400000D01*
X140900000Y-106200000D02*
X140900000Y-104900000D01*
X140900000Y-104900000D02*
X140600000Y-104600000D01*
X137100000Y-103100000D02*
X137200000Y-103200000D01*
X139900000Y-103300000D02*
X140000000Y-103200000D01*
D41*
X137200000Y-103800000D02*
X137200000Y-103200000D01*
D42*
X140000000Y-104400000D02*
X140000000Y-103200000D01*
X137200000Y-103200000D02*
X140000000Y-103200000D01*
X140600000Y-104600000D02*
X140200000Y-104600000D01*
X140931000Y-106169000D02*
X140900000Y-106200000D01*
%TO.N,Net-(C5-Pad2)*%
X152461092Y-88600000D02*
X152461092Y-86000000D01*
X143761092Y-91633352D02*
X143761092Y-93000000D01*
X144394444Y-91000000D02*
X143761092Y-91633352D01*
X152461092Y-89800000D02*
X151261092Y-91000000D01*
D41*
X143761092Y-96200000D02*
X143761092Y-93000000D01*
D42*
X151261092Y-91000000D02*
X144394444Y-91000000D01*
X152461092Y-88600000D02*
X152461092Y-89800000D01*
%TO.N,Net-(U5B-+)*%
X160261092Y-83200000D02*
X156461092Y-87000000D01*
X156461092Y-87000000D02*
X155461092Y-87000000D01*
X154861092Y-90400000D02*
X154461092Y-90000000D01*
X164461092Y-83200000D02*
X160261092Y-83200000D01*
X154461092Y-90000000D02*
X154461092Y-88600000D01*
X166061092Y-85875000D02*
X166061092Y-84800000D01*
X155861092Y-90400000D02*
X154861092Y-90400000D01*
X166061092Y-84800000D02*
X164461092Y-83200000D01*
X155461092Y-87000000D02*
X154461092Y-88000000D01*
X156491092Y-91030000D02*
X155861092Y-90400000D01*
X156491092Y-92225000D02*
X156491092Y-91030000D01*
X154461092Y-88000000D02*
X154461092Y-88600000D01*
%TO.N,Net-(D2-K)*%
X129025000Y-104875000D02*
X134975000Y-104875000D01*
X144600000Y-107800000D02*
X137900000Y-107800000D01*
X134975000Y-104875000D02*
X136300000Y-106200000D01*
X127500000Y-106400000D02*
X129025000Y-104875000D01*
X137900000Y-107800000D02*
X136300000Y-106200000D01*
X145500000Y-106900000D02*
X144600000Y-107800000D01*
%TO.N,Net-(U4A--)*%
X167706802Y-117880000D02*
X166070000Y-117880000D01*
X169270000Y-117530000D02*
X169970000Y-117530000D01*
X170800000Y-116700000D02*
X171929000Y-116700000D01*
X168056802Y-117530000D02*
X167706802Y-117880000D01*
X166070000Y-117880000D02*
X166070000Y-116610000D01*
X169270000Y-117530000D02*
X168056802Y-117530000D01*
X169970000Y-117530000D02*
X170800000Y-116700000D01*
%TO.N,Net-(U4A-+)*%
D41*
X169100000Y-101977500D02*
X169100000Y-104177500D01*
X169100000Y-101977500D02*
X168600000Y-101977500D01*
%TO.N,Net-(U4B--)*%
D42*
X169270000Y-112530000D02*
X169270000Y-115530000D01*
X167270000Y-111530000D02*
X168270000Y-112530000D01*
X168270000Y-112530000D02*
X169270000Y-112530000D01*
X166070000Y-111530000D02*
X167270000Y-111530000D01*
%TO.N,Net-(R4-Pad1)*%
X167982691Y-110530000D02*
X167712691Y-110260000D01*
X167712691Y-110260000D02*
X166070000Y-110260000D01*
X169270000Y-110530000D02*
X167982691Y-110530000D01*
%TO.N,Net-(U4C-+)*%
X158520000Y-110580000D02*
X158870000Y-110930000D01*
X155670000Y-110930000D02*
X155670000Y-112130000D01*
X157120000Y-110580000D02*
X158520000Y-110580000D01*
X156020000Y-110580000D02*
X155670000Y-110930000D01*
X158870000Y-110930000D02*
X158870000Y-112530000D01*
X159140000Y-112800000D02*
X161120000Y-112800000D01*
X155270000Y-112530000D02*
X154270000Y-112530000D01*
X155670000Y-112130000D02*
X155270000Y-112530000D01*
X156020000Y-110580000D02*
X157120000Y-110580000D01*
X158870000Y-112530000D02*
X159140000Y-112800000D01*
%TO.N,Net-(U1--)*%
X178079000Y-108700000D02*
X178079000Y-108124536D01*
%TO.N,/Boot2*%
D41*
X138107330Y-97340000D02*
X136286770Y-95519440D01*
X138703790Y-97340000D02*
X138107330Y-97340000D01*
X136286770Y-95519440D02*
X136286770Y-94819440D01*
D42*
X136286770Y-91957020D02*
X136286770Y-94819440D01*
%TO.N,Net-(U5A--)*%
D41*
X161299816Y-88461276D02*
X161261092Y-88500000D01*
X161299816Y-86466380D02*
X161299816Y-88461276D01*
D42*
X161261092Y-88500000D02*
X161261092Y-89800000D01*
X161261092Y-89800000D02*
X160301092Y-90760000D01*
%TO.N,/HPF_out*%
X161571092Y-90490000D02*
X161571092Y-92225000D01*
X163961092Y-88500000D02*
X163261092Y-88500000D01*
X163261092Y-89600000D02*
X162861092Y-90000000D01*
X167661092Y-85200000D02*
X167661092Y-86462500D01*
X154461092Y-86000000D02*
X156138909Y-86000000D01*
X156138909Y-86000000D02*
X159938909Y-82200000D01*
X162861092Y-90000000D02*
X162061092Y-90000000D01*
X164661092Y-82200000D02*
X167661092Y-85200000D01*
X162061092Y-90000000D02*
X161571092Y-90490000D01*
X167661092Y-86600000D02*
X166861092Y-87400000D01*
X165061092Y-87400000D02*
X163961092Y-88500000D01*
X166861092Y-87400000D02*
X165061092Y-87400000D01*
X159938909Y-82200000D02*
X164661092Y-82200000D01*
X163261092Y-88500000D02*
X163261092Y-89600000D01*
%TO.N,/Reset*%
D41*
X133703790Y-97340000D02*
X133353790Y-96990000D01*
X128803790Y-96990000D02*
X127453790Y-98340000D01*
X133353790Y-96990000D02*
X128803790Y-96990000D01*
D42*
X127453790Y-98340000D02*
X127453790Y-94986460D01*
X127453790Y-94986460D02*
X127286770Y-94819440D01*
%TO.N,/USB_D-*%
X133163790Y-77196460D02*
X133286770Y-77319440D01*
%TO.N,Net-(U5C--)*%
D41*
X155221092Y-97175000D02*
X155221092Y-98262684D01*
X155221092Y-98262684D02*
X154323592Y-99160184D01*
X154323592Y-99160184D02*
X154323592Y-100700000D01*
X154323592Y-104200000D02*
X154323592Y-100700000D01*
%TO.N,/LPF_out*%
X161261092Y-104200000D02*
X158876092Y-104200000D01*
D42*
X159298592Y-104200000D02*
X159261092Y-104200000D01*
D41*
X152309694Y-100686102D02*
X152323592Y-100700000D01*
X152309694Y-98816398D02*
X152309694Y-100686102D01*
X153951092Y-97175000D02*
X152309694Y-98816398D01*
%TO.N,+BATT*%
D42*
X144200000Y-119300000D02*
X145500000Y-118000000D01*
X144000000Y-119300000D02*
X144175000Y-119300000D01*
X144175000Y-119300000D02*
X144200000Y-119300000D01*
X143800000Y-119300000D02*
X144175000Y-119300000D01*
X145500000Y-118000000D02*
X145500000Y-111900000D01*
%TO.N,Net-(U5A-+)*%
X160136092Y-85325000D02*
X161113004Y-84348088D01*
X159031092Y-90630000D02*
X160136092Y-89525000D01*
X160136092Y-89525000D02*
X160136092Y-85325000D01*
X159031092Y-92225000D02*
X159031092Y-90630000D01*
%TO.N,Net-(U5D-+)*%
D41*
X163261092Y-102950000D02*
X163261092Y-104200000D01*
X161261092Y-102200000D02*
X161511092Y-102450000D01*
X160761092Y-98950000D02*
X161261092Y-99450000D01*
X159761092Y-98950000D02*
X160761092Y-98950000D01*
D42*
X163261092Y-103700000D02*
X163261092Y-104200000D01*
D41*
X159031092Y-98220000D02*
X159761092Y-98950000D01*
X162761092Y-102450000D02*
X163261092Y-102950000D01*
X161261092Y-99450000D02*
X161261092Y-100700000D01*
X161511092Y-102450000D02*
X162761092Y-102450000D01*
X161261092Y-100700000D02*
X161261092Y-102200000D01*
X159031092Y-97175000D02*
X159031092Y-98220000D01*
%TO.N,/Sensing_Out*%
X161571092Y-97175000D02*
X163261092Y-98865000D01*
X166261092Y-101625000D02*
X165436092Y-101625000D01*
X164511092Y-100700000D02*
X163261092Y-100700000D01*
X163261092Y-98865000D02*
X163261092Y-100700000D01*
X165436092Y-101625000D02*
X164511092Y-100700000D01*
X161736092Y-97175000D02*
X161761092Y-97200000D01*
X161571092Y-97175000D02*
X161736092Y-97175000D01*
%TO.N,Net-(J2-Pin_1)*%
D42*
X138550000Y-121925000D02*
X131125000Y-121925000D01*
X131125000Y-121925000D02*
X128000000Y-118800000D01*
X141175000Y-119300000D02*
X138550000Y-121925000D01*
%TO.N,Net-(C11-Pad1)*%
X146661092Y-102400000D02*
X146661092Y-103400000D01*
D41*
X156801092Y-104200000D02*
X156801092Y-102910000D01*
X158838592Y-101622500D02*
X158838592Y-100700000D01*
X156801092Y-102910000D02*
X157261092Y-102450000D01*
D42*
X146661092Y-103400000D02*
X146861092Y-103600000D01*
D41*
X157261092Y-102450000D02*
X158011092Y-102450000D01*
D42*
X148754354Y-103600000D02*
X151229354Y-106075000D01*
X156801092Y-104925000D02*
X156801092Y-104200000D01*
D41*
X158011092Y-102450000D02*
X158838592Y-101622500D01*
D42*
X155651092Y-106075000D02*
X156801092Y-104925000D01*
X151229354Y-106075000D02*
X155651092Y-106075000D01*
X146861092Y-103600000D02*
X148754354Y-103600000D01*
%TO.N,Net-(U5C-+)*%
D41*
X156491092Y-98930000D02*
X156838592Y-99277500D01*
X156838592Y-99277500D02*
X156838592Y-100700000D01*
X156491092Y-97175000D02*
X156491092Y-98930000D01*
%TO.N,/LPF_out*%
X152311092Y-102362500D02*
X152323592Y-102350000D01*
X152323592Y-100700000D02*
X152323592Y-102350000D01*
%TD*%
%TA.AperFunction,Conductor*%
%TO.N,-BATT_REG*%
G36*
X180938099Y-70720185D02*
G01*
X180983854Y-70772989D01*
X180995060Y-70824500D01*
X180995060Y-121875500D01*
X180975375Y-121942539D01*
X180922571Y-121988294D01*
X180871060Y-121999500D01*
X169851967Y-121999500D01*
X169784928Y-121979815D01*
X169739173Y-121927011D01*
X169729229Y-121857853D01*
X169758254Y-121794297D01*
X169764286Y-121787819D01*
X171633311Y-119918794D01*
X173430952Y-118121153D01*
X174428500Y-118121153D01*
X174428500Y-118278846D01*
X174459261Y-118433489D01*
X174459264Y-118433501D01*
X174519602Y-118579172D01*
X174519609Y-118579185D01*
X174607210Y-118710288D01*
X174607213Y-118710292D01*
X174718707Y-118821786D01*
X174718711Y-118821789D01*
X174849814Y-118909390D01*
X174849827Y-118909397D01*
X174933544Y-118944073D01*
X174995503Y-118969737D01*
X175150153Y-119000499D01*
X175150156Y-119000500D01*
X175150158Y-119000500D01*
X175307844Y-119000500D01*
X175307845Y-119000499D01*
X175462497Y-118969737D01*
X175608179Y-118909394D01*
X175739289Y-118821789D01*
X175850789Y-118710289D01*
X175938394Y-118579179D01*
X175998737Y-118433497D01*
X176029500Y-118278842D01*
X176029500Y-118121158D01*
X176029500Y-118121155D01*
X176029499Y-118121153D01*
X176014451Y-118045501D01*
X175998737Y-117966503D01*
X175998735Y-117966498D01*
X175938397Y-117820827D01*
X175938390Y-117820814D01*
X175850789Y-117689711D01*
X175850786Y-117689707D01*
X175739292Y-117578213D01*
X175739288Y-117578210D01*
X175608185Y-117490609D01*
X175608172Y-117490602D01*
X175462501Y-117430264D01*
X175462489Y-117430261D01*
X175307845Y-117399500D01*
X175307842Y-117399500D01*
X175150158Y-117399500D01*
X175150155Y-117399500D01*
X174995510Y-117430261D01*
X174995498Y-117430264D01*
X174849827Y-117490602D01*
X174849814Y-117490609D01*
X174718711Y-117578210D01*
X174718707Y-117578213D01*
X174607213Y-117689707D01*
X174607210Y-117689711D01*
X174519609Y-117820814D01*
X174519602Y-117820827D01*
X174459264Y-117966498D01*
X174459261Y-117966510D01*
X174428500Y-118121153D01*
X173430952Y-118121153D01*
X175596966Y-115955139D01*
X177374500Y-115955139D01*
X177374500Y-117444861D01*
X177378419Y-117469602D01*
X177402928Y-117624347D01*
X177402928Y-117624350D01*
X177459081Y-117797171D01*
X177459083Y-117797174D01*
X177541583Y-117959090D01*
X177648397Y-118106106D01*
X177776894Y-118234603D01*
X177923910Y-118341417D01*
X178085826Y-118423917D01*
X178085828Y-118423918D01*
X178214421Y-118465700D01*
X178258654Y-118480072D01*
X178438139Y-118508500D01*
X178438140Y-118508500D01*
X178619860Y-118508500D01*
X178619861Y-118508500D01*
X178799346Y-118480072D01*
X178799349Y-118480071D01*
X178799350Y-118480071D01*
X178972171Y-118423918D01*
X178972171Y-118423917D01*
X178972174Y-118423917D01*
X179134090Y-118341417D01*
X179281106Y-118234603D01*
X179409603Y-118106106D01*
X179516417Y-117959090D01*
X179598917Y-117797174D01*
X179600394Y-117792628D01*
X179655071Y-117624350D01*
X179655071Y-117624349D01*
X179655072Y-117624346D01*
X179683500Y-117444861D01*
X179683500Y-115955139D01*
X179655072Y-115775654D01*
X179655071Y-115775650D01*
X179655071Y-115775649D01*
X179598918Y-115602828D01*
X179598916Y-115602825D01*
X179593693Y-115592573D01*
X179516417Y-115440910D01*
X179409603Y-115293894D01*
X179281106Y-115165397D01*
X179134090Y-115058583D01*
X178972174Y-114976083D01*
X178972171Y-114976081D01*
X178799348Y-114919928D01*
X178679689Y-114900976D01*
X178619861Y-114891500D01*
X178438139Y-114891500D01*
X178378310Y-114900976D01*
X178258652Y-114919928D01*
X178258649Y-114919928D01*
X178085828Y-114976081D01*
X178085825Y-114976083D01*
X177923909Y-115058583D01*
X177843231Y-115117200D01*
X177776894Y-115165397D01*
X177776892Y-115165399D01*
X177776891Y-115165399D01*
X177648399Y-115293891D01*
X177648399Y-115293892D01*
X177648397Y-115293894D01*
X177602525Y-115357030D01*
X177541583Y-115440909D01*
X177459083Y-115602825D01*
X177459081Y-115602828D01*
X177402928Y-115775649D01*
X177402928Y-115775652D01*
X177383312Y-115899500D01*
X177374500Y-115955139D01*
X175596966Y-115955139D01*
X180398729Y-111153375D01*
X180398733Y-111153373D01*
X180485858Y-111066248D01*
X180554311Y-110963801D01*
X180601463Y-110849967D01*
X180617624Y-110768717D01*
X180618870Y-110762455D01*
X180618870Y-110762452D01*
X180625500Y-110729122D01*
X180625500Y-110605909D01*
X180625500Y-102938394D01*
X180625500Y-102938393D01*
X180625500Y-95638394D01*
X180624586Y-95633802D01*
X180624587Y-95633786D01*
X180624583Y-95633787D01*
X180624583Y-95633786D01*
X180601463Y-95517548D01*
X180554311Y-95403714D01*
X180539364Y-95381344D01*
X180538201Y-95379603D01*
X180538197Y-95379598D01*
X180534290Y-95373751D01*
X180485858Y-95301267D01*
X180398733Y-95214142D01*
X180398732Y-95214141D01*
X180130427Y-94945837D01*
X180130425Y-94945834D01*
X180130425Y-94945835D01*
X180123359Y-94938769D01*
X180123358Y-94938767D01*
X180036233Y-94851642D01*
X180036229Y-94851639D01*
X180036228Y-94851638D01*
X179974858Y-94810632D01*
X179974840Y-94810620D01*
X179973913Y-94810001D01*
X179933786Y-94783188D01*
X179929271Y-94781318D01*
X179920059Y-94775394D01*
X179900327Y-94752610D01*
X179878826Y-94731487D01*
X179875515Y-94723959D01*
X179874318Y-94722577D01*
X179874032Y-94720587D01*
X179869420Y-94710100D01*
X179847403Y-94643657D01*
X179834814Y-94605666D01*
X179742712Y-94456344D01*
X179618656Y-94332288D01*
X179525888Y-94275069D01*
X179469336Y-94240187D01*
X179469331Y-94240185D01*
X179453116Y-94234812D01*
X179302797Y-94185001D01*
X179302795Y-94185000D01*
X179200010Y-94174500D01*
X177799998Y-94174500D01*
X177799981Y-94174501D01*
X177697203Y-94185000D01*
X177697200Y-94185001D01*
X177530668Y-94240185D01*
X177530663Y-94240187D01*
X177381342Y-94332289D01*
X177257289Y-94456342D01*
X177165187Y-94605663D01*
X177165185Y-94605668D01*
X177140187Y-94681108D01*
X177110001Y-94772203D01*
X177110001Y-94772204D01*
X177110000Y-94772204D01*
X177099500Y-94874983D01*
X177099500Y-95800001D01*
X177099501Y-95800019D01*
X177110000Y-95902796D01*
X177110001Y-95902799D01*
X177165185Y-96069331D01*
X177165187Y-96069336D01*
X177183443Y-96098933D01*
X177257288Y-96218656D01*
X177381344Y-96342712D01*
X177530666Y-96434814D01*
X177697203Y-96489999D01*
X177799991Y-96500500D01*
X179200008Y-96500499D01*
X179237899Y-96496628D01*
X179306590Y-96509397D01*
X179357475Y-96557277D01*
X179374500Y-96619986D01*
X179374500Y-97180012D01*
X179354815Y-97247051D01*
X179302011Y-97292806D01*
X179237899Y-97303370D01*
X179200012Y-97299500D01*
X177799998Y-97299500D01*
X177799981Y-97299501D01*
X177697203Y-97310000D01*
X177697200Y-97310001D01*
X177530668Y-97365185D01*
X177530663Y-97365187D01*
X177381342Y-97457289D01*
X177257289Y-97581342D01*
X177165187Y-97730663D01*
X177165185Y-97730668D01*
X177148026Y-97782452D01*
X177110001Y-97897203D01*
X177110001Y-97897204D01*
X177110000Y-97897204D01*
X177099500Y-97999983D01*
X177099500Y-98813445D01*
X177079815Y-98880484D01*
X177027011Y-98926239D01*
X176957853Y-98936183D01*
X176951156Y-98935032D01*
X176939260Y-98932650D01*
X176933497Y-98930263D01*
X176778842Y-98899500D01*
X176773693Y-98899500D01*
X176762655Y-98897290D01*
X176736961Y-98883808D01*
X176710056Y-98872944D01*
X176706395Y-98867771D01*
X176700784Y-98864827D01*
X176686457Y-98839593D01*
X176669698Y-98815909D01*
X176668322Y-98807652D01*
X176666287Y-98804068D01*
X176666643Y-98797574D01*
X176662999Y-98775708D01*
X176662999Y-97974992D01*
X176660575Y-97951267D01*
X176652499Y-97872203D01*
X176652498Y-97872200D01*
X176622758Y-97782452D01*
X176597314Y-97705666D01*
X176505212Y-97556344D01*
X176381156Y-97432288D01*
X176381155Y-97432287D01*
X176312594Y-97389999D01*
X176285096Y-97373038D01*
X176238372Y-97321091D01*
X176227149Y-97252129D01*
X176254992Y-97188047D01*
X176285095Y-97161962D01*
X176381156Y-97102712D01*
X176505212Y-96978656D01*
X176597314Y-96829334D01*
X176652499Y-96662797D01*
X176663000Y-96560009D01*
X176662999Y-95559992D01*
X176662851Y-95558547D01*
X176652499Y-95457203D01*
X176652498Y-95457200D01*
X176632616Y-95397200D01*
X176597314Y-95290666D01*
X176505212Y-95141344D01*
X176381156Y-95017288D01*
X176381155Y-95017287D01*
X176362448Y-95005749D01*
X176315723Y-94953802D01*
X176304500Y-94884839D01*
X176332343Y-94820757D01*
X176362448Y-94794671D01*
X176406156Y-94767712D01*
X176530212Y-94643656D01*
X176622314Y-94494334D01*
X176677499Y-94327797D01*
X176688000Y-94225009D01*
X176687999Y-93174992D01*
X176685708Y-93152569D01*
X176677499Y-93072203D01*
X176677498Y-93072200D01*
X176672820Y-93058084D01*
X176622314Y-92905666D01*
X176530212Y-92756344D01*
X176406156Y-92632288D01*
X176286406Y-92558426D01*
X176256836Y-92540187D01*
X176256831Y-92540185D01*
X176254347Y-92539362D01*
X176090297Y-92485001D01*
X176090295Y-92485000D01*
X175987510Y-92474500D01*
X175212498Y-92474500D01*
X175212480Y-92474501D01*
X175109703Y-92485000D01*
X175109700Y-92485001D01*
X174943168Y-92540185D01*
X174943163Y-92540187D01*
X174793842Y-92632289D01*
X174669785Y-92756346D01*
X174668037Y-92759182D01*
X174666329Y-92760717D01*
X174665307Y-92762011D01*
X174665085Y-92761836D01*
X174616089Y-92805905D01*
X174547126Y-92817126D01*
X174483044Y-92789282D01*
X174456963Y-92759182D01*
X174455214Y-92756346D01*
X174331157Y-92632289D01*
X174331156Y-92632288D01*
X174211406Y-92558426D01*
X174181836Y-92540187D01*
X174181831Y-92540185D01*
X174179347Y-92539362D01*
X174015297Y-92485001D01*
X174015295Y-92485000D01*
X173912510Y-92474500D01*
X173137498Y-92474500D01*
X173137480Y-92474501D01*
X173034703Y-92485000D01*
X173034700Y-92485001D01*
X172868168Y-92540185D01*
X172868163Y-92540187D01*
X172718842Y-92632289D01*
X172594789Y-92756342D01*
X172502687Y-92905663D01*
X172502685Y-92905668D01*
X172494536Y-92930261D01*
X172468698Y-93008237D01*
X172466621Y-93014504D01*
X172426848Y-93071949D01*
X172362333Y-93098772D01*
X172348915Y-93099500D01*
X172079766Y-93099500D01*
X172012727Y-93079815D01*
X172010875Y-93078602D01*
X171879185Y-92990609D01*
X171879172Y-92990602D01*
X171733501Y-92930264D01*
X171733489Y-92930261D01*
X171578845Y-92899500D01*
X171578842Y-92899500D01*
X171421158Y-92899500D01*
X171421155Y-92899500D01*
X171266510Y-92930261D01*
X171266498Y-92930264D01*
X171120827Y-92990602D01*
X171120814Y-92990609D01*
X170989711Y-93078210D01*
X170989707Y-93078213D01*
X170878213Y-93189707D01*
X170878207Y-93189715D01*
X170866314Y-93207513D01*
X170812700Y-93252316D01*
X170743375Y-93261020D01*
X170680349Y-93230863D01*
X170675534Y-93226299D01*
X170225090Y-92775855D01*
X170225088Y-92775852D01*
X170106217Y-92656981D01*
X170106216Y-92656980D01*
X170006657Y-92599500D01*
X169969285Y-92577923D01*
X169949994Y-92572753D01*
X169939617Y-92567781D01*
X169921848Y-92551800D01*
X169901443Y-92539362D01*
X169894159Y-92526899D01*
X169887666Y-92521059D01*
X169884952Y-92511142D01*
X169875495Y-92494960D01*
X169872195Y-92485000D01*
X169845906Y-92405666D01*
X169753804Y-92256344D01*
X169629748Y-92132288D01*
X169520958Y-92065186D01*
X169480428Y-92040187D01*
X169480423Y-92040185D01*
X169467736Y-92035981D01*
X169313889Y-91985001D01*
X169313886Y-91985000D01*
X169247989Y-91978268D01*
X169183297Y-91951871D01*
X169143146Y-91894690D01*
X169136592Y-91854910D01*
X169136592Y-91430241D01*
X169136593Y-91430220D01*
X169136593Y-91300891D01*
X169112556Y-91180054D01*
X169112555Y-91180053D01*
X169112555Y-91180049D01*
X169112553Y-91180044D01*
X169099070Y-91147492D01*
X169099069Y-91147491D01*
X169086667Y-91117549D01*
X169086667Y-91117548D01*
X169065407Y-91066221D01*
X169065400Y-91066208D01*
X168996950Y-90963767D01*
X168996947Y-90963763D01*
X168322911Y-90289727D01*
X168289426Y-90228404D01*
X168286592Y-90202046D01*
X168286592Y-85267741D01*
X168286593Y-85267720D01*
X168286593Y-85138391D01*
X168262556Y-85017555D01*
X168262555Y-85017549D01*
X168215404Y-84903715D01*
X168146950Y-84801267D01*
X168146947Y-84801263D01*
X165156914Y-81811232D01*
X165146951Y-81801269D01*
X165146950Y-81801267D01*
X165059825Y-81714142D01*
X165008601Y-81679915D01*
X164957378Y-81645688D01*
X164957375Y-81645686D01*
X164957372Y-81645685D01*
X164883695Y-81615168D01*
X164883693Y-81615167D01*
X164876884Y-81612347D01*
X164843544Y-81598537D01*
X164783121Y-81586518D01*
X164778398Y-81585578D01*
X164778396Y-81585578D01*
X164722702Y-81574500D01*
X164722699Y-81574500D01*
X164722698Y-81574500D01*
X160006650Y-81574500D01*
X160006630Y-81574499D01*
X160000516Y-81574499D01*
X159877303Y-81574499D01*
X159776506Y-81594548D01*
X159776501Y-81594548D01*
X159756458Y-81598536D01*
X159756456Y-81598536D01*
X159709306Y-81618067D01*
X159642628Y-81645685D01*
X159642626Y-81645686D01*
X159540175Y-81714141D01*
X159540172Y-81714144D01*
X155916138Y-85338181D01*
X155889210Y-85352884D01*
X155863392Y-85369477D01*
X155857191Y-85370368D01*
X155854815Y-85371666D01*
X155828457Y-85374500D01*
X155633109Y-85374500D01*
X155566070Y-85354815D01*
X155520315Y-85302011D01*
X155515403Y-85289505D01*
X155495906Y-85230666D01*
X155403804Y-85081344D01*
X155279748Y-84957288D01*
X155137887Y-84869788D01*
X155130428Y-84865187D01*
X155130423Y-84865185D01*
X155128954Y-84864698D01*
X154963889Y-84810001D01*
X154963887Y-84810000D01*
X154861102Y-84799500D01*
X154061090Y-84799500D01*
X154061072Y-84799501D01*
X153958295Y-84810000D01*
X153958292Y-84810001D01*
X153791760Y-84865185D01*
X153791755Y-84865187D01*
X153642434Y-84957289D01*
X153548773Y-85050951D01*
X153487450Y-85084436D01*
X153417758Y-85079452D01*
X153373411Y-85050951D01*
X153279749Y-84957289D01*
X153279748Y-84957288D01*
X153137887Y-84869788D01*
X153130428Y-84865187D01*
X153130423Y-84865185D01*
X153128954Y-84864698D01*
X152963889Y-84810001D01*
X152963887Y-84810000D01*
X152861102Y-84799500D01*
X152061090Y-84799500D01*
X152061072Y-84799501D01*
X151958295Y-84810000D01*
X151958292Y-84810001D01*
X151791760Y-84865185D01*
X151791755Y-84865187D01*
X151642434Y-84957289D01*
X151518381Y-85081342D01*
X151426279Y-85230663D01*
X151426277Y-85230668D01*
X151413836Y-85268213D01*
X151371093Y-85397203D01*
X151371093Y-85397204D01*
X151371092Y-85397204D01*
X151360592Y-85499983D01*
X151360592Y-86500001D01*
X151360593Y-86500019D01*
X151371092Y-86602796D01*
X151371093Y-86602799D01*
X151387726Y-86652993D01*
X151426278Y-86769334D01*
X151518380Y-86918656D01*
X151642436Y-87042712D01*
X151776689Y-87125519D01*
X151783511Y-87133104D01*
X151792795Y-87137344D01*
X151806482Y-87158642D01*
X151823413Y-87177465D01*
X151826057Y-87189101D01*
X151830569Y-87196122D01*
X151835592Y-87231057D01*
X151835592Y-87368942D01*
X151815907Y-87435981D01*
X151776690Y-87474479D01*
X151699989Y-87521789D01*
X151642434Y-87557289D01*
X151518381Y-87681342D01*
X151426279Y-87830663D01*
X151426277Y-87830668D01*
X151416427Y-87860394D01*
X151371093Y-87997203D01*
X151371093Y-87997204D01*
X151371092Y-87997204D01*
X151360592Y-88099983D01*
X151360592Y-89100001D01*
X151360593Y-89100019D01*
X151371092Y-89202796D01*
X151371093Y-89202799D01*
X151395440Y-89276272D01*
X151426278Y-89369334D01*
X151513185Y-89510234D01*
X151518381Y-89518657D01*
X151600431Y-89600707D01*
X151633916Y-89662030D01*
X151628932Y-89731722D01*
X151600431Y-89776069D01*
X151038321Y-90338181D01*
X150976998Y-90371666D01*
X150950640Y-90374500D01*
X144332837Y-90374500D01*
X144309312Y-90379179D01*
X144309311Y-90379178D01*
X144211998Y-90398535D01*
X144211989Y-90398537D01*
X144183146Y-90410485D01*
X144178651Y-90412347D01*
X144098158Y-90445688D01*
X144053260Y-90475689D01*
X144047180Y-90479750D01*
X144047169Y-90479757D01*
X143995715Y-90514138D01*
X143995713Y-90514139D01*
X143972034Y-90537819D01*
X143908586Y-90601267D01*
X143908583Y-90601270D01*
X143362362Y-91147491D01*
X143362359Y-91147494D01*
X143329809Y-91180044D01*
X143275233Y-91234619D01*
X143261280Y-91255500D01*
X143261281Y-91255501D01*
X143206778Y-91337069D01*
X143206777Y-91337070D01*
X143176822Y-91409390D01*
X143176820Y-91409394D01*
X143173439Y-91417559D01*
X143159629Y-91450900D01*
X143136628Y-91566535D01*
X143135797Y-91569786D01*
X143119591Y-91597067D01*
X143104896Y-91625161D01*
X143101714Y-91627163D01*
X143100114Y-91629857D01*
X143087068Y-91636378D01*
X143054672Y-91656764D01*
X143029258Y-91665185D01*
X142879934Y-91757289D01*
X142755881Y-91881342D01*
X142663779Y-92030663D01*
X142663777Y-92030668D01*
X142654141Y-92059748D01*
X142608593Y-92197203D01*
X142608593Y-92197204D01*
X142608592Y-92197204D01*
X142598092Y-92299983D01*
X142598092Y-93700001D01*
X142598093Y-93700018D01*
X142608592Y-93802796D01*
X142608593Y-93802799D01*
X142663777Y-93969331D01*
X142663779Y-93969336D01*
X142685468Y-94004500D01*
X142755880Y-94118656D01*
X142879936Y-94242712D01*
X143027421Y-94333681D01*
X143029260Y-94334815D01*
X143045515Y-94340201D01*
X143075594Y-94350168D01*
X143133039Y-94389938D01*
X143159864Y-94454453D01*
X143160592Y-94467874D01*
X143160592Y-94732125D01*
X143140907Y-94799164D01*
X143088103Y-94844919D01*
X143075601Y-94849829D01*
X143045470Y-94859814D01*
X143029258Y-94865186D01*
X143029255Y-94865187D01*
X142879934Y-94957289D01*
X142755881Y-95081342D01*
X142663779Y-95230663D01*
X142663777Y-95230668D01*
X142641908Y-95296666D01*
X142608593Y-95397203D01*
X142608593Y-95397204D01*
X142608592Y-95397204D01*
X142598092Y-95499983D01*
X142598092Y-96900001D01*
X142598093Y-96900018D01*
X142608592Y-97002796D01*
X142608593Y-97002799D01*
X142663777Y-97169331D01*
X142663779Y-97169336D01*
X142698661Y-97225888D01*
X142755880Y-97318656D01*
X142879936Y-97442712D01*
X143029258Y-97534814D01*
X143195795Y-97589999D01*
X143298583Y-97600500D01*
X144223600Y-97600499D01*
X144223608Y-97600498D01*
X144223611Y-97600498D01*
X144301406Y-97592551D01*
X144326389Y-97589999D01*
X144492926Y-97534814D01*
X144642248Y-97442712D01*
X144766304Y-97318656D01*
X144858406Y-97169334D01*
X144913591Y-97002797D01*
X144924092Y-96900009D01*
X144924091Y-95499992D01*
X144922854Y-95487887D01*
X144913591Y-95397203D01*
X144913590Y-95397200D01*
X144879171Y-95293332D01*
X144858406Y-95230666D01*
X144766304Y-95081344D01*
X144642248Y-94957288D01*
X144523777Y-94884215D01*
X144492928Y-94865187D01*
X144492927Y-94865186D01*
X144492926Y-94865186D01*
X144446586Y-94849830D01*
X144389142Y-94810058D01*
X144362320Y-94745541D01*
X144361592Y-94732125D01*
X144361592Y-94467874D01*
X144381277Y-94400835D01*
X144434081Y-94355080D01*
X144446580Y-94350170D01*
X144492926Y-94334814D01*
X144642248Y-94242712D01*
X144766304Y-94118656D01*
X144858406Y-93969334D01*
X144913591Y-93802797D01*
X144924092Y-93700009D01*
X144924091Y-92299992D01*
X144913591Y-92197203D01*
X144858406Y-92030666D01*
X144766304Y-91881344D01*
X144722141Y-91837181D01*
X144688656Y-91775858D01*
X144693640Y-91706166D01*
X144735512Y-91650233D01*
X144800976Y-91625816D01*
X144809822Y-91625500D01*
X145837362Y-91625500D01*
X145904401Y-91645185D01*
X145950156Y-91697989D01*
X145960100Y-91767147D01*
X145931075Y-91830703D01*
X145925043Y-91837181D01*
X145880881Y-91881342D01*
X145788779Y-92030663D01*
X145788777Y-92030668D01*
X145779141Y-92059748D01*
X145733593Y-92197203D01*
X145733593Y-92197204D01*
X145733592Y-92197204D01*
X145723092Y-92299983D01*
X145723092Y-93700001D01*
X145723093Y-93700018D01*
X145733592Y-93802796D01*
X145733593Y-93802799D01*
X145788777Y-93969331D01*
X145788779Y-93969336D01*
X145810468Y-94004500D01*
X145880880Y-94118656D01*
X146004936Y-94242712D01*
X146152421Y-94333681D01*
X146154260Y-94334815D01*
X146170515Y-94340201D01*
X146200594Y-94350168D01*
X146258039Y-94389938D01*
X146284864Y-94454453D01*
X146285592Y-94467874D01*
X146285592Y-94732125D01*
X146265907Y-94799164D01*
X146213103Y-94844919D01*
X146200601Y-94849829D01*
X146170470Y-94859814D01*
X146154258Y-94865186D01*
X146154255Y-94865187D01*
X146004934Y-94957289D01*
X145880881Y-95081342D01*
X145788779Y-95230663D01*
X145788777Y-95230668D01*
X145766908Y-95296666D01*
X145733593Y-95397203D01*
X145733593Y-95397204D01*
X145733592Y-95397204D01*
X145723092Y-95499983D01*
X145723092Y-96900001D01*
X145723093Y-96900018D01*
X145733592Y-97002796D01*
X145733593Y-97002799D01*
X145788777Y-97169331D01*
X145788779Y-97169336D01*
X145823661Y-97225888D01*
X145880880Y-97318656D01*
X146004936Y-97442712D01*
X146154258Y-97534814D01*
X146175593Y-97541883D01*
X146233038Y-97581653D01*
X146259863Y-97646167D01*
X146260592Y-97659590D01*
X146260592Y-97964547D01*
X146240907Y-98031586D01*
X146224273Y-98052228D01*
X146175236Y-98101264D01*
X146175230Y-98101272D01*
X146106782Y-98203708D01*
X146106780Y-98203713D01*
X146081602Y-98264500D01*
X146059630Y-98317544D01*
X146059627Y-98317556D01*
X146035592Y-98438389D01*
X146035592Y-99227983D01*
X146015907Y-99295022D01*
X145963103Y-99340777D01*
X145950602Y-99345686D01*
X145915511Y-99357315D01*
X145891758Y-99365186D01*
X145891755Y-99365187D01*
X145742434Y-99457289D01*
X145618381Y-99581342D01*
X145526279Y-99730663D01*
X145526277Y-99730668D01*
X145509485Y-99781344D01*
X145471093Y-99897203D01*
X145471093Y-99897204D01*
X145471092Y-99897204D01*
X145460592Y-99999983D01*
X145460592Y-100800001D01*
X145460593Y-100800019D01*
X145471092Y-100902796D01*
X145471093Y-100902799D01*
X145526277Y-101069331D01*
X145526279Y-101069336D01*
X145550719Y-101108959D01*
X145618379Y-101218655D01*
X145618381Y-101218657D01*
X145712043Y-101312319D01*
X145745528Y-101373642D01*
X145740544Y-101443334D01*
X145712043Y-101487681D01*
X145618381Y-101581342D01*
X145526279Y-101730663D01*
X145526278Y-101730666D01*
X145471093Y-101897203D01*
X145471093Y-101897204D01*
X145471092Y-101897204D01*
X145460592Y-101999983D01*
X145460592Y-102800001D01*
X145460593Y-102800019D01*
X145471092Y-102902796D01*
X145471093Y-102902799D01*
X145512932Y-103029058D01*
X145526278Y-103069334D01*
X145618380Y-103218656D01*
X145742436Y-103342712D01*
X145891758Y-103434814D01*
X145971506Y-103461239D01*
X146028951Y-103501011D01*
X146047077Y-103531526D01*
X146051740Y-103542795D01*
X146059629Y-103582452D01*
X146065739Y-103597203D01*
X146106780Y-103696286D01*
X146122279Y-103719481D01*
X146129073Y-103729649D01*
X146129075Y-103729653D01*
X146175232Y-103798731D01*
X146175233Y-103798732D01*
X146175234Y-103798733D01*
X146262359Y-103885858D01*
X146262361Y-103885859D01*
X146416514Y-104040013D01*
X146462360Y-104085859D01*
X146564804Y-104154310D01*
X146564803Y-104154310D01*
X146564805Y-104154311D01*
X146564807Y-104154312D01*
X146599580Y-104168715D01*
X146599581Y-104168716D01*
X146599582Y-104168716D01*
X146678640Y-104201463D01*
X146799481Y-104225499D01*
X146799485Y-104225500D01*
X146799486Y-104225500D01*
X148443902Y-104225500D01*
X148510941Y-104245185D01*
X148531583Y-104261819D01*
X150145082Y-105875319D01*
X150178567Y-105936642D01*
X150173583Y-106006334D01*
X150131711Y-106062267D01*
X150066247Y-106086684D01*
X150057401Y-106087000D01*
X150034298Y-106087000D01*
X149997432Y-106089901D01*
X149997426Y-106089902D01*
X149839606Y-106135754D01*
X149839603Y-106135755D01*
X149698137Y-106219417D01*
X149698129Y-106219423D01*
X149581923Y-106335629D01*
X149581917Y-106335637D01*
X149498255Y-106477103D01*
X149498254Y-106477106D01*
X149452402Y-106634926D01*
X149452401Y-106634932D01*
X149449500Y-106671798D01*
X149449500Y-107838000D01*
X149446949Y-107846685D01*
X149448238Y-107855647D01*
X149437259Y-107879687D01*
X149429815Y-107905039D01*
X149422974Y-107910966D01*
X149419213Y-107919203D01*
X149396978Y-107933492D01*
X149377011Y-107950794D01*
X149366496Y-107953081D01*
X149360435Y-107956977D01*
X149325500Y-107962000D01*
X149274000Y-107962000D01*
X149206961Y-107942315D01*
X149161206Y-107889511D01*
X149150000Y-107838000D01*
X149150000Y-107575000D01*
X148600000Y-107575000D01*
X148600000Y-108230684D01*
X148582733Y-108293804D01*
X148548254Y-108352105D01*
X148548254Y-108352106D01*
X148502402Y-108509926D01*
X148502401Y-108509932D01*
X148499500Y-108546798D01*
X148499500Y-109853201D01*
X148502401Y-109890067D01*
X148502402Y-109890073D01*
X148548254Y-110047893D01*
X148548254Y-110047894D01*
X148548255Y-110047896D01*
X148548256Y-110047898D01*
X148555163Y-110059577D01*
X148593913Y-110125101D01*
X148611094Y-110192825D01*
X148588934Y-110259088D01*
X148574861Y-110275902D01*
X147587584Y-111263181D01*
X147526261Y-111296666D01*
X147499903Y-111299500D01*
X147024499Y-111299500D01*
X146957460Y-111279815D01*
X146911705Y-111227011D01*
X146900499Y-111175500D01*
X146900499Y-110349998D01*
X146900498Y-110349981D01*
X146889999Y-110247203D01*
X146889998Y-110247200D01*
X146849538Y-110125101D01*
X146834814Y-110080666D01*
X146742712Y-109931344D01*
X146618656Y-109807288D01*
X146469334Y-109715186D01*
X146302797Y-109660001D01*
X146302795Y-109660000D01*
X146200010Y-109649500D01*
X144799998Y-109649500D01*
X144799981Y-109649501D01*
X144697203Y-109660000D01*
X144697200Y-109660001D01*
X144530668Y-109715185D01*
X144530663Y-109715187D01*
X144381342Y-109807289D01*
X144257289Y-109931342D01*
X144165187Y-110080663D01*
X144165185Y-110080668D01*
X144156755Y-110106108D01*
X144110001Y-110247203D01*
X144110001Y-110247204D01*
X144110000Y-110247204D01*
X144099500Y-110349983D01*
X144099500Y-113450001D01*
X144099501Y-113450018D01*
X144110000Y-113552796D01*
X144110001Y-113552799D01*
X144165185Y-113719331D01*
X144165187Y-113719336D01*
X144190454Y-113760300D01*
X144257288Y-113868656D01*
X144381344Y-113992712D01*
X144530666Y-114084814D01*
X144697203Y-114139999D01*
X144763103Y-114146731D01*
X144827794Y-114173127D01*
X144867945Y-114230307D01*
X144874500Y-114270089D01*
X144874500Y-117689546D01*
X144854815Y-117756585D01*
X144838181Y-117777227D01*
X144574088Y-118041320D01*
X144512765Y-118074805D01*
X144467009Y-118076112D01*
X144273736Y-118045500D01*
X144273731Y-118045500D01*
X144076269Y-118045500D01*
X144076264Y-118045500D01*
X143881236Y-118076389D01*
X143693441Y-118137408D01*
X143517496Y-118227057D01*
X143422384Y-118296159D01*
X143356578Y-118319638D01*
X143288524Y-118303812D01*
X143239830Y-118253706D01*
X143225500Y-118195840D01*
X143225500Y-116438393D01*
X143225499Y-116438389D01*
X143216732Y-116394313D01*
X143201463Y-116317548D01*
X143163020Y-116224739D01*
X143154312Y-116203716D01*
X143154307Y-116203707D01*
X143085858Y-116101267D01*
X143085855Y-116101263D01*
X142995637Y-116011045D01*
X142995606Y-116011016D01*
X140783404Y-113798814D01*
X140749919Y-113737491D01*
X140754903Y-113667799D01*
X140774981Y-113632775D01*
X140839698Y-113553407D01*
X140933909Y-113373049D01*
X140989886Y-113177418D01*
X141000500Y-113058037D01*
X141000499Y-111941964D01*
X140989886Y-111822582D01*
X140933909Y-111626951D01*
X140839698Y-111446593D01*
X140731838Y-111314313D01*
X140711109Y-111288890D01*
X140572046Y-111175500D01*
X140553407Y-111160302D01*
X140373049Y-111066091D01*
X140373048Y-111066090D01*
X140373045Y-111066089D01*
X140255829Y-111032550D01*
X140177418Y-111010114D01*
X140177415Y-111010113D01*
X140177413Y-111010113D01*
X140111102Y-111004217D01*
X140058037Y-110999500D01*
X140058032Y-110999500D01*
X137141971Y-110999500D01*
X137141965Y-110999500D01*
X137141964Y-110999501D01*
X137130316Y-111000536D01*
X137022584Y-111010113D01*
X136826954Y-111066089D01*
X136794965Y-111082799D01*
X136646593Y-111160302D01*
X136646591Y-111160303D01*
X136646590Y-111160304D01*
X136488890Y-111288890D01*
X136370980Y-111433497D01*
X136360302Y-111446593D01*
X136336417Y-111492319D01*
X136266089Y-111626954D01*
X136210114Y-111822583D01*
X136210113Y-111822586D01*
X136202607Y-111907016D01*
X136199640Y-111940396D01*
X136199500Y-111941966D01*
X136199500Y-113058028D01*
X136199500Y-113058033D01*
X136199501Y-113058036D01*
X136201188Y-113077014D01*
X136210113Y-113177415D01*
X136266089Y-113373045D01*
X136266090Y-113373048D01*
X136266091Y-113373049D01*
X136360302Y-113553407D01*
X136372160Y-113567950D01*
X136488890Y-113711109D01*
X136549219Y-113760300D01*
X136646593Y-113839698D01*
X136826951Y-113933909D01*
X137022582Y-113989886D01*
X137141963Y-114000500D01*
X139164547Y-114000499D01*
X139231586Y-114020184D01*
X139252228Y-114036818D01*
X141938181Y-116722771D01*
X141971666Y-116784094D01*
X141974500Y-116810452D01*
X141974500Y-118097058D01*
X141954815Y-118164097D01*
X141902011Y-118209852D01*
X141832853Y-118219796D01*
X141794205Y-118207543D01*
X141771237Y-118195840D01*
X141656561Y-118137409D01*
X141647836Y-118134574D01*
X141468763Y-118076389D01*
X141273736Y-118045500D01*
X141273731Y-118045500D01*
X141076269Y-118045500D01*
X141076264Y-118045500D01*
X140881236Y-118076389D01*
X140693441Y-118137408D01*
X140517495Y-118227058D01*
X140357753Y-118343115D01*
X140218115Y-118482753D01*
X140102058Y-118642495D01*
X140012408Y-118818441D01*
X139951389Y-119006236D01*
X139920500Y-119201263D01*
X139920500Y-119398736D01*
X139947693Y-119570427D01*
X139938738Y-119639721D01*
X139912901Y-119677506D01*
X139641180Y-119949227D01*
X139579857Y-119982712D01*
X139510165Y-119977728D01*
X139454232Y-119935856D01*
X139429815Y-119870392D01*
X139429499Y-119861569D01*
X139429499Y-118498128D01*
X139423091Y-118438517D01*
X139422660Y-118437362D01*
X139372797Y-118303671D01*
X139372793Y-118303664D01*
X139286547Y-118188455D01*
X139286544Y-118188452D01*
X139171335Y-118102206D01*
X139171328Y-118102202D01*
X139036482Y-118051908D01*
X139036483Y-118051908D01*
X138976883Y-118045501D01*
X138976881Y-118045500D01*
X138976873Y-118045500D01*
X138976864Y-118045500D01*
X137373129Y-118045500D01*
X137373123Y-118045501D01*
X137313516Y-118051908D01*
X137178671Y-118102202D01*
X137178664Y-118102206D01*
X137063455Y-118188452D01*
X137063452Y-118188455D01*
X136977206Y-118303664D01*
X136977202Y-118303671D01*
X136926908Y-118438517D01*
X136920501Y-118498116D01*
X136920501Y-118498123D01*
X136920500Y-118498135D01*
X136920500Y-120101870D01*
X136920501Y-120101876D01*
X136926908Y-120161483D01*
X136977202Y-120296328D01*
X136977206Y-120296335D01*
X137063452Y-120411544D01*
X137063455Y-120411547D01*
X137178664Y-120497793D01*
X137178671Y-120497797D01*
X137313517Y-120548091D01*
X137313516Y-120548091D01*
X137320444Y-120548835D01*
X137373127Y-120554500D01*
X138736547Y-120554499D01*
X138803586Y-120574184D01*
X138849341Y-120626987D01*
X138859285Y-120696146D01*
X138830260Y-120759702D01*
X138824228Y-120766180D01*
X138327229Y-121263181D01*
X138265906Y-121296666D01*
X138239548Y-121299500D01*
X131435453Y-121299500D01*
X131368414Y-121279815D01*
X131347772Y-121263181D01*
X130586981Y-120502390D01*
X130553496Y-120441067D01*
X130558480Y-120371375D01*
X130600352Y-120315442D01*
X130655264Y-120292236D01*
X130816127Y-120266757D01*
X130816130Y-120266757D01*
X131018217Y-120201095D01*
X131207557Y-120104620D01*
X131379459Y-119979727D01*
X131379464Y-119979723D01*
X131529723Y-119829464D01*
X131529727Y-119829459D01*
X131654620Y-119657557D01*
X131751095Y-119468217D01*
X131816757Y-119266130D01*
X131816757Y-119266127D01*
X131850000Y-119056246D01*
X131850000Y-119050000D01*
X130933012Y-119050000D01*
X130965925Y-118992993D01*
X131000000Y-118865826D01*
X131000000Y-118734174D01*
X130966479Y-118609074D01*
X133820500Y-118609074D01*
X133820500Y-119990926D01*
X133826731Y-120030264D01*
X133847697Y-120162639D01*
X133847697Y-120162642D01*
X133901418Y-120327978D01*
X133969421Y-120461440D01*
X133980347Y-120482884D01*
X134082535Y-120623533D01*
X134205467Y-120746465D01*
X134346116Y-120848653D01*
X134501019Y-120927580D01*
X134501021Y-120927581D01*
X134666358Y-120981302D01*
X134666359Y-120981302D01*
X134666362Y-120981303D01*
X134838074Y-121008500D01*
X134838075Y-121008500D01*
X135011925Y-121008500D01*
X135011926Y-121008500D01*
X135183638Y-120981303D01*
X135183641Y-120981302D01*
X135183642Y-120981302D01*
X135348978Y-120927581D01*
X135348978Y-120927580D01*
X135348981Y-120927580D01*
X135503884Y-120848653D01*
X135644533Y-120746465D01*
X135767465Y-120623533D01*
X135869653Y-120482884D01*
X135948580Y-120327981D01*
X135978852Y-120234814D01*
X136002302Y-120162642D01*
X136002302Y-120162641D01*
X136002303Y-120162638D01*
X136029500Y-119990926D01*
X136029500Y-118609074D01*
X136002303Y-118437362D01*
X136002302Y-118437358D01*
X136002302Y-118437357D01*
X135948581Y-118272021D01*
X135939249Y-118253706D01*
X135869653Y-118117116D01*
X135767465Y-117976467D01*
X135644533Y-117853535D01*
X135503884Y-117751347D01*
X135498457Y-117748582D01*
X135348978Y-117672418D01*
X135183641Y-117618697D01*
X135054854Y-117598299D01*
X135011926Y-117591500D01*
X134838074Y-117591500D01*
X134780836Y-117600565D01*
X134666360Y-117618697D01*
X134666357Y-117618697D01*
X134501021Y-117672418D01*
X134346115Y-117751347D01*
X134289298Y-117792628D01*
X134205467Y-117853535D01*
X134205465Y-117853537D01*
X134205464Y-117853537D01*
X134082537Y-117976464D01*
X134082537Y-117976465D01*
X134082535Y-117976467D01*
X134045541Y-118027385D01*
X133980347Y-118117115D01*
X133901418Y-118272021D01*
X133847697Y-118437357D01*
X133847697Y-118437360D01*
X133827510Y-118564814D01*
X133820500Y-118609074D01*
X130966479Y-118609074D01*
X130965925Y-118607007D01*
X130933012Y-118550000D01*
X131850000Y-118550000D01*
X131850000Y-118543753D01*
X131816757Y-118333872D01*
X131816757Y-118333869D01*
X131751095Y-118131782D01*
X131654620Y-117942442D01*
X131529727Y-117770540D01*
X131529723Y-117770535D01*
X131379464Y-117620276D01*
X131379459Y-117620272D01*
X131207557Y-117495379D01*
X131018215Y-117398903D01*
X130816124Y-117333241D01*
X130750000Y-117322768D01*
X130750000Y-118366988D01*
X130692993Y-118334075D01*
X130565826Y-118300000D01*
X130434174Y-118300000D01*
X130307007Y-118334075D01*
X130250000Y-118366988D01*
X130250000Y-117322768D01*
X130249999Y-117322768D01*
X130183875Y-117333241D01*
X129981784Y-117398903D01*
X129792442Y-117495379D01*
X129620541Y-117620271D01*
X129481668Y-117759144D01*
X129420345Y-117792628D01*
X129350653Y-117787644D01*
X129294720Y-117745772D01*
X129288448Y-117736558D01*
X129248886Y-117672418D01*
X129192712Y-117581344D01*
X129068656Y-117457288D01*
X128919334Y-117365186D01*
X128752797Y-117310001D01*
X128752795Y-117310000D01*
X128650010Y-117299500D01*
X127349998Y-117299500D01*
X127349981Y-117299501D01*
X127247203Y-117310000D01*
X127247200Y-117310001D01*
X127080668Y-117365185D01*
X127080663Y-117365187D01*
X126931342Y-117457289D01*
X126807289Y-117581342D01*
X126715187Y-117730663D01*
X126715185Y-117730668D01*
X126687349Y-117814670D01*
X126660001Y-117897203D01*
X126660001Y-117897204D01*
X126660000Y-117897204D01*
X126649500Y-117999983D01*
X126649500Y-119600001D01*
X126649501Y-119600018D01*
X126660000Y-119702796D01*
X126660001Y-119702799D01*
X126711046Y-119856841D01*
X126713448Y-119926669D01*
X126677716Y-119986711D01*
X126615196Y-120017904D01*
X126569149Y-120017462D01*
X126478846Y-119999500D01*
X126478842Y-119999500D01*
X126321158Y-119999500D01*
X126321155Y-119999500D01*
X126166510Y-120030261D01*
X126166498Y-120030264D01*
X126020827Y-120090602D01*
X126020814Y-120090609D01*
X125889711Y-120178210D01*
X125889707Y-120178213D01*
X125778213Y-120289707D01*
X125778210Y-120289711D01*
X125727602Y-120365451D01*
X125673989Y-120410256D01*
X125604664Y-120418963D01*
X125541637Y-120388808D01*
X125504918Y-120329365D01*
X125500500Y-120296560D01*
X125500500Y-112141966D01*
X127399500Y-112141966D01*
X127399500Y-113258028D01*
X127399501Y-113258034D01*
X127410113Y-113377415D01*
X127466089Y-113573045D01*
X127466090Y-113573048D01*
X127466091Y-113573049D01*
X127560302Y-113753407D01*
X127594977Y-113795933D01*
X127688890Y-113911109D01*
X127756826Y-113966503D01*
X127846593Y-114039698D01*
X128026951Y-114133909D01*
X128222582Y-114189886D01*
X128341963Y-114200500D01*
X129072650Y-114200499D01*
X129139689Y-114220183D01*
X129185444Y-114272987D01*
X129195388Y-114342146D01*
X129175752Y-114393390D01*
X129090609Y-114520814D01*
X129090602Y-114520827D01*
X129030264Y-114666498D01*
X129030261Y-114666510D01*
X128999500Y-114821153D01*
X128999500Y-114978846D01*
X129030261Y-115133489D01*
X129030264Y-115133501D01*
X129090602Y-115279172D01*
X129090609Y-115279185D01*
X129178210Y-115410288D01*
X129178213Y-115410292D01*
X129289707Y-115521786D01*
X129289711Y-115521789D01*
X129420814Y-115609390D01*
X129420827Y-115609397D01*
X129566498Y-115669735D01*
X129566503Y-115669737D01*
X129721153Y-115700499D01*
X129721156Y-115700500D01*
X129721158Y-115700500D01*
X129878844Y-115700500D01*
X129878845Y-115700499D01*
X130033497Y-115669737D01*
X130179179Y-115609394D01*
X130310289Y-115521789D01*
X130421789Y-115410289D01*
X130509394Y-115279179D01*
X130569737Y-115133497D01*
X130600500Y-114978842D01*
X130600500Y-114821158D01*
X130600500Y-114821155D01*
X130600499Y-114821153D01*
X130577280Y-114704423D01*
X130569737Y-114666503D01*
X130554202Y-114628998D01*
X130509397Y-114520827D01*
X130509390Y-114520814D01*
X130424248Y-114393390D01*
X130403370Y-114326712D01*
X130421855Y-114259332D01*
X130473833Y-114212642D01*
X130527350Y-114200499D01*
X131258028Y-114200499D01*
X131258036Y-114200499D01*
X131377418Y-114189886D01*
X131573049Y-114133909D01*
X131753407Y-114039698D01*
X131911109Y-113911109D01*
X132039698Y-113753407D01*
X132133909Y-113573049D01*
X132189886Y-113377418D01*
X132200500Y-113258037D01*
X132200499Y-112141964D01*
X132189886Y-112022582D01*
X132133909Y-111826951D01*
X132039698Y-111646593D01*
X131966121Y-111556358D01*
X131911109Y-111488890D01*
X131753409Y-111360304D01*
X131753410Y-111360304D01*
X131753407Y-111360302D01*
X131573049Y-111266091D01*
X131573048Y-111266090D01*
X131573045Y-111266089D01*
X131436470Y-111227011D01*
X131377418Y-111210114D01*
X131377415Y-111210113D01*
X131377413Y-111210113D01*
X131311102Y-111204217D01*
X131258037Y-111199500D01*
X131258032Y-111199500D01*
X128341971Y-111199500D01*
X128341965Y-111199500D01*
X128341964Y-111199501D01*
X128330316Y-111200536D01*
X128222584Y-111210113D01*
X128026954Y-111266089D01*
X127936772Y-111313196D01*
X127846593Y-111360302D01*
X127846591Y-111360303D01*
X127846590Y-111360304D01*
X127688890Y-111488890D01*
X127576315Y-111626954D01*
X127560302Y-111646593D01*
X127526480Y-111711342D01*
X127466089Y-111826954D01*
X127421332Y-111983376D01*
X127416433Y-112000500D01*
X127410114Y-112022583D01*
X127410113Y-112022586D01*
X127404843Y-112081862D01*
X127400565Y-112129992D01*
X127399500Y-112141966D01*
X125500500Y-112141966D01*
X125500500Y-107857244D01*
X125520185Y-107790205D01*
X125572989Y-107744450D01*
X125642147Y-107734506D01*
X125705703Y-107763531D01*
X125712181Y-107769563D01*
X126353471Y-108410855D01*
X126353473Y-108410857D01*
X126455918Y-108479309D01*
X126455919Y-108479309D01*
X126455923Y-108479312D01*
X126501562Y-108498216D01*
X126569756Y-108526463D01*
X126589805Y-108530451D01*
X126653296Y-108543080D01*
X126690600Y-108550501D01*
X126690602Y-108550501D01*
X126819929Y-108550501D01*
X126819949Y-108550500D01*
X128336607Y-108550500D01*
X128397029Y-108538481D01*
X128457452Y-108526463D01*
X128490792Y-108512652D01*
X128571286Y-108479312D01*
X128622509Y-108445084D01*
X128673733Y-108410858D01*
X128760858Y-108323733D01*
X128760858Y-108323731D01*
X128771066Y-108313524D01*
X128771068Y-108313521D01*
X129161142Y-107923446D01*
X129222463Y-107889963D01*
X129278744Y-107890793D01*
X129306111Y-107897600D01*
X129348877Y-107900500D01*
X130251122Y-107900499D01*
X130293889Y-107897600D01*
X130478693Y-107851641D01*
X130649296Y-107767030D01*
X130797722Y-107647722D01*
X130853675Y-107578112D01*
X130911015Y-107538196D01*
X130980837Y-107535616D01*
X131040970Y-107571194D01*
X131046967Y-107578115D01*
X131102632Y-107647366D01*
X131102633Y-107647367D01*
X131250974Y-107766607D01*
X131250977Y-107766609D01*
X131421476Y-107851168D01*
X131606175Y-107897102D01*
X131648903Y-107900000D01*
X131850000Y-107900000D01*
X132350000Y-107900000D01*
X132551097Y-107900000D01*
X132593824Y-107897102D01*
X132778523Y-107851168D01*
X132949022Y-107766609D01*
X132949025Y-107766607D01*
X133097366Y-107647367D01*
X133097367Y-107647366D01*
X133216607Y-107499025D01*
X133216609Y-107499022D01*
X133301168Y-107328523D01*
X133347102Y-107143824D01*
X133350000Y-107101096D01*
X133350000Y-106650000D01*
X132350000Y-106650000D01*
X132350000Y-107900000D01*
X131850000Y-107900000D01*
X131850000Y-106524000D01*
X131869685Y-106456961D01*
X131922489Y-106411206D01*
X131974000Y-106400000D01*
X132100000Y-106400000D01*
X132100000Y-106274000D01*
X132119685Y-106206961D01*
X132172489Y-106161206D01*
X132224000Y-106150000D01*
X133350000Y-106150000D01*
X133350000Y-105698903D01*
X133347102Y-105656175D01*
X133346669Y-105654434D01*
X133346702Y-105653625D01*
X133346255Y-105650772D01*
X133346825Y-105650682D01*
X133349588Y-105584625D01*
X133389785Y-105527476D01*
X133454498Y-105501132D01*
X133467002Y-105500500D01*
X134664548Y-105500500D01*
X134731587Y-105520185D01*
X134752229Y-105536819D01*
X135013181Y-105797771D01*
X135046666Y-105859094D01*
X135049500Y-105885452D01*
X135049501Y-106901122D01*
X135052399Y-106943886D01*
X135052399Y-106943887D01*
X135078913Y-107050500D01*
X135094721Y-107114066D01*
X135098360Y-107128696D01*
X135182967Y-107299292D01*
X135182969Y-107299295D01*
X135302277Y-107447721D01*
X135302278Y-107447722D01*
X135450704Y-107567030D01*
X135450707Y-107567032D01*
X135621302Y-107651639D01*
X135621303Y-107651639D01*
X135621307Y-107651641D01*
X135806111Y-107697600D01*
X135848877Y-107700500D01*
X136751122Y-107700499D01*
X136793889Y-107697600D01*
X136821247Y-107690796D01*
X136891054Y-107693716D01*
X136938858Y-107723448D01*
X137501263Y-108285855D01*
X137501267Y-108285858D01*
X137603710Y-108354309D01*
X137603711Y-108354309D01*
X137603715Y-108354312D01*
X137670397Y-108381932D01*
X137717548Y-108401463D01*
X137737597Y-108405451D01*
X137802624Y-108418385D01*
X137838392Y-108425501D01*
X137838394Y-108425501D01*
X137967721Y-108425501D01*
X137967741Y-108425500D01*
X143985019Y-108425500D01*
X144052058Y-108445185D01*
X144097813Y-108497989D01*
X144108377Y-108536899D01*
X144110000Y-108552796D01*
X144110001Y-108552799D01*
X144165185Y-108719331D01*
X144165186Y-108719334D01*
X144257288Y-108868656D01*
X144381344Y-108992712D01*
X144530666Y-109084814D01*
X144697203Y-109139999D01*
X144799991Y-109150500D01*
X146200008Y-109150499D01*
X146302797Y-109139999D01*
X146469334Y-109084814D01*
X146618656Y-108992712D01*
X146742712Y-108868656D01*
X146834814Y-108719334D01*
X146889999Y-108552797D01*
X146900500Y-108450009D01*
X146900500Y-107978149D01*
X147550000Y-107978149D01*
X147552899Y-108014989D01*
X147552900Y-108014995D01*
X147598716Y-108172693D01*
X147598717Y-108172696D01*
X147682314Y-108314052D01*
X147682321Y-108314061D01*
X147798438Y-108430178D01*
X147798447Y-108430185D01*
X147939801Y-108513781D01*
X148097514Y-108559600D01*
X148097511Y-108559600D01*
X148099998Y-108559795D01*
X148100000Y-108559795D01*
X148100000Y-107575000D01*
X147550000Y-107575000D01*
X147550000Y-107978149D01*
X146900500Y-107978149D01*
X146900499Y-106671850D01*
X147550000Y-106671850D01*
X147550000Y-107075000D01*
X148100000Y-107075000D01*
X148600000Y-107075000D01*
X149150000Y-107075000D01*
X149150000Y-106671865D01*
X149149999Y-106671850D01*
X149147100Y-106635010D01*
X149147099Y-106635004D01*
X149101283Y-106477306D01*
X149101282Y-106477303D01*
X149017685Y-106335947D01*
X149017678Y-106335938D01*
X148901561Y-106219821D01*
X148901552Y-106219814D01*
X148760196Y-106136217D01*
X148760193Y-106136216D01*
X148602494Y-106090400D01*
X148602497Y-106090400D01*
X148600000Y-106090203D01*
X148600000Y-107075000D01*
X148100000Y-107075000D01*
X148100000Y-106090203D01*
X148097503Y-106090400D01*
X147939806Y-106136216D01*
X147939803Y-106136217D01*
X147798447Y-106219814D01*
X147798438Y-106219821D01*
X147682321Y-106335938D01*
X147682314Y-106335947D01*
X147598717Y-106477303D01*
X147598716Y-106477306D01*
X147552900Y-106635004D01*
X147552899Y-106635010D01*
X147550000Y-106671850D01*
X146900499Y-106671850D01*
X146900499Y-105349992D01*
X146889999Y-105247203D01*
X146834814Y-105080666D01*
X146742712Y-104931344D01*
X146618656Y-104807288D01*
X146482256Y-104723156D01*
X146469336Y-104715187D01*
X146469331Y-104715185D01*
X146449205Y-104708516D01*
X146302797Y-104660001D01*
X146302795Y-104660000D01*
X146200010Y-104649500D01*
X144799998Y-104649500D01*
X144799981Y-104649501D01*
X144697203Y-104660000D01*
X144697200Y-104660001D01*
X144530668Y-104715185D01*
X144530663Y-104715187D01*
X144381342Y-104807289D01*
X144257289Y-104931342D01*
X144165187Y-105080663D01*
X144165185Y-105080668D01*
X144164455Y-105082872D01*
X144110001Y-105247203D01*
X144110001Y-105247204D01*
X144110000Y-105247204D01*
X144099500Y-105349983D01*
X144099500Y-105349991D01*
X144099500Y-106254593D01*
X144099501Y-107050500D01*
X144079816Y-107117539D01*
X144027013Y-107163294D01*
X143975501Y-107174500D01*
X142248864Y-107174500D01*
X142181825Y-107154815D01*
X142136070Y-107102011D01*
X142126126Y-107032853D01*
X142128529Y-107020573D01*
X142128822Y-107019397D01*
X142147600Y-106943889D01*
X142150500Y-106901123D01*
X142150499Y-105498878D01*
X142147600Y-105456111D01*
X142101641Y-105271307D01*
X142083198Y-105234119D01*
X142017032Y-105100707D01*
X142017030Y-105100704D01*
X141897722Y-104952278D01*
X141897721Y-104952277D01*
X141749295Y-104832969D01*
X141749292Y-104832967D01*
X141578696Y-104748360D01*
X141578694Y-104748359D01*
X141578693Y-104748359D01*
X141573792Y-104747140D01*
X141567516Y-104745579D01*
X141566069Y-104744732D01*
X141564393Y-104744759D01*
X141536017Y-104727149D01*
X141507210Y-104710294D01*
X141505994Y-104708516D01*
X141505026Y-104707916D01*
X141498713Y-104697874D01*
X141485478Y-104678530D01*
X141484110Y-104675655D01*
X141483631Y-104674499D01*
X141454312Y-104603714D01*
X141438889Y-104580632D01*
X141435025Y-104572513D01*
X141430871Y-104546538D01*
X141423013Y-104521443D01*
X141425442Y-104512588D01*
X141423992Y-104503520D01*
X141434539Y-104479423D01*
X141441497Y-104454063D01*
X141448326Y-104447927D01*
X141452010Y-104439514D01*
X141473911Y-104424945D01*
X141493475Y-104407372D01*
X141502758Y-104405757D01*
X141510185Y-104400817D01*
X141533250Y-104400452D01*
X141559596Y-104395870D01*
X141600019Y-104399999D01*
X141749999Y-104399999D01*
X142250000Y-104399999D01*
X142399972Y-104399999D01*
X142399986Y-104399998D01*
X142502697Y-104389505D01*
X142669119Y-104334358D01*
X142669124Y-104334356D01*
X142818345Y-104242315D01*
X142942315Y-104118345D01*
X143034356Y-103969124D01*
X143034358Y-103969119D01*
X143089505Y-103802697D01*
X143089506Y-103802690D01*
X143099999Y-103699986D01*
X143100000Y-103699973D01*
X143100000Y-103450000D01*
X142250000Y-103450000D01*
X142250000Y-104399999D01*
X141749999Y-104399999D01*
X141750000Y-104399998D01*
X141750000Y-102950000D01*
X142250000Y-102950000D01*
X143099999Y-102950000D01*
X143099999Y-102700028D01*
X143099998Y-102700013D01*
X143089505Y-102597302D01*
X143034358Y-102430880D01*
X143034356Y-102430875D01*
X142942315Y-102281654D01*
X142818345Y-102157684D01*
X142669124Y-102065643D01*
X142669119Y-102065641D01*
X142502697Y-102010494D01*
X142502690Y-102010493D01*
X142399986Y-102000000D01*
X142250000Y-102000000D01*
X142250000Y-102950000D01*
X141750000Y-102950000D01*
X141750000Y-102000000D01*
X141600027Y-102000000D01*
X141600012Y-102000001D01*
X141497302Y-102010494D01*
X141330880Y-102065641D01*
X141330875Y-102065643D01*
X141181657Y-102157682D01*
X141088034Y-102251305D01*
X141026710Y-102284789D01*
X140957019Y-102279805D01*
X140912672Y-102251304D01*
X140818657Y-102157289D01*
X140818656Y-102157288D01*
X140702536Y-102085665D01*
X140669336Y-102065187D01*
X140669331Y-102065185D01*
X140606817Y-102044470D01*
X140502797Y-102010001D01*
X140502795Y-102010000D01*
X140400016Y-101999500D01*
X139624500Y-101999500D01*
X139557461Y-101979815D01*
X139511706Y-101927011D01*
X139500500Y-101875500D01*
X139500500Y-101821155D01*
X139500499Y-101821153D01*
X139484896Y-101742712D01*
X139469737Y-101666503D01*
X139447821Y-101613593D01*
X139409397Y-101520827D01*
X139409390Y-101520814D01*
X139321789Y-101389711D01*
X139321786Y-101389707D01*
X139210292Y-101278213D01*
X139210288Y-101278210D01*
X139079185Y-101190609D01*
X139079172Y-101190602D01*
X138933501Y-101130264D01*
X138933489Y-101130261D01*
X138778845Y-101099500D01*
X138778842Y-101099500D01*
X138621158Y-101099500D01*
X138621155Y-101099500D01*
X138466510Y-101130261D01*
X138466498Y-101130264D01*
X138320827Y-101190602D01*
X138320815Y-101190609D01*
X138226541Y-101253602D01*
X138159864Y-101274480D01*
X138157650Y-101274500D01*
X135438389Y-101274500D01*
X135380234Y-101286067D01*
X135380211Y-101286072D01*
X135377971Y-101286518D01*
X135317548Y-101298537D01*
X135312807Y-101300501D01*
X135271975Y-101317414D01*
X135203712Y-101345688D01*
X135172701Y-101366411D01*
X135156854Y-101377000D01*
X135101267Y-101414142D01*
X135014142Y-101501267D01*
X134804044Y-101711364D01*
X134804036Y-101711372D01*
X134801270Y-101714139D01*
X134801267Y-101714142D01*
X134714142Y-101801267D01*
X134685105Y-101844724D01*
X134680515Y-101851591D01*
X134680514Y-101851594D01*
X134645688Y-101903712D01*
X134632512Y-101935521D01*
X134616608Y-101973920D01*
X134608172Y-101994287D01*
X134564330Y-102048691D01*
X134532619Y-102064538D01*
X134532338Y-102064631D01*
X134530666Y-102065185D01*
X134381342Y-102157289D01*
X134257289Y-102281342D01*
X134165187Y-102430663D01*
X134165185Y-102430668D01*
X134150661Y-102474498D01*
X134110001Y-102597203D01*
X134110001Y-102597204D01*
X134110000Y-102597204D01*
X134099500Y-102699983D01*
X134099500Y-103700001D01*
X134099501Y-103700019D01*
X134110000Y-103802796D01*
X134110001Y-103802799D01*
X134154574Y-103937309D01*
X134165186Y-103969334D01*
X134221358Y-104060404D01*
X134239798Y-104127796D01*
X134218875Y-104194459D01*
X134165233Y-104239229D01*
X134115819Y-104249500D01*
X131080821Y-104249500D01*
X131013782Y-104229815D01*
X130968027Y-104177011D01*
X130958083Y-104107853D01*
X130983874Y-104048187D01*
X130990393Y-104040013D01*
X131142523Y-103849248D01*
X131291945Y-103611445D01*
X131413801Y-103358408D01*
X131506560Y-103093318D01*
X131569055Y-102819509D01*
X131569145Y-102818716D01*
X131585013Y-102677874D01*
X131600500Y-102540425D01*
X131600500Y-102259575D01*
X131589020Y-102157684D01*
X131569057Y-101980505D01*
X131569054Y-101980487D01*
X131562956Y-101953772D01*
X131506560Y-101706682D01*
X131502635Y-101695466D01*
X131462702Y-101581344D01*
X131413801Y-101441592D01*
X131325913Y-101259090D01*
X131291946Y-101188557D01*
X131288981Y-101183838D01*
X131142523Y-100950752D01*
X130967416Y-100731175D01*
X130768825Y-100532584D01*
X130754860Y-100521447D01*
X130714720Y-100464258D01*
X130711870Y-100394446D01*
X130747216Y-100334177D01*
X130809535Y-100302584D01*
X130832173Y-100300500D01*
X132778807Y-100300500D01*
X132843903Y-100318961D01*
X132934449Y-100374810D01*
X132934450Y-100374810D01*
X132934456Y-100374814D01*
X133100993Y-100429999D01*
X133203781Y-100440500D01*
X134203798Y-100440499D01*
X134203806Y-100440498D01*
X134203809Y-100440498D01*
X134260092Y-100434748D01*
X134306587Y-100429999D01*
X134473124Y-100374814D01*
X134622446Y-100282712D01*
X134746502Y-100158656D01*
X134838604Y-100009334D01*
X134838605Y-100009331D01*
X134842395Y-100003187D01*
X134844189Y-100004293D01*
X134848775Y-99999083D01*
X134855985Y-99983297D01*
X134871383Y-99973401D01*
X134883477Y-99959663D01*
X134900364Y-99954775D01*
X134914763Y-99945523D01*
X134949698Y-99940500D01*
X134957882Y-99940500D01*
X135024921Y-99960185D01*
X135063426Y-100004271D01*
X135065185Y-100003187D01*
X135068975Y-100009331D01*
X135068976Y-100009334D01*
X135161078Y-100158656D01*
X135285134Y-100282712D01*
X135434456Y-100374814D01*
X135600993Y-100429999D01*
X135703781Y-100440500D01*
X136703798Y-100440499D01*
X136703806Y-100440498D01*
X136703809Y-100440498D01*
X136760092Y-100434748D01*
X136806587Y-100429999D01*
X136973124Y-100374814D01*
X137122446Y-100282712D01*
X137246502Y-100158656D01*
X137338604Y-100009334D01*
X137338605Y-100009331D01*
X137342395Y-100003187D01*
X137344189Y-100004293D01*
X137348775Y-99999083D01*
X137355985Y-99983297D01*
X137371383Y-99973401D01*
X137383477Y-99959663D01*
X137400364Y-99954775D01*
X137414763Y-99945523D01*
X137449698Y-99940500D01*
X137457882Y-99940500D01*
X137524921Y-99960185D01*
X137563426Y-100004271D01*
X137565185Y-100003187D01*
X137568975Y-100009331D01*
X137568976Y-100009334D01*
X137661078Y-100158656D01*
X137785134Y-100282712D01*
X137934456Y-100374814D01*
X138100993Y-100429999D01*
X138203781Y-100440500D01*
X139203798Y-100440499D01*
X139203806Y-100440498D01*
X139203809Y-100440498D01*
X139260092Y-100434748D01*
X139306587Y-100429999D01*
X139473124Y-100374814D01*
X139622446Y-100282712D01*
X139746502Y-100158656D01*
X139838604Y-100009334D01*
X139893789Y-99842797D01*
X139904290Y-99740009D01*
X139904289Y-98939992D01*
X139903782Y-98935032D01*
X139893789Y-98837203D01*
X139893788Y-98837200D01*
X139882809Y-98804068D01*
X139838604Y-98670666D01*
X139746502Y-98521344D01*
X139652839Y-98427681D01*
X139619354Y-98366358D01*
X139624338Y-98296666D01*
X139652839Y-98252319D01*
X139671405Y-98233753D01*
X139746502Y-98158656D01*
X139838604Y-98009334D01*
X139893789Y-97842797D01*
X139904290Y-97740009D01*
X139904289Y-96939992D01*
X139903285Y-96930167D01*
X139893789Y-96837203D01*
X139893788Y-96837200D01*
X139882476Y-96803064D01*
X139838604Y-96670666D01*
X139746502Y-96521344D01*
X139622446Y-96397288D01*
X139473124Y-96305186D01*
X139306587Y-96250001D01*
X139306585Y-96250000D01*
X139203806Y-96239500D01*
X138548573Y-96239500D01*
X138481534Y-96219815D01*
X138435779Y-96167011D01*
X138425835Y-96097853D01*
X138454860Y-96034297D01*
X138474262Y-96016233D01*
X138593961Y-95926626D01*
X138680120Y-95811533D01*
X138680124Y-95811526D01*
X138730366Y-95676819D01*
X138730368Y-95676812D01*
X138736769Y-95617284D01*
X138736770Y-95617267D01*
X138736770Y-95069440D01*
X137910770Y-95069440D01*
X137843731Y-95049755D01*
X137797976Y-94996951D01*
X137786770Y-94945440D01*
X137786770Y-94819440D01*
X137660770Y-94819440D01*
X137593731Y-94799755D01*
X137547976Y-94746951D01*
X137536770Y-94695440D01*
X137536770Y-94569440D01*
X138036770Y-94569440D01*
X138736770Y-94569440D01*
X138736770Y-94021612D01*
X138736769Y-94021595D01*
X138730368Y-93962067D01*
X138730366Y-93962060D01*
X138680124Y-93827353D01*
X138680120Y-93827346D01*
X138593960Y-93712252D01*
X138593957Y-93712249D01*
X138478863Y-93626089D01*
X138478856Y-93626085D01*
X138344149Y-93575843D01*
X138344142Y-93575841D01*
X138284614Y-93569440D01*
X138036770Y-93569440D01*
X138036770Y-94569440D01*
X137536770Y-94569440D01*
X137536770Y-93569440D01*
X137288925Y-93569440D01*
X137229397Y-93575841D01*
X137229390Y-93575843D01*
X137086371Y-93629186D01*
X137086026Y-93628261D01*
X137080563Y-93632346D01*
X137054234Y-93634213D01*
X137028444Y-93639823D01*
X137018086Y-93636778D01*
X137010869Y-93637290D01*
X136977807Y-93624937D01*
X136976781Y-93624376D01*
X136927404Y-93574943D01*
X136912270Y-93515578D01*
X136912270Y-92267472D01*
X136931955Y-92200433D01*
X136948589Y-92179791D01*
X138966561Y-90161819D01*
X139027884Y-90128334D01*
X139054242Y-90125500D01*
X139525501Y-90125500D01*
X139592540Y-90145185D01*
X139638295Y-90197989D01*
X139649501Y-90249500D01*
X139649501Y-90397872D01*
X139655908Y-90457483D01*
X139706202Y-90592328D01*
X139706206Y-90592335D01*
X139792452Y-90707544D01*
X139792455Y-90707547D01*
X139907664Y-90793793D01*
X139907671Y-90793797D01*
X140042517Y-90844091D01*
X140042516Y-90844091D01*
X140049444Y-90844835D01*
X140102127Y-90850500D01*
X141897872Y-90850499D01*
X141957483Y-90844091D01*
X142092331Y-90793796D01*
X142207546Y-90707546D01*
X142293796Y-90592331D01*
X142344091Y-90457483D01*
X142350500Y-90397873D01*
X142350499Y-89074499D01*
X142370184Y-89007461D01*
X142422987Y-88961706D01*
X142474499Y-88950500D01*
X143208480Y-88950500D01*
X143275519Y-88970185D01*
X143296161Y-88986819D01*
X143414811Y-89105469D01*
X143414813Y-89105470D01*
X143414815Y-89105472D01*
X143560394Y-89193478D01*
X143722804Y-89244086D01*
X143793384Y-89250500D01*
X143793387Y-89250500D01*
X145406613Y-89250500D01*
X145406616Y-89250500D01*
X145477196Y-89244086D01*
X145639606Y-89193478D01*
X145785185Y-89105472D01*
X145905472Y-88985185D01*
X145993478Y-88839606D01*
X146044086Y-88677196D01*
X146050500Y-88606616D01*
X146050500Y-88093384D01*
X146049785Y-88085519D01*
X146063321Y-88016975D01*
X146111767Y-87966629D01*
X146179742Y-87950467D01*
X146245663Y-87973620D01*
X146279391Y-88010146D01*
X146294528Y-88035185D01*
X146294530Y-88035188D01*
X146414811Y-88155469D01*
X146414813Y-88155470D01*
X146414815Y-88155472D01*
X146560394Y-88243478D01*
X146722804Y-88294086D01*
X146727362Y-88294500D01*
X146792345Y-88320171D01*
X146833133Y-88376899D01*
X146836777Y-88446674D01*
X146830706Y-88465431D01*
X146830266Y-88466492D01*
X146830261Y-88466510D01*
X146799500Y-88621153D01*
X146799500Y-88778846D01*
X146830261Y-88933489D01*
X146830264Y-88933501D01*
X146890602Y-89079172D01*
X146890609Y-89079185D01*
X146978210Y-89210288D01*
X146978213Y-89210292D01*
X147089707Y-89321786D01*
X147089711Y-89321789D01*
X147220814Y-89409390D01*
X147220827Y-89409397D01*
X147366498Y-89469735D01*
X147366503Y-89469737D01*
X147521153Y-89500499D01*
X147521156Y-89500500D01*
X147521158Y-89500500D01*
X147678844Y-89500500D01*
X147678845Y-89500499D01*
X147833497Y-89469737D01*
X147979179Y-89409394D01*
X148110289Y-89321789D01*
X148221789Y-89210289D01*
X148309394Y-89079179D01*
X148369737Y-88933497D01*
X148400500Y-88778842D01*
X148400500Y-88621158D01*
X148400500Y-88621155D01*
X148400499Y-88621153D01*
X148369738Y-88466510D01*
X148369737Y-88466503D01*
X148369298Y-88465445D01*
X148369234Y-88464848D01*
X148367969Y-88460676D01*
X148368760Y-88460435D01*
X148361829Y-88395977D01*
X148393102Y-88333497D01*
X148453191Y-88297843D01*
X148472635Y-88294500D01*
X148477196Y-88294086D01*
X148639606Y-88243478D01*
X148785185Y-88155472D01*
X148905472Y-88035185D01*
X148993478Y-87889606D01*
X149044086Y-87727196D01*
X149050500Y-87656616D01*
X149050500Y-87143384D01*
X149044086Y-87072804D01*
X148993478Y-86910394D01*
X148905472Y-86764815D01*
X148905470Y-86764813D01*
X148905469Y-86764811D01*
X148785188Y-86644530D01*
X148639606Y-86556522D01*
X148525035Y-86520821D01*
X148477196Y-86505914D01*
X148477194Y-86505913D01*
X148477192Y-86505913D01*
X148427778Y-86501423D01*
X148406616Y-86499500D01*
X148406613Y-86499500D01*
X148324500Y-86499500D01*
X148257461Y-86479815D01*
X148211706Y-86427011D01*
X148200500Y-86375500D01*
X148200500Y-85420940D01*
X148198237Y-85412495D01*
X148198237Y-85412496D01*
X148198236Y-85412491D01*
X148159577Y-85268215D01*
X148119461Y-85198733D01*
X148119461Y-85198731D01*
X148080524Y-85131290D01*
X148080521Y-85131286D01*
X148080520Y-85131284D01*
X147968716Y-85019480D01*
X147968715Y-85019479D01*
X147964385Y-85015149D01*
X147964374Y-85015139D01*
X145787590Y-82838355D01*
X145787588Y-82838352D01*
X145668717Y-82719481D01*
X145668716Y-82719480D01*
X145581904Y-82669360D01*
X145581904Y-82669359D01*
X145581900Y-82669358D01*
X145531785Y-82640423D01*
X145379057Y-82599499D01*
X145220943Y-82599499D01*
X145213347Y-82599499D01*
X145213331Y-82599500D01*
X143380301Y-82599500D01*
X143313262Y-82579815D01*
X143267507Y-82527011D01*
X143262595Y-82514504D01*
X143234814Y-82430666D01*
X143142712Y-82281344D01*
X143018656Y-82157288D01*
X142869334Y-82065186D01*
X142702797Y-82010001D01*
X142702795Y-82010000D01*
X142600010Y-81999500D01*
X141799998Y-81999500D01*
X141799980Y-81999501D01*
X141697203Y-82010000D01*
X141697200Y-82010001D01*
X141530668Y-82065185D01*
X141530663Y-82065187D01*
X141381342Y-82157289D01*
X141287681Y-82250951D01*
X141226358Y-82284436D01*
X141156666Y-82279452D01*
X141112319Y-82250951D01*
X141018657Y-82157289D01*
X141018656Y-82157288D01*
X140869334Y-82065186D01*
X140702797Y-82010001D01*
X140702795Y-82010000D01*
X140600010Y-81999500D01*
X139799998Y-81999500D01*
X139799980Y-81999501D01*
X139697203Y-82010000D01*
X139697200Y-82010001D01*
X139530668Y-82065185D01*
X139530663Y-82065187D01*
X139381342Y-82157289D01*
X139257289Y-82281342D01*
X139165187Y-82430663D01*
X139165185Y-82430668D01*
X139137405Y-82514504D01*
X139097632Y-82571949D01*
X139033116Y-82598772D01*
X139019699Y-82599500D01*
X138200097Y-82599500D01*
X138133058Y-82579815D01*
X138112416Y-82563181D01*
X136587590Y-81038355D01*
X136587588Y-81038352D01*
X136468717Y-80919481D01*
X136468716Y-80919480D01*
X136381904Y-80869360D01*
X136381904Y-80869359D01*
X136381900Y-80869358D01*
X136331785Y-80840423D01*
X136179057Y-80799499D01*
X136020943Y-80799499D01*
X136013347Y-80799499D01*
X136013331Y-80799500D01*
X129300097Y-80799500D01*
X129233058Y-80779815D01*
X129212416Y-80763181D01*
X127923589Y-79474354D01*
X127890104Y-79413031D01*
X127887270Y-79386673D01*
X127887270Y-78633582D01*
X127892905Y-78614388D01*
X127893625Y-78594394D01*
X127902549Y-78581547D01*
X127906955Y-78566543D01*
X127922072Y-78553443D01*
X127933488Y-78537011D01*
X127955494Y-78524483D01*
X127959759Y-78520788D01*
X127963846Y-78519009D01*
X127965881Y-78518166D01*
X127979101Y-78513236D01*
X127980718Y-78512025D01*
X127989346Y-78508454D01*
X128017712Y-78505411D01*
X128045591Y-78499341D01*
X128053276Y-78501597D01*
X128058817Y-78501003D01*
X128069527Y-78506367D01*
X128085758Y-78511132D01*
X128086130Y-78510136D01*
X128094436Y-78513234D01*
X128094439Y-78513236D01*
X128229287Y-78563531D01*
X128288897Y-78569940D01*
X129284642Y-78569939D01*
X129344253Y-78563531D01*
X129479101Y-78513236D01*
X129479103Y-78513234D01*
X129487410Y-78510136D01*
X129488055Y-78511866D01*
X129545607Y-78499342D01*
X129585758Y-78511131D01*
X129586130Y-78510136D01*
X129594436Y-78513234D01*
X129594439Y-78513236D01*
X129729287Y-78563531D01*
X129788897Y-78569940D01*
X130784642Y-78569939D01*
X130844253Y-78563531D01*
X130979101Y-78513236D01*
X130979103Y-78513234D01*
X130987410Y-78510136D01*
X130988055Y-78511866D01*
X131045607Y-78499342D01*
X131085758Y-78511131D01*
X131086130Y-78510136D01*
X131094436Y-78513234D01*
X131094439Y-78513236D01*
X131229287Y-78563531D01*
X131288897Y-78569940D01*
X132284642Y-78569939D01*
X132344253Y-78563531D01*
X132479101Y-78513236D01*
X132479103Y-78513234D01*
X132487410Y-78510136D01*
X132488055Y-78511866D01*
X132545607Y-78499342D01*
X132585758Y-78511131D01*
X132586130Y-78510136D01*
X132594436Y-78513234D01*
X132594439Y-78513236D01*
X132729287Y-78563531D01*
X132788897Y-78569940D01*
X133784642Y-78569939D01*
X133844253Y-78563531D01*
X133979101Y-78513236D01*
X133979103Y-78513234D01*
X133987410Y-78510136D01*
X133988055Y-78511866D01*
X134045607Y-78499342D01*
X134085758Y-78511131D01*
X134086130Y-78510136D01*
X134094436Y-78513234D01*
X134094439Y-78513236D01*
X134229287Y-78563531D01*
X134288897Y-78569940D01*
X135284642Y-78569939D01*
X135344253Y-78563531D01*
X135479101Y-78513236D01*
X135479103Y-78513234D01*
X135487410Y-78510136D01*
X135488055Y-78511866D01*
X135545607Y-78499342D01*
X135585758Y-78511131D01*
X135586130Y-78510136D01*
X135594436Y-78513234D01*
X135594439Y-78513236D01*
X135729287Y-78563531D01*
X135788897Y-78569940D01*
X136784642Y-78569939D01*
X136844253Y-78563531D01*
X136979101Y-78513236D01*
X136979103Y-78513234D01*
X136987410Y-78510136D01*
X136988055Y-78511866D01*
X137045607Y-78499342D01*
X137085758Y-78511131D01*
X137086130Y-78510136D01*
X137094436Y-78513234D01*
X137094439Y-78513236D01*
X137229287Y-78563531D01*
X137288897Y-78569940D01*
X138284642Y-78569939D01*
X138344253Y-78563531D01*
X138479101Y-78513236D01*
X138594316Y-78426986D01*
X138680566Y-78311771D01*
X138730861Y-78176923D01*
X138737270Y-78117313D01*
X138737269Y-76521568D01*
X138730861Y-76461957D01*
X138712899Y-76413799D01*
X138680567Y-76327111D01*
X138680563Y-76327104D01*
X138594317Y-76211895D01*
X138594314Y-76211892D01*
X138479105Y-76125646D01*
X138479098Y-76125642D01*
X138344252Y-76075348D01*
X138344253Y-76075348D01*
X138284653Y-76068941D01*
X138284651Y-76068940D01*
X138284643Y-76068940D01*
X138284634Y-76068940D01*
X137288899Y-76068940D01*
X137288893Y-76068941D01*
X137229286Y-76075348D01*
X137086129Y-76128743D01*
X137085484Y-76127015D01*
X137027917Y-76139535D01*
X136987781Y-76127750D01*
X136987411Y-76128743D01*
X136844252Y-76075348D01*
X136844253Y-76075348D01*
X136784653Y-76068941D01*
X136784651Y-76068940D01*
X136784643Y-76068940D01*
X136784634Y-76068940D01*
X135788899Y-76068940D01*
X135788893Y-76068941D01*
X135729286Y-76075348D01*
X135586129Y-76128743D01*
X135585484Y-76127015D01*
X135527917Y-76139535D01*
X135487781Y-76127750D01*
X135487411Y-76128743D01*
X135344252Y-76075348D01*
X135344253Y-76075348D01*
X135284653Y-76068941D01*
X135284651Y-76068940D01*
X135284643Y-76068940D01*
X135284634Y-76068940D01*
X134288899Y-76068940D01*
X134288893Y-76068941D01*
X134229286Y-76075348D01*
X134086129Y-76128743D01*
X134085539Y-76127161D01*
X134061739Y-76132179D01*
X134027917Y-76139535D01*
X134027396Y-76139420D01*
X134027131Y-76139476D01*
X134025624Y-76139028D01*
X133992692Y-76131752D01*
X133981651Y-76127553D01*
X133979101Y-76125644D01*
X133850952Y-76077847D01*
X133850422Y-76077646D01*
X133822924Y-76056785D01*
X133795233Y-76036056D01*
X133795088Y-76035667D01*
X133794758Y-76035417D01*
X133782888Y-76002957D01*
X133770816Y-75970591D01*
X133770790Y-75969875D01*
X133770762Y-75969798D01*
X133770784Y-75969699D01*
X133770500Y-75961745D01*
X133770500Y-74985718D01*
X133790185Y-74918679D01*
X133838207Y-74875233D01*
X133877815Y-74855052D01*
X133877815Y-74855051D01*
X133877816Y-74855051D01*
X134049792Y-74730104D01*
X134163717Y-74616178D01*
X134225036Y-74582696D01*
X134294728Y-74587680D01*
X134350662Y-74629551D01*
X134367577Y-74660528D01*
X134416646Y-74792088D01*
X134416649Y-74792093D01*
X134502809Y-74907187D01*
X134502812Y-74907190D01*
X134617906Y-74993350D01*
X134617913Y-74993354D01*
X134752620Y-75043596D01*
X134752627Y-75043598D01*
X134812155Y-75049999D01*
X134812172Y-75050000D01*
X135460000Y-75050000D01*
X135460000Y-74133012D01*
X135517007Y-74165925D01*
X135644174Y-74200000D01*
X135775826Y-74200000D01*
X135902993Y-74165925D01*
X135960000Y-74133012D01*
X135960000Y-75050000D01*
X136607828Y-75050000D01*
X136607844Y-75049999D01*
X136667372Y-75043598D01*
X136667379Y-75043596D01*
X136802086Y-74993354D01*
X136802093Y-74993350D01*
X136917187Y-74907190D01*
X136917190Y-74907187D01*
X137003350Y-74792093D01*
X137003354Y-74792086D01*
X137053596Y-74657379D01*
X137053598Y-74657372D01*
X137059999Y-74597844D01*
X137060000Y-74597827D01*
X137060000Y-73959568D01*
X173299500Y-73959568D01*
X173299500Y-74240431D01*
X173330942Y-74519494D01*
X173330945Y-74519512D01*
X173393439Y-74793317D01*
X173393443Y-74793329D01*
X173486200Y-75058411D01*
X173608053Y-75311442D01*
X173608055Y-75311445D01*
X173757477Y-75549248D01*
X173932584Y-75768825D01*
X174131175Y-75967416D01*
X174350752Y-76142523D01*
X174588555Y-76291945D01*
X174841592Y-76413801D01*
X174979214Y-76461957D01*
X175106670Y-76506556D01*
X175106682Y-76506560D01*
X175380491Y-76569055D01*
X175380497Y-76569055D01*
X175380505Y-76569057D01*
X175566547Y-76590018D01*
X175659569Y-76600499D01*
X175659572Y-76600500D01*
X175659575Y-76600500D01*
X175940428Y-76600500D01*
X175940429Y-76600499D01*
X176083055Y-76584429D01*
X176219494Y-76569057D01*
X176219499Y-76569056D01*
X176219509Y-76569055D01*
X176493318Y-76506560D01*
X176758408Y-76413801D01*
X177011445Y-76291945D01*
X177249248Y-76142523D01*
X177468825Y-75967416D01*
X177667416Y-75768825D01*
X177842523Y-75549248D01*
X177991945Y-75311445D01*
X178113801Y-75058408D01*
X178206560Y-74793318D01*
X178269055Y-74519509D01*
X178300500Y-74240425D01*
X178300500Y-73959575D01*
X178269055Y-73680491D01*
X178206560Y-73406682D01*
X178113801Y-73141592D01*
X177991945Y-72888555D01*
X177842523Y-72650752D01*
X177667416Y-72431175D01*
X177468825Y-72232584D01*
X177249248Y-72057477D01*
X177011445Y-71908055D01*
X177011442Y-71908053D01*
X176758411Y-71786200D01*
X176493329Y-71693443D01*
X176493317Y-71693439D01*
X176219512Y-71630945D01*
X176219494Y-71630942D01*
X175940431Y-71599500D01*
X175940425Y-71599500D01*
X175659575Y-71599500D01*
X175659568Y-71599500D01*
X175380505Y-71630942D01*
X175380487Y-71630945D01*
X175106682Y-71693439D01*
X175106670Y-71693443D01*
X174841588Y-71786200D01*
X174588557Y-71908053D01*
X174350753Y-72057476D01*
X174131175Y-72232583D01*
X173932583Y-72431175D01*
X173757476Y-72650753D01*
X173608053Y-72888557D01*
X173486200Y-73141588D01*
X173393443Y-73406670D01*
X173393439Y-73406682D01*
X173330945Y-73680487D01*
X173330942Y-73680505D01*
X173299500Y-73959568D01*
X137060000Y-73959568D01*
X137060000Y-73950000D01*
X136143012Y-73950000D01*
X136175925Y-73892993D01*
X136210000Y-73765826D01*
X136210000Y-73634174D01*
X136175925Y-73507007D01*
X136143012Y-73450000D01*
X137060000Y-73450000D01*
X137060000Y-72802172D01*
X137059999Y-72802155D01*
X137053598Y-72742627D01*
X137053596Y-72742620D01*
X137003354Y-72607913D01*
X137003350Y-72607906D01*
X136917190Y-72492812D01*
X136917187Y-72492809D01*
X136802093Y-72406649D01*
X136802086Y-72406645D01*
X136667379Y-72356403D01*
X136667372Y-72356401D01*
X136607844Y-72350000D01*
X135960000Y-72350000D01*
X135960000Y-73266988D01*
X135902993Y-73234075D01*
X135775826Y-73200000D01*
X135644174Y-73200000D01*
X135517007Y-73234075D01*
X135460000Y-73266988D01*
X135460000Y-72350000D01*
X134812155Y-72350000D01*
X134752627Y-72356401D01*
X134752620Y-72356403D01*
X134617913Y-72406645D01*
X134617906Y-72406649D01*
X134502812Y-72492809D01*
X134502809Y-72492812D01*
X134416649Y-72607906D01*
X134416646Y-72607912D01*
X134367577Y-72739471D01*
X134325705Y-72795404D01*
X134260241Y-72819821D01*
X134191968Y-72804969D01*
X134163714Y-72783818D01*
X134049786Y-72669890D01*
X133877820Y-72544951D01*
X133688414Y-72448444D01*
X133688413Y-72448443D01*
X133688412Y-72448443D01*
X133486243Y-72382754D01*
X133486241Y-72382753D01*
X133486240Y-72382753D01*
X133324957Y-72357208D01*
X133276287Y-72349500D01*
X133063713Y-72349500D01*
X133015042Y-72357208D01*
X132853760Y-72382753D01*
X132651585Y-72448444D01*
X132462179Y-72544951D01*
X132290213Y-72669890D01*
X132139890Y-72820213D01*
X132014949Y-72992182D01*
X132010484Y-73000946D01*
X131962509Y-73051742D01*
X131894688Y-73068536D01*
X131828553Y-73045998D01*
X131789516Y-73000946D01*
X131785050Y-72992182D01*
X131660109Y-72820213D01*
X131509786Y-72669890D01*
X131337820Y-72544951D01*
X131148414Y-72448444D01*
X131148413Y-72448443D01*
X131148412Y-72448443D01*
X130946243Y-72382754D01*
X130946241Y-72382753D01*
X130946240Y-72382753D01*
X130784957Y-72357208D01*
X130736287Y-72349500D01*
X130523713Y-72349500D01*
X130475042Y-72357208D01*
X130313760Y-72382753D01*
X130111585Y-72448444D01*
X129922179Y-72544951D01*
X129750213Y-72669890D01*
X129599890Y-72820213D01*
X129474949Y-72992182D01*
X129470484Y-73000946D01*
X129422509Y-73051742D01*
X129354688Y-73068536D01*
X129288553Y-73045998D01*
X129249516Y-73000946D01*
X129245050Y-72992182D01*
X129120109Y-72820213D01*
X128969786Y-72669890D01*
X128797820Y-72544951D01*
X128608414Y-72448444D01*
X128608413Y-72448443D01*
X128608412Y-72448443D01*
X128406243Y-72382754D01*
X128406241Y-72382753D01*
X128406240Y-72382753D01*
X128244957Y-72357208D01*
X128196287Y-72349500D01*
X127983713Y-72349500D01*
X127935042Y-72357208D01*
X127773760Y-72382753D01*
X127571585Y-72448444D01*
X127382179Y-72544951D01*
X127210213Y-72669890D01*
X127059890Y-72820213D01*
X126934951Y-72992179D01*
X126838444Y-73181585D01*
X126772753Y-73383760D01*
X126739500Y-73593713D01*
X126739500Y-73806286D01*
X126772753Y-74016239D01*
X126838444Y-74218414D01*
X126934951Y-74407820D01*
X127059890Y-74579786D01*
X127210213Y-74730109D01*
X127382179Y-74855048D01*
X127382181Y-74855049D01*
X127382184Y-74855051D01*
X127571588Y-74951557D01*
X127773757Y-75017246D01*
X127983713Y-75050500D01*
X127983714Y-75050500D01*
X128196286Y-75050500D01*
X128196287Y-75050500D01*
X128406243Y-75017246D01*
X128608412Y-74951557D01*
X128797816Y-74855051D01*
X128882785Y-74793318D01*
X128969786Y-74730109D01*
X128969788Y-74730106D01*
X128969792Y-74730104D01*
X129120104Y-74579792D01*
X129120106Y-74579788D01*
X129120109Y-74579786D01*
X129245048Y-74407820D01*
X129245047Y-74407820D01*
X129245051Y-74407816D01*
X129249514Y-74399054D01*
X129297488Y-74348259D01*
X129365308Y-74331463D01*
X129431444Y-74353999D01*
X129470486Y-74399056D01*
X129474951Y-74407820D01*
X129599890Y-74579786D01*
X129750213Y-74730109D01*
X129922184Y-74855051D01*
X129922184Y-74855052D01*
X129961793Y-74875233D01*
X130012590Y-74923206D01*
X130029500Y-74985718D01*
X130029500Y-75343330D01*
X130029499Y-75343348D01*
X130029499Y-75509054D01*
X130029498Y-75509054D01*
X130029499Y-75509057D01*
X130070423Y-75661785D01*
X130099360Y-75711904D01*
X130149480Y-75798716D01*
X130214242Y-75863478D01*
X130219517Y-75870506D01*
X130228809Y-75895327D01*
X130241508Y-75918582D01*
X130240867Y-75927533D01*
X130244015Y-75935940D01*
X130238414Y-75961840D01*
X130236524Y-75988274D01*
X130231144Y-75995459D01*
X130229248Y-76004231D01*
X130210534Y-76022991D01*
X130194652Y-76044207D01*
X130186242Y-76047343D01*
X130179904Y-76053698D01*
X130154016Y-76059363D01*
X130129188Y-76068624D01*
X130120342Y-76068940D01*
X129788900Y-76068940D01*
X129788893Y-76068941D01*
X129729286Y-76075348D01*
X129586129Y-76128743D01*
X129585484Y-76127015D01*
X129527917Y-76139535D01*
X129487781Y-76127750D01*
X129487411Y-76128743D01*
X129344252Y-76075348D01*
X129344253Y-76075348D01*
X129284653Y-76068941D01*
X129284651Y-76068940D01*
X129284643Y-76068940D01*
X129284634Y-76068940D01*
X128288899Y-76068940D01*
X128288893Y-76068941D01*
X128229286Y-76075348D01*
X128086129Y-76128743D01*
X128085484Y-76127015D01*
X128027917Y-76139535D01*
X127987781Y-76127750D01*
X127987411Y-76128743D01*
X127844252Y-76075348D01*
X127844253Y-76075348D01*
X127784653Y-76068941D01*
X127784651Y-76068940D01*
X127784643Y-76068940D01*
X127784634Y-76068940D01*
X126788899Y-76068940D01*
X126788893Y-76068941D01*
X126729286Y-76075348D01*
X126586129Y-76128743D01*
X126585484Y-76127015D01*
X126527917Y-76139535D01*
X126487781Y-76127750D01*
X126487411Y-76128743D01*
X126344252Y-76075348D01*
X126344253Y-76075348D01*
X126284653Y-76068941D01*
X126284651Y-76068940D01*
X126284643Y-76068940D01*
X126284635Y-76068940D01*
X125624500Y-76068940D01*
X125557461Y-76049255D01*
X125511706Y-75996451D01*
X125500500Y-75944940D01*
X125500500Y-70824500D01*
X125520185Y-70757461D01*
X125572989Y-70711706D01*
X125624500Y-70700500D01*
X180871060Y-70700500D01*
X180938099Y-70720185D01*
G37*
%TD.AperFunction*%
%TA.AperFunction,Conductor*%
G36*
X150933050Y-108420559D02*
G01*
X150983296Y-108469109D01*
X150999500Y-108530395D01*
X150999500Y-109399699D01*
X150979815Y-109466738D01*
X150927011Y-109512493D01*
X150914507Y-109517403D01*
X150881962Y-109528188D01*
X150830668Y-109545185D01*
X150830663Y-109545187D01*
X150681342Y-109637289D01*
X150557289Y-109761342D01*
X150465187Y-109910663D01*
X150465185Y-109910668D01*
X150458334Y-109931344D01*
X150410001Y-110077203D01*
X150410001Y-110077204D01*
X150410000Y-110077204D01*
X150399500Y-110179983D01*
X150399500Y-110980001D01*
X150399501Y-110980019D01*
X150410000Y-111082796D01*
X150410001Y-111082799D01*
X150465185Y-111249331D01*
X150465187Y-111249336D01*
X150483388Y-111278844D01*
X150533632Y-111360304D01*
X150557289Y-111398657D01*
X150650951Y-111492319D01*
X150684436Y-111553642D01*
X150679452Y-111623334D01*
X150650951Y-111667681D01*
X150557289Y-111761342D01*
X150465187Y-111910663D01*
X150465185Y-111910668D01*
X150445612Y-111969735D01*
X150410001Y-112077203D01*
X150410001Y-112077204D01*
X150410000Y-112077204D01*
X150399500Y-112179983D01*
X150399500Y-112980001D01*
X150399501Y-112980019D01*
X150410000Y-113082796D01*
X150410001Y-113082799D01*
X150465185Y-113249331D01*
X150465187Y-113249336D01*
X150470552Y-113258034D01*
X150557288Y-113398656D01*
X150681344Y-113522712D01*
X150830666Y-113614814D01*
X150914505Y-113642595D01*
X150971948Y-113682366D01*
X150998772Y-113746882D01*
X150999500Y-113760300D01*
X150999500Y-114439699D01*
X150979815Y-114506738D01*
X150927011Y-114552493D01*
X150914507Y-114557403D01*
X150881962Y-114568188D01*
X150830668Y-114585185D01*
X150830663Y-114585187D01*
X150681342Y-114677289D01*
X150557289Y-114801342D01*
X150465187Y-114950663D01*
X150465185Y-114950668D01*
X150455848Y-114978846D01*
X150410001Y-115117203D01*
X150410001Y-115117204D01*
X150410000Y-115117204D01*
X150399500Y-115219983D01*
X150399500Y-116020001D01*
X150399501Y-116020019D01*
X150410000Y-116122796D01*
X150410001Y-116122799D01*
X150465185Y-116289331D01*
X150465187Y-116289336D01*
X150482588Y-116317548D01*
X150557126Y-116438394D01*
X150557289Y-116438657D01*
X150651304Y-116532672D01*
X150684789Y-116593995D01*
X150679805Y-116663687D01*
X150651305Y-116708034D01*
X150557682Y-116801657D01*
X150465643Y-116950875D01*
X150465641Y-116950880D01*
X150410494Y-117117302D01*
X150410493Y-117117309D01*
X150400000Y-117220013D01*
X150400000Y-117370000D01*
X152799999Y-117370000D01*
X152799999Y-117224500D01*
X152802549Y-117215814D01*
X152801261Y-117206853D01*
X152812239Y-117182812D01*
X152819684Y-117157461D01*
X152826524Y-117151533D01*
X152830286Y-117143297D01*
X152852520Y-117129007D01*
X152872488Y-117111706D01*
X152883002Y-117109418D01*
X152889064Y-117105523D01*
X152923999Y-117100500D01*
X153045500Y-117100500D01*
X153112539Y-117120185D01*
X153158294Y-117172989D01*
X153169500Y-117224500D01*
X153169500Y-117930001D01*
X153169501Y-117930019D01*
X153180000Y-118032796D01*
X153180001Y-118032799D01*
X153235185Y-118199331D01*
X153235187Y-118199336D01*
X153265643Y-118248713D01*
X153327096Y-118348345D01*
X153327289Y-118348657D01*
X153451344Y-118472712D01*
X153571715Y-118546957D01*
X153618440Y-118598905D01*
X153629663Y-118667867D01*
X153628236Y-118676687D01*
X153599500Y-118821153D01*
X153599500Y-118978846D01*
X153630261Y-119133489D01*
X153630264Y-119133501D01*
X153690602Y-119279172D01*
X153690609Y-119279185D01*
X153778210Y-119410288D01*
X153778213Y-119410292D01*
X153889707Y-119521786D01*
X153889711Y-119521789D01*
X154020814Y-119609390D01*
X154020827Y-119609397D01*
X154166498Y-119669735D01*
X154166503Y-119669737D01*
X154321153Y-119700499D01*
X154321156Y-119700500D01*
X154321158Y-119700500D01*
X154478844Y-119700500D01*
X154478845Y-119700499D01*
X154633497Y-119669737D01*
X154779179Y-119609394D01*
X154910289Y-119521789D01*
X155021789Y-119410289D01*
X155109394Y-119279179D01*
X155169737Y-119133497D01*
X155200500Y-118978842D01*
X155200500Y-118821158D01*
X155200500Y-118821155D01*
X155200499Y-118821153D01*
X155186085Y-118748691D01*
X155169737Y-118666503D01*
X155169732Y-118666492D01*
X155167969Y-118660676D01*
X155169556Y-118660194D01*
X155162942Y-118598656D01*
X155194218Y-118536177D01*
X155219875Y-118515136D01*
X155230903Y-118508334D01*
X155288656Y-118472712D01*
X155412712Y-118348656D01*
X155504814Y-118199334D01*
X155559999Y-118032797D01*
X155570500Y-117930009D01*
X155570500Y-117929986D01*
X155920001Y-117929986D01*
X155930494Y-118032697D01*
X155985641Y-118199119D01*
X155985643Y-118199124D01*
X156077684Y-118348345D01*
X156201654Y-118472315D01*
X156350875Y-118564356D01*
X156350880Y-118564358D01*
X156517302Y-118619505D01*
X156517309Y-118619506D01*
X156620019Y-118629999D01*
X156869999Y-118629999D01*
X156870000Y-118629998D01*
X156870000Y-117780000D01*
X155920001Y-117780000D01*
X155920001Y-117929986D01*
X155570500Y-117929986D01*
X155570499Y-117530000D01*
X155570499Y-117224500D01*
X155590183Y-117157461D01*
X155642987Y-117111706D01*
X155694499Y-117100500D01*
X155796000Y-117100500D01*
X155863039Y-117120185D01*
X155908794Y-117172989D01*
X155920000Y-117224500D01*
X155920000Y-117280000D01*
X156996000Y-117280000D01*
X157063039Y-117299685D01*
X157108794Y-117352489D01*
X157120000Y-117404000D01*
X157120000Y-117530000D01*
X157246000Y-117530000D01*
X157313039Y-117549685D01*
X157358794Y-117602489D01*
X157370000Y-117654000D01*
X157370000Y-118629999D01*
X157619972Y-118629999D01*
X157619986Y-118629998D01*
X157722697Y-118619505D01*
X157889119Y-118564358D01*
X157889124Y-118564356D01*
X158038345Y-118472315D01*
X158162315Y-118348345D01*
X158254356Y-118199124D01*
X158254359Y-118199117D01*
X158302918Y-118052575D01*
X158342690Y-117995130D01*
X158407206Y-117968306D01*
X158475982Y-117980621D01*
X158489516Y-117988477D01*
X158520812Y-118009389D01*
X158520827Y-118009397D01*
X158666498Y-118069735D01*
X158666503Y-118069737D01*
X158731147Y-118082595D01*
X158821849Y-118100638D01*
X158838605Y-118109402D01*
X158857085Y-118113423D01*
X158882123Y-118132167D01*
X158883760Y-118133023D01*
X158885339Y-118134574D01*
X158995139Y-118244374D01*
X158995149Y-118244385D01*
X158999479Y-118248715D01*
X158999480Y-118248716D01*
X159111284Y-118360520D01*
X159111286Y-118360521D01*
X159111287Y-118360522D01*
X159122054Y-118366738D01*
X159177477Y-118398736D01*
X159181858Y-118401265D01*
X159181860Y-118401267D01*
X159181861Y-118401267D01*
X159248215Y-118439577D01*
X159400943Y-118480501D01*
X159400946Y-118480501D01*
X159566653Y-118480501D01*
X159566669Y-118480500D01*
X159774192Y-118480500D01*
X159841231Y-118500185D01*
X159861874Y-118516820D01*
X159893129Y-118548076D01*
X159893133Y-118548079D01*
X159893135Y-118548081D01*
X160034602Y-118631744D01*
X160071607Y-118642495D01*
X160192426Y-118677597D01*
X160192429Y-118677597D01*
X160192431Y-118677598D01*
X160229306Y-118680500D01*
X160229314Y-118680500D01*
X161546977Y-118680500D01*
X161614016Y-118700185D01*
X161659771Y-118752989D01*
X161669715Y-118822147D01*
X161640690Y-118885703D01*
X161634658Y-118892181D01*
X161540184Y-118986654D01*
X161448143Y-119135875D01*
X161448141Y-119135880D01*
X161392994Y-119302302D01*
X161392993Y-119302309D01*
X161382500Y-119405013D01*
X161382500Y-119680000D01*
X162220000Y-119680000D01*
X162220000Y-118693836D01*
X162239685Y-118626797D01*
X162280876Y-118587106D01*
X162346865Y-118548081D01*
X162463081Y-118431865D01*
X162546744Y-118290398D01*
X162591192Y-118137408D01*
X162592597Y-118132573D01*
X162592598Y-118132567D01*
X162595500Y-118095694D01*
X162595500Y-117664306D01*
X162592598Y-117627431D01*
X162590519Y-117620276D01*
X162546745Y-117469606D01*
X162546744Y-117469603D01*
X162546744Y-117469602D01*
X162463081Y-117328135D01*
X162463078Y-117328132D01*
X162458298Y-117321969D01*
X162460750Y-117320066D01*
X162434155Y-117271421D01*
X162439104Y-117201726D01*
X162459940Y-117169304D01*
X162458298Y-117168031D01*
X162463075Y-117161870D01*
X162463081Y-117161865D01*
X162546744Y-117020398D01*
X162588688Y-116876028D01*
X162592597Y-116862573D01*
X162592598Y-116862567D01*
X162592748Y-116860666D01*
X162595500Y-116825694D01*
X162595500Y-116394306D01*
X162592598Y-116357431D01*
X162572814Y-116289336D01*
X162547939Y-116203714D01*
X162546744Y-116199602D01*
X162463081Y-116058135D01*
X162463078Y-116058132D01*
X162458298Y-116051969D01*
X162460750Y-116050066D01*
X162434155Y-116001421D01*
X162439104Y-115931726D01*
X162459940Y-115899304D01*
X162458298Y-115898031D01*
X162463075Y-115891870D01*
X162463081Y-115891865D01*
X162546744Y-115750398D01*
X162587711Y-115609390D01*
X162592597Y-115592573D01*
X162592598Y-115592567D01*
X162595499Y-115555701D01*
X162595500Y-115555694D01*
X162595500Y-115124306D01*
X162592598Y-115087431D01*
X162546744Y-114929602D01*
X162463081Y-114788135D01*
X162463078Y-114788132D01*
X162458298Y-114781969D01*
X162460635Y-114780155D01*
X162433798Y-114731050D01*
X162438756Y-114661356D01*
X162459554Y-114628998D01*
X162457903Y-114627717D01*
X162462686Y-114621550D01*
X162546281Y-114480198D01*
X162592100Y-114322486D01*
X162592295Y-114320001D01*
X162592295Y-114320000D01*
X159703441Y-114320000D01*
X159636402Y-114300315D01*
X159615760Y-114283681D01*
X159610292Y-114278213D01*
X159610288Y-114278210D01*
X159479185Y-114190609D01*
X159479172Y-114190602D01*
X159333501Y-114130264D01*
X159333489Y-114130261D01*
X159178845Y-114099500D01*
X159178842Y-114099500D01*
X159021158Y-114099500D01*
X159021155Y-114099500D01*
X158866510Y-114130261D01*
X158866498Y-114130264D01*
X158720827Y-114190602D01*
X158720814Y-114190609D01*
X158589711Y-114278210D01*
X158589707Y-114278213D01*
X158478213Y-114389707D01*
X158478210Y-114389711D01*
X158390609Y-114520814D01*
X158390604Y-114520824D01*
X158339072Y-114645234D01*
X158295231Y-114699637D01*
X158228937Y-114721702D01*
X158161237Y-114704423D01*
X158136830Y-114685462D01*
X158038657Y-114587289D01*
X158038656Y-114587288D01*
X157889334Y-114495186D01*
X157722797Y-114440001D01*
X157722795Y-114440000D01*
X157620010Y-114429500D01*
X156619998Y-114429500D01*
X156619980Y-114429501D01*
X156517203Y-114440000D01*
X156517200Y-114440001D01*
X156350668Y-114495185D01*
X156350663Y-114495187D01*
X156201342Y-114587289D01*
X156077289Y-114711342D01*
X156077288Y-114711344D01*
X156009557Y-114821155D01*
X155994481Y-114845597D01*
X155942533Y-114892321D01*
X155888942Y-114904500D01*
X155601058Y-114904500D01*
X155534019Y-114884815D01*
X155495519Y-114845597D01*
X155412712Y-114711344D01*
X155288656Y-114587288D01*
X155139334Y-114495186D01*
X154972797Y-114440001D01*
X154972795Y-114440000D01*
X154870010Y-114429500D01*
X153869998Y-114429500D01*
X153869980Y-114429501D01*
X153767203Y-114440000D01*
X153767200Y-114440001D01*
X153600668Y-114495185D01*
X153600663Y-114495187D01*
X153451342Y-114587289D01*
X153327289Y-114711342D01*
X153235187Y-114860663D01*
X153235185Y-114860668D01*
X153207349Y-114944670D01*
X153180001Y-115027203D01*
X153180001Y-115027204D01*
X153180000Y-115027204D01*
X153169500Y-115129983D01*
X153169500Y-115129996D01*
X153169501Y-115775500D01*
X153166950Y-115784186D01*
X153168239Y-115793147D01*
X153157261Y-115817183D01*
X153149817Y-115842539D01*
X153142974Y-115848467D01*
X153139214Y-115856703D01*
X153116982Y-115870989D01*
X153097013Y-115888294D01*
X153086497Y-115890581D01*
X153080436Y-115894477D01*
X153045501Y-115899500D01*
X152924500Y-115899500D01*
X152857461Y-115879815D01*
X152811706Y-115827011D01*
X152800500Y-115775500D01*
X152800499Y-115219998D01*
X152800498Y-115219980D01*
X152789999Y-115117203D01*
X152789998Y-115117200D01*
X152780134Y-115087432D01*
X152734814Y-114950666D01*
X152642712Y-114801344D01*
X152518656Y-114677288D01*
X152425888Y-114620069D01*
X152369336Y-114585187D01*
X152369331Y-114585185D01*
X152367082Y-114584439D01*
X152285495Y-114557404D01*
X152228051Y-114517632D01*
X152201228Y-114453116D01*
X152200500Y-114439699D01*
X152200500Y-113760300D01*
X152220185Y-113693261D01*
X152272989Y-113647506D01*
X152285482Y-113642599D01*
X152369334Y-113614814D01*
X152518656Y-113522712D01*
X152642712Y-113398656D01*
X152734814Y-113249334D01*
X152789999Y-113082797D01*
X152800500Y-112980009D01*
X152800499Y-112324499D01*
X152803049Y-112315813D01*
X152801761Y-112306853D01*
X152812738Y-112282816D01*
X152820183Y-112257461D01*
X152827025Y-112251532D01*
X152830786Y-112243297D01*
X152853017Y-112229010D01*
X152872987Y-112211706D01*
X152883502Y-112209418D01*
X152889564Y-112205523D01*
X152924499Y-112200500D01*
X153045500Y-112200500D01*
X153112539Y-112220185D01*
X153158294Y-112272989D01*
X153169500Y-112324500D01*
X153169500Y-112980001D01*
X153169501Y-112980019D01*
X153180000Y-113082796D01*
X153180001Y-113082799D01*
X153235185Y-113249331D01*
X153235187Y-113249336D01*
X153240552Y-113258034D01*
X153327288Y-113398656D01*
X153451344Y-113522712D01*
X153600666Y-113614814D01*
X153767203Y-113669999D01*
X153869991Y-113680500D01*
X154870008Y-113680499D01*
X154870016Y-113680498D01*
X154870019Y-113680498D01*
X154926302Y-113674748D01*
X154972797Y-113669999D01*
X155139334Y-113614814D01*
X155288656Y-113522712D01*
X155412712Y-113398656D01*
X155504814Y-113249334D01*
X155544168Y-113130568D01*
X155557427Y-113111417D01*
X155566724Y-113090059D01*
X155581245Y-113077014D01*
X155583938Y-113073126D01*
X155592970Y-113066481D01*
X155617509Y-113050084D01*
X155668733Y-113015858D01*
X155715519Y-112969071D01*
X155776838Y-112935588D01*
X155846529Y-112940571D01*
X155902464Y-112982442D01*
X155926556Y-113044151D01*
X155930494Y-113082697D01*
X155985641Y-113249119D01*
X155985643Y-113249124D01*
X156077684Y-113398345D01*
X156201654Y-113522315D01*
X156350875Y-113614356D01*
X156350880Y-113614358D01*
X156517302Y-113669505D01*
X156517309Y-113669506D01*
X156620019Y-113679999D01*
X156869999Y-113679999D01*
X156870000Y-113679998D01*
X156870000Y-112704000D01*
X156889685Y-112636961D01*
X156942489Y-112591206D01*
X156994000Y-112580000D01*
X157246000Y-112580000D01*
X157313039Y-112599685D01*
X157358794Y-112652489D01*
X157370000Y-112704000D01*
X157370000Y-113679999D01*
X157619972Y-113679999D01*
X157619986Y-113679998D01*
X157722697Y-113669505D01*
X157889119Y-113614358D01*
X157889124Y-113614356D01*
X158038345Y-113522315D01*
X158162315Y-113398345D01*
X158254356Y-113249124D01*
X158254359Y-113249117D01*
X158303167Y-113101823D01*
X158342939Y-113044378D01*
X158407455Y-113017554D01*
X158476231Y-113029869D01*
X158508554Y-113053145D01*
X158741263Y-113285855D01*
X158741267Y-113285858D01*
X158843710Y-113354309D01*
X158843711Y-113354309D01*
X158843715Y-113354312D01*
X158888951Y-113373049D01*
X158957548Y-113401463D01*
X158959841Y-113401919D01*
X158970095Y-113403958D01*
X158970096Y-113403959D01*
X159078391Y-113425501D01*
X159078394Y-113425501D01*
X159207721Y-113425501D01*
X159207741Y-113425500D01*
X159614889Y-113425500D01*
X159681928Y-113445185D01*
X159727683Y-113497989D01*
X159737627Y-113567147D01*
X159721621Y-113612621D01*
X159693718Y-113659801D01*
X159647899Y-113817513D01*
X159647704Y-113819998D01*
X159647705Y-113820000D01*
X162592295Y-113820000D01*
X162592295Y-113819998D01*
X162592100Y-113817513D01*
X162546281Y-113659801D01*
X162462685Y-113518447D01*
X162457900Y-113512278D01*
X162460366Y-113510364D01*
X162433802Y-113461776D01*
X162438749Y-113392082D01*
X162459856Y-113359232D01*
X162458301Y-113358026D01*
X162463077Y-113351868D01*
X162463081Y-113351865D01*
X162546744Y-113210398D01*
X162588558Y-113066474D01*
X162592597Y-113052573D01*
X162592598Y-113052567D01*
X162592793Y-113050085D01*
X162595500Y-113015694D01*
X162595500Y-112584306D01*
X162592598Y-112547431D01*
X162578963Y-112500501D01*
X162546745Y-112389606D01*
X162546744Y-112389603D01*
X162546744Y-112389602D01*
X162463081Y-112248135D01*
X162463078Y-112248132D01*
X162458298Y-112241969D01*
X162460750Y-112240066D01*
X162434155Y-112191421D01*
X162439104Y-112121726D01*
X162459940Y-112089304D01*
X162458298Y-112088031D01*
X162463075Y-112081870D01*
X162463081Y-112081865D01*
X162546744Y-111940398D01*
X162592598Y-111782569D01*
X162595500Y-111745694D01*
X162595500Y-111314306D01*
X162592598Y-111277431D01*
X162589303Y-111266091D01*
X162550190Y-111131463D01*
X162546744Y-111119602D01*
X162463081Y-110978135D01*
X162463078Y-110978132D01*
X162458298Y-110971969D01*
X162460750Y-110970066D01*
X162434155Y-110921421D01*
X162439104Y-110851726D01*
X162459940Y-110819304D01*
X162458298Y-110818031D01*
X162463075Y-110811870D01*
X162463081Y-110811865D01*
X162546744Y-110670398D01*
X162592598Y-110512569D01*
X162595500Y-110475694D01*
X162595500Y-110179452D01*
X162615185Y-110112413D01*
X162667989Y-110066658D01*
X162737147Y-110056714D01*
X162800703Y-110085739D01*
X162807181Y-110091771D01*
X163208181Y-110492771D01*
X163241666Y-110554094D01*
X163244500Y-110580452D01*
X163244500Y-113956610D01*
X163246808Y-113968215D01*
X163268535Y-114077444D01*
X163268538Y-114077456D01*
X163271586Y-114084814D01*
X163277344Y-114098714D01*
X163315688Y-114191286D01*
X163349915Y-114242509D01*
X163354005Y-114248630D01*
X163354006Y-114248632D01*
X163384141Y-114293733D01*
X163475586Y-114385178D01*
X163475608Y-114385198D01*
X163883181Y-114792771D01*
X163916666Y-114854094D01*
X163919500Y-114880452D01*
X163919500Y-118681652D01*
X163899815Y-118748691D01*
X163860598Y-118787189D01*
X163839830Y-118800000D01*
X163738842Y-118862289D01*
X163614788Y-118986343D01*
X163614783Y-118986349D01*
X163612741Y-118989661D01*
X163610747Y-118991453D01*
X163610307Y-118992011D01*
X163610211Y-118991935D01*
X163560791Y-119036383D01*
X163491828Y-119047602D01*
X163427747Y-119019755D01*
X163401668Y-118989656D01*
X163399819Y-118986659D01*
X163399816Y-118986655D01*
X163275845Y-118862684D01*
X163126624Y-118770643D01*
X163126619Y-118770641D01*
X162960197Y-118715494D01*
X162960190Y-118715493D01*
X162857486Y-118705000D01*
X162720000Y-118705000D01*
X162720000Y-119806000D01*
X162700315Y-119873039D01*
X162647511Y-119918794D01*
X162596000Y-119930000D01*
X162470000Y-119930000D01*
X162470000Y-120056000D01*
X162450315Y-120123039D01*
X162397511Y-120168794D01*
X162346000Y-120180000D01*
X161382501Y-120180000D01*
X161382501Y-120454986D01*
X161392994Y-120557697D01*
X161448141Y-120724119D01*
X161448143Y-120724124D01*
X161540184Y-120873345D01*
X161664156Y-120997317D01*
X161700868Y-121019961D01*
X161747593Y-121071909D01*
X161758816Y-121140871D01*
X161730973Y-121204953D01*
X161672904Y-121243810D01*
X161635772Y-121249500D01*
X147565878Y-121249500D01*
X147498839Y-121229815D01*
X147453084Y-121177011D01*
X147443140Y-121107853D01*
X147472165Y-121044297D01*
X147530943Y-121006523D01*
X147546478Y-121003027D01*
X147683638Y-120981303D01*
X147683641Y-120981302D01*
X147683642Y-120981302D01*
X147848978Y-120927581D01*
X147848978Y-120927580D01*
X147848981Y-120927580D01*
X148003884Y-120848653D01*
X148144533Y-120746465D01*
X148267465Y-120623533D01*
X148369653Y-120482884D01*
X148448580Y-120327981D01*
X148478852Y-120234814D01*
X148502302Y-120162642D01*
X148502302Y-120162641D01*
X148502303Y-120162638D01*
X148529500Y-119990926D01*
X148529500Y-118609074D01*
X148502303Y-118437362D01*
X148502302Y-118437358D01*
X148502302Y-118437357D01*
X148448581Y-118272021D01*
X148439249Y-118253706D01*
X148369653Y-118117116D01*
X148299084Y-118019986D01*
X150400001Y-118019986D01*
X150410494Y-118122697D01*
X150465641Y-118289119D01*
X150465643Y-118289124D01*
X150557684Y-118438345D01*
X150681654Y-118562315D01*
X150830875Y-118654356D01*
X150830880Y-118654358D01*
X150997302Y-118709505D01*
X150997309Y-118709506D01*
X151100019Y-118719999D01*
X151349999Y-118719999D01*
X151850000Y-118719999D01*
X152099972Y-118719999D01*
X152099986Y-118719998D01*
X152202697Y-118709505D01*
X152369119Y-118654358D01*
X152369124Y-118654356D01*
X152518345Y-118562315D01*
X152642315Y-118438345D01*
X152734356Y-118289124D01*
X152734358Y-118289119D01*
X152789505Y-118122697D01*
X152789506Y-118122690D01*
X152799999Y-118019986D01*
X152800000Y-118019973D01*
X152800000Y-117870000D01*
X151850000Y-117870000D01*
X151850000Y-118719999D01*
X151349999Y-118719999D01*
X151350000Y-118719998D01*
X151350000Y-117870000D01*
X150400001Y-117870000D01*
X150400001Y-118019986D01*
X148299084Y-118019986D01*
X148267465Y-117976467D01*
X148144533Y-117853535D01*
X148003884Y-117751347D01*
X147998457Y-117748582D01*
X147848978Y-117672418D01*
X147683641Y-117618697D01*
X147554854Y-117598299D01*
X147511926Y-117591500D01*
X147338074Y-117591500D01*
X147280836Y-117600565D01*
X147166360Y-117618697D01*
X147166357Y-117618697D01*
X147001021Y-117672418D01*
X146846115Y-117751347D01*
X146789298Y-117792628D01*
X146705467Y-117853535D01*
X146705465Y-117853537D01*
X146705464Y-117853537D01*
X146582537Y-117976464D01*
X146582537Y-117976465D01*
X146582535Y-117976467D01*
X146545541Y-118027385D01*
X146480347Y-118117115D01*
X146401418Y-118272021D01*
X146347697Y-118437357D01*
X146347697Y-118437360D01*
X146327510Y-118564814D01*
X146320500Y-118609074D01*
X146320500Y-119990926D01*
X146326731Y-120030264D01*
X146347697Y-120162639D01*
X146347697Y-120162642D01*
X146401418Y-120327978D01*
X146469421Y-120461440D01*
X146480347Y-120482884D01*
X146582535Y-120623533D01*
X146705467Y-120746465D01*
X146846116Y-120848653D01*
X147001019Y-120927580D01*
X147001021Y-120927581D01*
X147166358Y-120981302D01*
X147166359Y-120981302D01*
X147166362Y-120981303D01*
X147303520Y-121003027D01*
X147366655Y-121032956D01*
X147403586Y-121092268D01*
X147402588Y-121162130D01*
X147363978Y-121220363D01*
X147300014Y-121248477D01*
X147284122Y-121249500D01*
X144985452Y-121249500D01*
X144918413Y-121229815D01*
X144897771Y-121213181D01*
X144415182Y-120730592D01*
X144381697Y-120669269D01*
X144386681Y-120599577D01*
X144428553Y-120543644D01*
X144464545Y-120524980D01*
X144468759Y-120523610D01*
X144468763Y-120523610D01*
X144656561Y-120462591D01*
X144832501Y-120372944D01*
X144922192Y-120307779D01*
X144992246Y-120256884D01*
X144992248Y-120256881D01*
X144992252Y-120256879D01*
X145131879Y-120117252D01*
X145131881Y-120117248D01*
X145131884Y-120117246D01*
X145195081Y-120030261D01*
X145247944Y-119957501D01*
X145337591Y-119781561D01*
X145398610Y-119593763D01*
X145418495Y-119468217D01*
X145429500Y-119398736D01*
X145429500Y-119201263D01*
X145405724Y-119051152D01*
X145414678Y-118981859D01*
X145440513Y-118944076D01*
X145985858Y-118398733D01*
X146054312Y-118296285D01*
X146098085Y-118190606D01*
X146101463Y-118182452D01*
X146106824Y-118155500D01*
X146119133Y-118093619D01*
X146125501Y-118061608D01*
X146125501Y-117933283D01*
X146125500Y-117933257D01*
X146125500Y-114270088D01*
X146145185Y-114203049D01*
X146197989Y-114157294D01*
X146236897Y-114146730D01*
X146302797Y-114139999D01*
X146469334Y-114084814D01*
X146618656Y-113992712D01*
X146742712Y-113868656D01*
X146834814Y-113719334D01*
X146889999Y-113552797D01*
X146900500Y-113450009D01*
X146900500Y-112624500D01*
X146920185Y-112557461D01*
X146972989Y-112511706D01*
X147024500Y-112500500D01*
X147713331Y-112500500D01*
X147713347Y-112500501D01*
X147720943Y-112500501D01*
X147879054Y-112500501D01*
X147879057Y-112500501D01*
X148031785Y-112459577D01*
X148089446Y-112426286D01*
X148168716Y-112380520D01*
X148280520Y-112268716D01*
X148280520Y-112268714D01*
X148290724Y-112258511D01*
X148290728Y-112258506D01*
X149658506Y-110890728D01*
X149658511Y-110890724D01*
X149668714Y-110880520D01*
X149668716Y-110880520D01*
X149780520Y-110768716D01*
X149859577Y-110631784D01*
X149897090Y-110491784D01*
X149900500Y-110479058D01*
X149900500Y-110320943D01*
X149900500Y-110308308D01*
X149920185Y-110241269D01*
X149936820Y-110220626D01*
X149968076Y-110189370D01*
X149968081Y-110189365D01*
X150051744Y-110047898D01*
X150097598Y-109890069D01*
X150100500Y-109853194D01*
X150100500Y-108687000D01*
X150120185Y-108619961D01*
X150172989Y-108574206D01*
X150224500Y-108563000D01*
X150465686Y-108563000D01*
X150465694Y-108563000D01*
X150502569Y-108560098D01*
X150502571Y-108560097D01*
X150502573Y-108560097D01*
X150576974Y-108538481D01*
X150660398Y-108514244D01*
X150801865Y-108430581D01*
X150801864Y-108430581D01*
X150808580Y-108426610D01*
X150809655Y-108428428D01*
X150864532Y-108406881D01*
X150933050Y-108420559D01*
G37*
%TD.AperFunction*%
%TA.AperFunction,Conductor*%
G36*
X177161635Y-103645185D02*
G01*
X177207390Y-103697989D01*
X177217334Y-103767147D01*
X177212302Y-103788504D01*
X177162994Y-103937302D01*
X177162993Y-103937309D01*
X177152500Y-104040013D01*
X177152500Y-104252500D01*
X178428500Y-104252500D01*
X178495539Y-104272185D01*
X178541294Y-104324989D01*
X178552500Y-104376500D01*
X178552500Y-104502500D01*
X178678500Y-104502500D01*
X178745539Y-104522185D01*
X178791294Y-104574989D01*
X178802500Y-104626500D01*
X178802500Y-105664999D01*
X179250500Y-105664999D01*
X179317539Y-105684684D01*
X179363294Y-105737488D01*
X179374500Y-105788999D01*
X179374500Y-107529059D01*
X179354815Y-107596098D01*
X179302011Y-107641853D01*
X179232853Y-107651797D01*
X179169297Y-107622772D01*
X179140015Y-107585354D01*
X179096026Y-107499022D01*
X179066417Y-107440910D01*
X178959603Y-107293894D01*
X178831106Y-107165397D01*
X178684090Y-107058583D01*
X178522174Y-106976083D01*
X178522171Y-106976081D01*
X178349348Y-106919928D01*
X178229689Y-106900976D01*
X178169861Y-106891500D01*
X177988139Y-106891500D01*
X177928310Y-106900976D01*
X177808652Y-106919928D01*
X177808649Y-106919928D01*
X177635828Y-106976081D01*
X177635825Y-106976083D01*
X177473909Y-107058583D01*
X177390030Y-107119525D01*
X177326894Y-107165397D01*
X177326892Y-107165399D01*
X177326891Y-107165399D01*
X177198399Y-107293891D01*
X177198392Y-107293900D01*
X177124247Y-107395950D01*
X177068917Y-107438616D01*
X176999304Y-107444594D01*
X176937509Y-107411987D01*
X176913445Y-107379358D01*
X176870418Y-107294911D01*
X176853594Y-107271755D01*
X176763603Y-107147894D01*
X176635106Y-107019397D01*
X176488090Y-106912583D01*
X176326174Y-106830083D01*
X176326171Y-106830081D01*
X176153348Y-106773928D01*
X176001344Y-106749853D01*
X175973861Y-106745500D01*
X175973860Y-106745500D01*
X175830311Y-106745500D01*
X175763272Y-106725815D01*
X175734178Y-106699823D01*
X175727896Y-106692112D01*
X175709520Y-106660284D01*
X175668735Y-106619499D01*
X175664751Y-106614609D01*
X175653555Y-106587984D01*
X175639718Y-106562644D01*
X175640180Y-106556178D01*
X175637667Y-106550202D01*
X175642642Y-106521755D01*
X175644702Y-106492952D01*
X175648587Y-106487761D01*
X175649704Y-106481377D01*
X175669269Y-106460134D01*
X175686574Y-106437019D01*
X175693947Y-106433341D01*
X175697039Y-106429985D01*
X175704667Y-106427994D01*
X175726289Y-106417210D01*
X175817685Y-106390656D01*
X175817688Y-106390655D01*
X175953608Y-106310273D01*
X175953616Y-106310267D01*
X176065267Y-106198616D01*
X176065273Y-106198608D01*
X176145655Y-106062688D01*
X176145656Y-106062685D01*
X176189710Y-105911053D01*
X176189711Y-105911047D01*
X176192499Y-105875618D01*
X176192500Y-105875605D01*
X176192500Y-105375000D01*
X175667000Y-105375000D01*
X175599961Y-105355315D01*
X175554206Y-105302511D01*
X175543000Y-105251000D01*
X175542999Y-104999000D01*
X175552986Y-104964986D01*
X177152501Y-104964986D01*
X177162994Y-105067697D01*
X177218141Y-105234119D01*
X177218143Y-105234124D01*
X177310184Y-105383345D01*
X177434154Y-105507315D01*
X177583375Y-105599356D01*
X177583380Y-105599358D01*
X177749802Y-105654505D01*
X177749809Y-105654506D01*
X177852519Y-105664999D01*
X178302499Y-105664999D01*
X178302500Y-105664998D01*
X178302500Y-104752500D01*
X177152501Y-104752500D01*
X177152501Y-104964986D01*
X175552986Y-104964986D01*
X175562683Y-104931961D01*
X175615487Y-104886206D01*
X175666999Y-104875000D01*
X176192500Y-104875000D01*
X176192500Y-104374394D01*
X176192499Y-104374381D01*
X176189711Y-104338952D01*
X176189710Y-104338946D01*
X176145656Y-104187314D01*
X176145655Y-104187311D01*
X176065273Y-104051391D01*
X176065267Y-104051383D01*
X175953616Y-103939732D01*
X175953608Y-103939726D01*
X175812426Y-103856232D01*
X175764743Y-103805163D01*
X175752239Y-103736422D01*
X175778884Y-103671832D01*
X175836219Y-103631902D01*
X175875547Y-103625500D01*
X177094596Y-103625500D01*
X177161635Y-103645185D01*
G37*
%TD.AperFunction*%
%TA.AperFunction,Conductor*%
G36*
X173899087Y-102787685D02*
G01*
X173919729Y-102804319D01*
X174511016Y-103395606D01*
X174511045Y-103395637D01*
X174601264Y-103485856D01*
X174601267Y-103485858D01*
X174636765Y-103509577D01*
X174703714Y-103554312D01*
X174749894Y-103573439D01*
X174804296Y-103617278D01*
X174826362Y-103683572D01*
X174809084Y-103751271D01*
X174757948Y-103798883D01*
X174702442Y-103812000D01*
X174604350Y-103812000D01*
X174604324Y-103812001D01*
X174568874Y-103814790D01*
X174568872Y-103814791D01*
X174502092Y-103834191D01*
X174498333Y-103834191D01*
X174495088Y-103836006D01*
X174465486Y-103834191D01*
X174432908Y-103834191D01*
X174366133Y-103814792D01*
X174366120Y-103814790D01*
X174330663Y-103812000D01*
X173954349Y-103812000D01*
X173954324Y-103812001D01*
X173918874Y-103814790D01*
X173918872Y-103814791D01*
X173852092Y-103834191D01*
X173782908Y-103834191D01*
X173716133Y-103814792D01*
X173716120Y-103814790D01*
X173680663Y-103812000D01*
X173304349Y-103812000D01*
X173304324Y-103812001D01*
X173268872Y-103814791D01*
X173117114Y-103858880D01*
X173117109Y-103858882D01*
X172981083Y-103939327D01*
X172981074Y-103939334D01*
X172869334Y-104051074D01*
X172869327Y-104051083D01*
X172788882Y-104187109D01*
X172788880Y-104187115D01*
X172749029Y-104324283D01*
X172711423Y-104383169D01*
X172647950Y-104412375D01*
X172578764Y-104402629D01*
X172542272Y-104377369D01*
X172525000Y-104360097D01*
X171550000Y-104360097D01*
X171550000Y-105197596D01*
X171808807Y-105197596D01*
X171830052Y-105203834D01*
X171852141Y-105205414D01*
X171862924Y-105213486D01*
X171875846Y-105217281D01*
X171890345Y-105234014D01*
X171908074Y-105247286D01*
X171912781Y-105259906D01*
X171921601Y-105270085D01*
X171924752Y-105292002D01*
X171932491Y-105312750D01*
X171929628Y-105325910D01*
X171931545Y-105339243D01*
X171922345Y-105359386D01*
X171917639Y-105381023D01*
X171904370Y-105398748D01*
X171902520Y-105402799D01*
X171896488Y-105409277D01*
X171765084Y-105540681D01*
X171703761Y-105574166D01*
X171677403Y-105577000D01*
X170345908Y-105577000D01*
X170278869Y-105557315D01*
X170240363Y-105513228D01*
X170238605Y-105514313D01*
X170230475Y-105501132D01*
X170142712Y-105358844D01*
X170049049Y-105265181D01*
X170044711Y-105257236D01*
X170037463Y-105251811D01*
X170028226Y-105227048D01*
X170015564Y-105203858D01*
X170016209Y-105194829D01*
X170013046Y-105186347D01*
X170018662Y-105160524D01*
X170020548Y-105134166D01*
X170026365Y-105125113D01*
X170027897Y-105118074D01*
X170049045Y-105089822D01*
X170140126Y-104998741D01*
X170201445Y-104965259D01*
X170271137Y-104970243D01*
X170315484Y-104998743D01*
X170356654Y-105039912D01*
X170505875Y-105131953D01*
X170505880Y-105131955D01*
X170672302Y-105187102D01*
X170672309Y-105187103D01*
X170775019Y-105197596D01*
X171049999Y-105197596D01*
X171050000Y-105197595D01*
X171050000Y-104234097D01*
X171069685Y-104167058D01*
X171122489Y-104121303D01*
X171174000Y-104110097D01*
X171300000Y-104110097D01*
X171300000Y-103984097D01*
X171319685Y-103917058D01*
X171372489Y-103871303D01*
X171424000Y-103860097D01*
X172524999Y-103860097D01*
X172524999Y-103722625D01*
X172524998Y-103722610D01*
X172514505Y-103619899D01*
X172459358Y-103453477D01*
X172459356Y-103453472D01*
X172367315Y-103304251D01*
X172243344Y-103180280D01*
X172243341Y-103180278D01*
X172240339Y-103178426D01*
X172238713Y-103176618D01*
X172237677Y-103175799D01*
X172237817Y-103175621D01*
X172193617Y-103126477D01*
X172182397Y-103057514D01*
X172210243Y-102993433D01*
X172240344Y-102967351D01*
X172243656Y-102965309D01*
X172367712Y-102841253D01*
X172374433Y-102830356D01*
X172376564Y-102826902D01*
X172428513Y-102780178D01*
X172482102Y-102768000D01*
X173832048Y-102768000D01*
X173899087Y-102787685D01*
G37*
%TD.AperFunction*%
%TA.AperFunction,Conductor*%
G36*
X170208284Y-102833096D02*
G01*
X170252632Y-102861597D01*
X170356344Y-102965309D01*
X170363128Y-102969493D01*
X170366451Y-102971858D01*
X170385634Y-102996233D01*
X170406379Y-103019296D01*
X170407055Y-103023453D01*
X170409661Y-103026764D01*
X170412619Y-103057641D01*
X170417603Y-103088258D01*
X170415924Y-103092122D01*
X170416326Y-103096315D01*
X170402121Y-103123890D01*
X170389761Y-103152341D01*
X170385617Y-103155932D01*
X170384331Y-103158429D01*
X170379544Y-103161194D01*
X170359665Y-103178423D01*
X170356660Y-103180276D01*
X170356655Y-103180280D01*
X170248083Y-103288853D01*
X170186760Y-103322338D01*
X170117068Y-103317354D01*
X170072721Y-103288853D01*
X170018655Y-103234787D01*
X169934757Y-103183039D01*
X169888032Y-103131091D01*
X169876809Y-103062129D01*
X169904653Y-102998046D01*
X169934757Y-102971961D01*
X169942239Y-102967346D01*
X170018656Y-102920212D01*
X170077273Y-102861594D01*
X170138592Y-102828112D01*
X170208284Y-102833096D01*
G37*
%TD.AperFunction*%
%TA.AperFunction,Conductor*%
G36*
X159066942Y-95220185D02*
G01*
X159087584Y-95236819D01*
X159338652Y-95487887D01*
X159372137Y-95549210D01*
X159367153Y-95618902D01*
X159325281Y-95674835D01*
X159259817Y-95699252D01*
X159249221Y-95699424D01*
X159249221Y-95699500D01*
X158815390Y-95699500D01*
X158778524Y-95702401D01*
X158778518Y-95702402D01*
X158620698Y-95748254D01*
X158620695Y-95748255D01*
X158479232Y-95831915D01*
X158473066Y-95836699D01*
X158471266Y-95834379D01*
X158422005Y-95861230D01*
X158352317Y-95856193D01*
X158320084Y-95835461D01*
X158318814Y-95837100D01*
X158312644Y-95832314D01*
X158171288Y-95748717D01*
X158171285Y-95748716D01*
X158013586Y-95702900D01*
X158013589Y-95702900D01*
X158011092Y-95702703D01*
X158011092Y-98647295D01*
X158011093Y-98647295D01*
X158013578Y-98647100D01*
X158171290Y-98601281D01*
X158312642Y-98517686D01*
X158318809Y-98512903D01*
X158320722Y-98515369D01*
X158369314Y-98488802D01*
X158439009Y-98493749D01*
X158464326Y-98506650D01*
X158474651Y-98513505D01*
X158479227Y-98518081D01*
X158500419Y-98530614D01*
X158503103Y-98532396D01*
X158514817Y-98546329D01*
X158541901Y-98573698D01*
X158550572Y-98588716D01*
X158550574Y-98588718D01*
X158669441Y-98707585D01*
X158669447Y-98707590D01*
X159249676Y-99287819D01*
X159283161Y-99349142D01*
X159278177Y-99418834D01*
X159236305Y-99474767D01*
X159170841Y-99499184D01*
X159161995Y-99499500D01*
X158438590Y-99499500D01*
X158438572Y-99499501D01*
X158335795Y-99510000D01*
X158335792Y-99510001D01*
X158169260Y-99565185D01*
X158169255Y-99565187D01*
X158019934Y-99657289D01*
X157926273Y-99750951D01*
X157864950Y-99784436D01*
X157795258Y-99779452D01*
X157750911Y-99750951D01*
X157657249Y-99657289D01*
X157657248Y-99657288D01*
X157507926Y-99565186D01*
X157507924Y-99565185D01*
X157501779Y-99561395D01*
X157502882Y-99559605D01*
X157458241Y-99520290D01*
X157439092Y-99454091D01*
X157439092Y-99198444D01*
X157439091Y-99198440D01*
X157438098Y-99194732D01*
X157428481Y-99158842D01*
X157398169Y-99045715D01*
X157369231Y-98995595D01*
X157319112Y-98908784D01*
X157212426Y-98802098D01*
X157178942Y-98740775D01*
X157183926Y-98671083D01*
X157225798Y-98615150D01*
X157291262Y-98590733D01*
X157343263Y-98599580D01*
X157343402Y-98599105D01*
X157347548Y-98600309D01*
X157349361Y-98600618D01*
X157350894Y-98601281D01*
X157508606Y-98647100D01*
X157508603Y-98647100D01*
X157511090Y-98647295D01*
X157511092Y-98647295D01*
X157511092Y-95702703D01*
X157508595Y-95702900D01*
X157350898Y-95748716D01*
X157350895Y-95748717D01*
X157209541Y-95832313D01*
X157203375Y-95837097D01*
X157201481Y-95834655D01*
X157152672Y-95861239D01*
X157082986Y-95856179D01*
X157050319Y-95835159D01*
X157049123Y-95836702D01*
X157042954Y-95831917D01*
X156964773Y-95785681D01*
X156901490Y-95748256D01*
X156901489Y-95748255D01*
X156901488Y-95748255D01*
X156901485Y-95748254D01*
X156743665Y-95702402D01*
X156743659Y-95702401D01*
X156706793Y-95699500D01*
X156706786Y-95699500D01*
X156275398Y-95699500D01*
X156275390Y-95699500D01*
X156238524Y-95702401D01*
X156238518Y-95702402D01*
X156080698Y-95748254D01*
X156080695Y-95748255D01*
X155939229Y-95831917D01*
X155933061Y-95836702D01*
X155931164Y-95834256D01*
X155882450Y-95860857D01*
X155812758Y-95855873D01*
X155791778Y-95845708D01*
X155778985Y-95837947D01*
X155772957Y-95831919D01*
X155631490Y-95748256D01*
X155630810Y-95748058D01*
X155622986Y-95743312D01*
X155604927Y-95723530D01*
X155584337Y-95706394D01*
X155581727Y-95698118D01*
X155575878Y-95691711D01*
X155571380Y-95665306D01*
X155563324Y-95639758D01*
X155565602Y-95631385D01*
X155564146Y-95622834D01*
X155574637Y-95598190D01*
X155581673Y-95572341D01*
X155590286Y-95561431D01*
X155591515Y-95558547D01*
X155593781Y-95557006D01*
X155599610Y-95549623D01*
X155912418Y-95236816D01*
X155973739Y-95203334D01*
X156000097Y-95200500D01*
X158999903Y-95200500D01*
X159066942Y-95220185D01*
G37*
%TD.AperFunction*%
%TA.AperFunction,Conductor*%
G36*
X132446330Y-97610185D02*
G01*
X132492085Y-97662989D01*
X132503291Y-97714500D01*
X132503291Y-97740018D01*
X132513790Y-97842796D01*
X132513791Y-97842799D01*
X132561978Y-97988215D01*
X132568976Y-98009334D01*
X132644192Y-98131280D01*
X132661079Y-98158657D01*
X132754741Y-98252319D01*
X132788226Y-98313642D01*
X132783242Y-98383334D01*
X132754741Y-98427681D01*
X132661079Y-98521342D01*
X132568977Y-98670663D01*
X132568975Y-98670668D01*
X132548529Y-98732372D01*
X132513791Y-98837203D01*
X132513791Y-98837204D01*
X132513790Y-98837204D01*
X132503290Y-98939983D01*
X132503290Y-98975500D01*
X132483605Y-99042539D01*
X132430801Y-99088294D01*
X132379290Y-99099500D01*
X131324295Y-99099500D01*
X131257256Y-99079815D01*
X131211501Y-99027011D01*
X131201557Y-98957853D01*
X131213811Y-98919204D01*
X131244884Y-98858219D01*
X131310547Y-98656130D01*
X131310547Y-98656127D01*
X131343790Y-98446246D01*
X131343790Y-98233753D01*
X131310547Y-98023872D01*
X131310547Y-98023869D01*
X131244885Y-97821782D01*
X131218906Y-97770795D01*
X131206010Y-97702126D01*
X131232286Y-97637385D01*
X131289393Y-97597128D01*
X131329391Y-97590500D01*
X132379291Y-97590500D01*
X132446330Y-97610185D01*
G37*
%TD.AperFunction*%
%TA.AperFunction,Conductor*%
G36*
X135021649Y-97951940D02*
G01*
X135066175Y-98003325D01*
X135068974Y-98009330D01*
X135068976Y-98009334D01*
X135144193Y-98131280D01*
X135161079Y-98158657D01*
X135254741Y-98252319D01*
X135288226Y-98313642D01*
X135283242Y-98383334D01*
X135254741Y-98427681D01*
X135161079Y-98521342D01*
X135154261Y-98532396D01*
X135074256Y-98662107D01*
X135065185Y-98676813D01*
X135063390Y-98675706D01*
X135058804Y-98680916D01*
X135051595Y-98696703D01*
X135036196Y-98706598D01*
X135024103Y-98720337D01*
X135007215Y-98725224D01*
X134992817Y-98734477D01*
X134957882Y-98739500D01*
X134949698Y-98739500D01*
X134882659Y-98719815D01*
X134844153Y-98675728D01*
X134842395Y-98676813D01*
X134836633Y-98667471D01*
X134746502Y-98521344D01*
X134652839Y-98427681D01*
X134619354Y-98366358D01*
X134624338Y-98296666D01*
X134652839Y-98252319D01*
X134671405Y-98233753D01*
X134746502Y-98158656D01*
X134838604Y-98009334D01*
X134838607Y-98009322D01*
X134841405Y-98003325D01*
X134887575Y-97950884D01*
X134954767Y-97931728D01*
X135021649Y-97951940D01*
G37*
%TD.AperFunction*%
%TA.AperFunction,Conductor*%
G36*
X137521649Y-97951940D02*
G01*
X137566175Y-98003325D01*
X137568974Y-98009330D01*
X137568976Y-98009334D01*
X137644193Y-98131280D01*
X137661079Y-98158657D01*
X137754741Y-98252319D01*
X137788226Y-98313642D01*
X137783242Y-98383334D01*
X137754741Y-98427681D01*
X137661079Y-98521342D01*
X137654261Y-98532396D01*
X137574256Y-98662107D01*
X137565185Y-98676813D01*
X137563390Y-98675706D01*
X137558804Y-98680916D01*
X137551595Y-98696703D01*
X137536196Y-98706598D01*
X137524103Y-98720337D01*
X137507215Y-98725224D01*
X137492817Y-98734477D01*
X137457882Y-98739500D01*
X137449698Y-98739500D01*
X137382659Y-98719815D01*
X137344153Y-98675728D01*
X137342395Y-98676813D01*
X137336633Y-98667471D01*
X137246502Y-98521344D01*
X137152839Y-98427681D01*
X137119354Y-98366358D01*
X137124338Y-98296666D01*
X137152839Y-98252319D01*
X137171405Y-98233753D01*
X137246502Y-98158656D01*
X137338604Y-98009334D01*
X137338607Y-98009322D01*
X137341405Y-98003325D01*
X137387575Y-97950884D01*
X137454767Y-97931728D01*
X137521649Y-97951940D01*
G37*
%TD.AperFunction*%
%TA.AperFunction,Conductor*%
G36*
X126585755Y-78511132D02*
G01*
X126586127Y-78510136D01*
X126605601Y-78517399D01*
X126661536Y-78559270D01*
X126685954Y-78624734D01*
X126686270Y-78633582D01*
X126686270Y-79600100D01*
X126686269Y-79600118D01*
X126686269Y-79765824D01*
X126686268Y-79765824D01*
X126727193Y-79918555D01*
X126756128Y-79968670D01*
X126756129Y-79968674D01*
X126756130Y-79968674D01*
X126806249Y-80055484D01*
X126806251Y-80055487D01*
X126925119Y-80174355D01*
X126925125Y-80174360D01*
X128519478Y-81768713D01*
X128519480Y-81768716D01*
X128631284Y-81880520D01*
X128671458Y-81903714D01*
X128681944Y-81909768D01*
X128768209Y-81959574D01*
X128768210Y-81959574D01*
X128768215Y-81959577D01*
X128920943Y-82000500D01*
X129079057Y-82000500D01*
X135799903Y-82000500D01*
X135866942Y-82020185D01*
X135887584Y-82036819D01*
X137415139Y-83564374D01*
X137415149Y-83564385D01*
X137419479Y-83568715D01*
X137419480Y-83568716D01*
X137531284Y-83680520D01*
X137531286Y-83680521D01*
X137531290Y-83680524D01*
X137668209Y-83759573D01*
X137668216Y-83759577D01*
X137776199Y-83788511D01*
X137776198Y-83788511D01*
X137792574Y-83792898D01*
X137820942Y-83800500D01*
X137820943Y-83800500D01*
X139019699Y-83800500D01*
X139086738Y-83820185D01*
X139132493Y-83872989D01*
X139137403Y-83885492D01*
X139165186Y-83969334D01*
X139257288Y-84118656D01*
X139381344Y-84242712D01*
X139530666Y-84334814D01*
X139697203Y-84389999D01*
X139799991Y-84400500D01*
X140600008Y-84400499D01*
X140600016Y-84400498D01*
X140600019Y-84400498D01*
X140656302Y-84394748D01*
X140702797Y-84389999D01*
X140869334Y-84334814D01*
X141018656Y-84242712D01*
X141112319Y-84149049D01*
X141173642Y-84115564D01*
X141243334Y-84120548D01*
X141287681Y-84149049D01*
X141381344Y-84242712D01*
X141530666Y-84334814D01*
X141697203Y-84389999D01*
X141799991Y-84400500D01*
X142600008Y-84400499D01*
X142600016Y-84400498D01*
X142600019Y-84400498D01*
X142656302Y-84394748D01*
X142702797Y-84389999D01*
X142869334Y-84334814D01*
X143018656Y-84242712D01*
X143142712Y-84118656D01*
X143234814Y-83969334D01*
X143262595Y-83885495D01*
X143302368Y-83828051D01*
X143366884Y-83801228D01*
X143380301Y-83800500D01*
X144999903Y-83800500D01*
X145066942Y-83820185D01*
X145087584Y-83836819D01*
X146963181Y-85712416D01*
X146996666Y-85773739D01*
X146999500Y-85800097D01*
X146999500Y-86375500D01*
X146979815Y-86442539D01*
X146927011Y-86488294D01*
X146875500Y-86499500D01*
X146793384Y-86499500D01*
X146774145Y-86501248D01*
X146722807Y-86505913D01*
X146560393Y-86556522D01*
X146414811Y-86644530D01*
X146294530Y-86764811D01*
X146278799Y-86790834D01*
X146227270Y-86838020D01*
X146158411Y-86849858D01*
X146094082Y-86822588D01*
X146054709Y-86764869D01*
X146049192Y-86715457D01*
X146050000Y-86706567D01*
X146050000Y-86700000D01*
X143150001Y-86700000D01*
X143150001Y-86706582D01*
X143156408Y-86777102D01*
X143156409Y-86777107D01*
X143206981Y-86939396D01*
X143294927Y-87084877D01*
X143415122Y-87205072D01*
X143561548Y-87293590D01*
X143608736Y-87345118D01*
X143620574Y-87413977D01*
X143593305Y-87478306D01*
X143561549Y-87505823D01*
X143414814Y-87594528D01*
X143414810Y-87594531D01*
X143296161Y-87713181D01*
X143234838Y-87746666D01*
X143208480Y-87749500D01*
X142315220Y-87749500D01*
X142248181Y-87729815D01*
X142202426Y-87677011D01*
X142192482Y-87607853D01*
X142204735Y-87569205D01*
X142251095Y-87478217D01*
X142316757Y-87276130D01*
X142316757Y-87276127D01*
X142350000Y-87066246D01*
X142350000Y-86853753D01*
X142316757Y-86643872D01*
X142316757Y-86643869D01*
X142251095Y-86441782D01*
X142154624Y-86252449D01*
X142115270Y-86198282D01*
X142115269Y-86198282D01*
X141482962Y-86830589D01*
X141465925Y-86767007D01*
X141400099Y-86652993D01*
X141307007Y-86559901D01*
X141192993Y-86494075D01*
X141129409Y-86477037D01*
X141413018Y-86193427D01*
X143150000Y-86193427D01*
X143150000Y-86200000D01*
X144350000Y-86200000D01*
X144850000Y-86200000D01*
X146049999Y-86200000D01*
X146049999Y-86193417D01*
X146043591Y-86122897D01*
X146043590Y-86122892D01*
X145993018Y-85960603D01*
X145905072Y-85815122D01*
X145784877Y-85694927D01*
X145639395Y-85606980D01*
X145639396Y-85606980D01*
X145477105Y-85556409D01*
X145477106Y-85556409D01*
X145406572Y-85550000D01*
X144850000Y-85550000D01*
X144850000Y-86200000D01*
X144350000Y-86200000D01*
X144350000Y-85550000D01*
X143793417Y-85550000D01*
X143722897Y-85556408D01*
X143722892Y-85556409D01*
X143560603Y-85606981D01*
X143415122Y-85694927D01*
X143294927Y-85815122D01*
X143206980Y-85960604D01*
X143156409Y-86122893D01*
X143150000Y-86193427D01*
X141413018Y-86193427D01*
X141761716Y-85844728D01*
X141707550Y-85805375D01*
X141518217Y-85708904D01*
X141316129Y-85643242D01*
X141106246Y-85610000D01*
X140893754Y-85610000D01*
X140683872Y-85643242D01*
X140683869Y-85643242D01*
X140481782Y-85708904D01*
X140292439Y-85805380D01*
X140238282Y-85844727D01*
X140238282Y-85844728D01*
X140870591Y-86477037D01*
X140807007Y-86494075D01*
X140692993Y-86559901D01*
X140599901Y-86652993D01*
X140534075Y-86767007D01*
X140517037Y-86830591D01*
X139884728Y-86198282D01*
X139884727Y-86198282D01*
X139845380Y-86252439D01*
X139748904Y-86441782D01*
X139683242Y-86643869D01*
X139683242Y-86643872D01*
X139650000Y-86853753D01*
X139650000Y-87066246D01*
X139683242Y-87276127D01*
X139683242Y-87276130D01*
X139748904Y-87478217D01*
X139795265Y-87569205D01*
X139808161Y-87637874D01*
X139781885Y-87702615D01*
X139724778Y-87742872D01*
X139684780Y-87749500D01*
X130436670Y-87749500D01*
X130436654Y-87749499D01*
X130429058Y-87749499D01*
X130270943Y-87749499D01*
X130194579Y-87769961D01*
X130118214Y-87790423D01*
X130118209Y-87790426D01*
X129981290Y-87869475D01*
X129981282Y-87869481D01*
X125712181Y-92138583D01*
X125650858Y-92172068D01*
X125581166Y-92167084D01*
X125525233Y-92125212D01*
X125500816Y-92059748D01*
X125500500Y-92050902D01*
X125500500Y-78693939D01*
X125520185Y-78626900D01*
X125572989Y-78581145D01*
X125624500Y-78569939D01*
X126284641Y-78569939D01*
X126284642Y-78569939D01*
X126344253Y-78563531D01*
X126479101Y-78513236D01*
X126479103Y-78513234D01*
X126487410Y-78510136D01*
X126488055Y-78511867D01*
X126545598Y-78499342D01*
X126585755Y-78511132D01*
G37*
%TD.AperFunction*%
%TA.AperFunction,Conductor*%
G36*
X157889957Y-89488133D02*
G01*
X157904323Y-89489112D01*
X157921359Y-89501774D01*
X157940832Y-89510234D01*
X157955477Y-89527133D01*
X157960399Y-89530792D01*
X157961746Y-89534368D01*
X157966921Y-89540339D01*
X157968773Y-89543341D01*
X157968775Y-89543344D01*
X158092746Y-89667315D01*
X158241967Y-89759356D01*
X158241972Y-89759358D01*
X158408394Y-89814505D01*
X158408401Y-89814506D01*
X158511111Y-89824999D01*
X158652137Y-89824999D01*
X158673384Y-89831237D01*
X158695470Y-89832817D01*
X158706251Y-89840887D01*
X158719177Y-89844683D01*
X158733679Y-89861419D01*
X158751404Y-89874688D01*
X158756110Y-89887306D01*
X158764932Y-89897487D01*
X158768083Y-89919405D01*
X158775822Y-89940152D01*
X158772959Y-89953313D01*
X158774876Y-89966645D01*
X158765677Y-89986787D01*
X158760971Y-90008425D01*
X158747701Y-90026150D01*
X158745852Y-90030201D01*
X158739820Y-90036679D01*
X158651001Y-90125500D01*
X158632362Y-90144139D01*
X158632359Y-90144142D01*
X158610099Y-90166402D01*
X158545232Y-90231268D01*
X158519926Y-90269142D01*
X158519922Y-90269148D01*
X158516586Y-90274142D01*
X158476780Y-90333714D01*
X158450205Y-90397873D01*
X158447848Y-90403561D01*
X158447841Y-90403576D01*
X158431408Y-90443253D01*
X158387568Y-90497657D01*
X158321274Y-90519722D01*
X158253574Y-90502443D01*
X158229166Y-90483482D01*
X158156729Y-90411045D01*
X158156698Y-90411016D01*
X157606823Y-89861141D01*
X157573338Y-89799818D01*
X157578322Y-89730126D01*
X157606525Y-89686077D01*
X157616886Y-89675644D01*
X157629748Y-89667712D01*
X157753804Y-89543656D01*
X157763346Y-89528185D01*
X157773406Y-89518057D01*
X157792005Y-89507818D01*
X157807786Y-89493623D01*
X157821998Y-89491309D01*
X157834615Y-89484364D01*
X157855794Y-89485806D01*
X157876748Y-89482395D01*
X157889957Y-89488133D01*
G37*
%TD.AperFunction*%
%TA.AperFunction,Conductor*%
G36*
X159429863Y-84986098D02*
G01*
X159459945Y-84988250D01*
X159464048Y-84991321D01*
X159469115Y-84992096D01*
X159491736Y-85012049D01*
X159515878Y-85030122D01*
X159517668Y-85034923D01*
X159521514Y-85038315D01*
X159529756Y-85067330D01*
X159540295Y-85095586D01*
X159539584Y-85101930D01*
X159540606Y-85105526D01*
X159535275Y-85140415D01*
X159534629Y-85142543D01*
X159510592Y-85263389D01*
X159510592Y-87260624D01*
X159490907Y-87327663D01*
X159438103Y-87373418D01*
X159373989Y-87383982D01*
X159286078Y-87375000D01*
X159148592Y-87375000D01*
X159148592Y-88476000D01*
X159128907Y-88543039D01*
X159076103Y-88588794D01*
X159024592Y-88600000D01*
X158772592Y-88600000D01*
X158705553Y-88580315D01*
X158659798Y-88527511D01*
X158648592Y-88476000D01*
X158648592Y-87375000D01*
X158511119Y-87375000D01*
X158511101Y-87375001D01*
X158465695Y-87379640D01*
X158397002Y-87366870D01*
X158346118Y-87318989D01*
X158329198Y-87251199D01*
X158338532Y-87208832D01*
X158369737Y-87133497D01*
X158400500Y-86978842D01*
X158400500Y-86821158D01*
X158400500Y-86821155D01*
X158400499Y-86821153D01*
X158390191Y-86769331D01*
X158369737Y-86666503D01*
X158343350Y-86602799D01*
X158309397Y-86520827D01*
X158309390Y-86520814D01*
X158221789Y-86389711D01*
X158221786Y-86389707D01*
X158176561Y-86344482D01*
X158143076Y-86283159D01*
X158148060Y-86213467D01*
X158176561Y-86169120D01*
X159115018Y-85230663D01*
X159328931Y-85016750D01*
X159333427Y-85014294D01*
X159336238Y-85010006D01*
X159363789Y-84997716D01*
X159390253Y-84983266D01*
X159395364Y-84983631D01*
X159400047Y-84981543D01*
X159429863Y-84986098D01*
G37*
%TD.AperFunction*%
%TD*%
M02*
