%TF.GenerationSoftware,KiCad,Pcbnew,10.0.3*%
%TF.CreationDate,2026-07-01T02:31:45-04:00*%
%TF.ProjectId,Electrocardiograma,456c6563-7472-46f6-9361-7264696f6772,009*%
%TF.SameCoordinates,Original*%
%TF.FileFunction,Legend,Top*%
%TF.FilePolarity,Positive*%
%FSLAX46Y46*%
G04 Gerber Fmt 4.6, Leading zero omitted, Abs format (unit mm)*
G04 Created by KiCad (PCBNEW 10.0.3) date 2026-07-01 02:31:45*
%MOMM*%
%LPD*%
G01*
G04 APERTURE LIST*
%ADD10C,0.150000*%
%ADD11C,0.120000*%
%ADD12C,0.127000*%
%ADD13C,0.200000*%
G04 APERTURE END LIST*
D10*
X171472319Y-103774404D02*
X172281842Y-103774404D01*
X172281842Y-103774404D02*
X172377080Y-103726785D01*
X172377080Y-103726785D02*
X172424700Y-103679166D01*
X172424700Y-103679166D02*
X172472319Y-103583928D01*
X172472319Y-103583928D02*
X172472319Y-103393452D01*
X172472319Y-103393452D02*
X172424700Y-103298214D01*
X172424700Y-103298214D02*
X172377080Y-103250595D01*
X172377080Y-103250595D02*
X172281842Y-103202976D01*
X172281842Y-103202976D02*
X171472319Y-103202976D01*
X172472319Y-102202976D02*
X172472319Y-102774404D01*
X172472319Y-102488690D02*
X171472319Y-102488690D01*
X171472319Y-102488690D02*
X171615176Y-102583928D01*
X171615176Y-102583928D02*
X171710414Y-102679166D01*
X171710414Y-102679166D02*
X171758033Y-102774404D01*
X137544819Y-74033333D02*
X138259104Y-74033333D01*
X138259104Y-74033333D02*
X138401961Y-74080952D01*
X138401961Y-74080952D02*
X138497200Y-74176190D01*
X138497200Y-74176190D02*
X138544819Y-74319047D01*
X138544819Y-74319047D02*
X138544819Y-74414285D01*
X137544819Y-73128571D02*
X137544819Y-73319047D01*
X137544819Y-73319047D02*
X137592438Y-73414285D01*
X137592438Y-73414285D02*
X137640057Y-73461904D01*
X137640057Y-73461904D02*
X137782914Y-73557142D01*
X137782914Y-73557142D02*
X137973390Y-73604761D01*
X137973390Y-73604761D02*
X138354342Y-73604761D01*
X138354342Y-73604761D02*
X138449580Y-73557142D01*
X138449580Y-73557142D02*
X138497200Y-73509523D01*
X138497200Y-73509523D02*
X138544819Y-73414285D01*
X138544819Y-73414285D02*
X138544819Y-73223809D01*
X138544819Y-73223809D02*
X138497200Y-73128571D01*
X138497200Y-73128571D02*
X138449580Y-73080952D01*
X138449580Y-73080952D02*
X138354342Y-73033333D01*
X138354342Y-73033333D02*
X138116247Y-73033333D01*
X138116247Y-73033333D02*
X138021009Y-73080952D01*
X138021009Y-73080952D02*
X137973390Y-73128571D01*
X137973390Y-73128571D02*
X137925771Y-73223809D01*
X137925771Y-73223809D02*
X137925771Y-73414285D01*
X137925771Y-73414285D02*
X137973390Y-73509523D01*
X137973390Y-73509523D02*
X138021009Y-73557142D01*
X138021009Y-73557142D02*
X138116247Y-73604761D01*
X140666666Y-91334819D02*
X140666666Y-92049104D01*
X140666666Y-92049104D02*
X140619047Y-92191961D01*
X140619047Y-92191961D02*
X140523809Y-92287200D01*
X140523809Y-92287200D02*
X140380952Y-92334819D01*
X140380952Y-92334819D02*
X140285714Y-92334819D01*
X141571428Y-91668152D02*
X141571428Y-92334819D01*
X141333333Y-91287200D02*
X141095238Y-92001485D01*
X141095238Y-92001485D02*
X141714285Y-92001485D01*
X150118234Y-92054819D02*
X149784901Y-91578628D01*
X149546806Y-92054819D02*
X149546806Y-91054819D01*
X149546806Y-91054819D02*
X149927758Y-91054819D01*
X149927758Y-91054819D02*
X150022996Y-91102438D01*
X150022996Y-91102438D02*
X150070615Y-91150057D01*
X150070615Y-91150057D02*
X150118234Y-91245295D01*
X150118234Y-91245295D02*
X150118234Y-91388152D01*
X150118234Y-91388152D02*
X150070615Y-91483390D01*
X150070615Y-91483390D02*
X150022996Y-91531009D01*
X150022996Y-91531009D02*
X149927758Y-91578628D01*
X149927758Y-91578628D02*
X149546806Y-91578628D01*
X151070615Y-92054819D02*
X150499187Y-92054819D01*
X150784901Y-92054819D02*
X150784901Y-91054819D01*
X150784901Y-91054819D02*
X150689663Y-91197676D01*
X150689663Y-91197676D02*
X150594425Y-91292914D01*
X150594425Y-91292914D02*
X150499187Y-91340533D01*
X151689663Y-91054819D02*
X151784901Y-91054819D01*
X151784901Y-91054819D02*
X151880139Y-91102438D01*
X151880139Y-91102438D02*
X151927758Y-91150057D01*
X151927758Y-91150057D02*
X151975377Y-91245295D01*
X151975377Y-91245295D02*
X152022996Y-91435771D01*
X152022996Y-91435771D02*
X152022996Y-91673866D01*
X152022996Y-91673866D02*
X151975377Y-91864342D01*
X151975377Y-91864342D02*
X151927758Y-91959580D01*
X151927758Y-91959580D02*
X151880139Y-92007200D01*
X151880139Y-92007200D02*
X151784901Y-92054819D01*
X151784901Y-92054819D02*
X151689663Y-92054819D01*
X151689663Y-92054819D02*
X151594425Y-92007200D01*
X151594425Y-92007200D02*
X151546806Y-91959580D01*
X151546806Y-91959580D02*
X151499187Y-91864342D01*
X151499187Y-91864342D02*
X151451568Y-91673866D01*
X151451568Y-91673866D02*
X151451568Y-91435771D01*
X151451568Y-91435771D02*
X151499187Y-91245295D01*
X151499187Y-91245295D02*
X151546806Y-91150057D01*
X151546806Y-91150057D02*
X151594425Y-91102438D01*
X151594425Y-91102438D02*
X151689663Y-91054819D01*
X138308609Y-98982857D02*
X137832418Y-99316190D01*
X138308609Y-99554285D02*
X137308609Y-99554285D01*
X137308609Y-99554285D02*
X137308609Y-99173333D01*
X137308609Y-99173333D02*
X137356228Y-99078095D01*
X137356228Y-99078095D02*
X137403847Y-99030476D01*
X137403847Y-99030476D02*
X137499085Y-98982857D01*
X137499085Y-98982857D02*
X137641942Y-98982857D01*
X137641942Y-98982857D02*
X137737180Y-99030476D01*
X137737180Y-99030476D02*
X137784799Y-99078095D01*
X137784799Y-99078095D02*
X137832418Y-99173333D01*
X137832418Y-99173333D02*
X137832418Y-99554285D01*
X137403847Y-98601904D02*
X137356228Y-98554285D01*
X137356228Y-98554285D02*
X137308609Y-98459047D01*
X137308609Y-98459047D02*
X137308609Y-98220952D01*
X137308609Y-98220952D02*
X137356228Y-98125714D01*
X137356228Y-98125714D02*
X137403847Y-98078095D01*
X137403847Y-98078095D02*
X137499085Y-98030476D01*
X137499085Y-98030476D02*
X137594323Y-98030476D01*
X137594323Y-98030476D02*
X137737180Y-98078095D01*
X137737180Y-98078095D02*
X138308609Y-98649523D01*
X138308609Y-98649523D02*
X138308609Y-98030476D01*
X138308609Y-97554285D02*
X138308609Y-97363809D01*
X138308609Y-97363809D02*
X138260990Y-97268571D01*
X138260990Y-97268571D02*
X138213370Y-97220952D01*
X138213370Y-97220952D02*
X138070513Y-97125714D01*
X138070513Y-97125714D02*
X137880037Y-97078095D01*
X137880037Y-97078095D02*
X137499085Y-97078095D01*
X137499085Y-97078095D02*
X137403847Y-97125714D01*
X137403847Y-97125714D02*
X137356228Y-97173333D01*
X137356228Y-97173333D02*
X137308609Y-97268571D01*
X137308609Y-97268571D02*
X137308609Y-97459047D01*
X137308609Y-97459047D02*
X137356228Y-97554285D01*
X137356228Y-97554285D02*
X137403847Y-97601904D01*
X137403847Y-97601904D02*
X137499085Y-97649523D01*
X137499085Y-97649523D02*
X137737180Y-97649523D01*
X137737180Y-97649523D02*
X137832418Y-97601904D01*
X137832418Y-97601904D02*
X137880037Y-97554285D01*
X137880037Y-97554285D02*
X137927656Y-97459047D01*
X137927656Y-97459047D02*
X137927656Y-97268571D01*
X137927656Y-97268571D02*
X137880037Y-97173333D01*
X137880037Y-97173333D02*
X137832418Y-97125714D01*
X137832418Y-97125714D02*
X137737180Y-97078095D01*
X164594425Y-98304819D02*
X164261092Y-97828628D01*
X164022997Y-98304819D02*
X164022997Y-97304819D01*
X164022997Y-97304819D02*
X164403949Y-97304819D01*
X164403949Y-97304819D02*
X164499187Y-97352438D01*
X164499187Y-97352438D02*
X164546806Y-97400057D01*
X164546806Y-97400057D02*
X164594425Y-97495295D01*
X164594425Y-97495295D02*
X164594425Y-97638152D01*
X164594425Y-97638152D02*
X164546806Y-97733390D01*
X164546806Y-97733390D02*
X164499187Y-97781009D01*
X164499187Y-97781009D02*
X164403949Y-97828628D01*
X164403949Y-97828628D02*
X164022997Y-97828628D01*
X165451568Y-97304819D02*
X165261092Y-97304819D01*
X165261092Y-97304819D02*
X165165854Y-97352438D01*
X165165854Y-97352438D02*
X165118235Y-97400057D01*
X165118235Y-97400057D02*
X165022997Y-97542914D01*
X165022997Y-97542914D02*
X164975378Y-97733390D01*
X164975378Y-97733390D02*
X164975378Y-98114342D01*
X164975378Y-98114342D02*
X165022997Y-98209580D01*
X165022997Y-98209580D02*
X165070616Y-98257200D01*
X165070616Y-98257200D02*
X165165854Y-98304819D01*
X165165854Y-98304819D02*
X165356330Y-98304819D01*
X165356330Y-98304819D02*
X165451568Y-98257200D01*
X165451568Y-98257200D02*
X165499187Y-98209580D01*
X165499187Y-98209580D02*
X165546806Y-98114342D01*
X165546806Y-98114342D02*
X165546806Y-97876247D01*
X165546806Y-97876247D02*
X165499187Y-97781009D01*
X165499187Y-97781009D02*
X165451568Y-97733390D01*
X165451568Y-97733390D02*
X165356330Y-97685771D01*
X165356330Y-97685771D02*
X165165854Y-97685771D01*
X165165854Y-97685771D02*
X165070616Y-97733390D01*
X165070616Y-97733390D02*
X165022997Y-97781009D01*
X165022997Y-97781009D02*
X164975378Y-97876247D01*
X163340833Y-121969580D02*
X163293214Y-122017200D01*
X163293214Y-122017200D02*
X163150357Y-122064819D01*
X163150357Y-122064819D02*
X163055119Y-122064819D01*
X163055119Y-122064819D02*
X162912262Y-122017200D01*
X162912262Y-122017200D02*
X162817024Y-121921961D01*
X162817024Y-121921961D02*
X162769405Y-121826723D01*
X162769405Y-121826723D02*
X162721786Y-121636247D01*
X162721786Y-121636247D02*
X162721786Y-121493390D01*
X162721786Y-121493390D02*
X162769405Y-121302914D01*
X162769405Y-121302914D02*
X162817024Y-121207676D01*
X162817024Y-121207676D02*
X162912262Y-121112438D01*
X162912262Y-121112438D02*
X163055119Y-121064819D01*
X163055119Y-121064819D02*
X163150357Y-121064819D01*
X163150357Y-121064819D02*
X163293214Y-121112438D01*
X163293214Y-121112438D02*
X163340833Y-121160057D01*
X163674167Y-121064819D02*
X164340833Y-121064819D01*
X164340833Y-121064819D02*
X163912262Y-122064819D01*
X140357142Y-102004819D02*
X140023809Y-101528628D01*
X139785714Y-102004819D02*
X139785714Y-101004819D01*
X139785714Y-101004819D02*
X140166666Y-101004819D01*
X140166666Y-101004819D02*
X140261904Y-101052438D01*
X140261904Y-101052438D02*
X140309523Y-101100057D01*
X140309523Y-101100057D02*
X140357142Y-101195295D01*
X140357142Y-101195295D02*
X140357142Y-101338152D01*
X140357142Y-101338152D02*
X140309523Y-101433390D01*
X140309523Y-101433390D02*
X140261904Y-101481009D01*
X140261904Y-101481009D02*
X140166666Y-101528628D01*
X140166666Y-101528628D02*
X139785714Y-101528628D01*
X140690476Y-101004819D02*
X141309523Y-101004819D01*
X141309523Y-101004819D02*
X140976190Y-101385771D01*
X140976190Y-101385771D02*
X141119047Y-101385771D01*
X141119047Y-101385771D02*
X141214285Y-101433390D01*
X141214285Y-101433390D02*
X141261904Y-101481009D01*
X141261904Y-101481009D02*
X141309523Y-101576247D01*
X141309523Y-101576247D02*
X141309523Y-101814342D01*
X141309523Y-101814342D02*
X141261904Y-101909580D01*
X141261904Y-101909580D02*
X141214285Y-101957200D01*
X141214285Y-101957200D02*
X141119047Y-102004819D01*
X141119047Y-102004819D02*
X140833333Y-102004819D01*
X140833333Y-102004819D02*
X140738095Y-101957200D01*
X140738095Y-101957200D02*
X140690476Y-101909580D01*
X141690476Y-101100057D02*
X141738095Y-101052438D01*
X141738095Y-101052438D02*
X141833333Y-101004819D01*
X141833333Y-101004819D02*
X142071428Y-101004819D01*
X142071428Y-101004819D02*
X142166666Y-101052438D01*
X142166666Y-101052438D02*
X142214285Y-101100057D01*
X142214285Y-101100057D02*
X142261904Y-101195295D01*
X142261904Y-101195295D02*
X142261904Y-101290533D01*
X142261904Y-101290533D02*
X142214285Y-101433390D01*
X142214285Y-101433390D02*
X141642857Y-102004819D01*
X141642857Y-102004819D02*
X142261904Y-102004819D01*
X153294425Y-87404819D02*
X152961092Y-86928628D01*
X152722997Y-87404819D02*
X152722997Y-86404819D01*
X152722997Y-86404819D02*
X153103949Y-86404819D01*
X153103949Y-86404819D02*
X153199187Y-86452438D01*
X153199187Y-86452438D02*
X153246806Y-86500057D01*
X153246806Y-86500057D02*
X153294425Y-86595295D01*
X153294425Y-86595295D02*
X153294425Y-86738152D01*
X153294425Y-86738152D02*
X153246806Y-86833390D01*
X153246806Y-86833390D02*
X153199187Y-86881009D01*
X153199187Y-86881009D02*
X153103949Y-86928628D01*
X153103949Y-86928628D02*
X152722997Y-86928628D01*
X153865854Y-86833390D02*
X153770616Y-86785771D01*
X153770616Y-86785771D02*
X153722997Y-86738152D01*
X153722997Y-86738152D02*
X153675378Y-86642914D01*
X153675378Y-86642914D02*
X153675378Y-86595295D01*
X153675378Y-86595295D02*
X153722997Y-86500057D01*
X153722997Y-86500057D02*
X153770616Y-86452438D01*
X153770616Y-86452438D02*
X153865854Y-86404819D01*
X153865854Y-86404819D02*
X154056330Y-86404819D01*
X154056330Y-86404819D02*
X154151568Y-86452438D01*
X154151568Y-86452438D02*
X154199187Y-86500057D01*
X154199187Y-86500057D02*
X154246806Y-86595295D01*
X154246806Y-86595295D02*
X154246806Y-86642914D01*
X154246806Y-86642914D02*
X154199187Y-86738152D01*
X154199187Y-86738152D02*
X154151568Y-86785771D01*
X154151568Y-86785771D02*
X154056330Y-86833390D01*
X154056330Y-86833390D02*
X153865854Y-86833390D01*
X153865854Y-86833390D02*
X153770616Y-86881009D01*
X153770616Y-86881009D02*
X153722997Y-86928628D01*
X153722997Y-86928628D02*
X153675378Y-87023866D01*
X153675378Y-87023866D02*
X153675378Y-87214342D01*
X153675378Y-87214342D02*
X153722997Y-87309580D01*
X153722997Y-87309580D02*
X153770616Y-87357200D01*
X153770616Y-87357200D02*
X153865854Y-87404819D01*
X153865854Y-87404819D02*
X154056330Y-87404819D01*
X154056330Y-87404819D02*
X154151568Y-87357200D01*
X154151568Y-87357200D02*
X154199187Y-87309580D01*
X154199187Y-87309580D02*
X154246806Y-87214342D01*
X154246806Y-87214342D02*
X154246806Y-87023866D01*
X154246806Y-87023866D02*
X154199187Y-86928628D01*
X154199187Y-86928628D02*
X154151568Y-86881009D01*
X154151568Y-86881009D02*
X154056330Y-86833390D01*
X133754819Y-110311904D02*
X134564342Y-110311904D01*
X134564342Y-110311904D02*
X134659580Y-110264285D01*
X134659580Y-110264285D02*
X134707200Y-110216666D01*
X134707200Y-110216666D02*
X134754819Y-110121428D01*
X134754819Y-110121428D02*
X134754819Y-109930952D01*
X134754819Y-109930952D02*
X134707200Y-109835714D01*
X134707200Y-109835714D02*
X134659580Y-109788095D01*
X134659580Y-109788095D02*
X134564342Y-109740476D01*
X134564342Y-109740476D02*
X133754819Y-109740476D01*
X133754819Y-109359523D02*
X133754819Y-108740476D01*
X133754819Y-108740476D02*
X134135771Y-109073809D01*
X134135771Y-109073809D02*
X134135771Y-108930952D01*
X134135771Y-108930952D02*
X134183390Y-108835714D01*
X134183390Y-108835714D02*
X134231009Y-108788095D01*
X134231009Y-108788095D02*
X134326247Y-108740476D01*
X134326247Y-108740476D02*
X134564342Y-108740476D01*
X134564342Y-108740476D02*
X134659580Y-108788095D01*
X134659580Y-108788095D02*
X134707200Y-108835714D01*
X134707200Y-108835714D02*
X134754819Y-108930952D01*
X134754819Y-108930952D02*
X134754819Y-109216666D01*
X134754819Y-109216666D02*
X134707200Y-109311904D01*
X134707200Y-109311904D02*
X134659580Y-109359523D01*
X162833095Y-118924819D02*
X162833095Y-119734342D01*
X162833095Y-119734342D02*
X162880714Y-119829580D01*
X162880714Y-119829580D02*
X162928333Y-119877200D01*
X162928333Y-119877200D02*
X163023571Y-119924819D01*
X163023571Y-119924819D02*
X163214047Y-119924819D01*
X163214047Y-119924819D02*
X163309285Y-119877200D01*
X163309285Y-119877200D02*
X163356904Y-119829580D01*
X163356904Y-119829580D02*
X163404523Y-119734342D01*
X163404523Y-119734342D02*
X163404523Y-118924819D01*
X164309285Y-119258152D02*
X164309285Y-119924819D01*
X164071190Y-118877200D02*
X163833095Y-119591485D01*
X163833095Y-119591485D02*
X164452142Y-119591485D01*
X173339580Y-103239263D02*
X173387200Y-103286882D01*
X173387200Y-103286882D02*
X173434819Y-103429739D01*
X173434819Y-103429739D02*
X173434819Y-103524977D01*
X173434819Y-103524977D02*
X173387200Y-103667834D01*
X173387200Y-103667834D02*
X173291961Y-103763072D01*
X173291961Y-103763072D02*
X173196723Y-103810691D01*
X173196723Y-103810691D02*
X173006247Y-103858310D01*
X173006247Y-103858310D02*
X172863390Y-103858310D01*
X172863390Y-103858310D02*
X172672914Y-103810691D01*
X172672914Y-103810691D02*
X172577676Y-103763072D01*
X172577676Y-103763072D02*
X172482438Y-103667834D01*
X172482438Y-103667834D02*
X172434819Y-103524977D01*
X172434819Y-103524977D02*
X172434819Y-103429739D01*
X172434819Y-103429739D02*
X172482438Y-103286882D01*
X172482438Y-103286882D02*
X172530057Y-103239263D01*
X172530057Y-102858310D02*
X172482438Y-102810691D01*
X172482438Y-102810691D02*
X172434819Y-102715453D01*
X172434819Y-102715453D02*
X172434819Y-102477358D01*
X172434819Y-102477358D02*
X172482438Y-102382120D01*
X172482438Y-102382120D02*
X172530057Y-102334501D01*
X172530057Y-102334501D02*
X172625295Y-102286882D01*
X172625295Y-102286882D02*
X172720533Y-102286882D01*
X172720533Y-102286882D02*
X172863390Y-102334501D01*
X172863390Y-102334501D02*
X173434819Y-102905929D01*
X173434819Y-102905929D02*
X173434819Y-102286882D01*
X171374819Y-111696666D02*
X170898628Y-112029999D01*
X171374819Y-112268094D02*
X170374819Y-112268094D01*
X170374819Y-112268094D02*
X170374819Y-111887142D01*
X170374819Y-111887142D02*
X170422438Y-111791904D01*
X170422438Y-111791904D02*
X170470057Y-111744285D01*
X170470057Y-111744285D02*
X170565295Y-111696666D01*
X170565295Y-111696666D02*
X170708152Y-111696666D01*
X170708152Y-111696666D02*
X170803390Y-111744285D01*
X170803390Y-111744285D02*
X170851009Y-111791904D01*
X170851009Y-111791904D02*
X170898628Y-111887142D01*
X170898628Y-111887142D02*
X170898628Y-112268094D01*
X170708152Y-110839523D02*
X171374819Y-110839523D01*
X170327200Y-111077618D02*
X171041485Y-111315713D01*
X171041485Y-111315713D02*
X171041485Y-110696666D01*
X164570672Y-88080357D02*
X164618292Y-88127976D01*
X164618292Y-88127976D02*
X164665911Y-88270833D01*
X164665911Y-88270833D02*
X164665911Y-88366071D01*
X164665911Y-88366071D02*
X164618292Y-88508928D01*
X164618292Y-88508928D02*
X164523053Y-88604166D01*
X164523053Y-88604166D02*
X164427815Y-88651785D01*
X164427815Y-88651785D02*
X164237339Y-88699404D01*
X164237339Y-88699404D02*
X164094482Y-88699404D01*
X164094482Y-88699404D02*
X163904006Y-88651785D01*
X163904006Y-88651785D02*
X163808768Y-88604166D01*
X163808768Y-88604166D02*
X163713530Y-88508928D01*
X163713530Y-88508928D02*
X163665911Y-88366071D01*
X163665911Y-88366071D02*
X163665911Y-88270833D01*
X163665911Y-88270833D02*
X163713530Y-88127976D01*
X163713530Y-88127976D02*
X163761149Y-88080357D01*
X164665911Y-87127976D02*
X164665911Y-87699404D01*
X164665911Y-87413690D02*
X163665911Y-87413690D01*
X163665911Y-87413690D02*
X163808768Y-87508928D01*
X163808768Y-87508928D02*
X163904006Y-87604166D01*
X163904006Y-87604166D02*
X163951625Y-87699404D01*
X163665911Y-86794642D02*
X163665911Y-86175595D01*
X163665911Y-86175595D02*
X164046863Y-86508928D01*
X164046863Y-86508928D02*
X164046863Y-86366071D01*
X164046863Y-86366071D02*
X164094482Y-86270833D01*
X164094482Y-86270833D02*
X164142101Y-86223214D01*
X164142101Y-86223214D02*
X164237339Y-86175595D01*
X164237339Y-86175595D02*
X164475434Y-86175595D01*
X164475434Y-86175595D02*
X164570672Y-86223214D01*
X164570672Y-86223214D02*
X164618292Y-86270833D01*
X164618292Y-86270833D02*
X164665911Y-86366071D01*
X164665911Y-86366071D02*
X164665911Y-86651785D01*
X164665911Y-86651785D02*
X164618292Y-86747023D01*
X164618292Y-86747023D02*
X164570672Y-86794642D01*
X209555666Y-99754819D02*
X209555666Y-100469104D01*
X209555666Y-100469104D02*
X209508047Y-100611961D01*
X209508047Y-100611961D02*
X209412809Y-100707200D01*
X209412809Y-100707200D02*
X209269952Y-100754819D01*
X209269952Y-100754819D02*
X209174714Y-100754819D01*
X210555666Y-100754819D02*
X209984238Y-100754819D01*
X210269952Y-100754819D02*
X210269952Y-99754819D01*
X210269952Y-99754819D02*
X210174714Y-99897676D01*
X210174714Y-99897676D02*
X210079476Y-99992914D01*
X210079476Y-99992914D02*
X209984238Y-100040533D01*
X140808609Y-98982857D02*
X140332418Y-99316190D01*
X140808609Y-99554285D02*
X139808609Y-99554285D01*
X139808609Y-99554285D02*
X139808609Y-99173333D01*
X139808609Y-99173333D02*
X139856228Y-99078095D01*
X139856228Y-99078095D02*
X139903847Y-99030476D01*
X139903847Y-99030476D02*
X139999085Y-98982857D01*
X139999085Y-98982857D02*
X140141942Y-98982857D01*
X140141942Y-98982857D02*
X140237180Y-99030476D01*
X140237180Y-99030476D02*
X140284799Y-99078095D01*
X140284799Y-99078095D02*
X140332418Y-99173333D01*
X140332418Y-99173333D02*
X140332418Y-99554285D01*
X139808609Y-98649523D02*
X139808609Y-98030476D01*
X139808609Y-98030476D02*
X140189561Y-98363809D01*
X140189561Y-98363809D02*
X140189561Y-98220952D01*
X140189561Y-98220952D02*
X140237180Y-98125714D01*
X140237180Y-98125714D02*
X140284799Y-98078095D01*
X140284799Y-98078095D02*
X140380037Y-98030476D01*
X140380037Y-98030476D02*
X140618132Y-98030476D01*
X140618132Y-98030476D02*
X140713370Y-98078095D01*
X140713370Y-98078095D02*
X140760990Y-98125714D01*
X140760990Y-98125714D02*
X140808609Y-98220952D01*
X140808609Y-98220952D02*
X140808609Y-98506666D01*
X140808609Y-98506666D02*
X140760990Y-98601904D01*
X140760990Y-98601904D02*
X140713370Y-98649523D01*
X139808609Y-97411428D02*
X139808609Y-97316190D01*
X139808609Y-97316190D02*
X139856228Y-97220952D01*
X139856228Y-97220952D02*
X139903847Y-97173333D01*
X139903847Y-97173333D02*
X139999085Y-97125714D01*
X139999085Y-97125714D02*
X140189561Y-97078095D01*
X140189561Y-97078095D02*
X140427656Y-97078095D01*
X140427656Y-97078095D02*
X140618132Y-97125714D01*
X140618132Y-97125714D02*
X140713370Y-97173333D01*
X140713370Y-97173333D02*
X140760990Y-97220952D01*
X140760990Y-97220952D02*
X140808609Y-97316190D01*
X140808609Y-97316190D02*
X140808609Y-97411428D01*
X140808609Y-97411428D02*
X140760990Y-97506666D01*
X140760990Y-97506666D02*
X140713370Y-97554285D01*
X140713370Y-97554285D02*
X140618132Y-97601904D01*
X140618132Y-97601904D02*
X140427656Y-97649523D01*
X140427656Y-97649523D02*
X140189561Y-97649523D01*
X140189561Y-97649523D02*
X139999085Y-97601904D01*
X139999085Y-97601904D02*
X139903847Y-97554285D01*
X139903847Y-97554285D02*
X139856228Y-97506666D01*
X139856228Y-97506666D02*
X139808609Y-97411428D01*
X168033333Y-107104819D02*
X167700000Y-106628628D01*
X167461905Y-107104819D02*
X167461905Y-106104819D01*
X167461905Y-106104819D02*
X167842857Y-106104819D01*
X167842857Y-106104819D02*
X167938095Y-106152438D01*
X167938095Y-106152438D02*
X167985714Y-106200057D01*
X167985714Y-106200057D02*
X168033333Y-106295295D01*
X168033333Y-106295295D02*
X168033333Y-106438152D01*
X168033333Y-106438152D02*
X167985714Y-106533390D01*
X167985714Y-106533390D02*
X167938095Y-106581009D01*
X167938095Y-106581009D02*
X167842857Y-106628628D01*
X167842857Y-106628628D02*
X167461905Y-106628628D01*
X168938095Y-106104819D02*
X168461905Y-106104819D01*
X168461905Y-106104819D02*
X168414286Y-106581009D01*
X168414286Y-106581009D02*
X168461905Y-106533390D01*
X168461905Y-106533390D02*
X168557143Y-106485771D01*
X168557143Y-106485771D02*
X168795238Y-106485771D01*
X168795238Y-106485771D02*
X168890476Y-106533390D01*
X168890476Y-106533390D02*
X168938095Y-106581009D01*
X168938095Y-106581009D02*
X168985714Y-106676247D01*
X168985714Y-106676247D02*
X168985714Y-106914342D01*
X168985714Y-106914342D02*
X168938095Y-107009580D01*
X168938095Y-107009580D02*
X168890476Y-107057200D01*
X168890476Y-107057200D02*
X168795238Y-107104819D01*
X168795238Y-107104819D02*
X168557143Y-107104819D01*
X168557143Y-107104819D02*
X168461905Y-107057200D01*
X168461905Y-107057200D02*
X168414286Y-107009580D01*
X174370833Y-97179580D02*
X174323214Y-97227200D01*
X174323214Y-97227200D02*
X174180357Y-97274819D01*
X174180357Y-97274819D02*
X174085119Y-97274819D01*
X174085119Y-97274819D02*
X173942262Y-97227200D01*
X173942262Y-97227200D02*
X173847024Y-97131961D01*
X173847024Y-97131961D02*
X173799405Y-97036723D01*
X173799405Y-97036723D02*
X173751786Y-96846247D01*
X173751786Y-96846247D02*
X173751786Y-96703390D01*
X173751786Y-96703390D02*
X173799405Y-96512914D01*
X173799405Y-96512914D02*
X173847024Y-96417676D01*
X173847024Y-96417676D02*
X173942262Y-96322438D01*
X173942262Y-96322438D02*
X174085119Y-96274819D01*
X174085119Y-96274819D02*
X174180357Y-96274819D01*
X174180357Y-96274819D02*
X174323214Y-96322438D01*
X174323214Y-96322438D02*
X174370833Y-96370057D01*
X174847024Y-97274819D02*
X175037500Y-97274819D01*
X175037500Y-97274819D02*
X175132738Y-97227200D01*
X175132738Y-97227200D02*
X175180357Y-97179580D01*
X175180357Y-97179580D02*
X175275595Y-97036723D01*
X175275595Y-97036723D02*
X175323214Y-96846247D01*
X175323214Y-96846247D02*
X175323214Y-96465295D01*
X175323214Y-96465295D02*
X175275595Y-96370057D01*
X175275595Y-96370057D02*
X175227976Y-96322438D01*
X175227976Y-96322438D02*
X175132738Y-96274819D01*
X175132738Y-96274819D02*
X174942262Y-96274819D01*
X174942262Y-96274819D02*
X174847024Y-96322438D01*
X174847024Y-96322438D02*
X174799405Y-96370057D01*
X174799405Y-96370057D02*
X174751786Y-96465295D01*
X174751786Y-96465295D02*
X174751786Y-96703390D01*
X174751786Y-96703390D02*
X174799405Y-96798628D01*
X174799405Y-96798628D02*
X174847024Y-96846247D01*
X174847024Y-96846247D02*
X174942262Y-96893866D01*
X174942262Y-96893866D02*
X175132738Y-96893866D01*
X175132738Y-96893866D02*
X175227976Y-96846247D01*
X175227976Y-96846247D02*
X175275595Y-96798628D01*
X175275595Y-96798628D02*
X175323214Y-96703390D01*
X155924819Y-117172857D02*
X155448628Y-117506190D01*
X155924819Y-117744285D02*
X154924819Y-117744285D01*
X154924819Y-117744285D02*
X154924819Y-117363333D01*
X154924819Y-117363333D02*
X154972438Y-117268095D01*
X154972438Y-117268095D02*
X155020057Y-117220476D01*
X155020057Y-117220476D02*
X155115295Y-117172857D01*
X155115295Y-117172857D02*
X155258152Y-117172857D01*
X155258152Y-117172857D02*
X155353390Y-117220476D01*
X155353390Y-117220476D02*
X155401009Y-117268095D01*
X155401009Y-117268095D02*
X155448628Y-117363333D01*
X155448628Y-117363333D02*
X155448628Y-117744285D01*
X154924819Y-116839523D02*
X154924819Y-116220476D01*
X154924819Y-116220476D02*
X155305771Y-116553809D01*
X155305771Y-116553809D02*
X155305771Y-116410952D01*
X155305771Y-116410952D02*
X155353390Y-116315714D01*
X155353390Y-116315714D02*
X155401009Y-116268095D01*
X155401009Y-116268095D02*
X155496247Y-116220476D01*
X155496247Y-116220476D02*
X155734342Y-116220476D01*
X155734342Y-116220476D02*
X155829580Y-116268095D01*
X155829580Y-116268095D02*
X155877200Y-116315714D01*
X155877200Y-116315714D02*
X155924819Y-116410952D01*
X155924819Y-116410952D02*
X155924819Y-116696666D01*
X155924819Y-116696666D02*
X155877200Y-116791904D01*
X155877200Y-116791904D02*
X155829580Y-116839523D01*
X155353390Y-115649047D02*
X155305771Y-115744285D01*
X155305771Y-115744285D02*
X155258152Y-115791904D01*
X155258152Y-115791904D02*
X155162914Y-115839523D01*
X155162914Y-115839523D02*
X155115295Y-115839523D01*
X155115295Y-115839523D02*
X155020057Y-115791904D01*
X155020057Y-115791904D02*
X154972438Y-115744285D01*
X154972438Y-115744285D02*
X154924819Y-115649047D01*
X154924819Y-115649047D02*
X154924819Y-115458571D01*
X154924819Y-115458571D02*
X154972438Y-115363333D01*
X154972438Y-115363333D02*
X155020057Y-115315714D01*
X155020057Y-115315714D02*
X155115295Y-115268095D01*
X155115295Y-115268095D02*
X155162914Y-115268095D01*
X155162914Y-115268095D02*
X155258152Y-115315714D01*
X155258152Y-115315714D02*
X155305771Y-115363333D01*
X155305771Y-115363333D02*
X155353390Y-115458571D01*
X155353390Y-115458571D02*
X155353390Y-115649047D01*
X155353390Y-115649047D02*
X155401009Y-115744285D01*
X155401009Y-115744285D02*
X155448628Y-115791904D01*
X155448628Y-115791904D02*
X155543866Y-115839523D01*
X155543866Y-115839523D02*
X155734342Y-115839523D01*
X155734342Y-115839523D02*
X155829580Y-115791904D01*
X155829580Y-115791904D02*
X155877200Y-115744285D01*
X155877200Y-115744285D02*
X155924819Y-115649047D01*
X155924819Y-115649047D02*
X155924819Y-115458571D01*
X155924819Y-115458571D02*
X155877200Y-115363333D01*
X155877200Y-115363333D02*
X155829580Y-115315714D01*
X155829580Y-115315714D02*
X155734342Y-115268095D01*
X155734342Y-115268095D02*
X155543866Y-115268095D01*
X155543866Y-115268095D02*
X155448628Y-115315714D01*
X155448628Y-115315714D02*
X155401009Y-115363333D01*
X155401009Y-115363333D02*
X155353390Y-115458571D01*
X142554819Y-110111904D02*
X143364342Y-110111904D01*
X143364342Y-110111904D02*
X143459580Y-110064285D01*
X143459580Y-110064285D02*
X143507200Y-110016666D01*
X143507200Y-110016666D02*
X143554819Y-109921428D01*
X143554819Y-109921428D02*
X143554819Y-109730952D01*
X143554819Y-109730952D02*
X143507200Y-109635714D01*
X143507200Y-109635714D02*
X143459580Y-109588095D01*
X143459580Y-109588095D02*
X143364342Y-109540476D01*
X143364342Y-109540476D02*
X142554819Y-109540476D01*
X142554819Y-108635714D02*
X142554819Y-108826190D01*
X142554819Y-108826190D02*
X142602438Y-108921428D01*
X142602438Y-108921428D02*
X142650057Y-108969047D01*
X142650057Y-108969047D02*
X142792914Y-109064285D01*
X142792914Y-109064285D02*
X142983390Y-109111904D01*
X142983390Y-109111904D02*
X143364342Y-109111904D01*
X143364342Y-109111904D02*
X143459580Y-109064285D01*
X143459580Y-109064285D02*
X143507200Y-109016666D01*
X143507200Y-109016666D02*
X143554819Y-108921428D01*
X143554819Y-108921428D02*
X143554819Y-108730952D01*
X143554819Y-108730952D02*
X143507200Y-108635714D01*
X143507200Y-108635714D02*
X143459580Y-108588095D01*
X143459580Y-108588095D02*
X143364342Y-108540476D01*
X143364342Y-108540476D02*
X143126247Y-108540476D01*
X143126247Y-108540476D02*
X143031009Y-108588095D01*
X143031009Y-108588095D02*
X142983390Y-108635714D01*
X142983390Y-108635714D02*
X142935771Y-108730952D01*
X142935771Y-108730952D02*
X142935771Y-108921428D01*
X142935771Y-108921428D02*
X142983390Y-109016666D01*
X142983390Y-109016666D02*
X143031009Y-109064285D01*
X143031009Y-109064285D02*
X143126247Y-109111904D01*
X180762080Y-103106666D02*
X180809700Y-103154285D01*
X180809700Y-103154285D02*
X180857319Y-103297142D01*
X180857319Y-103297142D02*
X180857319Y-103392380D01*
X180857319Y-103392380D02*
X180809700Y-103535237D01*
X180809700Y-103535237D02*
X180714461Y-103630475D01*
X180714461Y-103630475D02*
X180619223Y-103678094D01*
X180619223Y-103678094D02*
X180428747Y-103725713D01*
X180428747Y-103725713D02*
X180285890Y-103725713D01*
X180285890Y-103725713D02*
X180095414Y-103678094D01*
X180095414Y-103678094D02*
X180000176Y-103630475D01*
X180000176Y-103630475D02*
X179904938Y-103535237D01*
X179904938Y-103535237D02*
X179857319Y-103392380D01*
X179857319Y-103392380D02*
X179857319Y-103297142D01*
X179857319Y-103297142D02*
X179904938Y-103154285D01*
X179904938Y-103154285D02*
X179952557Y-103106666D01*
X179857319Y-102773332D02*
X179857319Y-102154285D01*
X179857319Y-102154285D02*
X180238271Y-102487618D01*
X180238271Y-102487618D02*
X180238271Y-102344761D01*
X180238271Y-102344761D02*
X180285890Y-102249523D01*
X180285890Y-102249523D02*
X180333509Y-102201904D01*
X180333509Y-102201904D02*
X180428747Y-102154285D01*
X180428747Y-102154285D02*
X180666842Y-102154285D01*
X180666842Y-102154285D02*
X180762080Y-102201904D01*
X180762080Y-102201904D02*
X180809700Y-102249523D01*
X180809700Y-102249523D02*
X180857319Y-102344761D01*
X180857319Y-102344761D02*
X180857319Y-102630475D01*
X180857319Y-102630475D02*
X180809700Y-102725713D01*
X180809700Y-102725713D02*
X180762080Y-102773332D01*
X161656958Y-88571199D02*
X161323625Y-88095008D01*
X161085530Y-88571199D02*
X161085530Y-87571199D01*
X161085530Y-87571199D02*
X161466482Y-87571199D01*
X161466482Y-87571199D02*
X161561720Y-87618818D01*
X161561720Y-87618818D02*
X161609339Y-87666437D01*
X161609339Y-87666437D02*
X161656958Y-87761675D01*
X161656958Y-87761675D02*
X161656958Y-87904532D01*
X161656958Y-87904532D02*
X161609339Y-87999770D01*
X161609339Y-87999770D02*
X161561720Y-88047389D01*
X161561720Y-88047389D02*
X161466482Y-88095008D01*
X161466482Y-88095008D02*
X161085530Y-88095008D01*
X162037911Y-87666437D02*
X162085530Y-87618818D01*
X162085530Y-87618818D02*
X162180768Y-87571199D01*
X162180768Y-87571199D02*
X162418863Y-87571199D01*
X162418863Y-87571199D02*
X162514101Y-87618818D01*
X162514101Y-87618818D02*
X162561720Y-87666437D01*
X162561720Y-87666437D02*
X162609339Y-87761675D01*
X162609339Y-87761675D02*
X162609339Y-87856913D01*
X162609339Y-87856913D02*
X162561720Y-87999770D01*
X162561720Y-87999770D02*
X161990292Y-88571199D01*
X161990292Y-88571199D02*
X162609339Y-88571199D01*
X162942673Y-87571199D02*
X163561720Y-87571199D01*
X163561720Y-87571199D02*
X163228387Y-87952151D01*
X163228387Y-87952151D02*
X163371244Y-87952151D01*
X163371244Y-87952151D02*
X163466482Y-87999770D01*
X163466482Y-87999770D02*
X163514101Y-88047389D01*
X163514101Y-88047389D02*
X163561720Y-88142627D01*
X163561720Y-88142627D02*
X163561720Y-88380722D01*
X163561720Y-88380722D02*
X163514101Y-88475960D01*
X163514101Y-88475960D02*
X163466482Y-88523580D01*
X163466482Y-88523580D02*
X163371244Y-88571199D01*
X163371244Y-88571199D02*
X163085530Y-88571199D01*
X163085530Y-88571199D02*
X162990292Y-88523580D01*
X162990292Y-88523580D02*
X162942673Y-88475960D01*
X173919642Y-98164819D02*
X173586309Y-97688628D01*
X173348214Y-98164819D02*
X173348214Y-97164819D01*
X173348214Y-97164819D02*
X173729166Y-97164819D01*
X173729166Y-97164819D02*
X173824404Y-97212438D01*
X173824404Y-97212438D02*
X173872023Y-97260057D01*
X173872023Y-97260057D02*
X173919642Y-97355295D01*
X173919642Y-97355295D02*
X173919642Y-97498152D01*
X173919642Y-97498152D02*
X173872023Y-97593390D01*
X173872023Y-97593390D02*
X173824404Y-97641009D01*
X173824404Y-97641009D02*
X173729166Y-97688628D01*
X173729166Y-97688628D02*
X173348214Y-97688628D01*
X174872023Y-98164819D02*
X174300595Y-98164819D01*
X174586309Y-98164819D02*
X174586309Y-97164819D01*
X174586309Y-97164819D02*
X174491071Y-97307676D01*
X174491071Y-97307676D02*
X174395833Y-97402914D01*
X174395833Y-97402914D02*
X174300595Y-97450533D01*
X175729166Y-97498152D02*
X175729166Y-98164819D01*
X175491071Y-97117200D02*
X175252976Y-97831485D01*
X175252976Y-97831485D02*
X175872023Y-97831485D01*
X136154865Y-96024259D02*
X136154865Y-96833782D01*
X136154865Y-96833782D02*
X136202484Y-96929020D01*
X136202484Y-96929020D02*
X136250103Y-96976640D01*
X136250103Y-96976640D02*
X136345341Y-97024259D01*
X136345341Y-97024259D02*
X136535817Y-97024259D01*
X136535817Y-97024259D02*
X136631055Y-96976640D01*
X136631055Y-96976640D02*
X136678674Y-96929020D01*
X136678674Y-96929020D02*
X136726293Y-96833782D01*
X136726293Y-96833782D02*
X136726293Y-96024259D01*
X137154865Y-96119497D02*
X137202484Y-96071878D01*
X137202484Y-96071878D02*
X137297722Y-96024259D01*
X137297722Y-96024259D02*
X137535817Y-96024259D01*
X137535817Y-96024259D02*
X137631055Y-96071878D01*
X137631055Y-96071878D02*
X137678674Y-96119497D01*
X137678674Y-96119497D02*
X137726293Y-96214735D01*
X137726293Y-96214735D02*
X137726293Y-96309973D01*
X137726293Y-96309973D02*
X137678674Y-96452830D01*
X137678674Y-96452830D02*
X137107246Y-97024259D01*
X137107246Y-97024259D02*
X137726293Y-97024259D01*
X152680734Y-103004819D02*
X152347401Y-102528628D01*
X152109306Y-103004819D02*
X152109306Y-102004819D01*
X152109306Y-102004819D02*
X152490258Y-102004819D01*
X152490258Y-102004819D02*
X152585496Y-102052438D01*
X152585496Y-102052438D02*
X152633115Y-102100057D01*
X152633115Y-102100057D02*
X152680734Y-102195295D01*
X152680734Y-102195295D02*
X152680734Y-102338152D01*
X152680734Y-102338152D02*
X152633115Y-102433390D01*
X152633115Y-102433390D02*
X152585496Y-102481009D01*
X152585496Y-102481009D02*
X152490258Y-102528628D01*
X152490258Y-102528628D02*
X152109306Y-102528628D01*
X153061687Y-102100057D02*
X153109306Y-102052438D01*
X153109306Y-102052438D02*
X153204544Y-102004819D01*
X153204544Y-102004819D02*
X153442639Y-102004819D01*
X153442639Y-102004819D02*
X153537877Y-102052438D01*
X153537877Y-102052438D02*
X153585496Y-102100057D01*
X153585496Y-102100057D02*
X153633115Y-102195295D01*
X153633115Y-102195295D02*
X153633115Y-102290533D01*
X153633115Y-102290533D02*
X153585496Y-102433390D01*
X153585496Y-102433390D02*
X153014068Y-103004819D01*
X153014068Y-103004819D02*
X153633115Y-103004819D01*
X154252163Y-102004819D02*
X154347401Y-102004819D01*
X154347401Y-102004819D02*
X154442639Y-102052438D01*
X154442639Y-102052438D02*
X154490258Y-102100057D01*
X154490258Y-102100057D02*
X154537877Y-102195295D01*
X154537877Y-102195295D02*
X154585496Y-102385771D01*
X154585496Y-102385771D02*
X154585496Y-102623866D01*
X154585496Y-102623866D02*
X154537877Y-102814342D01*
X154537877Y-102814342D02*
X154490258Y-102909580D01*
X154490258Y-102909580D02*
X154442639Y-102957200D01*
X154442639Y-102957200D02*
X154347401Y-103004819D01*
X154347401Y-103004819D02*
X154252163Y-103004819D01*
X154252163Y-103004819D02*
X154156925Y-102957200D01*
X154156925Y-102957200D02*
X154109306Y-102909580D01*
X154109306Y-102909580D02*
X154061687Y-102814342D01*
X154061687Y-102814342D02*
X154014068Y-102623866D01*
X154014068Y-102623866D02*
X154014068Y-102385771D01*
X154014068Y-102385771D02*
X154061687Y-102195295D01*
X154061687Y-102195295D02*
X154109306Y-102100057D01*
X154109306Y-102100057D02*
X154156925Y-102052438D01*
X154156925Y-102052438D02*
X154252163Y-102004819D01*
X145361905Y-85104819D02*
X145361905Y-84104819D01*
X145361905Y-84104819D02*
X145600000Y-84104819D01*
X145600000Y-84104819D02*
X145742857Y-84152438D01*
X145742857Y-84152438D02*
X145838095Y-84247676D01*
X145838095Y-84247676D02*
X145885714Y-84342914D01*
X145885714Y-84342914D02*
X145933333Y-84533390D01*
X145933333Y-84533390D02*
X145933333Y-84676247D01*
X145933333Y-84676247D02*
X145885714Y-84866723D01*
X145885714Y-84866723D02*
X145838095Y-84961961D01*
X145838095Y-84961961D02*
X145742857Y-85057200D01*
X145742857Y-85057200D02*
X145600000Y-85104819D01*
X145600000Y-85104819D02*
X145361905Y-85104819D01*
X146266667Y-84104819D02*
X146885714Y-84104819D01*
X146885714Y-84104819D02*
X146552381Y-84485771D01*
X146552381Y-84485771D02*
X146695238Y-84485771D01*
X146695238Y-84485771D02*
X146790476Y-84533390D01*
X146790476Y-84533390D02*
X146838095Y-84581009D01*
X146838095Y-84581009D02*
X146885714Y-84676247D01*
X146885714Y-84676247D02*
X146885714Y-84914342D01*
X146885714Y-84914342D02*
X146838095Y-85009580D01*
X146838095Y-85009580D02*
X146790476Y-85057200D01*
X146790476Y-85057200D02*
X146695238Y-85104819D01*
X146695238Y-85104819D02*
X146409524Y-85104819D01*
X146409524Y-85104819D02*
X146314286Y-85057200D01*
X146314286Y-85057200D02*
X146266667Y-85009580D01*
X152680734Y-102804819D02*
X152347401Y-102328628D01*
X152109306Y-102804819D02*
X152109306Y-101804819D01*
X152109306Y-101804819D02*
X152490258Y-101804819D01*
X152490258Y-101804819D02*
X152585496Y-101852438D01*
X152585496Y-101852438D02*
X152633115Y-101900057D01*
X152633115Y-101900057D02*
X152680734Y-101995295D01*
X152680734Y-101995295D02*
X152680734Y-102138152D01*
X152680734Y-102138152D02*
X152633115Y-102233390D01*
X152633115Y-102233390D02*
X152585496Y-102281009D01*
X152585496Y-102281009D02*
X152490258Y-102328628D01*
X152490258Y-102328628D02*
X152109306Y-102328628D01*
X153061687Y-101900057D02*
X153109306Y-101852438D01*
X153109306Y-101852438D02*
X153204544Y-101804819D01*
X153204544Y-101804819D02*
X153442639Y-101804819D01*
X153442639Y-101804819D02*
X153537877Y-101852438D01*
X153537877Y-101852438D02*
X153585496Y-101900057D01*
X153585496Y-101900057D02*
X153633115Y-101995295D01*
X153633115Y-101995295D02*
X153633115Y-102090533D01*
X153633115Y-102090533D02*
X153585496Y-102233390D01*
X153585496Y-102233390D02*
X153014068Y-102804819D01*
X153014068Y-102804819D02*
X153633115Y-102804819D01*
X154585496Y-102804819D02*
X154014068Y-102804819D01*
X154299782Y-102804819D02*
X154299782Y-101804819D01*
X154299782Y-101804819D02*
X154204544Y-101947676D01*
X154204544Y-101947676D02*
X154109306Y-102042914D01*
X154109306Y-102042914D02*
X154014068Y-102090533D01*
X153174819Y-112222857D02*
X152698628Y-112556190D01*
X153174819Y-112794285D02*
X152174819Y-112794285D01*
X152174819Y-112794285D02*
X152174819Y-112413333D01*
X152174819Y-112413333D02*
X152222438Y-112318095D01*
X152222438Y-112318095D02*
X152270057Y-112270476D01*
X152270057Y-112270476D02*
X152365295Y-112222857D01*
X152365295Y-112222857D02*
X152508152Y-112222857D01*
X152508152Y-112222857D02*
X152603390Y-112270476D01*
X152603390Y-112270476D02*
X152651009Y-112318095D01*
X152651009Y-112318095D02*
X152698628Y-112413333D01*
X152698628Y-112413333D02*
X152698628Y-112794285D01*
X153174819Y-111270476D02*
X153174819Y-111841904D01*
X153174819Y-111556190D02*
X152174819Y-111556190D01*
X152174819Y-111556190D02*
X152317676Y-111651428D01*
X152317676Y-111651428D02*
X152412914Y-111746666D01*
X152412914Y-111746666D02*
X152460533Y-111841904D01*
X152603390Y-110699047D02*
X152555771Y-110794285D01*
X152555771Y-110794285D02*
X152508152Y-110841904D01*
X152508152Y-110841904D02*
X152412914Y-110889523D01*
X152412914Y-110889523D02*
X152365295Y-110889523D01*
X152365295Y-110889523D02*
X152270057Y-110841904D01*
X152270057Y-110841904D02*
X152222438Y-110794285D01*
X152222438Y-110794285D02*
X152174819Y-110699047D01*
X152174819Y-110699047D02*
X152174819Y-110508571D01*
X152174819Y-110508571D02*
X152222438Y-110413333D01*
X152222438Y-110413333D02*
X152270057Y-110365714D01*
X152270057Y-110365714D02*
X152365295Y-110318095D01*
X152365295Y-110318095D02*
X152412914Y-110318095D01*
X152412914Y-110318095D02*
X152508152Y-110365714D01*
X152508152Y-110365714D02*
X152555771Y-110413333D01*
X152555771Y-110413333D02*
X152603390Y-110508571D01*
X152603390Y-110508571D02*
X152603390Y-110699047D01*
X152603390Y-110699047D02*
X152651009Y-110794285D01*
X152651009Y-110794285D02*
X152698628Y-110841904D01*
X152698628Y-110841904D02*
X152793866Y-110889523D01*
X152793866Y-110889523D02*
X152984342Y-110889523D01*
X152984342Y-110889523D02*
X153079580Y-110841904D01*
X153079580Y-110841904D02*
X153127200Y-110794285D01*
X153127200Y-110794285D02*
X153174819Y-110699047D01*
X153174819Y-110699047D02*
X153174819Y-110508571D01*
X153174819Y-110508571D02*
X153127200Y-110413333D01*
X153127200Y-110413333D02*
X153079580Y-110365714D01*
X153079580Y-110365714D02*
X152984342Y-110318095D01*
X152984342Y-110318095D02*
X152793866Y-110318095D01*
X152793866Y-110318095D02*
X152698628Y-110365714D01*
X152698628Y-110365714D02*
X152651009Y-110413333D01*
X152651009Y-110413333D02*
X152603390Y-110508571D01*
X148454819Y-110138094D02*
X147454819Y-110138094D01*
X147454819Y-110138094D02*
X147454819Y-109899999D01*
X147454819Y-109899999D02*
X147502438Y-109757142D01*
X147502438Y-109757142D02*
X147597676Y-109661904D01*
X147597676Y-109661904D02*
X147692914Y-109614285D01*
X147692914Y-109614285D02*
X147883390Y-109566666D01*
X147883390Y-109566666D02*
X148026247Y-109566666D01*
X148026247Y-109566666D02*
X148216723Y-109614285D01*
X148216723Y-109614285D02*
X148311961Y-109661904D01*
X148311961Y-109661904D02*
X148407200Y-109757142D01*
X148407200Y-109757142D02*
X148454819Y-109899999D01*
X148454819Y-109899999D02*
X148454819Y-110138094D01*
X147550057Y-109185713D02*
X147502438Y-109138094D01*
X147502438Y-109138094D02*
X147454819Y-109042856D01*
X147454819Y-109042856D02*
X147454819Y-108804761D01*
X147454819Y-108804761D02*
X147502438Y-108709523D01*
X147502438Y-108709523D02*
X147550057Y-108661904D01*
X147550057Y-108661904D02*
X147645295Y-108614285D01*
X147645295Y-108614285D02*
X147740533Y-108614285D01*
X147740533Y-108614285D02*
X147883390Y-108661904D01*
X147883390Y-108661904D02*
X148454819Y-109233332D01*
X148454819Y-109233332D02*
X148454819Y-108614285D01*
X173919642Y-95739580D02*
X173872023Y-95787200D01*
X173872023Y-95787200D02*
X173729166Y-95834819D01*
X173729166Y-95834819D02*
X173633928Y-95834819D01*
X173633928Y-95834819D02*
X173491071Y-95787200D01*
X173491071Y-95787200D02*
X173395833Y-95691961D01*
X173395833Y-95691961D02*
X173348214Y-95596723D01*
X173348214Y-95596723D02*
X173300595Y-95406247D01*
X173300595Y-95406247D02*
X173300595Y-95263390D01*
X173300595Y-95263390D02*
X173348214Y-95072914D01*
X173348214Y-95072914D02*
X173395833Y-94977676D01*
X173395833Y-94977676D02*
X173491071Y-94882438D01*
X173491071Y-94882438D02*
X173633928Y-94834819D01*
X173633928Y-94834819D02*
X173729166Y-94834819D01*
X173729166Y-94834819D02*
X173872023Y-94882438D01*
X173872023Y-94882438D02*
X173919642Y-94930057D01*
X174872023Y-95834819D02*
X174300595Y-95834819D01*
X174586309Y-95834819D02*
X174586309Y-94834819D01*
X174586309Y-94834819D02*
X174491071Y-94977676D01*
X174491071Y-94977676D02*
X174395833Y-95072914D01*
X174395833Y-95072914D02*
X174300595Y-95120533D01*
X175491071Y-94834819D02*
X175586309Y-94834819D01*
X175586309Y-94834819D02*
X175681547Y-94882438D01*
X175681547Y-94882438D02*
X175729166Y-94930057D01*
X175729166Y-94930057D02*
X175776785Y-95025295D01*
X175776785Y-95025295D02*
X175824404Y-95215771D01*
X175824404Y-95215771D02*
X175824404Y-95453866D01*
X175824404Y-95453866D02*
X175776785Y-95644342D01*
X175776785Y-95644342D02*
X175729166Y-95739580D01*
X175729166Y-95739580D02*
X175681547Y-95787200D01*
X175681547Y-95787200D02*
X175586309Y-95834819D01*
X175586309Y-95834819D02*
X175491071Y-95834819D01*
X175491071Y-95834819D02*
X175395833Y-95787200D01*
X175395833Y-95787200D02*
X175348214Y-95739580D01*
X175348214Y-95739580D02*
X175300595Y-95644342D01*
X175300595Y-95644342D02*
X175252976Y-95453866D01*
X175252976Y-95453866D02*
X175252976Y-95215771D01*
X175252976Y-95215771D02*
X175300595Y-95025295D01*
X175300595Y-95025295D02*
X175348214Y-94930057D01*
X175348214Y-94930057D02*
X175395833Y-94882438D01*
X175395833Y-94882438D02*
X175491071Y-94834819D01*
X157694425Y-87279580D02*
X157646806Y-87327200D01*
X157646806Y-87327200D02*
X157503949Y-87374819D01*
X157503949Y-87374819D02*
X157408711Y-87374819D01*
X157408711Y-87374819D02*
X157265854Y-87327200D01*
X157265854Y-87327200D02*
X157170616Y-87231961D01*
X157170616Y-87231961D02*
X157122997Y-87136723D01*
X157122997Y-87136723D02*
X157075378Y-86946247D01*
X157075378Y-86946247D02*
X157075378Y-86803390D01*
X157075378Y-86803390D02*
X157122997Y-86612914D01*
X157122997Y-86612914D02*
X157170616Y-86517676D01*
X157170616Y-86517676D02*
X157265854Y-86422438D01*
X157265854Y-86422438D02*
X157408711Y-86374819D01*
X157408711Y-86374819D02*
X157503949Y-86374819D01*
X157503949Y-86374819D02*
X157646806Y-86422438D01*
X157646806Y-86422438D02*
X157694425Y-86470057D01*
X158646806Y-87374819D02*
X158075378Y-87374819D01*
X158361092Y-87374819D02*
X158361092Y-86374819D01*
X158361092Y-86374819D02*
X158265854Y-86517676D01*
X158265854Y-86517676D02*
X158170616Y-86612914D01*
X158170616Y-86612914D02*
X158075378Y-86660533D01*
X135808609Y-98982857D02*
X135332418Y-99316190D01*
X135808609Y-99554285D02*
X134808609Y-99554285D01*
X134808609Y-99554285D02*
X134808609Y-99173333D01*
X134808609Y-99173333D02*
X134856228Y-99078095D01*
X134856228Y-99078095D02*
X134903847Y-99030476D01*
X134903847Y-99030476D02*
X134999085Y-98982857D01*
X134999085Y-98982857D02*
X135141942Y-98982857D01*
X135141942Y-98982857D02*
X135237180Y-99030476D01*
X135237180Y-99030476D02*
X135284799Y-99078095D01*
X135284799Y-99078095D02*
X135332418Y-99173333D01*
X135332418Y-99173333D02*
X135332418Y-99554285D01*
X134903847Y-98601904D02*
X134856228Y-98554285D01*
X134856228Y-98554285D02*
X134808609Y-98459047D01*
X134808609Y-98459047D02*
X134808609Y-98220952D01*
X134808609Y-98220952D02*
X134856228Y-98125714D01*
X134856228Y-98125714D02*
X134903847Y-98078095D01*
X134903847Y-98078095D02*
X134999085Y-98030476D01*
X134999085Y-98030476D02*
X135094323Y-98030476D01*
X135094323Y-98030476D02*
X135237180Y-98078095D01*
X135237180Y-98078095D02*
X135808609Y-98649523D01*
X135808609Y-98649523D02*
X135808609Y-98030476D01*
X135237180Y-97459047D02*
X135189561Y-97554285D01*
X135189561Y-97554285D02*
X135141942Y-97601904D01*
X135141942Y-97601904D02*
X135046704Y-97649523D01*
X135046704Y-97649523D02*
X134999085Y-97649523D01*
X134999085Y-97649523D02*
X134903847Y-97601904D01*
X134903847Y-97601904D02*
X134856228Y-97554285D01*
X134856228Y-97554285D02*
X134808609Y-97459047D01*
X134808609Y-97459047D02*
X134808609Y-97268571D01*
X134808609Y-97268571D02*
X134856228Y-97173333D01*
X134856228Y-97173333D02*
X134903847Y-97125714D01*
X134903847Y-97125714D02*
X134999085Y-97078095D01*
X134999085Y-97078095D02*
X135046704Y-97078095D01*
X135046704Y-97078095D02*
X135141942Y-97125714D01*
X135141942Y-97125714D02*
X135189561Y-97173333D01*
X135189561Y-97173333D02*
X135237180Y-97268571D01*
X135237180Y-97268571D02*
X135237180Y-97459047D01*
X135237180Y-97459047D02*
X135284799Y-97554285D01*
X135284799Y-97554285D02*
X135332418Y-97601904D01*
X135332418Y-97601904D02*
X135427656Y-97649523D01*
X135427656Y-97649523D02*
X135618132Y-97649523D01*
X135618132Y-97649523D02*
X135713370Y-97601904D01*
X135713370Y-97601904D02*
X135760990Y-97554285D01*
X135760990Y-97554285D02*
X135808609Y-97459047D01*
X135808609Y-97459047D02*
X135808609Y-97268571D01*
X135808609Y-97268571D02*
X135760990Y-97173333D01*
X135760990Y-97173333D02*
X135713370Y-97125714D01*
X135713370Y-97125714D02*
X135618132Y-97078095D01*
X135618132Y-97078095D02*
X135427656Y-97078095D01*
X135427656Y-97078095D02*
X135332418Y-97125714D01*
X135332418Y-97125714D02*
X135284799Y-97173333D01*
X135284799Y-97173333D02*
X135237180Y-97268571D01*
X161648765Y-86452907D02*
X161315432Y-85976716D01*
X161077337Y-86452907D02*
X161077337Y-85452907D01*
X161077337Y-85452907D02*
X161458289Y-85452907D01*
X161458289Y-85452907D02*
X161553527Y-85500526D01*
X161553527Y-85500526D02*
X161601146Y-85548145D01*
X161601146Y-85548145D02*
X161648765Y-85643383D01*
X161648765Y-85643383D02*
X161648765Y-85786240D01*
X161648765Y-85786240D02*
X161601146Y-85881478D01*
X161601146Y-85881478D02*
X161553527Y-85929097D01*
X161553527Y-85929097D02*
X161458289Y-85976716D01*
X161458289Y-85976716D02*
X161077337Y-85976716D01*
X162601146Y-86452907D02*
X162029718Y-86452907D01*
X162315432Y-86452907D02*
X162315432Y-85452907D01*
X162315432Y-85452907D02*
X162220194Y-85595764D01*
X162220194Y-85595764D02*
X162124956Y-85691002D01*
X162124956Y-85691002D02*
X162029718Y-85738621D01*
X163505908Y-85452907D02*
X163029718Y-85452907D01*
X163029718Y-85452907D02*
X162982099Y-85929097D01*
X162982099Y-85929097D02*
X163029718Y-85881478D01*
X163029718Y-85881478D02*
X163124956Y-85833859D01*
X163124956Y-85833859D02*
X163363051Y-85833859D01*
X163363051Y-85833859D02*
X163458289Y-85881478D01*
X163458289Y-85881478D02*
X163505908Y-85929097D01*
X163505908Y-85929097D02*
X163553527Y-86024335D01*
X163553527Y-86024335D02*
X163553527Y-86262430D01*
X163553527Y-86262430D02*
X163505908Y-86357668D01*
X163505908Y-86357668D02*
X163458289Y-86405288D01*
X163458289Y-86405288D02*
X163363051Y-86452907D01*
X163363051Y-86452907D02*
X163124956Y-86452907D01*
X163124956Y-86452907D02*
X163029718Y-86405288D01*
X163029718Y-86405288D02*
X162982099Y-86357668D01*
X161618234Y-87304819D02*
X161284901Y-86828628D01*
X161046806Y-87304819D02*
X161046806Y-86304819D01*
X161046806Y-86304819D02*
X161427758Y-86304819D01*
X161427758Y-86304819D02*
X161522996Y-86352438D01*
X161522996Y-86352438D02*
X161570615Y-86400057D01*
X161570615Y-86400057D02*
X161618234Y-86495295D01*
X161618234Y-86495295D02*
X161618234Y-86638152D01*
X161618234Y-86638152D02*
X161570615Y-86733390D01*
X161570615Y-86733390D02*
X161522996Y-86781009D01*
X161522996Y-86781009D02*
X161427758Y-86828628D01*
X161427758Y-86828628D02*
X161046806Y-86828628D01*
X162570615Y-87304819D02*
X161999187Y-87304819D01*
X162284901Y-87304819D02*
X162284901Y-86304819D01*
X162284901Y-86304819D02*
X162189663Y-86447676D01*
X162189663Y-86447676D02*
X162094425Y-86542914D01*
X162094425Y-86542914D02*
X161999187Y-86590533D01*
X162903949Y-86304819D02*
X163570615Y-86304819D01*
X163570615Y-86304819D02*
X163142044Y-87304819D01*
X167904819Y-101144166D02*
X167428628Y-101477499D01*
X167904819Y-101715594D02*
X166904819Y-101715594D01*
X166904819Y-101715594D02*
X166904819Y-101334642D01*
X166904819Y-101334642D02*
X166952438Y-101239404D01*
X166952438Y-101239404D02*
X167000057Y-101191785D01*
X167000057Y-101191785D02*
X167095295Y-101144166D01*
X167095295Y-101144166D02*
X167238152Y-101144166D01*
X167238152Y-101144166D02*
X167333390Y-101191785D01*
X167333390Y-101191785D02*
X167381009Y-101239404D01*
X167381009Y-101239404D02*
X167428628Y-101334642D01*
X167428628Y-101334642D02*
X167428628Y-101715594D01*
X167000057Y-100763213D02*
X166952438Y-100715594D01*
X166952438Y-100715594D02*
X166904819Y-100620356D01*
X166904819Y-100620356D02*
X166904819Y-100382261D01*
X166904819Y-100382261D02*
X166952438Y-100287023D01*
X166952438Y-100287023D02*
X167000057Y-100239404D01*
X167000057Y-100239404D02*
X167095295Y-100191785D01*
X167095295Y-100191785D02*
X167190533Y-100191785D01*
X167190533Y-100191785D02*
X167333390Y-100239404D01*
X167333390Y-100239404D02*
X167904819Y-100810832D01*
X167904819Y-100810832D02*
X167904819Y-100191785D01*
X161618234Y-99504819D02*
X161284901Y-99028628D01*
X161046806Y-99504819D02*
X161046806Y-98504819D01*
X161046806Y-98504819D02*
X161427758Y-98504819D01*
X161427758Y-98504819D02*
X161522996Y-98552438D01*
X161522996Y-98552438D02*
X161570615Y-98600057D01*
X161570615Y-98600057D02*
X161618234Y-98695295D01*
X161618234Y-98695295D02*
X161618234Y-98838152D01*
X161618234Y-98838152D02*
X161570615Y-98933390D01*
X161570615Y-98933390D02*
X161522996Y-98981009D01*
X161522996Y-98981009D02*
X161427758Y-99028628D01*
X161427758Y-99028628D02*
X161046806Y-99028628D01*
X161999187Y-98600057D02*
X162046806Y-98552438D01*
X162046806Y-98552438D02*
X162142044Y-98504819D01*
X162142044Y-98504819D02*
X162380139Y-98504819D01*
X162380139Y-98504819D02*
X162475377Y-98552438D01*
X162475377Y-98552438D02*
X162522996Y-98600057D01*
X162522996Y-98600057D02*
X162570615Y-98695295D01*
X162570615Y-98695295D02*
X162570615Y-98790533D01*
X162570615Y-98790533D02*
X162522996Y-98933390D01*
X162522996Y-98933390D02*
X161951568Y-99504819D01*
X161951568Y-99504819D02*
X162570615Y-99504819D01*
X163475377Y-98504819D02*
X162999187Y-98504819D01*
X162999187Y-98504819D02*
X162951568Y-98981009D01*
X162951568Y-98981009D02*
X162999187Y-98933390D01*
X162999187Y-98933390D02*
X163094425Y-98885771D01*
X163094425Y-98885771D02*
X163332520Y-98885771D01*
X163332520Y-98885771D02*
X163427758Y-98933390D01*
X163427758Y-98933390D02*
X163475377Y-98981009D01*
X163475377Y-98981009D02*
X163522996Y-99076247D01*
X163522996Y-99076247D02*
X163522996Y-99314342D01*
X163522996Y-99314342D02*
X163475377Y-99409580D01*
X163475377Y-99409580D02*
X163427758Y-99457200D01*
X163427758Y-99457200D02*
X163332520Y-99504819D01*
X163332520Y-99504819D02*
X163094425Y-99504819D01*
X163094425Y-99504819D02*
X162999187Y-99457200D01*
X162999187Y-99457200D02*
X162951568Y-99409580D01*
X161618234Y-103004819D02*
X161284901Y-102528628D01*
X161046806Y-103004819D02*
X161046806Y-102004819D01*
X161046806Y-102004819D02*
X161427758Y-102004819D01*
X161427758Y-102004819D02*
X161522996Y-102052438D01*
X161522996Y-102052438D02*
X161570615Y-102100057D01*
X161570615Y-102100057D02*
X161618234Y-102195295D01*
X161618234Y-102195295D02*
X161618234Y-102338152D01*
X161618234Y-102338152D02*
X161570615Y-102433390D01*
X161570615Y-102433390D02*
X161522996Y-102481009D01*
X161522996Y-102481009D02*
X161427758Y-102528628D01*
X161427758Y-102528628D02*
X161046806Y-102528628D01*
X162570615Y-103004819D02*
X161999187Y-103004819D01*
X162284901Y-103004819D02*
X162284901Y-102004819D01*
X162284901Y-102004819D02*
X162189663Y-102147676D01*
X162189663Y-102147676D02*
X162094425Y-102242914D01*
X162094425Y-102242914D02*
X161999187Y-102290533D01*
X162951568Y-102100057D02*
X162999187Y-102052438D01*
X162999187Y-102052438D02*
X163094425Y-102004819D01*
X163094425Y-102004819D02*
X163332520Y-102004819D01*
X163332520Y-102004819D02*
X163427758Y-102052438D01*
X163427758Y-102052438D02*
X163475377Y-102100057D01*
X163475377Y-102100057D02*
X163522996Y-102195295D01*
X163522996Y-102195295D02*
X163522996Y-102290533D01*
X163522996Y-102290533D02*
X163475377Y-102433390D01*
X163475377Y-102433390D02*
X162903949Y-103004819D01*
X162903949Y-103004819D02*
X163522996Y-103004819D01*
X150404819Y-112222857D02*
X149928628Y-112556190D01*
X150404819Y-112794285D02*
X149404819Y-112794285D01*
X149404819Y-112794285D02*
X149404819Y-112413333D01*
X149404819Y-112413333D02*
X149452438Y-112318095D01*
X149452438Y-112318095D02*
X149500057Y-112270476D01*
X149500057Y-112270476D02*
X149595295Y-112222857D01*
X149595295Y-112222857D02*
X149738152Y-112222857D01*
X149738152Y-112222857D02*
X149833390Y-112270476D01*
X149833390Y-112270476D02*
X149881009Y-112318095D01*
X149881009Y-112318095D02*
X149928628Y-112413333D01*
X149928628Y-112413333D02*
X149928628Y-112794285D01*
X149404819Y-111889523D02*
X149404819Y-111270476D01*
X149404819Y-111270476D02*
X149785771Y-111603809D01*
X149785771Y-111603809D02*
X149785771Y-111460952D01*
X149785771Y-111460952D02*
X149833390Y-111365714D01*
X149833390Y-111365714D02*
X149881009Y-111318095D01*
X149881009Y-111318095D02*
X149976247Y-111270476D01*
X149976247Y-111270476D02*
X150214342Y-111270476D01*
X150214342Y-111270476D02*
X150309580Y-111318095D01*
X150309580Y-111318095D02*
X150357200Y-111365714D01*
X150357200Y-111365714D02*
X150404819Y-111460952D01*
X150404819Y-111460952D02*
X150404819Y-111746666D01*
X150404819Y-111746666D02*
X150357200Y-111841904D01*
X150357200Y-111841904D02*
X150309580Y-111889523D01*
X149404819Y-110413333D02*
X149404819Y-110603809D01*
X149404819Y-110603809D02*
X149452438Y-110699047D01*
X149452438Y-110699047D02*
X149500057Y-110746666D01*
X149500057Y-110746666D02*
X149642914Y-110841904D01*
X149642914Y-110841904D02*
X149833390Y-110889523D01*
X149833390Y-110889523D02*
X150214342Y-110889523D01*
X150214342Y-110889523D02*
X150309580Y-110841904D01*
X150309580Y-110841904D02*
X150357200Y-110794285D01*
X150357200Y-110794285D02*
X150404819Y-110699047D01*
X150404819Y-110699047D02*
X150404819Y-110508571D01*
X150404819Y-110508571D02*
X150357200Y-110413333D01*
X150357200Y-110413333D02*
X150309580Y-110365714D01*
X150309580Y-110365714D02*
X150214342Y-110318095D01*
X150214342Y-110318095D02*
X149976247Y-110318095D01*
X149976247Y-110318095D02*
X149881009Y-110365714D01*
X149881009Y-110365714D02*
X149833390Y-110413333D01*
X149833390Y-110413333D02*
X149785771Y-110508571D01*
X149785771Y-110508571D02*
X149785771Y-110699047D01*
X149785771Y-110699047D02*
X149833390Y-110794285D01*
X149833390Y-110794285D02*
X149881009Y-110841904D01*
X149881009Y-110841904D02*
X149976247Y-110889523D01*
X128916666Y-116604819D02*
X128916666Y-117319104D01*
X128916666Y-117319104D02*
X128869047Y-117461961D01*
X128869047Y-117461961D02*
X128773809Y-117557200D01*
X128773809Y-117557200D02*
X128630952Y-117604819D01*
X128630952Y-117604819D02*
X128535714Y-117604819D01*
X129345238Y-116700057D02*
X129392857Y-116652438D01*
X129392857Y-116652438D02*
X129488095Y-116604819D01*
X129488095Y-116604819D02*
X129726190Y-116604819D01*
X129726190Y-116604819D02*
X129821428Y-116652438D01*
X129821428Y-116652438D02*
X129869047Y-116700057D01*
X129869047Y-116700057D02*
X129916666Y-116795295D01*
X129916666Y-116795295D02*
X129916666Y-116890533D01*
X129916666Y-116890533D02*
X129869047Y-117033390D01*
X129869047Y-117033390D02*
X129297619Y-117604819D01*
X129297619Y-117604819D02*
X129916666Y-117604819D01*
X203278172Y-99382857D02*
X203325792Y-99430476D01*
X203325792Y-99430476D02*
X203373411Y-99573333D01*
X203373411Y-99573333D02*
X203373411Y-99668571D01*
X203373411Y-99668571D02*
X203325792Y-99811428D01*
X203325792Y-99811428D02*
X203230553Y-99906666D01*
X203230553Y-99906666D02*
X203135315Y-99954285D01*
X203135315Y-99954285D02*
X202944839Y-100001904D01*
X202944839Y-100001904D02*
X202801982Y-100001904D01*
X202801982Y-100001904D02*
X202611506Y-99954285D01*
X202611506Y-99954285D02*
X202516268Y-99906666D01*
X202516268Y-99906666D02*
X202421030Y-99811428D01*
X202421030Y-99811428D02*
X202373411Y-99668571D01*
X202373411Y-99668571D02*
X202373411Y-99573333D01*
X202373411Y-99573333D02*
X202421030Y-99430476D01*
X202421030Y-99430476D02*
X202468649Y-99382857D01*
X203373411Y-98430476D02*
X203373411Y-99001904D01*
X203373411Y-98716190D02*
X202373411Y-98716190D01*
X202373411Y-98716190D02*
X202516268Y-98811428D01*
X202516268Y-98811428D02*
X202611506Y-98906666D01*
X202611506Y-98906666D02*
X202659125Y-99001904D01*
X202706744Y-97573333D02*
X203373411Y-97573333D01*
X202325792Y-97811428D02*
X203040077Y-98049523D01*
X203040077Y-98049523D02*
X203040077Y-97430476D01*
X150118234Y-95004819D02*
X149784901Y-94528628D01*
X149546806Y-95004819D02*
X149546806Y-94004819D01*
X149546806Y-94004819D02*
X149927758Y-94004819D01*
X149927758Y-94004819D02*
X150022996Y-94052438D01*
X150022996Y-94052438D02*
X150070615Y-94100057D01*
X150070615Y-94100057D02*
X150118234Y-94195295D01*
X150118234Y-94195295D02*
X150118234Y-94338152D01*
X150118234Y-94338152D02*
X150070615Y-94433390D01*
X150070615Y-94433390D02*
X150022996Y-94481009D01*
X150022996Y-94481009D02*
X149927758Y-94528628D01*
X149927758Y-94528628D02*
X149546806Y-94528628D01*
X151070615Y-95004819D02*
X150499187Y-95004819D01*
X150784901Y-95004819D02*
X150784901Y-94004819D01*
X150784901Y-94004819D02*
X150689663Y-94147676D01*
X150689663Y-94147676D02*
X150594425Y-94242914D01*
X150594425Y-94242914D02*
X150499187Y-94290533D01*
X152022996Y-95004819D02*
X151451568Y-95004819D01*
X151737282Y-95004819D02*
X151737282Y-94004819D01*
X151737282Y-94004819D02*
X151642044Y-94147676D01*
X151642044Y-94147676D02*
X151546806Y-94242914D01*
X151546806Y-94242914D02*
X151451568Y-94290533D01*
X168074819Y-117172857D02*
X167598628Y-117506190D01*
X168074819Y-117744285D02*
X167074819Y-117744285D01*
X167074819Y-117744285D02*
X167074819Y-117363333D01*
X167074819Y-117363333D02*
X167122438Y-117268095D01*
X167122438Y-117268095D02*
X167170057Y-117220476D01*
X167170057Y-117220476D02*
X167265295Y-117172857D01*
X167265295Y-117172857D02*
X167408152Y-117172857D01*
X167408152Y-117172857D02*
X167503390Y-117220476D01*
X167503390Y-117220476D02*
X167551009Y-117268095D01*
X167551009Y-117268095D02*
X167598628Y-117363333D01*
X167598628Y-117363333D02*
X167598628Y-117744285D01*
X167170057Y-116791904D02*
X167122438Y-116744285D01*
X167122438Y-116744285D02*
X167074819Y-116649047D01*
X167074819Y-116649047D02*
X167074819Y-116410952D01*
X167074819Y-116410952D02*
X167122438Y-116315714D01*
X167122438Y-116315714D02*
X167170057Y-116268095D01*
X167170057Y-116268095D02*
X167265295Y-116220476D01*
X167265295Y-116220476D02*
X167360533Y-116220476D01*
X167360533Y-116220476D02*
X167503390Y-116268095D01*
X167503390Y-116268095D02*
X168074819Y-116839523D01*
X168074819Y-116839523D02*
X168074819Y-116220476D01*
X167408152Y-115363333D02*
X168074819Y-115363333D01*
X167027200Y-115601428D02*
X167741485Y-115839523D01*
X167741485Y-115839523D02*
X167741485Y-115220476D01*
X155924819Y-112222857D02*
X155448628Y-112556190D01*
X155924819Y-112794285D02*
X154924819Y-112794285D01*
X154924819Y-112794285D02*
X154924819Y-112413333D01*
X154924819Y-112413333D02*
X154972438Y-112318095D01*
X154972438Y-112318095D02*
X155020057Y-112270476D01*
X155020057Y-112270476D02*
X155115295Y-112222857D01*
X155115295Y-112222857D02*
X155258152Y-112222857D01*
X155258152Y-112222857D02*
X155353390Y-112270476D01*
X155353390Y-112270476D02*
X155401009Y-112318095D01*
X155401009Y-112318095D02*
X155448628Y-112413333D01*
X155448628Y-112413333D02*
X155448628Y-112794285D01*
X155924819Y-111270476D02*
X155924819Y-111841904D01*
X155924819Y-111556190D02*
X154924819Y-111556190D01*
X154924819Y-111556190D02*
X155067676Y-111651428D01*
X155067676Y-111651428D02*
X155162914Y-111746666D01*
X155162914Y-111746666D02*
X155210533Y-111841904D01*
X154924819Y-110413333D02*
X154924819Y-110603809D01*
X154924819Y-110603809D02*
X154972438Y-110699047D01*
X154972438Y-110699047D02*
X155020057Y-110746666D01*
X155020057Y-110746666D02*
X155162914Y-110841904D01*
X155162914Y-110841904D02*
X155353390Y-110889523D01*
X155353390Y-110889523D02*
X155734342Y-110889523D01*
X155734342Y-110889523D02*
X155829580Y-110841904D01*
X155829580Y-110841904D02*
X155877200Y-110794285D01*
X155877200Y-110794285D02*
X155924819Y-110699047D01*
X155924819Y-110699047D02*
X155924819Y-110508571D01*
X155924819Y-110508571D02*
X155877200Y-110413333D01*
X155877200Y-110413333D02*
X155829580Y-110365714D01*
X155829580Y-110365714D02*
X155734342Y-110318095D01*
X155734342Y-110318095D02*
X155496247Y-110318095D01*
X155496247Y-110318095D02*
X155401009Y-110365714D01*
X155401009Y-110365714D02*
X155353390Y-110413333D01*
X155353390Y-110413333D02*
X155305771Y-110508571D01*
X155305771Y-110508571D02*
X155305771Y-110699047D01*
X155305771Y-110699047D02*
X155353390Y-110794285D01*
X155353390Y-110794285D02*
X155401009Y-110841904D01*
X155401009Y-110841904D02*
X155496247Y-110889523D01*
X135557142Y-102004819D02*
X135223809Y-101528628D01*
X134985714Y-102004819D02*
X134985714Y-101004819D01*
X134985714Y-101004819D02*
X135366666Y-101004819D01*
X135366666Y-101004819D02*
X135461904Y-101052438D01*
X135461904Y-101052438D02*
X135509523Y-101100057D01*
X135509523Y-101100057D02*
X135557142Y-101195295D01*
X135557142Y-101195295D02*
X135557142Y-101338152D01*
X135557142Y-101338152D02*
X135509523Y-101433390D01*
X135509523Y-101433390D02*
X135461904Y-101481009D01*
X135461904Y-101481009D02*
X135366666Y-101528628D01*
X135366666Y-101528628D02*
X134985714Y-101528628D01*
X135890476Y-101004819D02*
X136509523Y-101004819D01*
X136509523Y-101004819D02*
X136176190Y-101385771D01*
X136176190Y-101385771D02*
X136319047Y-101385771D01*
X136319047Y-101385771D02*
X136414285Y-101433390D01*
X136414285Y-101433390D02*
X136461904Y-101481009D01*
X136461904Y-101481009D02*
X136509523Y-101576247D01*
X136509523Y-101576247D02*
X136509523Y-101814342D01*
X136509523Y-101814342D02*
X136461904Y-101909580D01*
X136461904Y-101909580D02*
X136414285Y-101957200D01*
X136414285Y-101957200D02*
X136319047Y-102004819D01*
X136319047Y-102004819D02*
X136033333Y-102004819D01*
X136033333Y-102004819D02*
X135938095Y-101957200D01*
X135938095Y-101957200D02*
X135890476Y-101909580D01*
X137461904Y-102004819D02*
X136890476Y-102004819D01*
X137176190Y-102004819D02*
X137176190Y-101004819D01*
X137176190Y-101004819D02*
X137080952Y-101147676D01*
X137080952Y-101147676D02*
X136985714Y-101242914D01*
X136985714Y-101242914D02*
X136890476Y-101290533D01*
X153174819Y-117172857D02*
X152698628Y-117506190D01*
X153174819Y-117744285D02*
X152174819Y-117744285D01*
X152174819Y-117744285D02*
X152174819Y-117363333D01*
X152174819Y-117363333D02*
X152222438Y-117268095D01*
X152222438Y-117268095D02*
X152270057Y-117220476D01*
X152270057Y-117220476D02*
X152365295Y-117172857D01*
X152365295Y-117172857D02*
X152508152Y-117172857D01*
X152508152Y-117172857D02*
X152603390Y-117220476D01*
X152603390Y-117220476D02*
X152651009Y-117268095D01*
X152651009Y-117268095D02*
X152698628Y-117363333D01*
X152698628Y-117363333D02*
X152698628Y-117744285D01*
X152174819Y-116839523D02*
X152174819Y-116220476D01*
X152174819Y-116220476D02*
X152555771Y-116553809D01*
X152555771Y-116553809D02*
X152555771Y-116410952D01*
X152555771Y-116410952D02*
X152603390Y-116315714D01*
X152603390Y-116315714D02*
X152651009Y-116268095D01*
X152651009Y-116268095D02*
X152746247Y-116220476D01*
X152746247Y-116220476D02*
X152984342Y-116220476D01*
X152984342Y-116220476D02*
X153079580Y-116268095D01*
X153079580Y-116268095D02*
X153127200Y-116315714D01*
X153127200Y-116315714D02*
X153174819Y-116410952D01*
X153174819Y-116410952D02*
X153174819Y-116696666D01*
X153174819Y-116696666D02*
X153127200Y-116791904D01*
X153127200Y-116791904D02*
X153079580Y-116839523D01*
X152174819Y-115887142D02*
X152174819Y-115220476D01*
X152174819Y-115220476D02*
X153174819Y-115649047D01*
X145156925Y-95209580D02*
X145109306Y-95257200D01*
X145109306Y-95257200D02*
X144966449Y-95304819D01*
X144966449Y-95304819D02*
X144871211Y-95304819D01*
X144871211Y-95304819D02*
X144728354Y-95257200D01*
X144728354Y-95257200D02*
X144633116Y-95161961D01*
X144633116Y-95161961D02*
X144585497Y-95066723D01*
X144585497Y-95066723D02*
X144537878Y-94876247D01*
X144537878Y-94876247D02*
X144537878Y-94733390D01*
X144537878Y-94733390D02*
X144585497Y-94542914D01*
X144585497Y-94542914D02*
X144633116Y-94447676D01*
X144633116Y-94447676D02*
X144728354Y-94352438D01*
X144728354Y-94352438D02*
X144871211Y-94304819D01*
X144871211Y-94304819D02*
X144966449Y-94304819D01*
X144966449Y-94304819D02*
X145109306Y-94352438D01*
X145109306Y-94352438D02*
X145156925Y-94400057D01*
X145728354Y-94733390D02*
X145633116Y-94685771D01*
X145633116Y-94685771D02*
X145585497Y-94638152D01*
X145585497Y-94638152D02*
X145537878Y-94542914D01*
X145537878Y-94542914D02*
X145537878Y-94495295D01*
X145537878Y-94495295D02*
X145585497Y-94400057D01*
X145585497Y-94400057D02*
X145633116Y-94352438D01*
X145633116Y-94352438D02*
X145728354Y-94304819D01*
X145728354Y-94304819D02*
X145918830Y-94304819D01*
X145918830Y-94304819D02*
X146014068Y-94352438D01*
X146014068Y-94352438D02*
X146061687Y-94400057D01*
X146061687Y-94400057D02*
X146109306Y-94495295D01*
X146109306Y-94495295D02*
X146109306Y-94542914D01*
X146109306Y-94542914D02*
X146061687Y-94638152D01*
X146061687Y-94638152D02*
X146014068Y-94685771D01*
X146014068Y-94685771D02*
X145918830Y-94733390D01*
X145918830Y-94733390D02*
X145728354Y-94733390D01*
X145728354Y-94733390D02*
X145633116Y-94781009D01*
X145633116Y-94781009D02*
X145585497Y-94828628D01*
X145585497Y-94828628D02*
X145537878Y-94923866D01*
X145537878Y-94923866D02*
X145537878Y-95114342D01*
X145537878Y-95114342D02*
X145585497Y-95209580D01*
X145585497Y-95209580D02*
X145633116Y-95257200D01*
X145633116Y-95257200D02*
X145728354Y-95304819D01*
X145728354Y-95304819D02*
X145918830Y-95304819D01*
X145918830Y-95304819D02*
X146014068Y-95257200D01*
X146014068Y-95257200D02*
X146061687Y-95209580D01*
X146061687Y-95209580D02*
X146109306Y-95114342D01*
X146109306Y-95114342D02*
X146109306Y-94923866D01*
X146109306Y-94923866D02*
X146061687Y-94828628D01*
X146061687Y-94828628D02*
X146014068Y-94781009D01*
X146014068Y-94781009D02*
X145918830Y-94733390D01*
X170720672Y-94866666D02*
X170768292Y-94914285D01*
X170768292Y-94914285D02*
X170815911Y-95057142D01*
X170815911Y-95057142D02*
X170815911Y-95152380D01*
X170815911Y-95152380D02*
X170768292Y-95295237D01*
X170768292Y-95295237D02*
X170673053Y-95390475D01*
X170673053Y-95390475D02*
X170577815Y-95438094D01*
X170577815Y-95438094D02*
X170387339Y-95485713D01*
X170387339Y-95485713D02*
X170244482Y-95485713D01*
X170244482Y-95485713D02*
X170054006Y-95438094D01*
X170054006Y-95438094D02*
X169958768Y-95390475D01*
X169958768Y-95390475D02*
X169863530Y-95295237D01*
X169863530Y-95295237D02*
X169815911Y-95152380D01*
X169815911Y-95152380D02*
X169815911Y-95057142D01*
X169815911Y-95057142D02*
X169863530Y-94914285D01*
X169863530Y-94914285D02*
X169911149Y-94866666D01*
X169815911Y-94009523D02*
X169815911Y-94199999D01*
X169815911Y-94199999D02*
X169863530Y-94295237D01*
X169863530Y-94295237D02*
X169911149Y-94342856D01*
X169911149Y-94342856D02*
X170054006Y-94438094D01*
X170054006Y-94438094D02*
X170244482Y-94485713D01*
X170244482Y-94485713D02*
X170625434Y-94485713D01*
X170625434Y-94485713D02*
X170720672Y-94438094D01*
X170720672Y-94438094D02*
X170768292Y-94390475D01*
X170768292Y-94390475D02*
X170815911Y-94295237D01*
X170815911Y-94295237D02*
X170815911Y-94104761D01*
X170815911Y-94104761D02*
X170768292Y-94009523D01*
X170768292Y-94009523D02*
X170720672Y-93961904D01*
X170720672Y-93961904D02*
X170625434Y-93914285D01*
X170625434Y-93914285D02*
X170387339Y-93914285D01*
X170387339Y-93914285D02*
X170292101Y-93961904D01*
X170292101Y-93961904D02*
X170244482Y-94009523D01*
X170244482Y-94009523D02*
X170196863Y-94104761D01*
X170196863Y-94104761D02*
X170196863Y-94295237D01*
X170196863Y-94295237D02*
X170244482Y-94390475D01*
X170244482Y-94390475D02*
X170292101Y-94438094D01*
X170292101Y-94438094D02*
X170387339Y-94485713D01*
X145156925Y-98409580D02*
X145109306Y-98457200D01*
X145109306Y-98457200D02*
X144966449Y-98504819D01*
X144966449Y-98504819D02*
X144871211Y-98504819D01*
X144871211Y-98504819D02*
X144728354Y-98457200D01*
X144728354Y-98457200D02*
X144633116Y-98361961D01*
X144633116Y-98361961D02*
X144585497Y-98266723D01*
X144585497Y-98266723D02*
X144537878Y-98076247D01*
X144537878Y-98076247D02*
X144537878Y-97933390D01*
X144537878Y-97933390D02*
X144585497Y-97742914D01*
X144585497Y-97742914D02*
X144633116Y-97647676D01*
X144633116Y-97647676D02*
X144728354Y-97552438D01*
X144728354Y-97552438D02*
X144871211Y-97504819D01*
X144871211Y-97504819D02*
X144966449Y-97504819D01*
X144966449Y-97504819D02*
X145109306Y-97552438D01*
X145109306Y-97552438D02*
X145156925Y-97600057D01*
X146061687Y-97504819D02*
X145585497Y-97504819D01*
X145585497Y-97504819D02*
X145537878Y-97981009D01*
X145537878Y-97981009D02*
X145585497Y-97933390D01*
X145585497Y-97933390D02*
X145680735Y-97885771D01*
X145680735Y-97885771D02*
X145918830Y-97885771D01*
X145918830Y-97885771D02*
X146014068Y-97933390D01*
X146014068Y-97933390D02*
X146061687Y-97981009D01*
X146061687Y-97981009D02*
X146109306Y-98076247D01*
X146109306Y-98076247D02*
X146109306Y-98314342D01*
X146109306Y-98314342D02*
X146061687Y-98409580D01*
X146061687Y-98409580D02*
X146014068Y-98457200D01*
X146014068Y-98457200D02*
X145918830Y-98504819D01*
X145918830Y-98504819D02*
X145680735Y-98504819D01*
X145680735Y-98504819D02*
X145585497Y-98457200D01*
X145585497Y-98457200D02*
X145537878Y-98409580D01*
X157195734Y-102879580D02*
X157148115Y-102927200D01*
X157148115Y-102927200D02*
X157005258Y-102974819D01*
X157005258Y-102974819D02*
X156910020Y-102974819D01*
X156910020Y-102974819D02*
X156767163Y-102927200D01*
X156767163Y-102927200D02*
X156671925Y-102831961D01*
X156671925Y-102831961D02*
X156624306Y-102736723D01*
X156624306Y-102736723D02*
X156576687Y-102546247D01*
X156576687Y-102546247D02*
X156576687Y-102403390D01*
X156576687Y-102403390D02*
X156624306Y-102212914D01*
X156624306Y-102212914D02*
X156671925Y-102117676D01*
X156671925Y-102117676D02*
X156767163Y-102022438D01*
X156767163Y-102022438D02*
X156910020Y-101974819D01*
X156910020Y-101974819D02*
X157005258Y-101974819D01*
X157005258Y-101974819D02*
X157148115Y-102022438D01*
X157148115Y-102022438D02*
X157195734Y-102070057D01*
X158148115Y-102974819D02*
X157576687Y-102974819D01*
X157862401Y-102974819D02*
X157862401Y-101974819D01*
X157862401Y-101974819D02*
X157767163Y-102117676D01*
X157767163Y-102117676D02*
X157671925Y-102212914D01*
X157671925Y-102212914D02*
X157576687Y-102260533D01*
X159100496Y-102974819D02*
X158529068Y-102974819D01*
X158814782Y-102974819D02*
X158814782Y-101974819D01*
X158814782Y-101974819D02*
X158719544Y-102117676D01*
X158719544Y-102117676D02*
X158624306Y-102212914D01*
X158624306Y-102212914D02*
X158529068Y-102260533D01*
X140557142Y-85304819D02*
X140223809Y-84828628D01*
X139985714Y-85304819D02*
X139985714Y-84304819D01*
X139985714Y-84304819D02*
X140366666Y-84304819D01*
X140366666Y-84304819D02*
X140461904Y-84352438D01*
X140461904Y-84352438D02*
X140509523Y-84400057D01*
X140509523Y-84400057D02*
X140557142Y-84495295D01*
X140557142Y-84495295D02*
X140557142Y-84638152D01*
X140557142Y-84638152D02*
X140509523Y-84733390D01*
X140509523Y-84733390D02*
X140461904Y-84781009D01*
X140461904Y-84781009D02*
X140366666Y-84828628D01*
X140366666Y-84828628D02*
X139985714Y-84828628D01*
X140890476Y-84304819D02*
X141509523Y-84304819D01*
X141509523Y-84304819D02*
X141176190Y-84685771D01*
X141176190Y-84685771D02*
X141319047Y-84685771D01*
X141319047Y-84685771D02*
X141414285Y-84733390D01*
X141414285Y-84733390D02*
X141461904Y-84781009D01*
X141461904Y-84781009D02*
X141509523Y-84876247D01*
X141509523Y-84876247D02*
X141509523Y-85114342D01*
X141509523Y-85114342D02*
X141461904Y-85209580D01*
X141461904Y-85209580D02*
X141414285Y-85257200D01*
X141414285Y-85257200D02*
X141319047Y-85304819D01*
X141319047Y-85304819D02*
X141033333Y-85304819D01*
X141033333Y-85304819D02*
X140938095Y-85257200D01*
X140938095Y-85257200D02*
X140890476Y-85209580D01*
X142414285Y-84304819D02*
X141938095Y-84304819D01*
X141938095Y-84304819D02*
X141890476Y-84781009D01*
X141890476Y-84781009D02*
X141938095Y-84733390D01*
X141938095Y-84733390D02*
X142033333Y-84685771D01*
X142033333Y-84685771D02*
X142271428Y-84685771D01*
X142271428Y-84685771D02*
X142366666Y-84733390D01*
X142366666Y-84733390D02*
X142414285Y-84781009D01*
X142414285Y-84781009D02*
X142461904Y-84876247D01*
X142461904Y-84876247D02*
X142461904Y-85114342D01*
X142461904Y-85114342D02*
X142414285Y-85209580D01*
X142414285Y-85209580D02*
X142366666Y-85257200D01*
X142366666Y-85257200D02*
X142271428Y-85304819D01*
X142271428Y-85304819D02*
X142033333Y-85304819D01*
X142033333Y-85304819D02*
X141938095Y-85257200D01*
X141938095Y-85257200D02*
X141890476Y-85209580D01*
X157195734Y-103154819D02*
X156862401Y-102678628D01*
X156624306Y-103154819D02*
X156624306Y-102154819D01*
X156624306Y-102154819D02*
X157005258Y-102154819D01*
X157005258Y-102154819D02*
X157100496Y-102202438D01*
X157100496Y-102202438D02*
X157148115Y-102250057D01*
X157148115Y-102250057D02*
X157195734Y-102345295D01*
X157195734Y-102345295D02*
X157195734Y-102488152D01*
X157195734Y-102488152D02*
X157148115Y-102583390D01*
X157148115Y-102583390D02*
X157100496Y-102631009D01*
X157100496Y-102631009D02*
X157005258Y-102678628D01*
X157005258Y-102678628D02*
X156624306Y-102678628D01*
X158148115Y-103154819D02*
X157576687Y-103154819D01*
X157862401Y-103154819D02*
X157862401Y-102154819D01*
X157862401Y-102154819D02*
X157767163Y-102297676D01*
X157767163Y-102297676D02*
X157671925Y-102392914D01*
X157671925Y-102392914D02*
X157576687Y-102440533D01*
X158624306Y-103154819D02*
X158814782Y-103154819D01*
X158814782Y-103154819D02*
X158910020Y-103107200D01*
X158910020Y-103107200D02*
X158957639Y-103059580D01*
X158957639Y-103059580D02*
X159052877Y-102916723D01*
X159052877Y-102916723D02*
X159100496Y-102726247D01*
X159100496Y-102726247D02*
X159100496Y-102345295D01*
X159100496Y-102345295D02*
X159052877Y-102250057D01*
X159052877Y-102250057D02*
X159005258Y-102202438D01*
X159005258Y-102202438D02*
X158910020Y-102154819D01*
X158910020Y-102154819D02*
X158719544Y-102154819D01*
X158719544Y-102154819D02*
X158624306Y-102202438D01*
X158624306Y-102202438D02*
X158576687Y-102250057D01*
X158576687Y-102250057D02*
X158529068Y-102345295D01*
X158529068Y-102345295D02*
X158529068Y-102583390D01*
X158529068Y-102583390D02*
X158576687Y-102678628D01*
X158576687Y-102678628D02*
X158624306Y-102726247D01*
X158624306Y-102726247D02*
X158719544Y-102773866D01*
X158719544Y-102773866D02*
X158910020Y-102773866D01*
X158910020Y-102773866D02*
X159005258Y-102726247D01*
X159005258Y-102726247D02*
X159052877Y-102678628D01*
X159052877Y-102678628D02*
X159100496Y-102583390D01*
X153704819Y-117262857D02*
X153228628Y-117596190D01*
X153704819Y-117834285D02*
X152704819Y-117834285D01*
X152704819Y-117834285D02*
X152704819Y-117453333D01*
X152704819Y-117453333D02*
X152752438Y-117358095D01*
X152752438Y-117358095D02*
X152800057Y-117310476D01*
X152800057Y-117310476D02*
X152895295Y-117262857D01*
X152895295Y-117262857D02*
X153038152Y-117262857D01*
X153038152Y-117262857D02*
X153133390Y-117310476D01*
X153133390Y-117310476D02*
X153181009Y-117358095D01*
X153181009Y-117358095D02*
X153228628Y-117453333D01*
X153228628Y-117453333D02*
X153228628Y-117834285D01*
X152704819Y-116929523D02*
X152704819Y-116310476D01*
X152704819Y-116310476D02*
X153085771Y-116643809D01*
X153085771Y-116643809D02*
X153085771Y-116500952D01*
X153085771Y-116500952D02*
X153133390Y-116405714D01*
X153133390Y-116405714D02*
X153181009Y-116358095D01*
X153181009Y-116358095D02*
X153276247Y-116310476D01*
X153276247Y-116310476D02*
X153514342Y-116310476D01*
X153514342Y-116310476D02*
X153609580Y-116358095D01*
X153609580Y-116358095D02*
X153657200Y-116405714D01*
X153657200Y-116405714D02*
X153704819Y-116500952D01*
X153704819Y-116500952D02*
X153704819Y-116786666D01*
X153704819Y-116786666D02*
X153657200Y-116881904D01*
X153657200Y-116881904D02*
X153609580Y-116929523D01*
X153038152Y-115453333D02*
X153704819Y-115453333D01*
X152657200Y-115691428D02*
X153371485Y-115929523D01*
X153371485Y-115929523D02*
X153371485Y-115310476D01*
X151158172Y-102062857D02*
X151205792Y-102110476D01*
X151205792Y-102110476D02*
X151253411Y-102253333D01*
X151253411Y-102253333D02*
X151253411Y-102348571D01*
X151253411Y-102348571D02*
X151205792Y-102491428D01*
X151205792Y-102491428D02*
X151110553Y-102586666D01*
X151110553Y-102586666D02*
X151015315Y-102634285D01*
X151015315Y-102634285D02*
X150824839Y-102681904D01*
X150824839Y-102681904D02*
X150681982Y-102681904D01*
X150681982Y-102681904D02*
X150491506Y-102634285D01*
X150491506Y-102634285D02*
X150396268Y-102586666D01*
X150396268Y-102586666D02*
X150301030Y-102491428D01*
X150301030Y-102491428D02*
X150253411Y-102348571D01*
X150253411Y-102348571D02*
X150253411Y-102253333D01*
X150253411Y-102253333D02*
X150301030Y-102110476D01*
X150301030Y-102110476D02*
X150348649Y-102062857D01*
X151253411Y-101110476D02*
X151253411Y-101681904D01*
X151253411Y-101396190D02*
X150253411Y-101396190D01*
X150253411Y-101396190D02*
X150396268Y-101491428D01*
X150396268Y-101491428D02*
X150491506Y-101586666D01*
X150491506Y-101586666D02*
X150539125Y-101681904D01*
X150348649Y-100729523D02*
X150301030Y-100681904D01*
X150301030Y-100681904D02*
X150253411Y-100586666D01*
X150253411Y-100586666D02*
X150253411Y-100348571D01*
X150253411Y-100348571D02*
X150301030Y-100253333D01*
X150301030Y-100253333D02*
X150348649Y-100205714D01*
X150348649Y-100205714D02*
X150443887Y-100158095D01*
X150443887Y-100158095D02*
X150539125Y-100158095D01*
X150539125Y-100158095D02*
X150681982Y-100205714D01*
X150681982Y-100205714D02*
X151253411Y-100777142D01*
X151253411Y-100777142D02*
X151253411Y-100158095D01*
X164594425Y-95304819D02*
X164261092Y-94828628D01*
X164022997Y-95304819D02*
X164022997Y-94304819D01*
X164022997Y-94304819D02*
X164403949Y-94304819D01*
X164403949Y-94304819D02*
X164499187Y-94352438D01*
X164499187Y-94352438D02*
X164546806Y-94400057D01*
X164546806Y-94400057D02*
X164594425Y-94495295D01*
X164594425Y-94495295D02*
X164594425Y-94638152D01*
X164594425Y-94638152D02*
X164546806Y-94733390D01*
X164546806Y-94733390D02*
X164499187Y-94781009D01*
X164499187Y-94781009D02*
X164403949Y-94828628D01*
X164403949Y-94828628D02*
X164022997Y-94828628D01*
X165070616Y-95304819D02*
X165261092Y-95304819D01*
X165261092Y-95304819D02*
X165356330Y-95257200D01*
X165356330Y-95257200D02*
X165403949Y-95209580D01*
X165403949Y-95209580D02*
X165499187Y-95066723D01*
X165499187Y-95066723D02*
X165546806Y-94876247D01*
X165546806Y-94876247D02*
X165546806Y-94495295D01*
X165546806Y-94495295D02*
X165499187Y-94400057D01*
X165499187Y-94400057D02*
X165451568Y-94352438D01*
X165451568Y-94352438D02*
X165356330Y-94304819D01*
X165356330Y-94304819D02*
X165165854Y-94304819D01*
X165165854Y-94304819D02*
X165070616Y-94352438D01*
X165070616Y-94352438D02*
X165022997Y-94400057D01*
X165022997Y-94400057D02*
X164975378Y-94495295D01*
X164975378Y-94495295D02*
X164975378Y-94733390D01*
X164975378Y-94733390D02*
X165022997Y-94828628D01*
X165022997Y-94828628D02*
X165070616Y-94876247D01*
X165070616Y-94876247D02*
X165165854Y-94923866D01*
X165165854Y-94923866D02*
X165356330Y-94923866D01*
X165356330Y-94923866D02*
X165451568Y-94876247D01*
X165451568Y-94876247D02*
X165499187Y-94828628D01*
X165499187Y-94828628D02*
X165546806Y-94733390D01*
X151654819Y-108285593D02*
X150654819Y-108285593D01*
X150654819Y-108285593D02*
X150654819Y-108047498D01*
X150654819Y-108047498D02*
X150702438Y-107904641D01*
X150702438Y-107904641D02*
X150797676Y-107809403D01*
X150797676Y-107809403D02*
X150892914Y-107761784D01*
X150892914Y-107761784D02*
X151083390Y-107714165D01*
X151083390Y-107714165D02*
X151226247Y-107714165D01*
X151226247Y-107714165D02*
X151416723Y-107761784D01*
X151416723Y-107761784D02*
X151511961Y-107809403D01*
X151511961Y-107809403D02*
X151607200Y-107904641D01*
X151607200Y-107904641D02*
X151654819Y-108047498D01*
X151654819Y-108047498D02*
X151654819Y-108285593D01*
X151654819Y-106761784D02*
X151654819Y-107333212D01*
X151654819Y-107047498D02*
X150654819Y-107047498D01*
X150654819Y-107047498D02*
X150797676Y-107142736D01*
X150797676Y-107142736D02*
X150892914Y-107237974D01*
X150892914Y-107237974D02*
X150940533Y-107333212D01*
X162495911Y-95461904D02*
X163305434Y-95461904D01*
X163305434Y-95461904D02*
X163400672Y-95414285D01*
X163400672Y-95414285D02*
X163448292Y-95366666D01*
X163448292Y-95366666D02*
X163495911Y-95271428D01*
X163495911Y-95271428D02*
X163495911Y-95080952D01*
X163495911Y-95080952D02*
X163448292Y-94985714D01*
X163448292Y-94985714D02*
X163400672Y-94938095D01*
X163400672Y-94938095D02*
X163305434Y-94890476D01*
X163305434Y-94890476D02*
X162495911Y-94890476D01*
X162495911Y-93938095D02*
X162495911Y-94414285D01*
X162495911Y-94414285D02*
X162972101Y-94461904D01*
X162972101Y-94461904D02*
X162924482Y-94414285D01*
X162924482Y-94414285D02*
X162876863Y-94319047D01*
X162876863Y-94319047D02*
X162876863Y-94080952D01*
X162876863Y-94080952D02*
X162924482Y-93985714D01*
X162924482Y-93985714D02*
X162972101Y-93938095D01*
X162972101Y-93938095D02*
X163067339Y-93890476D01*
X163067339Y-93890476D02*
X163305434Y-93890476D01*
X163305434Y-93890476D02*
X163400672Y-93938095D01*
X163400672Y-93938095D02*
X163448292Y-93985714D01*
X163448292Y-93985714D02*
X163495911Y-94080952D01*
X163495911Y-94080952D02*
X163495911Y-94319047D01*
X163495911Y-94319047D02*
X163448292Y-94414285D01*
X163448292Y-94414285D02*
X163400672Y-94461904D01*
X203229819Y-105191666D02*
X202753628Y-105524999D01*
X203229819Y-105763094D02*
X202229819Y-105763094D01*
X202229819Y-105763094D02*
X202229819Y-105382142D01*
X202229819Y-105382142D02*
X202277438Y-105286904D01*
X202277438Y-105286904D02*
X202325057Y-105239285D01*
X202325057Y-105239285D02*
X202420295Y-105191666D01*
X202420295Y-105191666D02*
X202563152Y-105191666D01*
X202563152Y-105191666D02*
X202658390Y-105239285D01*
X202658390Y-105239285D02*
X202706009Y-105286904D01*
X202706009Y-105286904D02*
X202753628Y-105382142D01*
X202753628Y-105382142D02*
X202753628Y-105763094D01*
X203229819Y-104239285D02*
X203229819Y-104810713D01*
X203229819Y-104524999D02*
X202229819Y-104524999D01*
X202229819Y-104524999D02*
X202372676Y-104620237D01*
X202372676Y-104620237D02*
X202467914Y-104715475D01*
X202467914Y-104715475D02*
X202515533Y-104810713D01*
X124528609Y-98673333D02*
X125242894Y-98673333D01*
X125242894Y-98673333D02*
X125385751Y-98720952D01*
X125385751Y-98720952D02*
X125480990Y-98816190D01*
X125480990Y-98816190D02*
X125528609Y-98959047D01*
X125528609Y-98959047D02*
X125528609Y-99054285D01*
X124528609Y-97720952D02*
X124528609Y-98197142D01*
X124528609Y-98197142D02*
X125004799Y-98244761D01*
X125004799Y-98244761D02*
X124957180Y-98197142D01*
X124957180Y-98197142D02*
X124909561Y-98101904D01*
X124909561Y-98101904D02*
X124909561Y-97863809D01*
X124909561Y-97863809D02*
X124957180Y-97768571D01*
X124957180Y-97768571D02*
X125004799Y-97720952D01*
X125004799Y-97720952D02*
X125100037Y-97673333D01*
X125100037Y-97673333D02*
X125338132Y-97673333D01*
X125338132Y-97673333D02*
X125433370Y-97720952D01*
X125433370Y-97720952D02*
X125480990Y-97768571D01*
X125480990Y-97768571D02*
X125528609Y-97863809D01*
X125528609Y-97863809D02*
X125528609Y-98101904D01*
X125528609Y-98101904D02*
X125480990Y-98197142D01*
X125480990Y-98197142D02*
X125433370Y-98244761D01*
X153294425Y-88104819D02*
X152961092Y-87628628D01*
X152722997Y-88104819D02*
X152722997Y-87104819D01*
X152722997Y-87104819D02*
X153103949Y-87104819D01*
X153103949Y-87104819D02*
X153199187Y-87152438D01*
X153199187Y-87152438D02*
X153246806Y-87200057D01*
X153246806Y-87200057D02*
X153294425Y-87295295D01*
X153294425Y-87295295D02*
X153294425Y-87438152D01*
X153294425Y-87438152D02*
X153246806Y-87533390D01*
X153246806Y-87533390D02*
X153199187Y-87581009D01*
X153199187Y-87581009D02*
X153103949Y-87628628D01*
X153103949Y-87628628D02*
X152722997Y-87628628D01*
X153627759Y-87104819D02*
X154294425Y-87104819D01*
X154294425Y-87104819D02*
X153865854Y-88104819D01*
X136388095Y-113732200D02*
X136530952Y-113779819D01*
X136530952Y-113779819D02*
X136769047Y-113779819D01*
X136769047Y-113779819D02*
X136864285Y-113732200D01*
X136864285Y-113732200D02*
X136911904Y-113684580D01*
X136911904Y-113684580D02*
X136959523Y-113589342D01*
X136959523Y-113589342D02*
X136959523Y-113494104D01*
X136959523Y-113494104D02*
X136911904Y-113398866D01*
X136911904Y-113398866D02*
X136864285Y-113351247D01*
X136864285Y-113351247D02*
X136769047Y-113303628D01*
X136769047Y-113303628D02*
X136578571Y-113256009D01*
X136578571Y-113256009D02*
X136483333Y-113208390D01*
X136483333Y-113208390D02*
X136435714Y-113160771D01*
X136435714Y-113160771D02*
X136388095Y-113065533D01*
X136388095Y-113065533D02*
X136388095Y-112970295D01*
X136388095Y-112970295D02*
X136435714Y-112875057D01*
X136435714Y-112875057D02*
X136483333Y-112827438D01*
X136483333Y-112827438D02*
X136578571Y-112779819D01*
X136578571Y-112779819D02*
X136816666Y-112779819D01*
X136816666Y-112779819D02*
X136959523Y-112827438D01*
X137911904Y-113779819D02*
X137340476Y-113779819D01*
X137626190Y-113779819D02*
X137626190Y-112779819D01*
X137626190Y-112779819D02*
X137530952Y-112922676D01*
X137530952Y-112922676D02*
X137435714Y-113017914D01*
X137435714Y-113017914D02*
X137340476Y-113065533D01*
X148765911Y-102042857D02*
X148289720Y-102376190D01*
X148765911Y-102614285D02*
X147765911Y-102614285D01*
X147765911Y-102614285D02*
X147765911Y-102233333D01*
X147765911Y-102233333D02*
X147813530Y-102138095D01*
X147813530Y-102138095D02*
X147861149Y-102090476D01*
X147861149Y-102090476D02*
X147956387Y-102042857D01*
X147956387Y-102042857D02*
X148099244Y-102042857D01*
X148099244Y-102042857D02*
X148194482Y-102090476D01*
X148194482Y-102090476D02*
X148242101Y-102138095D01*
X148242101Y-102138095D02*
X148289720Y-102233333D01*
X148289720Y-102233333D02*
X148289720Y-102614285D01*
X147861149Y-101661904D02*
X147813530Y-101614285D01*
X147813530Y-101614285D02*
X147765911Y-101519047D01*
X147765911Y-101519047D02*
X147765911Y-101280952D01*
X147765911Y-101280952D02*
X147813530Y-101185714D01*
X147813530Y-101185714D02*
X147861149Y-101138095D01*
X147861149Y-101138095D02*
X147956387Y-101090476D01*
X147956387Y-101090476D02*
X148051625Y-101090476D01*
X148051625Y-101090476D02*
X148194482Y-101138095D01*
X148194482Y-101138095D02*
X148765911Y-101709523D01*
X148765911Y-101709523D02*
X148765911Y-101090476D01*
X147861149Y-100709523D02*
X147813530Y-100661904D01*
X147813530Y-100661904D02*
X147765911Y-100566666D01*
X147765911Y-100566666D02*
X147765911Y-100328571D01*
X147765911Y-100328571D02*
X147813530Y-100233333D01*
X147813530Y-100233333D02*
X147861149Y-100185714D01*
X147861149Y-100185714D02*
X147956387Y-100138095D01*
X147956387Y-100138095D02*
X148051625Y-100138095D01*
X148051625Y-100138095D02*
X148194482Y-100185714D01*
X148194482Y-100185714D02*
X148765911Y-100757142D01*
X148765911Y-100757142D02*
X148765911Y-100138095D01*
X180709580Y-97066666D02*
X180757200Y-97114285D01*
X180757200Y-97114285D02*
X180804819Y-97257142D01*
X180804819Y-97257142D02*
X180804819Y-97352380D01*
X180804819Y-97352380D02*
X180757200Y-97495237D01*
X180757200Y-97495237D02*
X180661961Y-97590475D01*
X180661961Y-97590475D02*
X180566723Y-97638094D01*
X180566723Y-97638094D02*
X180376247Y-97685713D01*
X180376247Y-97685713D02*
X180233390Y-97685713D01*
X180233390Y-97685713D02*
X180042914Y-97638094D01*
X180042914Y-97638094D02*
X179947676Y-97590475D01*
X179947676Y-97590475D02*
X179852438Y-97495237D01*
X179852438Y-97495237D02*
X179804819Y-97352380D01*
X179804819Y-97352380D02*
X179804819Y-97257142D01*
X179804819Y-97257142D02*
X179852438Y-97114285D01*
X179852438Y-97114285D02*
X179900057Y-97066666D01*
X180138152Y-96209523D02*
X180804819Y-96209523D01*
X179757200Y-96447618D02*
X180471485Y-96685713D01*
X180471485Y-96685713D02*
X180471485Y-96066666D01*
D11*
%TO.C,U1*%
X172977500Y-105172500D02*
X172647500Y-105412500D01*
X172647500Y-104932500D01*
X172977500Y-105172500D01*
G36*
X172977500Y-105172500D02*
G01*
X172647500Y-105412500D01*
X172647500Y-104932500D01*
X172977500Y-105172500D01*
G37*
X176077500Y-104622500D02*
X175952500Y-104622500D01*
X176077500Y-101402500D02*
X176077500Y-104622500D01*
X175952500Y-101402500D02*
X176077500Y-101402500D01*
X172982500Y-104622500D02*
X172857500Y-104622500D01*
X172857500Y-104622500D02*
X172857500Y-101402500D01*
X172857500Y-101402500D02*
X172982500Y-101402500D01*
%TO.C,J6*%
X134440000Y-75080000D02*
X126710000Y-75080000D01*
X126710000Y-72320000D02*
X126710000Y-75080000D01*
X134440000Y-72320000D02*
X134440000Y-75080000D01*
X134440000Y-72320000D02*
X126710000Y-72320000D01*
X135710000Y-72320000D02*
X137090000Y-72320000D01*
X137090000Y-72320000D02*
X137090000Y-73700000D01*
%TO.C,J4*%
X142380000Y-85580000D02*
X139620000Y-85580000D01*
X142380000Y-88230000D02*
X142380000Y-85580000D01*
X142380000Y-88230000D02*
X139620000Y-88230000D01*
X139620000Y-88230000D02*
X139620000Y-85580000D01*
X142380000Y-89500000D02*
X142380000Y-90880000D01*
X142380000Y-90880000D02*
X141000000Y-90880000D01*
%TO.C,R10*%
X150534028Y-92515000D02*
X150988156Y-92515000D01*
X150534028Y-93985000D02*
X150988156Y-93985000D01*
%TO.C,R29*%
X135468790Y-98112936D02*
X135468790Y-98567064D01*
X136938790Y-98112936D02*
X136938790Y-98567064D01*
%TO.C,R6*%
X164988156Y-95465000D02*
X164534028Y-95465000D01*
X164988156Y-96935000D02*
X164534028Y-96935000D01*
%TO.C,C7*%
X163768752Y-119195000D02*
X163246248Y-119195000D01*
X163768752Y-120665000D02*
X163246248Y-120665000D01*
%TO.C,R32*%
X140772936Y-102465000D02*
X141227064Y-102465000D01*
X140772936Y-103935000D02*
X141227064Y-103935000D01*
%TO.C,R8*%
X153234028Y-87865000D02*
X153688156Y-87865000D01*
X153234028Y-89335000D02*
X153688156Y-89335000D01*
%TO.C,U3*%
X126390000Y-107700000D02*
X126390000Y-111460000D01*
X126390000Y-111460000D02*
X127650000Y-111460000D01*
X133210000Y-107700000D02*
X133210000Y-111460000D01*
X133210000Y-111460000D02*
X131950000Y-111460000D01*
X133110000Y-106420000D02*
X133440000Y-106180000D01*
X133440000Y-106660000D01*
X133110000Y-106420000D01*
G36*
X133440000Y-106660000D02*
G01*
X133110000Y-106420000D01*
X133440000Y-106180000D01*
X133440000Y-106660000D01*
G37*
%TO.C,U4*%
X161535000Y-109635000D02*
X165655000Y-109635000D01*
X161535000Y-109700000D02*
X161535000Y-109635000D01*
X161535000Y-118505000D02*
X161535000Y-118440000D01*
X165655000Y-109635000D02*
X165655000Y-109700000D01*
X165655000Y-118440000D02*
X165655000Y-118505000D01*
X165655000Y-118505000D02*
X161535000Y-118505000D01*
X166195000Y-118440000D02*
X166435000Y-118770000D01*
X165955000Y-118770000D01*
X166195000Y-118440000D01*
G36*
X166435000Y-118770000D02*
G01*
X165955000Y-118770000D01*
X166195000Y-118440000D01*
X166435000Y-118770000D01*
G37*
%TO.C,C2*%
X170565000Y-102811345D02*
X170565000Y-103333849D01*
X172035000Y-102811345D02*
X172035000Y-103333849D01*
%TO.C,R4*%
X168535000Y-111302936D02*
X168535000Y-111757064D01*
X170005000Y-111302936D02*
X170005000Y-111757064D01*
%TO.C,C13*%
X166971092Y-88148752D02*
X166971092Y-86726248D01*
X165151092Y-88148752D02*
X165151092Y-86726248D01*
%TO.C,J1*%
D12*
X171729000Y-110328000D02*
X171729000Y-115072000D01*
X171729000Y-120200000D02*
X171729000Y-118328000D01*
X178729000Y-110328000D02*
X178729000Y-115072000D01*
X178729000Y-120200000D02*
X178729000Y-118328000D01*
D13*
X175329000Y-106700000D02*
G75*
G02*
X175129000Y-106700000I-100000J0D01*
G01*
X175129000Y-106700000D02*
G75*
G02*
X175329000Y-106700000I100000J0D01*
G01*
%TO.C,R30*%
D11*
X137968790Y-98112936D02*
X137968790Y-98567064D01*
X139438790Y-98112936D02*
X139438790Y-98567064D01*
%TO.C,R5*%
X167972936Y-107565000D02*
X168427064Y-107565000D01*
X167972936Y-109035000D02*
X168427064Y-109035000D01*
%TO.C,C9*%
X174276248Y-97765000D02*
X174798752Y-97765000D01*
X174276248Y-99235000D02*
X174798752Y-99235000D01*
%TO.C,R38*%
X156385000Y-116757064D02*
X156385000Y-116302936D01*
X157855000Y-116757064D02*
X157855000Y-116302936D01*
%TO.C,U6*%
X135190000Y-107500000D02*
X135190000Y-111260000D01*
X135190000Y-111260000D02*
X136450000Y-111260000D01*
X142010000Y-107500000D02*
X142010000Y-111260000D01*
X142010000Y-111260000D02*
X140750000Y-111260000D01*
X141910000Y-106220000D02*
X142240000Y-105980000D01*
X142240000Y-106460000D01*
X141910000Y-106220000D01*
G36*
X142240000Y-106460000D02*
G01*
X141910000Y-106220000D01*
X142240000Y-105980000D01*
X142240000Y-106460000D01*
G37*
%TO.C,C3*%
X177642500Y-102228748D02*
X177642500Y-103651252D01*
X179462500Y-102228748D02*
X179462500Y-103651252D01*
%TO.C,R23*%
X162526880Y-85731380D02*
X162072752Y-85731380D01*
X162526880Y-87201380D02*
X162072752Y-87201380D01*
%TO.C,R14*%
X174789564Y-95325000D02*
X174335436Y-95325000D01*
X174789564Y-96795000D02*
X174335436Y-96795000D01*
%TO.C,U2*%
X118576770Y-95179440D02*
X124386770Y-95179440D01*
X118576770Y-95179440D02*
X118576770Y-76959440D01*
X138496770Y-95179440D02*
X138796770Y-95179440D01*
X138796770Y-95179440D02*
X138796770Y-76959440D01*
X118576770Y-76959440D02*
X125076770Y-76959440D01*
X138496770Y-76959440D02*
X138796770Y-76959440D01*
X125086770Y-95169440D02*
X125086770Y-95669440D01*
X124586770Y-95169440D01*
X125086770Y-95169440D01*
G36*
X125086770Y-95669440D02*
G01*
X124586770Y-95169440D01*
X125086770Y-95169440D01*
X125086770Y-95669440D01*
G37*
%TO.C,R20*%
X153096528Y-103465000D02*
X153550656Y-103465000D01*
X153096528Y-104935000D02*
X153550656Y-104935000D01*
%TO.C,D3*%
X146060000Y-85820000D02*
X145260000Y-85820000D01*
X146060000Y-85820000D02*
X146860000Y-85820000D01*
X146860000Y-85820000D02*
X146860000Y-86750000D01*
X146860000Y-88980000D02*
X145400000Y-88980000D01*
X146860000Y-88980000D02*
X146860000Y-88050000D01*
X144760000Y-85790000D02*
X144520000Y-85460000D01*
X145000000Y-85460000D01*
X144760000Y-85790000D01*
G36*
X144760000Y-85790000D02*
G01*
X144520000Y-85460000D01*
X145000000Y-85460000D01*
X144760000Y-85790000D01*
G37*
%TO.C,R21*%
X153550656Y-99965000D02*
X153096528Y-99965000D01*
X153550656Y-101435000D02*
X153096528Y-101435000D01*
%TO.C,R18*%
X153635000Y-111807064D02*
X153635000Y-111352936D01*
X155105000Y-111807064D02*
X155105000Y-111352936D01*
%TO.C,D2*%
X143850000Y-104890000D02*
X143850000Y-111900000D01*
X147150000Y-104890000D02*
X143850000Y-104890000D01*
X147150000Y-104890000D02*
X147150000Y-111900000D01*
%TO.C,C10*%
X174823752Y-92965000D02*
X174301248Y-92965000D01*
X174823752Y-94435000D02*
X174301248Y-94435000D01*
%TO.C,C1*%
X157599840Y-87865000D02*
X158122344Y-87865000D01*
X157599840Y-89335000D02*
X158122344Y-89335000D01*
%TO.C,R28*%
X132968790Y-98112936D02*
X132968790Y-98567064D01*
X134438790Y-98112936D02*
X134438790Y-98567064D01*
%TO.C,R15*%
X162518687Y-83613088D02*
X162064559Y-83613088D01*
X162518687Y-85083088D02*
X162064559Y-85083088D01*
%TO.C,R17*%
X162034028Y-87765000D02*
X162488156Y-87765000D01*
X162034028Y-89235000D02*
X162488156Y-89235000D01*
%TO.C,R2*%
X168365000Y-101204564D02*
X168365000Y-100750436D01*
X169835000Y-101204564D02*
X169835000Y-100750436D01*
%TO.C,R25*%
X162034028Y-99965000D02*
X162488156Y-99965000D01*
X162034028Y-101435000D02*
X162488156Y-101435000D01*
%TO.C,R12*%
X162034028Y-103465000D02*
X162488156Y-103465000D01*
X162034028Y-104935000D02*
X162488156Y-104935000D01*
%TO.C,R36*%
X150865000Y-111807064D02*
X150865000Y-111352936D01*
X152335000Y-111807064D02*
X152335000Y-111352936D01*
%TO.C,J2*%
X125150000Y-116050000D02*
X125150000Y-117300000D01*
X125450000Y-118600000D02*
X126200000Y-118600000D01*
X126200000Y-118600000D02*
X126200000Y-119940000D01*
X126400000Y-116050000D02*
X125150000Y-116050000D01*
X129250000Y-121550000D02*
X127260000Y-121550000D01*
X132300000Y-118600000D02*
X132300000Y-121550000D01*
X132300000Y-121550000D02*
X129250000Y-121550000D01*
X133050000Y-118600000D02*
X132300000Y-118600000D01*
X125440000Y-116340000D02*
X133060000Y-116340000D01*
X133060000Y-122310000D01*
X125440000Y-122310000D01*
X125440000Y-116340000D01*
X125450000Y-116350000D02*
X127250000Y-116350000D01*
X127250000Y-117100000D01*
X125450000Y-117100000D01*
X125450000Y-116350000D01*
X128750000Y-116350000D02*
X129750000Y-116350000D01*
X129750000Y-117100000D01*
X128750000Y-117100000D01*
X128750000Y-116350000D01*
X131250000Y-116350000D02*
X133050000Y-116350000D01*
X133050000Y-117100000D01*
X131250000Y-117100000D01*
X131250000Y-116350000D01*
%TO.C,C14*%
X166996092Y-102401248D02*
X166996092Y-102923752D01*
X165526092Y-102401248D02*
X165526092Y-102923752D01*
%TO.C,R11*%
X150534028Y-95465000D02*
X150988156Y-95465000D01*
X150534028Y-96935000D02*
X150988156Y-96935000D01*
%TO.C,R24*%
X168535000Y-116757064D02*
X168535000Y-116302936D01*
X170005000Y-116757064D02*
X170005000Y-116302936D01*
%TO.C,R16*%
X156385000Y-111807064D02*
X156385000Y-111352936D01*
X157855000Y-111807064D02*
X157855000Y-111352936D01*
%TO.C,R31*%
X135972936Y-102465000D02*
X136427064Y-102465000D01*
X135972936Y-103935000D02*
X136427064Y-103935000D01*
%TO.C,R37*%
X153635000Y-116757064D02*
X153635000Y-116302936D01*
X155105000Y-116757064D02*
X155105000Y-116302936D01*
%TO.C,C8*%
X146034844Y-92090000D02*
X144612340Y-92090000D01*
X146034844Y-93910000D02*
X144612340Y-93910000D01*
%TO.C,C6*%
X169421092Y-93988748D02*
X169421092Y-95411252D01*
X167601092Y-93988748D02*
X167601092Y-95411252D01*
%TO.C,C5*%
X146034844Y-95290000D02*
X144612340Y-95290000D01*
X146034844Y-97110000D02*
X144612340Y-97110000D01*
%TO.C,C11*%
X157577340Y-103465000D02*
X158099844Y-103465000D01*
X157577340Y-104935000D02*
X158099844Y-104935000D01*
%TO.C,R35*%
X141427064Y-83935000D02*
X140972936Y-83935000D01*
X141427064Y-82465000D02*
X140972936Y-82465000D01*
%TO.C,R19*%
X158065656Y-99965000D02*
X157611528Y-99965000D01*
X158065656Y-101435000D02*
X157611528Y-101435000D01*
%TO.C,R34*%
X152335000Y-116392936D02*
X152335000Y-116847064D01*
X150865000Y-116392936D02*
X150865000Y-116847064D01*
%TO.C,C12*%
X149853592Y-101158748D02*
X149853592Y-101681252D01*
X148383592Y-101158748D02*
X148383592Y-101681252D01*
%TO.C,R9*%
X164988156Y-92465000D02*
X164534028Y-92465000D01*
X164988156Y-93935000D02*
X164534028Y-93935000D01*
%TO.C,D1*%
X147740000Y-107502500D02*
X147790000Y-107502500D01*
X147740000Y-109022500D02*
X147740000Y-107502500D01*
X148740000Y-109022500D02*
X147740000Y-109022500D01*
X148910000Y-107502500D02*
X149690000Y-107502500D01*
X150810000Y-107502500D02*
X150860000Y-107502500D01*
X150860000Y-107502500D02*
X150860000Y-109022500D01*
X150860000Y-109022500D02*
X149860000Y-109022500D01*
X149680000Y-106962500D02*
X149350000Y-107202500D01*
X149350000Y-106722500D01*
X149680000Y-106962500D01*
G36*
X149680000Y-106962500D02*
G01*
X149350000Y-107202500D01*
X149350000Y-106722500D01*
X149680000Y-106962500D01*
G37*
%TO.C,U5*%
X162131092Y-92100000D02*
X162461092Y-91860000D01*
X162461092Y-92340000D01*
X162131092Y-92100000D01*
G36*
X162461092Y-92340000D02*
G01*
X162131092Y-92100000D01*
X162461092Y-91860000D01*
X162461092Y-92340000D01*
G37*
X162196092Y-92640000D02*
X162196092Y-96760000D01*
X162131092Y-92640000D02*
X162196092Y-92640000D01*
X153326092Y-92640000D02*
X153391092Y-92640000D01*
X162196092Y-96760000D02*
X162131092Y-96760000D01*
X153391092Y-96760000D02*
X153326092Y-96760000D01*
X153326092Y-96760000D02*
X153326092Y-92640000D01*
%TO.C,R1*%
X168365000Y-105404564D02*
X168365000Y-104950436D01*
X169835000Y-105404564D02*
X169835000Y-104950436D01*
%TO.C,J5*%
X126073790Y-99720000D02*
X126073790Y-98340000D01*
X127453790Y-99720000D02*
X126073790Y-99720000D01*
X128723790Y-99720000D02*
X131373790Y-99720000D01*
X128723790Y-99720000D02*
X128723790Y-96960000D01*
X131373790Y-99720000D02*
X131373790Y-96960000D01*
X128723790Y-96960000D02*
X131373790Y-96960000D01*
%TO.C,R7*%
X153688156Y-85265000D02*
X153234028Y-85265000D01*
X153688156Y-86735000D02*
X153234028Y-86735000D01*
%TO.C,S1*%
D12*
X134725000Y-116500000D02*
X147625000Y-116500000D01*
X134725000Y-117250000D02*
X134725000Y-116500000D01*
X134725000Y-121150000D02*
X134725000Y-122100000D01*
X134725000Y-122100000D02*
X147625000Y-122100000D01*
X147625000Y-116500000D02*
X147625000Y-117400000D01*
X147625000Y-122100000D02*
X147625000Y-121250000D01*
D13*
X137775000Y-115800000D02*
G75*
G02*
X137575000Y-115800000I-100000J0D01*
G01*
X137575000Y-115800000D02*
G75*
G02*
X137775000Y-115800000I100000J0D01*
G01*
%TO.C,R22*%
D11*
X147396092Y-101172936D02*
X147396092Y-101627064D01*
X145926092Y-101172936D02*
X145926092Y-101627064D01*
%TO.C,C4*%
X179410000Y-96188748D02*
X179410000Y-97611252D01*
X177590000Y-96188748D02*
X177590000Y-97611252D01*
%TD*%
M02*
