%TF.GenerationSoftware,KiCad,Pcbnew,10.0.3*%
%TF.CreationDate,2026-07-14T19:10:00-04:00*%
%TF.ProjectId,Electrocardiograma,456c6563-7472-46f6-9361-7264696f6772,009*%
%TF.SameCoordinates,Original*%
%TF.FileFunction,Other,Comment*%
%FSLAX46Y46*%
G04 Gerber Fmt 4.6, Leading zero omitted, Abs format (unit mm)*
G04 Created by KiCad (PCBNEW 10.0.3) date 2026-07-14 19:10:00*
%MOMM*%
%LPD*%
G01*
G04 APERTURE LIST*
%ADD10C,0.150000*%
%ADD11C,0.100000*%
G04 APERTURE END LIST*
D10*
X116654819Y-92231428D02*
X115654819Y-92231428D01*
X116654819Y-91660000D02*
X116083390Y-92088571D01*
X115654819Y-91660000D02*
X116226247Y-92231428D01*
X116131009Y-91231428D02*
X116131009Y-90898095D01*
X116654819Y-90755238D02*
X116654819Y-91231428D01*
X116654819Y-91231428D02*
X115654819Y-91231428D01*
X115654819Y-91231428D02*
X115654819Y-90755238D01*
X116131009Y-90326666D02*
X116131009Y-89993333D01*
X116654819Y-89850476D02*
X116654819Y-90326666D01*
X116654819Y-90326666D02*
X115654819Y-90326666D01*
X115654819Y-90326666D02*
X115654819Y-89850476D01*
X116654819Y-89421904D02*
X115654819Y-89421904D01*
X115654819Y-89421904D02*
X115654819Y-89040952D01*
X115654819Y-89040952D02*
X115702438Y-88945714D01*
X115702438Y-88945714D02*
X115750057Y-88898095D01*
X115750057Y-88898095D02*
X115845295Y-88850476D01*
X115845295Y-88850476D02*
X115988152Y-88850476D01*
X115988152Y-88850476D02*
X116083390Y-88898095D01*
X116083390Y-88898095D02*
X116131009Y-88945714D01*
X116131009Y-88945714D02*
X116178628Y-89040952D01*
X116178628Y-89040952D02*
X116178628Y-89421904D01*
X116273866Y-88421904D02*
X116273866Y-87660000D01*
X115654819Y-86993333D02*
X115654819Y-86802857D01*
X115654819Y-86802857D02*
X115702438Y-86707619D01*
X115702438Y-86707619D02*
X115797676Y-86612381D01*
X115797676Y-86612381D02*
X115988152Y-86564762D01*
X115988152Y-86564762D02*
X116321485Y-86564762D01*
X116321485Y-86564762D02*
X116511961Y-86612381D01*
X116511961Y-86612381D02*
X116607200Y-86707619D01*
X116607200Y-86707619D02*
X116654819Y-86802857D01*
X116654819Y-86802857D02*
X116654819Y-86993333D01*
X116654819Y-86993333D02*
X116607200Y-87088571D01*
X116607200Y-87088571D02*
X116511961Y-87183809D01*
X116511961Y-87183809D02*
X116321485Y-87231428D01*
X116321485Y-87231428D02*
X115988152Y-87231428D01*
X115988152Y-87231428D02*
X115797676Y-87183809D01*
X115797676Y-87183809D02*
X115702438Y-87088571D01*
X115702438Y-87088571D02*
X115654819Y-86993333D01*
X115654819Y-86136190D02*
X116464342Y-86136190D01*
X116464342Y-86136190D02*
X116559580Y-86088571D01*
X116559580Y-86088571D02*
X116607200Y-86040952D01*
X116607200Y-86040952D02*
X116654819Y-85945714D01*
X116654819Y-85945714D02*
X116654819Y-85755238D01*
X116654819Y-85755238D02*
X116607200Y-85660000D01*
X116607200Y-85660000D02*
X116559580Y-85612381D01*
X116559580Y-85612381D02*
X116464342Y-85564762D01*
X116464342Y-85564762D02*
X115654819Y-85564762D01*
X115654819Y-85231428D02*
X115654819Y-84660000D01*
X116654819Y-84945714D02*
X115654819Y-84945714D01*
X115654819Y-83659999D02*
X115654819Y-82993333D01*
X115654819Y-82993333D02*
X116654819Y-83659999D01*
X116654819Y-83659999D02*
X116654819Y-82993333D01*
X115654819Y-82421904D02*
X115654819Y-82231428D01*
X115654819Y-82231428D02*
X115702438Y-82136190D01*
X115702438Y-82136190D02*
X115797676Y-82040952D01*
X115797676Y-82040952D02*
X115988152Y-81993333D01*
X115988152Y-81993333D02*
X116321485Y-81993333D01*
X116321485Y-81993333D02*
X116511961Y-82040952D01*
X116511961Y-82040952D02*
X116607200Y-82136190D01*
X116607200Y-82136190D02*
X116654819Y-82231428D01*
X116654819Y-82231428D02*
X116654819Y-82421904D01*
X116654819Y-82421904D02*
X116607200Y-82517142D01*
X116607200Y-82517142D02*
X116511961Y-82612380D01*
X116511961Y-82612380D02*
X116321485Y-82659999D01*
X116321485Y-82659999D02*
X115988152Y-82659999D01*
X115988152Y-82659999D02*
X115797676Y-82612380D01*
X115797676Y-82612380D02*
X115702438Y-82517142D01*
X115702438Y-82517142D02*
X115654819Y-82421904D01*
X116654819Y-81564761D02*
X115654819Y-81564761D01*
X115654819Y-81564761D02*
X116654819Y-80993333D01*
X116654819Y-80993333D02*
X115654819Y-80993333D01*
X116131009Y-80517142D02*
X116131009Y-80183809D01*
X116654819Y-80040952D02*
X116654819Y-80517142D01*
X116654819Y-80517142D02*
X115654819Y-80517142D01*
X115654819Y-80517142D02*
X115654819Y-80040952D01*
D11*
X115561904Y-78086109D02*
X115323809Y-78086109D01*
X115323809Y-78086109D02*
X115300000Y-78324204D01*
X115300000Y-78324204D02*
X115323809Y-78300395D01*
X115323809Y-78300395D02*
X115371428Y-78276585D01*
X115371428Y-78276585D02*
X115490476Y-78276585D01*
X115490476Y-78276585D02*
X115538095Y-78300395D01*
X115538095Y-78300395D02*
X115561904Y-78324204D01*
X115561904Y-78324204D02*
X115585714Y-78371823D01*
X115585714Y-78371823D02*
X115585714Y-78490871D01*
X115585714Y-78490871D02*
X115561904Y-78538490D01*
X115561904Y-78538490D02*
X115538095Y-78562300D01*
X115538095Y-78562300D02*
X115490476Y-78586109D01*
X115490476Y-78586109D02*
X115371428Y-78586109D01*
X115371428Y-78586109D02*
X115323809Y-78562300D01*
X115323809Y-78562300D02*
X115300000Y-78538490D01*
X116180951Y-78586109D02*
X116180951Y-78252776D01*
X116180951Y-78300395D02*
X116204761Y-78276585D01*
X116204761Y-78276585D02*
X116252380Y-78252776D01*
X116252380Y-78252776D02*
X116323808Y-78252776D01*
X116323808Y-78252776D02*
X116371427Y-78276585D01*
X116371427Y-78276585D02*
X116395237Y-78324204D01*
X116395237Y-78324204D02*
X116395237Y-78586109D01*
X116395237Y-78324204D02*
X116419046Y-78276585D01*
X116419046Y-78276585D02*
X116466665Y-78252776D01*
X116466665Y-78252776D02*
X116538094Y-78252776D01*
X116538094Y-78252776D02*
X116585713Y-78276585D01*
X116585713Y-78276585D02*
X116609523Y-78324204D01*
X116609523Y-78324204D02*
X116609523Y-78586109D01*
X116847618Y-78586109D02*
X116847618Y-78252776D01*
X116847618Y-78300395D02*
X116871428Y-78276585D01*
X116871428Y-78276585D02*
X116919047Y-78252776D01*
X116919047Y-78252776D02*
X116990475Y-78252776D01*
X116990475Y-78252776D02*
X117038094Y-78276585D01*
X117038094Y-78276585D02*
X117061904Y-78324204D01*
X117061904Y-78324204D02*
X117061904Y-78586109D01*
X117061904Y-78324204D02*
X117085713Y-78276585D01*
X117085713Y-78276585D02*
X117133332Y-78252776D01*
X117133332Y-78252776D02*
X117204761Y-78252776D01*
X117204761Y-78252776D02*
X117252380Y-78276585D01*
X117252380Y-78276585D02*
X117276190Y-78324204D01*
X117276190Y-78324204D02*
X117276190Y-78586109D01*
X120726109Y-75098095D02*
X120726109Y-75336190D01*
X120726109Y-75336190D02*
X120964204Y-75359999D01*
X120964204Y-75359999D02*
X120940395Y-75336190D01*
X120940395Y-75336190D02*
X120916585Y-75288571D01*
X120916585Y-75288571D02*
X120916585Y-75169523D01*
X120916585Y-75169523D02*
X120940395Y-75121904D01*
X120940395Y-75121904D02*
X120964204Y-75098095D01*
X120964204Y-75098095D02*
X121011823Y-75074285D01*
X121011823Y-75074285D02*
X121130871Y-75074285D01*
X121130871Y-75074285D02*
X121178490Y-75098095D01*
X121178490Y-75098095D02*
X121202300Y-75121904D01*
X121202300Y-75121904D02*
X121226109Y-75169523D01*
X121226109Y-75169523D02*
X121226109Y-75288571D01*
X121226109Y-75288571D02*
X121202300Y-75336190D01*
X121202300Y-75336190D02*
X121178490Y-75359999D01*
X121226109Y-74479048D02*
X120892776Y-74479048D01*
X120940395Y-74479048D02*
X120916585Y-74455238D01*
X120916585Y-74455238D02*
X120892776Y-74407619D01*
X120892776Y-74407619D02*
X120892776Y-74336191D01*
X120892776Y-74336191D02*
X120916585Y-74288572D01*
X120916585Y-74288572D02*
X120964204Y-74264762D01*
X120964204Y-74264762D02*
X121226109Y-74264762D01*
X120964204Y-74264762D02*
X120916585Y-74240953D01*
X120916585Y-74240953D02*
X120892776Y-74193334D01*
X120892776Y-74193334D02*
X120892776Y-74121905D01*
X120892776Y-74121905D02*
X120916585Y-74074286D01*
X120916585Y-74074286D02*
X120964204Y-74050476D01*
X120964204Y-74050476D02*
X121226109Y-74050476D01*
X121226109Y-73812381D02*
X120892776Y-73812381D01*
X120940395Y-73812381D02*
X120916585Y-73788571D01*
X120916585Y-73788571D02*
X120892776Y-73740952D01*
X120892776Y-73740952D02*
X120892776Y-73669524D01*
X120892776Y-73669524D02*
X120916585Y-73621905D01*
X120916585Y-73621905D02*
X120964204Y-73598095D01*
X120964204Y-73598095D02*
X121226109Y-73598095D01*
X120964204Y-73598095D02*
X120916585Y-73574286D01*
X120916585Y-73574286D02*
X120892776Y-73526667D01*
X120892776Y-73526667D02*
X120892776Y-73455238D01*
X120892776Y-73455238D02*
X120916585Y-73407619D01*
X120916585Y-73407619D02*
X120964204Y-73383809D01*
X120964204Y-73383809D02*
X121226109Y-73383809D01*
D10*
X122369104Y-88921904D02*
X122369104Y-88445714D01*
X122654819Y-89017142D02*
X121654819Y-88683809D01*
X121654819Y-88683809D02*
X122654819Y-88350476D01*
X121988152Y-88017142D02*
X122654819Y-88017142D01*
X122083390Y-88017142D02*
X122035771Y-87969523D01*
X122035771Y-87969523D02*
X121988152Y-87874285D01*
X121988152Y-87874285D02*
X121988152Y-87731428D01*
X121988152Y-87731428D02*
X122035771Y-87636190D01*
X122035771Y-87636190D02*
X122131009Y-87588571D01*
X122131009Y-87588571D02*
X122654819Y-87588571D01*
X121988152Y-87255237D02*
X121988152Y-86874285D01*
X121654819Y-87112380D02*
X122511961Y-87112380D01*
X122511961Y-87112380D02*
X122607200Y-87064761D01*
X122607200Y-87064761D02*
X122654819Y-86969523D01*
X122654819Y-86969523D02*
X122654819Y-86874285D01*
X122607200Y-86159999D02*
X122654819Y-86255237D01*
X122654819Y-86255237D02*
X122654819Y-86445713D01*
X122654819Y-86445713D02*
X122607200Y-86540951D01*
X122607200Y-86540951D02*
X122511961Y-86588570D01*
X122511961Y-86588570D02*
X122131009Y-86588570D01*
X122131009Y-86588570D02*
X122035771Y-86540951D01*
X122035771Y-86540951D02*
X121988152Y-86445713D01*
X121988152Y-86445713D02*
X121988152Y-86255237D01*
X121988152Y-86255237D02*
X122035771Y-86159999D01*
X122035771Y-86159999D02*
X122131009Y-86112380D01*
X122131009Y-86112380D02*
X122226247Y-86112380D01*
X122226247Y-86112380D02*
X122321485Y-86588570D01*
X121988152Y-85683808D02*
X122654819Y-85683808D01*
X122083390Y-85683808D02*
X122035771Y-85636189D01*
X122035771Y-85636189D02*
X121988152Y-85540951D01*
X121988152Y-85540951D02*
X121988152Y-85398094D01*
X121988152Y-85398094D02*
X122035771Y-85302856D01*
X122035771Y-85302856D02*
X122131009Y-85255237D01*
X122131009Y-85255237D02*
X122654819Y-85255237D01*
X121988152Y-84779046D02*
X122654819Y-84779046D01*
X122083390Y-84779046D02*
X122035771Y-84731427D01*
X122035771Y-84731427D02*
X121988152Y-84636189D01*
X121988152Y-84636189D02*
X121988152Y-84493332D01*
X121988152Y-84493332D02*
X122035771Y-84398094D01*
X122035771Y-84398094D02*
X122131009Y-84350475D01*
X122131009Y-84350475D02*
X122654819Y-84350475D01*
X122654819Y-83445713D02*
X122131009Y-83445713D01*
X122131009Y-83445713D02*
X122035771Y-83493332D01*
X122035771Y-83493332D02*
X121988152Y-83588570D01*
X121988152Y-83588570D02*
X121988152Y-83779046D01*
X121988152Y-83779046D02*
X122035771Y-83874284D01*
X122607200Y-83445713D02*
X122654819Y-83540951D01*
X122654819Y-83540951D02*
X122654819Y-83779046D01*
X122654819Y-83779046D02*
X122607200Y-83874284D01*
X122607200Y-83874284D02*
X122511961Y-83921903D01*
X122511961Y-83921903D02*
X122416723Y-83921903D01*
X122416723Y-83921903D02*
X122321485Y-83874284D01*
X122321485Y-83874284D02*
X122273866Y-83779046D01*
X122273866Y-83779046D02*
X122273866Y-83540951D01*
X122273866Y-83540951D02*
X122226247Y-83445713D01*
%TO.C,U2*%
D11*
X114300000Y-77860000D02*
X114500000Y-77660000D01*
X114300000Y-77860000D02*
X114500000Y-78060000D01*
X118900000Y-77860000D02*
X114300000Y-77860000D01*
X118900000Y-77860000D02*
X118700000Y-77660000D01*
X118900000Y-77860000D02*
X118700000Y-78060000D01*
X121500000Y-72360000D02*
X121300000Y-72560000D01*
X121500000Y-72360000D02*
X121700000Y-72560000D01*
X121500000Y-76960000D02*
X121300000Y-76760000D01*
X121500000Y-76960000D02*
X121500000Y-72360000D01*
X121500000Y-76960000D02*
X121700000Y-76760000D01*
X121500000Y-95360000D02*
X121300000Y-95560000D01*
X121500000Y-95360000D02*
X121700000Y-95560000D01*
X121500000Y-99960000D02*
X121300000Y-99760000D01*
X121500000Y-99960000D02*
X121500000Y-95360000D01*
X121500000Y-99960000D02*
X121700000Y-99760000D01*
%TD*%
M02*
