%TF.GenerationSoftware,KiCad,Pcbnew,10.0.3*%
%TF.CreationDate,2026-07-01T02:31:46-04:00*%
%TF.ProjectId,Electrocardiograma,456c6563-7472-46f6-9361-7264696f6772,009*%
%TF.SameCoordinates,Original*%
%TF.FileFunction,Soldermask,Top*%
%TF.FilePolarity,Negative*%
%FSLAX46Y46*%
G04 Gerber Fmt 4.6, Leading zero omitted, Abs format (unit mm)*
G04 Created by KiCad (PCBNEW 10.0.3) date 2026-07-01 02:31:46*
%MOMM*%
%LPD*%
G01*
G04 APERTURE LIST*
G04 Aperture macros list*
%AMRoundRect*
0 Rectangle with rounded corners*
0 $1 Rounding radius*
0 $2 $3 $4 $5 $6 $7 $8 $9 X,Y pos of 4 corners*
0 Add a 4 corners polygon primitive as box body*
4,1,4,$2,$3,$4,$5,$6,$7,$8,$9,$2,$3,0*
0 Add four circle primitives for the rounded corners*
1,1,$1+$1,$2,$3*
1,1,$1+$1,$4,$5*
1,1,$1+$1,$6,$7*
1,1,$1+$1,$8,$9*
0 Add four rect primitives between the rounded corners*
20,1,$1+$1,$2,$3,$4,$5,0*
20,1,$1+$1,$4,$5,$6,$7,0*
20,1,$1+$1,$6,$7,$8,$9,0*
20,1,$1+$1,$8,$9,$2,$3,0*%
G04 Aperture macros list end*
%ADD10RoundRect,0.125000X0.125000X-0.687500X0.125000X0.687500X-0.125000X0.687500X-0.125000X-0.687500X0*%
%ADD11R,1.700000X1.700000*%
%ADD12C,1.700000*%
%ADD13RoundRect,0.250000X-0.350000X-0.450000X0.350000X-0.450000X0.350000X0.450000X-0.350000X0.450000X0*%
%ADD14RoundRect,0.250000X-0.450000X0.350000X-0.450000X-0.350000X0.450000X-0.350000X0.450000X0.350000X0*%
%ADD15RoundRect,0.250000X0.350000X0.450000X-0.350000X0.450000X-0.350000X-0.450000X0.350000X-0.450000X0*%
%ADD16RoundRect,0.250000X0.337500X0.475000X-0.337500X0.475000X-0.337500X-0.475000X0.337500X-0.475000X0*%
%ADD17RoundRect,0.375000X-0.375000X0.625000X-0.375000X-0.625000X0.375000X-0.625000X0.375000X0.625000X0*%
%ADD18RoundRect,0.500000X-1.400000X0.500000X-1.400000X-0.500000X1.400000X-0.500000X1.400000X0.500000X0*%
%ADD19RoundRect,0.150000X0.825000X0.150000X-0.825000X0.150000X-0.825000X-0.150000X0.825000X-0.150000X0*%
%ADD20RoundRect,0.250000X-0.475000X0.337500X-0.475000X-0.337500X0.475000X-0.337500X0.475000X0.337500X0*%
%ADD21RoundRect,0.250000X0.650000X-0.412500X0.650000X0.412500X-0.650000X0.412500X-0.650000X-0.412500X0*%
%ADD22C,1.200000*%
%ADD23O,2.820000X1.512000*%
%ADD24O,1.512000X2.820000*%
%ADD25RoundRect,0.250000X-0.337500X-0.475000X0.337500X-0.475000X0.337500X0.475000X-0.337500X0.475000X0*%
%ADD26RoundRect,0.250000X0.450000X-0.350000X0.450000X0.350000X-0.450000X0.350000X-0.450000X-0.350000X0*%
%ADD27RoundRect,0.250000X-0.650000X0.412500X-0.650000X-0.412500X0.650000X-0.412500X0.650000X0.412500X0*%
%ADD28R,0.900000X1.500000*%
%ADD29C,0.600000*%
%ADD30R,2.900000X2.900000*%
%ADD31RoundRect,0.200000X-0.750000X-0.200000X0.750000X-0.200000X0.750000X0.200000X-0.750000X0.200000X0*%
%ADD32RoundRect,0.250000X-0.650000X1.500000X-0.650000X-1.500000X0.650000X-1.500000X0.650000X1.500000X0*%
%ADD33RoundRect,0.250000X-0.600000X-0.750000X0.600000X-0.750000X0.600000X0.750000X-0.600000X0.750000X0*%
%ADD34O,1.700000X2.000000*%
%ADD35RoundRect,0.250000X0.412500X0.650000X-0.412500X0.650000X-0.412500X-0.650000X0.412500X-0.650000X0*%
%ADD36RoundRect,0.150000X-0.150000X0.587500X-0.150000X-0.587500X0.150000X-0.587500X0.150000X0.587500X0*%
%ADD37RoundRect,0.150000X-0.150000X0.825000X-0.150000X-0.825000X0.150000X-0.825000X0.150000X0.825000X0*%
%ADD38RoundRect,0.102000X-0.754000X-0.754000X0.754000X-0.754000X0.754000X0.754000X-0.754000X0.754000X0*%
%ADD39C,1.712000*%
%ADD40O,1.412000X2.620000*%
G04 APERTURE END LIST*
D10*
%TO.C,U1*%
X173492500Y-100900000D03*
X174142500Y-100900000D03*
X174792500Y-100900000D03*
X175442500Y-100900000D03*
X175442500Y-105125000D03*
X174792500Y-105125000D03*
X174142500Y-105125000D03*
X173492500Y-105125000D03*
%TD*%
D11*
%TO.C,J6*%
X135710000Y-73700000D03*
D12*
X133170000Y-73700000D03*
X130630000Y-73700000D03*
X128090000Y-73700000D03*
%TD*%
%TO.C,J4*%
X141000000Y-86960000D03*
D11*
X141000000Y-89500000D03*
%TD*%
D13*
%TO.C,R10*%
X151761092Y-93250000D03*
X149761092Y-93250000D03*
%TD*%
D14*
%TO.C,R29*%
X136203790Y-97340000D03*
X136203790Y-99340000D03*
%TD*%
D15*
%TO.C,R6*%
X163761092Y-96200000D03*
X165761092Y-96200000D03*
%TD*%
D16*
%TO.C,C7*%
X164545000Y-119930000D03*
X162470000Y-119930000D03*
%TD*%
D13*
%TO.C,R32*%
X140000000Y-103200000D03*
X142000000Y-103200000D03*
%TD*%
%TO.C,R8*%
X154461092Y-88600000D03*
X152461092Y-88600000D03*
%TD*%
D17*
%TO.C,U3*%
X132100000Y-106400000D03*
X129800000Y-106400000D03*
D18*
X129800000Y-112700000D03*
D17*
X127500000Y-106400000D03*
%TD*%
D19*
%TO.C,U4*%
X166070000Y-117880000D03*
X166070000Y-116610000D03*
X166070000Y-115340000D03*
X166070000Y-114070000D03*
X166070000Y-112800000D03*
X166070000Y-111530000D03*
X166070000Y-110260000D03*
X161120000Y-110260000D03*
X161120000Y-111530000D03*
X161120000Y-112800000D03*
X161120000Y-114070000D03*
X161120000Y-115340000D03*
X161120000Y-116610000D03*
X161120000Y-117880000D03*
%TD*%
D20*
%TO.C,C2*%
X171300000Y-102035097D03*
X171300000Y-104110097D03*
%TD*%
D14*
%TO.C,R4*%
X169270000Y-110530000D03*
X169270000Y-112530000D03*
%TD*%
D21*
%TO.C,C13*%
X166061092Y-85875000D03*
X166061092Y-89000000D03*
%TD*%
D22*
%TO.C,J1*%
X175229000Y-111200000D03*
X175229000Y-118200000D03*
D23*
X175229000Y-107900000D03*
D24*
X172379000Y-108700000D03*
X178079000Y-108700000D03*
X171929000Y-116700000D03*
X178529000Y-116700000D03*
%TD*%
D14*
%TO.C,R30*%
X138703790Y-97340000D03*
X138703790Y-99340000D03*
%TD*%
D13*
%TO.C,R5*%
X167200000Y-108300000D03*
X169200000Y-108300000D03*
%TD*%
D25*
%TO.C,C9*%
X173500000Y-98500000D03*
X175575000Y-98500000D03*
%TD*%
D26*
%TO.C,R38*%
X157120000Y-117530000D03*
X157120000Y-115530000D03*
%TD*%
D17*
%TO.C,U6*%
X140900000Y-106200000D03*
X138600000Y-106200000D03*
D18*
X138600000Y-112500000D03*
D17*
X136300000Y-106200000D03*
%TD*%
D27*
%TO.C,C3*%
X178552500Y-101377500D03*
X178552500Y-104502500D03*
%TD*%
D15*
%TO.C,R23*%
X161299816Y-86466380D03*
X163299816Y-86466380D03*
%TD*%
%TO.C,R14*%
X175562500Y-96060000D03*
X173562500Y-96060000D03*
%TD*%
D28*
%TO.C,U2*%
X125786770Y-94819440D03*
X127286770Y-94819440D03*
X128786770Y-94819440D03*
X130286770Y-94819440D03*
X131786770Y-94819440D03*
X133286770Y-94819440D03*
X134786770Y-94819440D03*
X136286770Y-94819440D03*
X137786770Y-94819440D03*
X137786770Y-77319440D03*
X136286770Y-77319440D03*
X134786770Y-77319440D03*
X133286770Y-77319440D03*
X131786770Y-77319440D03*
X130286770Y-77319440D03*
X128786770Y-77319440D03*
X127286770Y-77319440D03*
X125786770Y-77319440D03*
D29*
X131436770Y-86209440D03*
X132536770Y-86209440D03*
X130886770Y-85659440D03*
X131986770Y-85659440D03*
X133086770Y-85659440D03*
X131436770Y-85109440D03*
D30*
X131986770Y-85109440D03*
D29*
X132536770Y-85109440D03*
X130886770Y-84559440D03*
X131986770Y-84559440D03*
X133086770Y-84559440D03*
X131436770Y-84009440D03*
X132536770Y-84009440D03*
%TD*%
D13*
%TO.C,R20*%
X154323592Y-104200000D03*
X152323592Y-104200000D03*
%TD*%
D31*
%TO.C,D3*%
X144600000Y-86450000D03*
X144600000Y-88350000D03*
X147600000Y-87400000D03*
%TD*%
D15*
%TO.C,R21*%
X152323592Y-100700000D03*
X154323592Y-100700000D03*
%TD*%
D26*
%TO.C,R18*%
X154370000Y-112580000D03*
X154370000Y-110580000D03*
%TD*%
D32*
%TO.C,D2*%
X145500000Y-106900000D03*
X145500000Y-111900000D03*
%TD*%
D16*
%TO.C,C10*%
X175600000Y-93700000D03*
X173525000Y-93700000D03*
%TD*%
D25*
%TO.C,C1*%
X158898592Y-88600000D03*
X156823592Y-88600000D03*
%TD*%
D14*
%TO.C,R28*%
X133703790Y-97340000D03*
X133703790Y-99340000D03*
%TD*%
D15*
%TO.C,R15*%
X161291623Y-84348088D03*
X163291623Y-84348088D03*
%TD*%
D13*
%TO.C,R17*%
X163261092Y-88500000D03*
X161261092Y-88500000D03*
%TD*%
D26*
%TO.C,R2*%
X169100000Y-101977500D03*
X169100000Y-99977500D03*
%TD*%
D13*
%TO.C,R25*%
X163261092Y-100700000D03*
X161261092Y-100700000D03*
%TD*%
%TO.C,R12*%
X163261092Y-104200000D03*
X161261092Y-104200000D03*
%TD*%
D26*
%TO.C,R36*%
X151600000Y-112580000D03*
X151600000Y-110580000D03*
%TD*%
D22*
%TO.C,J2*%
X126400000Y-120800000D03*
D33*
X128000000Y-118800000D03*
D34*
X130500000Y-118800000D03*
%TD*%
D20*
%TO.C,C14*%
X166261092Y-103700000D03*
X166261092Y-101625000D03*
%TD*%
D13*
%TO.C,R11*%
X151761092Y-96200000D03*
X149761092Y-96200000D03*
%TD*%
D26*
%TO.C,R24*%
X169270000Y-117530000D03*
X169270000Y-115530000D03*
%TD*%
%TO.C,R16*%
X157120000Y-112580000D03*
X157120000Y-110580000D03*
%TD*%
D13*
%TO.C,R31*%
X135200000Y-103200000D03*
X137200000Y-103200000D03*
%TD*%
D26*
%TO.C,R37*%
X154370000Y-117530000D03*
X154370000Y-115530000D03*
%TD*%
D35*
%TO.C,C8*%
X143761092Y-93000000D03*
X146886092Y-93000000D03*
%TD*%
D27*
%TO.C,C6*%
X168511092Y-96262500D03*
X168511092Y-93137500D03*
%TD*%
D35*
%TO.C,C5*%
X143761092Y-96200000D03*
X146886092Y-96200000D03*
%TD*%
D25*
%TO.C,C11*%
X158876092Y-104200000D03*
X156801092Y-104200000D03*
%TD*%
D15*
%TO.C,R35*%
X142200000Y-83200000D03*
X140200000Y-83200000D03*
%TD*%
%TO.C,R19*%
X156838592Y-100700000D03*
X158838592Y-100700000D03*
%TD*%
D14*
%TO.C,R34*%
X151600000Y-115620000D03*
X151600000Y-117620000D03*
%TD*%
D20*
%TO.C,C12*%
X149118592Y-102457500D03*
X149118592Y-100382500D03*
%TD*%
D15*
%TO.C,R9*%
X163761092Y-93200000D03*
X165761092Y-93200000D03*
%TD*%
D36*
%TO.C,D1*%
X150250000Y-107325000D03*
X148350000Y-107325000D03*
X149300000Y-109200000D03*
%TD*%
D37*
%TO.C,U5*%
X161571092Y-97175000D03*
X160301092Y-97175000D03*
X159031092Y-97175000D03*
X157761092Y-97175000D03*
X156491092Y-97175000D03*
X155221092Y-97175000D03*
X153951092Y-97175000D03*
X153951092Y-92225000D03*
X155221092Y-92225000D03*
X156491092Y-92225000D03*
X157761092Y-92225000D03*
X159031092Y-92225000D03*
X160301092Y-92225000D03*
X161571092Y-92225000D03*
%TD*%
D26*
%TO.C,R1*%
X169100000Y-106177500D03*
X169100000Y-104177500D03*
%TD*%
D11*
%TO.C,J5*%
X127453790Y-98340000D03*
D12*
X129993790Y-98340000D03*
%TD*%
D15*
%TO.C,R7*%
X152461092Y-86000000D03*
X154461092Y-86000000D03*
%TD*%
D38*
%TO.C,S1*%
X138175000Y-119300000D03*
D39*
X141175000Y-119300000D03*
X144175000Y-119300000D03*
D40*
X134925000Y-119300000D03*
X147425000Y-119300000D03*
%TD*%
D14*
%TO.C,R22*%
X146661092Y-102400000D03*
X146661092Y-100400000D03*
%TD*%
D27*
%TO.C,C4*%
X178500000Y-95337500D03*
X178500000Y-98462500D03*
%TD*%
M02*
